<svg width="569" height="232" viewBox="0 0 569 232" fill="none" xmlns="http://www.w3.org/2000/svg">
<rect x="0.5" y="0.5" width="524" height="192" rx="14.5" stroke="#FA7FC1"/>
<line y1="25.2333" x2="525" y2="25.2333" stroke="#FA7FC1"/>
<path d="M43.552 96L41.2 87.504H31.264L28.96 96H22.624L32.032 62.496H40.768L50.224 96H43.552ZM36.448 68.688H36.064L32.368 82.368H40.144L36.448 68.688ZM65.1812 96V62.496H71.4692V90.816H86.3012V96H65.1812ZM103.562 96V62.496H109.85V90.816H124.682V96H103.562ZM141.128 96V62.496H162.296V67.68H147.416V76.416H161.768V81.6H147.416V90.816H162.296V96H141.128ZM25.84 158V124.496H38.56C41.824 124.496 44.32 125.424 46.048 127.28C47.776 129.136 48.64 131.664 48.64 134.864C48.64 138.064 47.776 140.592 46.048 142.448C44.32 144.304 41.824 145.232 38.56 145.232H32.128V158H25.84ZM32.128 140.096H37.264C38.96 140.096 40.176 139.76 40.912 139.088C41.648 138.384 42.016 137.28 42.016 135.776V133.952C42.016 132.448 41.648 131.36 40.912 130.688C40.176 129.984 38.96 129.632 37.264 129.632H32.128V140.096ZM70.5092 158H64.2212V124.496H76.9412C80.2052 124.496 82.7013 125.424 84.4293 127.28C86.1572 129.136 87.0212 131.664 87.0212 134.864C87.0212 137.328 86.4452 139.408 85.2933 141.104C84.1733 142.768 82.5572 143.824 80.4452 144.272L87.5972 158H80.6852L74.3012 144.992H70.5092V158ZM75.6452 140.096C77.3412 140.096 78.5572 139.76 79.2932 139.088C80.0292 138.384 80.3972 137.28 80.3972 135.776V133.952C80.3972 132.448 80.0292 131.36 79.2932 130.688C78.5572 129.984 77.3412 129.632 75.6452 129.632H70.5092V140.096H75.6452ZM113.162 158.576C110.986 158.576 109.098 158.192 107.498 157.424C105.898 156.624 104.57 155.488 103.514 154.016C102.49 152.544 101.722 150.736 101.21 148.592C100.73 146.448 100.49 144 100.49 141.248C100.49 138.528 100.73 136.096 101.21 133.952C101.722 131.776 102.49 129.952 103.514 128.48C104.57 127.008 105.898 125.888 107.498 125.12C109.098 124.32 110.986 123.92 113.162 123.92C117.514 123.92 120.714 125.44 122.762 128.48C124.81 131.52 125.834 135.776 125.834 141.248C125.834 146.72 124.81 150.976 122.762 154.016C120.714 157.056 117.514 158.576 113.162 158.576ZM113.162 153.44C114.282 153.44 115.226 153.232 115.994 152.816C116.762 152.368 117.37 151.744 117.818 150.944C118.298 150.144 118.634 149.168 118.826 148.016C119.05 146.832 119.162 145.52 119.162 144.08V138.368C119.162 135.488 118.714 133.216 117.818 131.552C116.954 129.888 115.402 129.056 113.162 129.056C110.922 129.056 109.354 129.888 108.458 131.552C107.594 133.216 107.162 135.488 107.162 138.368V144.128C107.162 147.008 107.594 149.28 108.458 150.944C109.354 152.608 110.922 153.44 113.162 153.44ZM161.24 124.496V148.832C161.24 150.336 160.984 151.696 160.472 152.912C159.96 154.096 159.224 155.104 158.264 155.936C157.336 156.768 156.2 157.424 154.856 157.904C153.544 158.352 152.072 158.576 150.44 158.576C147.272 158.576 144.776 157.776 142.952 156.176C141.16 154.576 140.008 152.448 139.496 149.792L145.4 148.544C145.688 149.952 146.2 151.12 146.936 152.048C147.704 152.944 148.872 153.392 150.44 153.392C151.88 153.392 152.984 152.976 153.752 152.144C154.52 151.28 154.904 149.936 154.904 148.112V129.68H143.576V124.496H161.24ZM179.509 158V124.496H200.677V129.68H185.797V138.416H200.149V143.6H185.797V152.816H200.677V158H179.509ZM227.202 143.312L223.698 147.92V158H217.41V124.496H223.698V139.568H223.986L227.874 134L234.93 124.496H242.034L231.522 138.608L242.514 158H235.41L227.202 143.312ZM269.808 129.68V158H263.568V129.68H253.488V124.496H279.888V129.68H269.808ZM294.653 158V124.496H315.821V129.68H300.941V138.416H315.293V143.6H300.941V152.816H315.821V158H294.653ZM339.178 158H332.89V124.496H345.61C348.874 124.496 351.37 125.424 353.098 127.28C354.826 129.136 355.69 131.664 355.69 134.864C355.69 137.328 355.114 139.408 353.962 141.104C352.842 142.768 351.226 143.824 349.114 144.272L356.266 158H349.354L342.97 144.992H339.178V158ZM344.314 140.096C346.01 140.096 347.226 139.76 347.962 139.088C348.698 138.384 349.066 137.28 349.066 135.776V133.952C349.066 132.448 348.698 131.36 347.962 130.688C347.226 129.984 346.01 129.632 344.314 129.632H339.178V140.096H344.314Z" fill="#FA7FC1"/>
<ellipse cx="27.5625" cy="12.8667" rx="5.25" ry="5.14667" fill="#3E86BA"/>
<ellipse cx="64.3125" cy="12.8667" rx="5.25" ry="5.14667" fill="#3E86BA"/>
<ellipse cx="45.9375" cy="12.8667" rx="5.25" ry="5.14667" fill="#3E86BA"/>
<path d="M509.146 214.367L509.145 214.363L494.839 171.008C494.839 171.007 494.839 171.007 494.839 171.006C493.919 168.206 494.501 165.215 496.365 162.994C498.268 160.744 501.122 159.656 504.039 160.074C504.039 160.074 504.04 160.074 504.041 160.074L549.239 166.624L549.244 166.625C552.324 167.066 554.788 169.039 555.906 171.955L555.907 171.958C557.016 174.845 556.494 177.966 554.49 180.352L551.277 184.178L549.346 186.477L551.647 188.406L560.396 195.741L560.405 195.749C562.128 197.182 563.182 199.2 563.379 201.45C563.575 203.694 562.892 205.854 561.434 207.59L551.645 219.246L551.638 219.255C550.203 220.977 548.182 222.03 545.928 222.228C543.68 222.424 541.517 221.74 539.779 220.283L531.03 212.948L528.733 211.022L526.806 213.317L523.593 217.143C521.589 219.53 518.617 220.587 515.558 219.995C512.487 219.402 510.116 217.318 509.146 214.367ZM473.712 143.95L473.718 143.943L473.723 143.937C473.954 143.659 474.379 143.604 474.692 143.869L474.698 143.874L474.705 143.88L486.37 153.66L486.383 153.672L486.396 153.682C486.519 153.783 486.606 153.943 486.622 154.125C486.636 154.285 486.593 154.459 486.46 154.62C486.194 154.926 485.742 154.947 485.464 154.714L473.812 144.944C473.81 144.943 473.809 144.942 473.807 144.941C473.5 144.676 473.479 144.228 473.712 143.95ZM497.506 146.217L496.348 132.983C496.314 132.598 496.592 132.263 496.984 132.229C497.375 132.194 497.707 132.476 497.741 132.862L498.9 146.095C498.933 146.481 498.655 146.815 498.264 146.85C497.872 146.884 497.54 146.602 497.506 146.217ZM480.081 166.968C480.473 166.934 480.805 167.216 480.839 167.601C480.869 167.946 480.598 168.314 480.186 168.357L466.959 169.514C466.567 169.548 466.235 169.266 466.201 168.881C466.167 168.495 466.445 168.16 466.837 168.126L480.081 166.968Z" fill="#F6F5F1" stroke="#90C58B" stroke-width="6"/>
</svg>
