<svg width="220" height="128" viewBox="0 0 220 128" fill="none" xmlns="http://www.w3.org/2000/svg">
<g clip-path="url(#clip0_104_333)">
<path d="M41.2324 15.2627V97.76H164.391L178.202 27.8985L161.622 27.4967L162.024 13.2833H97.6842L97.5056 8.28252C97.3866 4.90405 94.6034 2.22508 91.2249 2.22508H47.528C44.0453 2.23997 41.2324 5.05288 41.2324 8.53554V15.2776V15.2627Z" stroke="#FA7FC1" stroke-width="3.99947" stroke-linecap="round" stroke-linejoin="round"/>
<path opacity="0.6" d="M44.224 97.76L63.4828 27.6009H164.257" stroke="#FA7FC1" stroke-width="3.99947" stroke-miterlimit="10"/>
</g>
<path d="M9.62 123L8.44 119.02H3.54L2.36 123H0.62L4.9 109.04H7.12L11.4 123H9.62ZM6.08 110.82H5.9L3.94 117.56H8.04L6.08 110.82ZM17.5922 121.64H21.1922V109.56H17.5922V108.2H22.7922V121.64H26.3922V123H17.5922V121.64ZM33.5844 121.64H37.1844V109.56H33.5844V108.2H38.7844V121.64H42.3844V123H33.5844V121.64ZM54.1566 123.24C53.4099 123.24 52.7366 123.113 52.1366 122.86C51.5499 122.607 51.0432 122.247 50.6166 121.78C50.2032 121.3 49.8832 120.733 49.6566 120.08C49.4299 119.413 49.3166 118.673 49.3166 117.86C49.3166 117.033 49.4299 116.287 49.6566 115.62C49.8966 114.953 50.2232 114.387 50.6366 113.92C51.0499 113.44 51.5432 113.073 52.1166 112.82C52.7032 112.567 53.3499 112.44 54.0566 112.44C54.7499 112.44 55.3766 112.567 55.9366 112.82C56.5099 113.073 56.9966 113.427 57.3966 113.88C57.7966 114.32 58.1032 114.847 58.3166 115.46C58.5299 116.073 58.6366 116.747 58.6366 117.48V118.24H50.9966V118.72C50.9966 119.173 51.0699 119.593 51.2166 119.98C51.3632 120.367 51.5699 120.7 51.8366 120.98C52.1166 121.26 52.4499 121.48 52.8366 121.64C53.2366 121.787 53.6766 121.86 54.1566 121.86C54.8499 121.86 55.4499 121.7 55.9566 121.38C56.4632 121.06 56.8499 120.62 57.1166 120.06L58.2966 120.86C57.9899 121.553 57.4766 122.127 56.7566 122.58C56.0499 123.02 55.1832 123.24 54.1566 123.24ZM54.0566 113.76C53.6166 113.76 53.2099 113.84 52.8366 114C52.4632 114.16 52.1366 114.38 51.8566 114.66C51.5899 114.94 51.3766 115.273 51.2166 115.66C51.0699 116.033 50.9966 116.447 50.9966 116.9V117.04H56.9166V116.82C56.9166 116.367 56.8432 115.953 56.6966 115.58C56.5632 115.207 56.3699 114.887 56.1166 114.62C55.8766 114.34 55.5766 114.127 55.2166 113.98C54.8699 113.833 54.4832 113.76 54.0566 113.76ZM81.7609 123V109.04H86.8409C88.1343 109.04 89.1209 109.393 89.8009 110.1C90.4809 110.807 90.8209 111.793 90.8209 113.06C90.8209 114.327 90.4809 115.313 89.8009 116.02C89.1209 116.727 88.1343 117.08 86.8409 117.08H83.4409V123H81.7609ZM83.4409 115.62H86.8009C87.5076 115.62 88.0543 115.447 88.4409 115.1C88.8409 114.74 89.0409 114.233 89.0409 113.58V112.54C89.0409 111.887 88.8409 111.387 88.4409 111.04C88.0543 110.68 87.5076 110.5 86.8009 110.5H83.4409V115.62ZM97.4931 121.64H100.513V114.04H97.4931V112.68H102.113V115.28H102.213C102.426 114.467 102.826 113.833 103.413 113.38C104.013 112.913 104.773 112.68 105.693 112.68H107.133V114.28H105.193C104.273 114.28 103.526 114.547 102.953 115.08C102.393 115.613 102.113 116.313 102.113 117.18V121.64H106.113V123H97.4931V121.64ZM117.945 123.24C117.225 123.24 116.572 123.113 115.985 122.86C115.412 122.607 114.919 122.247 114.505 121.78C114.105 121.3 113.799 120.733 113.585 120.08C113.372 119.413 113.265 118.667 113.265 117.84C113.265 117.027 113.372 116.287 113.585 115.62C113.799 114.953 114.105 114.387 114.505 113.92C114.919 113.44 115.412 113.073 115.985 112.82C116.572 112.567 117.225 112.44 117.945 112.44C118.665 112.44 119.312 112.567 119.885 112.82C120.472 113.073 120.965 113.44 121.365 113.92C121.779 114.387 122.092 114.953 122.305 115.62C122.519 116.287 122.625 117.027 122.625 117.84C122.625 118.667 122.519 119.413 122.305 120.08C122.092 120.733 121.779 121.3 121.365 121.78C120.965 122.247 120.472 122.607 119.885 122.86C119.312 123.113 118.665 123.24 117.945 123.24ZM117.945 121.86C118.839 121.86 119.559 121.593 120.105 121.06C120.652 120.527 120.925 119.7 120.925 118.58V117.1C120.925 115.98 120.652 115.153 120.105 114.62C119.559 114.087 118.839 113.82 117.945 113.82C117.052 113.82 116.332 114.087 115.785 114.62C115.239 115.153 114.965 115.98 114.965 117.1V118.58C114.965 119.7 115.239 120.527 115.785 121.06C116.332 121.593 117.052 121.86 117.945 121.86ZM129.978 125.64H134.978V114.04H129.798V112.68H136.578V124.64C136.578 125.333 136.391 125.9 136.018 126.34C135.658 126.78 135.084 127 134.298 127H129.978V125.64ZM135.778 110.4C135.311 110.4 134.984 110.307 134.798 110.12C134.611 109.92 134.518 109.673 134.518 109.38V109.06C134.518 108.767 134.611 108.527 134.798 108.34C134.984 108.14 135.311 108.04 135.778 108.04C136.244 108.04 136.571 108.14 136.758 108.34C136.944 108.527 137.038 108.767 137.038 109.06V109.38C137.038 109.673 136.944 109.92 136.758 110.12C136.571 110.307 136.244 110.4 135.778 110.4ZM150.11 123.24C149.363 123.24 148.69 123.113 148.09 122.86C147.503 122.607 146.996 122.247 146.57 121.78C146.156 121.3 145.836 120.733 145.61 120.08C145.383 119.413 145.27 118.673 145.27 117.86C145.27 117.033 145.383 116.287 145.61 115.62C145.85 114.953 146.176 114.387 146.59 113.92C147.003 113.44 147.496 113.073 148.07 112.82C148.656 112.567 149.303 112.44 150.01 112.44C150.703 112.44 151.33 112.567 151.89 112.82C152.463 113.073 152.95 113.427 153.35 113.88C153.75 114.32 154.056 114.847 154.27 115.46C154.483 116.073 154.59 116.747 154.59 117.48V118.24H146.95V118.72C146.95 119.173 147.023 119.593 147.17 119.98C147.316 120.367 147.523 120.7 147.79 120.98C148.07 121.26 148.403 121.48 148.79 121.64C149.19 121.787 149.63 121.86 150.11 121.86C150.803 121.86 151.403 121.7 151.91 121.38C152.416 121.06 152.803 120.62 153.07 120.06L154.25 120.86C153.943 121.553 153.43 122.127 152.71 122.58C152.003 123.02 151.136 123.24 150.11 123.24ZM150.01 113.76C149.57 113.76 149.163 113.84 148.79 114C148.416 114.16 148.09 114.38 147.81 114.66C147.543 114.94 147.33 115.273 147.17 115.66C147.023 116.033 146.95 116.447 146.95 116.9V117.04H152.87V116.82C152.87 116.367 152.796 115.953 152.65 115.58C152.516 115.207 152.323 114.887 152.07 114.62C151.83 114.34 151.53 114.127 151.17 113.98C150.823 113.833 150.436 113.76 150.01 113.76ZM162.022 108.2H163.622V117.54H163.702L165.502 115.84L168.942 112.68H170.902L166.622 116.72L171.402 123H169.422L165.402 117.64L163.622 119.26V123H162.022V108.2ZM182.414 123C181.627 123 181.047 122.78 180.674 122.34C180.314 121.9 180.134 121.333 180.134 120.64V114.04H176.694V112.68H179.254C179.601 112.68 179.841 112.613 179.974 112.48C180.121 112.333 180.194 112.087 180.194 111.74V109.04H181.734V112.68H186.434V114.04H181.734V121.64H186.434V123H182.414ZM198.086 123.24C197.34 123.24 196.666 123.113 196.066 122.86C195.48 122.607 194.973 122.247 194.546 121.78C194.133 121.3 193.813 120.733 193.586 120.08C193.36 119.413 193.246 118.673 193.246 117.86C193.246 117.033 193.36 116.287 193.586 115.62C193.826 114.953 194.153 114.387 194.566 113.92C194.98 113.44 195.473 113.073 196.046 112.82C196.633 112.567 197.28 112.44 197.986 112.44C198.68 112.44 199.306 112.567 199.866 112.82C200.44 113.073 200.926 113.427 201.326 113.88C201.726 114.32 202.033 114.847 202.246 115.46C202.46 116.073 202.566 116.747 202.566 117.48V118.24H194.926V118.72C194.926 119.173 195 119.593 195.146 119.98C195.293 120.367 195.5 120.7 195.766 120.98C196.046 121.26 196.38 121.48 196.766 121.64C197.166 121.787 197.606 121.86 198.086 121.86C198.78 121.86 199.38 121.7 199.886 121.38C200.393 121.06 200.78 120.62 201.046 120.06L202.226 120.86C201.92 121.553 201.406 122.127 200.686 122.58C199.98 123.02 199.113 123.24 198.086 123.24ZM197.986 113.76C197.546 113.76 197.14 113.84 196.766 114C196.393 114.16 196.066 114.38 195.786 114.66C195.52 114.94 195.306 115.273 195.146 115.66C195 116.033 194.926 116.447 194.926 116.9V117.04H200.846V116.82C200.846 116.367 200.773 115.953 200.626 115.58C200.493 115.207 200.3 114.887 200.046 114.62C199.806 114.34 199.506 114.127 199.146 113.98C198.8 113.833 198.413 113.76 197.986 113.76ZM209.438 121.64H212.458V114.04H209.438V112.68H214.058V115.28H214.158C214.372 114.467 214.772 113.833 215.358 113.38C215.958 112.913 216.718 112.68 217.638 112.68H219.078V114.28H217.138C216.218 114.28 215.472 114.547 214.898 115.08C214.338 115.613 214.058 116.313 214.058 117.18V121.64H218.058V123H209.438V121.64Z" fill="black"/>
<defs>
<clipPath id="clip0_104_333">
<rect width="141.435" height="100" fill="white" transform="translate(39)"/>
</clipPath>
</defs>
</svg>
