<svg width="513" height="359" viewBox="0 0 513 359" fill="none" xmlns="http://www.w3.org/2000/svg">
<rect x="0.5" y="0.5" width="512" height="358" rx="14.5" stroke="#FA7FC1"/>
<line y1="40.32" x2="513" y2="40.32" stroke="#FA7FC1"/>
<ellipse cx="21" cy="21.1633" rx="4" ry="4.16327" fill="#3E86BA"/>
<ellipse cx="49" cy="21.1633" rx="4" ry="4.16327" fill="#3E86BA"/>
<ellipse cx="35" cy="21.1633" rx="4" ry="4.16327" fill="#3E86BA"/>
<path d="M145.46 29.24C143.753 29.24 142.48 28.62 141.64 27.38C140.813 26.14 140.4 24.3533 140.4 22.02C140.4 19.6867 140.813 17.9 141.64 16.66C142.48 15.42 143.753 14.8 145.46 14.8C146.1 14.8 146.653 14.8867 147.12 15.06C147.587 15.2333 147.987 15.4667 148.32 15.76C148.653 16.0533 148.933 16.3867 149.16 16.76C149.387 17.12 149.587 17.4867 149.76 17.86L148.32 18.52C148.2 18.2133 148.06 17.9267 147.9 17.66C147.74 17.38 147.547 17.14 147.32 16.94C147.107 16.7267 146.847 16.56 146.54 16.44C146.247 16.32 145.887 16.26 145.46 16.26C144.353 16.26 143.527 16.68 142.98 17.52C142.447 18.36 142.18 19.48 142.18 20.88V23.16C142.18 24.56 142.447 25.68 142.98 26.52C143.527 27.36 144.353 27.78 145.46 27.78C145.887 27.78 146.247 27.72 146.54 27.6C146.847 27.48 147.107 27.32 147.32 27.12C147.547 26.9067 147.74 26.6667 147.9 26.4C148.06 26.12 148.2 25.8267 148.32 25.52L149.76 26.18C149.587 26.5667 149.387 26.94 149.16 27.3C148.933 27.66 148.653 27.9867 148.32 28.28C147.987 28.5733 147.587 28.8067 147.12 28.98C146.653 29.1533 146.1 29.24 145.46 29.24ZM159.852 29L155.712 15.04H157.492L159.472 22.02L160.972 27.3H161.072L162.572 22.02L164.552 15.04H166.272L162.132 29H159.852ZM172.184 32.38V30.9H181.784V32.38H172.184ZM188.877 14.2H190.477V20.36H190.557C191.223 19.08 192.283 18.44 193.737 18.44C195.003 18.44 195.99 18.9133 196.697 19.86C197.417 20.8067 197.777 22.1333 197.777 23.84C197.777 25.5467 197.417 26.8733 196.697 27.82C195.99 28.7667 195.003 29.24 193.737 29.24C192.283 29.24 191.223 28.6 190.557 27.32H190.477V29H188.877V14.2ZM193.117 27.82C194.05 27.82 194.77 27.54 195.277 26.98C195.797 26.4067 196.057 25.6533 196.057 24.72V22.96C196.057 22.0267 195.797 21.28 195.277 20.72C194.77 20.1467 194.05 19.86 193.117 19.86C192.757 19.86 192.417 19.9067 192.097 20C191.777 20.0933 191.497 20.2333 191.257 20.42C191.017 20.5933 190.823 20.8133 190.677 21.08C190.543 21.3333 190.477 21.6333 190.477 21.98V25.7C190.477 26.0467 190.543 26.3533 190.677 26.62C190.823 26.8733 191.017 27.0933 191.257 27.28C191.497 27.4533 191.777 27.5867 192.097 27.68C192.417 27.7733 192.757 27.82 193.117 27.82ZM209.609 16.4C209.142 16.4 208.815 16.3067 208.629 16.12C208.442 15.92 208.349 15.6733 208.349 15.38V15.06C208.349 14.7667 208.442 14.5267 208.629 14.34C208.815 14.14 209.142 14.04 209.609 14.04C210.075 14.04 210.402 14.14 210.589 14.34C210.775 14.5267 210.869 14.7667 210.869 15.06V15.38C210.869 15.6733 210.775 15.92 210.589 16.12C210.402 16.3067 210.075 16.4 209.609 16.4ZM205.089 27.64H208.809V20.04H205.089V18.68H210.409V27.64H213.889V29H205.089V27.64ZM220.561 27.64H224.161V15.56H220.561V14.2H225.761V27.64H229.361V29H220.561V27.64ZM236.553 27.64H240.153V15.56H236.553V14.2H241.753V27.64H245.353V29H236.553V27.64ZM257.125 29.24C256.379 29.24 255.705 29.1133 255.105 28.86C254.519 28.6067 254.012 28.2467 253.585 27.78C253.172 27.3 252.852 26.7333 252.625 26.08C252.399 25.4133 252.285 24.6733 252.285 23.86C252.285 23.0333 252.399 22.2867 252.625 21.62C252.865 20.9533 253.192 20.3867 253.605 19.92C254.019 19.44 254.512 19.0733 255.085 18.82C255.672 18.5667 256.319 18.44 257.025 18.44C257.719 18.44 258.345 18.5667 258.905 18.82C259.479 19.0733 259.965 19.4267 260.365 19.88C260.765 20.32 261.072 20.8467 261.285 21.46C261.499 22.0733 261.605 22.7467 261.605 23.48V24.24H253.965V24.72C253.965 25.1733 254.039 25.5933 254.185 25.98C254.332 26.3667 254.539 26.7 254.805 26.98C255.085 27.26 255.419 27.48 255.805 27.64C256.205 27.7867 256.645 27.86 257.125 27.86C257.819 27.86 258.419 27.7 258.925 27.38C259.432 27.06 259.819 26.62 260.085 26.06L261.265 26.86C260.959 27.5533 260.445 28.1267 259.725 28.58C259.019 29.02 258.152 29.24 257.125 29.24ZM257.025 19.76C256.585 19.76 256.179 19.84 255.805 20C255.432 20.16 255.105 20.38 254.825 20.66C254.559 20.94 254.345 21.2733 254.185 21.66C254.039 22.0333 253.965 22.4467 253.965 22.9V23.04H259.885V22.82C259.885 22.3667 259.812 21.9533 259.665 21.58C259.532 21.2067 259.339 20.8867 259.085 20.62C258.845 20.34 258.545 20.1267 258.185 19.98C257.839 19.8333 257.452 19.76 257.025 19.76ZM275.438 27.32H275.358C274.691 28.6 273.631 29.24 272.178 29.24C270.911 29.24 269.918 28.7667 269.198 27.82C268.491 26.8733 268.138 25.5467 268.138 23.84C268.138 22.1333 268.491 20.8067 269.198 19.86C269.918 18.9133 270.911 18.44 272.178 18.44C273.631 18.44 274.691 19.08 275.358 20.36H275.438V14.2H277.037V29H275.438V27.32ZM272.798 27.82C273.158 27.82 273.498 27.7733 273.818 27.68C274.138 27.5867 274.418 27.4533 274.658 27.28C274.898 27.0933 275.084 26.8733 275.218 26.62C275.364 26.3533 275.438 26.0467 275.438 25.7V21.98C275.438 21.6333 275.364 21.3333 275.218 21.08C275.084 20.8133 274.898 20.5933 274.658 20.42C274.418 20.2333 274.138 20.0933 273.818 20C273.498 19.9067 273.158 19.86 272.798 19.86C271.864 19.86 271.138 20.1467 270.618 20.72C270.111 21.28 269.858 22.0267 269.858 22.96V24.72C269.858 25.6533 270.111 26.4067 270.618 26.98C271.138 27.54 271.864 27.82 272.798 27.82ZM289.11 29.24C288.363 29.24 287.69 29.1133 287.09 28.86C286.503 28.6067 285.996 28.2467 285.57 27.78C285.156 27.3 284.836 26.7333 284.61 26.08C284.383 25.4133 284.27 24.6733 284.27 23.86C284.27 23.0333 284.383 22.2867 284.61 21.62C284.85 20.9533 285.176 20.3867 285.59 19.92C286.003 19.44 286.496 19.0733 287.07 18.82C287.656 18.5667 288.303 18.44 289.01 18.44C289.703 18.44 290.33 18.5667 290.89 18.82C291.463 19.0733 291.95 19.4267 292.35 19.88C292.75 20.32 293.056 20.8467 293.27 21.46C293.483 22.0733 293.59 22.7467 293.59 23.48V24.24H285.95V24.72C285.95 25.1733 286.023 25.5933 286.17 25.98C286.316 26.3667 286.523 26.7 286.79 26.98C287.07 27.26 287.403 27.48 287.79 27.64C288.19 27.7867 288.63 27.86 289.11 27.86C289.803 27.86 290.403 27.7 290.91 27.38C291.416 27.06 291.803 26.62 292.07 26.06L293.25 26.86C292.943 27.5533 292.43 28.1267 291.71 28.58C291.003 29.02 290.136 29.24 289.11 29.24ZM289.01 19.76C288.57 19.76 288.163 19.84 287.79 20C287.416 20.16 287.09 20.38 286.81 20.66C286.543 20.94 286.33 21.2733 286.17 21.66C286.023 22.0333 285.95 22.4467 285.95 22.9V23.04H291.87V22.82C291.87 22.3667 291.796 21.9533 291.65 21.58C291.516 21.2067 291.323 20.8867 291.07 20.62C290.83 20.34 290.53 20.1267 290.17 19.98C289.823 19.8333 289.436 19.76 289.01 19.76ZM304.922 29.18C304.375 29.18 303.989 29.0667 303.762 28.84C303.549 28.6133 303.442 28.3267 303.442 27.98V27.62C303.442 27.2733 303.549 26.9867 303.762 26.76C303.989 26.5333 304.375 26.42 304.922 26.42C305.469 26.42 305.849 26.5333 306.062 26.76C306.289 26.9867 306.402 27.2733 306.402 27.62V27.98C306.402 28.3267 306.289 28.6133 306.062 28.84C305.849 29.0667 305.469 29.18 304.922 29.18ZM315.514 18.68H316.934L318.114 27.6H318.294L320.054 18.68H321.814L323.574 27.6H323.754L324.934 18.68H326.314L324.734 29H322.654L321.014 20.36H320.854L319.174 29H317.094L315.514 18.68ZM337.086 29.24C336.34 29.24 335.666 29.1133 335.066 28.86C334.48 28.6067 333.973 28.2467 333.546 27.78C333.133 27.3 332.813 26.7333 332.586 26.08C332.36 25.4133 332.246 24.6733 332.246 23.86C332.246 23.0333 332.36 22.2867 332.586 21.62C332.826 20.9533 333.153 20.3867 333.566 19.92C333.98 19.44 334.473 19.0733 335.046 18.82C335.633 18.5667 336.28 18.44 336.986 18.44C337.68 18.44 338.306 18.5667 338.866 18.82C339.44 19.0733 339.926 19.4267 340.326 19.88C340.726 20.32 341.033 20.8467 341.246 21.46C341.46 22.0733 341.566 22.7467 341.566 23.48V24.24H333.926V24.72C333.926 25.1733 334 25.5933 334.146 25.98C334.293 26.3667 334.5 26.7 334.766 26.98C335.046 27.26 335.38 27.48 335.766 27.64C336.166 27.7867 336.606 27.86 337.086 27.86C337.78 27.86 338.38 27.7 338.886 27.38C339.393 27.06 339.78 26.62 340.046 26.06L341.226 26.86C340.92 27.5533 340.406 28.1267 339.686 28.58C338.98 29.02 338.113 29.24 337.086 29.24ZM336.986 19.76C336.546 19.76 336.14 19.84 335.766 20C335.393 20.16 335.066 20.38 334.786 20.66C334.52 20.94 334.306 21.2733 334.146 21.66C334 22.0333 333.926 22.4467 333.926 22.9V23.04H339.846V22.82C339.846 22.3667 339.773 21.9533 339.626 21.58C339.493 21.2067 339.3 20.8867 339.046 20.62C338.806 20.34 338.506 20.1267 338.146 19.98C337.8 19.8333 337.413 19.76 336.986 19.76ZM348.798 14.2H350.398V20.36H350.478C351.145 19.08 352.205 18.44 353.658 18.44C354.925 18.44 355.912 18.9133 356.618 19.86C357.338 20.8067 357.698 22.1333 357.698 23.84C357.698 25.5467 357.338 26.8733 356.618 27.82C355.912 28.7667 354.925 29.24 353.658 29.24C352.205 29.24 351.145 28.6 350.478 27.32H350.398V29H348.798V14.2ZM353.038 27.82C353.972 27.82 354.692 27.54 355.198 26.98C355.718 26.4067 355.978 25.6533 355.978 24.72V22.96C355.978 22.0267 355.718 21.28 355.198 20.72C354.692 20.1467 353.972 19.86 353.038 19.86C352.678 19.86 352.338 19.9067 352.018 20C351.698 20.0933 351.418 20.2333 351.178 20.42C350.938 20.5933 350.745 20.8133 350.598 21.08C350.465 21.3333 350.398 21.6333 350.398 21.98V25.7C350.398 26.0467 350.465 26.3533 350.598 26.62C350.745 26.8733 350.938 27.0933 351.178 27.28C351.418 27.4533 351.698 27.5867 352.018 27.68C352.338 27.7733 352.678 27.82 353.038 27.82ZM364.691 29V15.04H369.771C371.064 15.04 372.051 15.3933 372.731 16.1C373.411 16.8067 373.751 17.7933 373.751 19.06C373.751 20.3267 373.411 21.3133 372.731 22.02C372.051 22.7267 371.064 23.08 369.771 23.08H366.371V29H364.691ZM366.371 21.62H369.731C370.437 21.62 370.984 21.4467 371.371 21.1C371.771 20.74 371.971 20.2333 371.971 19.58V18.54C371.971 17.8867 371.771 17.3867 371.371 17.04C370.984 16.68 370.437 16.5 369.731 16.5H366.371V21.62Z" fill="black"/>
</svg>
