<svg width="348" height="128" viewBox="0 0 348 128" fill="none" xmlns="http://www.w3.org/2000/svg">
<g clip-path="url(#clip0_152_48)">
<path d="M105.232 15.2627V97.76H228.391L242.202 27.8985L225.622 27.4967L226.024 13.2833H161.684L161.506 8.28252C161.387 4.90405 158.603 2.22508 155.225 2.22508H111.528C108.045 2.23997 105.232 5.05288 105.232 8.53554V15.2776V15.2627Z" stroke="#FA7FC1" stroke-width="3.99947" stroke-linecap="round" stroke-linejoin="round"/>
<path opacity="0.6" d="M108.224 97.76L127.483 27.6009H228.257" stroke="#FA7FC1" stroke-width="3.99947" stroke-miterlimit="10"/>
</g>
<path d="M1.8 123V109.04H10.6V110.5H3.48V115.2H10V116.66H3.48V123H1.8ZM17.5322 121.64H20.5522V114.04H17.5322V112.68H22.1522V115.28H22.2522C22.4655 114.467 22.8655 113.833 23.4522 113.38C24.0522 112.913 24.8122 112.68 25.7322 112.68H27.1722V114.28H25.2322C24.3122 114.28 23.5655 114.547 22.9922 115.08C22.4322 115.613 22.1522 116.313 22.1522 117.18V121.64H26.1522V123H17.5322V121.64ZM38.1644 123.24C37.4177 123.24 36.7444 123.113 36.1444 122.86C35.5577 122.607 35.051 122.247 34.6244 121.78C34.211 121.3 33.891 120.733 33.6644 120.08C33.4377 119.413 33.3244 118.673 33.3244 117.86C33.3244 117.033 33.4377 116.287 33.6644 115.62C33.9044 114.953 34.231 114.387 34.6444 113.92C35.0577 113.44 35.551 113.073 36.1244 112.82C36.711 112.567 37.3577 112.44 38.0644 112.44C38.7577 112.44 39.3844 112.567 39.9444 112.82C40.5177 113.073 41.0044 113.427 41.4044 113.88C41.8044 114.32 42.111 114.847 42.3244 115.46C42.5377 116.073 42.6444 116.747 42.6444 117.48V118.24H35.0044V118.72C35.0044 119.173 35.0777 119.593 35.2244 119.98C35.371 120.367 35.5777 120.7 35.8444 120.98C36.1244 121.26 36.4577 121.48 36.8444 121.64C37.2444 121.787 37.6844 121.86 38.1644 121.86C38.8577 121.86 39.4577 121.7 39.9644 121.38C40.471 121.06 40.8577 120.62 41.1244 120.06L42.3044 120.86C41.9977 121.553 41.4844 122.127 40.7644 122.58C40.0577 123.02 39.191 123.24 38.1644 123.24ZM38.0644 113.76C37.6244 113.76 37.2177 113.84 36.8444 114C36.471 114.16 36.1444 114.38 35.8644 114.66C35.5977 114.94 35.3844 115.273 35.2244 115.66C35.0777 116.033 35.0044 116.447 35.0044 116.9V117.04H40.9244V116.82C40.9244 116.367 40.851 115.953 40.7044 115.58C40.571 115.207 40.3777 114.887 40.1244 114.62C39.8844 114.34 39.5844 114.127 39.2244 113.98C38.8777 113.833 38.491 113.76 38.0644 113.76ZM56.4766 121.32H56.3966C55.7299 122.6 54.6699 123.24 53.2166 123.24C51.9499 123.24 50.9566 122.767 50.2366 121.82C49.5299 120.873 49.1766 119.547 49.1766 117.84C49.1766 116.133 49.5299 114.807 50.2366 113.86C50.9566 112.913 51.9499 112.44 53.2166 112.44C54.6699 112.44 55.7299 113.08 56.3966 114.36H56.4766V108.2H58.0766V123H56.4766V121.32ZM53.8366 121.82C54.1966 121.82 54.5366 121.773 54.8566 121.68C55.1766 121.587 55.4566 121.453 55.6966 121.28C55.9366 121.093 56.1232 120.873 56.2566 120.62C56.4032 120.353 56.4766 120.047 56.4766 119.7V115.98C56.4766 115.633 56.4032 115.333 56.2566 115.08C56.1232 114.813 55.9366 114.593 55.6966 114.42C55.4566 114.233 55.1766 114.093 54.8566 114C54.5366 113.907 54.1966 113.86 53.8366 113.86C52.9032 113.86 52.1766 114.147 51.6566 114.72C51.1499 115.28 50.8966 116.027 50.8966 116.96V118.72C50.8966 119.653 51.1499 120.407 51.6566 120.98C52.1766 121.54 52.9032 121.82 53.8366 121.82ZM70.1488 123.24C69.4021 123.24 68.7288 123.113 68.1288 122.86C67.5421 122.607 67.0354 122.247 66.6087 121.78C66.1954 121.3 65.8754 120.733 65.6488 120.08C65.4221 119.413 65.3088 118.673 65.3088 117.86C65.3088 117.033 65.4221 116.287 65.6488 115.62C65.8888 114.953 66.2154 114.387 66.6288 113.92C67.0421 113.44 67.5354 113.073 68.1088 112.82C68.6954 112.567 69.3421 112.44 70.0488 112.44C70.7421 112.44 71.3688 112.567 71.9288 112.82C72.5021 113.073 72.9888 113.427 73.3888 113.88C73.7888 114.32 74.0954 114.847 74.3088 115.46C74.5221 116.073 74.6288 116.747 74.6288 117.48V118.24H66.9888V118.72C66.9888 119.173 67.0621 119.593 67.2088 119.98C67.3554 120.367 67.5621 120.7 67.8288 120.98C68.1088 121.26 68.4421 121.48 68.8288 121.64C69.2288 121.787 69.6688 121.86 70.1488 121.86C70.8421 121.86 71.4421 121.7 71.9488 121.38C72.4554 121.06 72.8421 120.62 73.1088 120.06L74.2888 120.86C73.9821 121.553 73.4688 122.127 72.7488 122.58C72.0421 123.02 71.1754 123.24 70.1488 123.24ZM70.0488 113.76C69.6088 113.76 69.2021 113.84 68.8288 114C68.4554 114.16 68.1288 114.38 67.8488 114.66C67.5821 114.94 67.3688 115.273 67.2088 115.66C67.0621 116.033 66.9888 116.447 66.9888 116.9V117.04H72.9088V116.82C72.9088 116.367 72.8354 115.953 72.6888 115.58C72.5554 115.207 72.3621 114.887 72.1088 114.62C71.8688 114.34 71.5688 114.127 71.2088 113.98C70.8621 113.833 70.4754 113.76 70.0488 113.76ZM81.5009 121.64H84.5209V114.04H81.5009V112.68H86.1209V115.28H86.2209C86.4343 114.467 86.8343 113.833 87.4209 113.38C88.0209 112.913 88.7809 112.68 89.7009 112.68H91.1409V114.28H89.2009C88.2809 114.28 87.5343 114.547 86.9609 115.08C86.4009 115.613 86.1209 116.313 86.1209 117.18V121.64H90.1209V123H81.5009V121.64ZM102.593 110.4C102.126 110.4 101.8 110.307 101.613 110.12C101.426 109.92 101.333 109.673 101.333 109.38V109.06C101.333 108.767 101.426 108.527 101.613 108.34C101.8 108.14 102.126 108.04 102.593 108.04C103.06 108.04 103.386 108.14 103.573 108.34C103.76 108.527 103.853 108.767 103.853 109.06V109.38C103.853 109.673 103.76 109.92 103.573 110.12C103.386 110.307 103.06 110.4 102.593 110.4ZM98.0731 121.64H101.793V114.04H98.0731V112.68H103.393V121.64H106.873V123H98.0731V121.64ZM114.045 108.2H115.645V117.54H115.725L117.525 115.84L120.965 112.68H122.925L118.645 116.72L123.425 123H121.445L117.425 117.64L115.645 119.26V123H114.045V108.2ZM130.038 108.2H131.638V117.54H131.718L133.518 115.84L136.958 112.68H138.918L134.638 116.72L139.418 123H137.438L133.418 117.64L131.638 119.26V123H130.038V108.2ZM150.11 123.24C149.363 123.24 148.69 123.113 148.09 122.86C147.503 122.607 146.996 122.247 146.57 121.78C146.156 121.3 145.836 120.733 145.61 120.08C145.383 119.413 145.27 118.673 145.27 117.86C145.27 117.033 145.383 116.287 145.61 115.62C145.85 114.953 146.176 114.387 146.59 113.92C147.003 113.44 147.496 113.073 148.07 112.82C148.656 112.567 149.303 112.44 150.01 112.44C150.703 112.44 151.33 112.567 151.89 112.82C152.463 113.073 152.95 113.427 153.35 113.88C153.75 114.32 154.056 114.847 154.27 115.46C154.483 116.073 154.59 116.747 154.59 117.48V118.24H146.95V118.72C146.95 119.173 147.023 119.593 147.17 119.98C147.316 120.367 147.523 120.7 147.79 120.98C148.07 121.26 148.403 121.48 148.79 121.64C149.19 121.787 149.63 121.86 150.11 121.86C150.803 121.86 151.403 121.7 151.91 121.38C152.416 121.06 152.803 120.62 153.07 120.06L154.25 120.86C153.943 121.553 153.43 122.127 152.71 122.58C152.003 123.02 151.136 123.24 150.11 123.24ZM150.01 113.76C149.57 113.76 149.163 113.84 148.79 114C148.416 114.16 148.09 114.38 147.81 114.66C147.543 114.94 147.33 115.273 147.17 115.66C147.023 116.033 146.95 116.447 146.95 116.9V117.04H152.87V116.82C152.87 116.367 152.796 115.953 152.65 115.58C152.516 115.207 152.323 114.887 152.07 114.62C151.83 114.34 151.53 114.127 151.17 113.98C150.823 113.833 150.436 113.76 150.01 113.76ZM181.874 123.24C180.621 123.24 179.594 123.013 178.794 122.56C177.994 122.093 177.334 121.5 176.814 120.78L178.034 119.78C178.581 120.46 179.154 120.967 179.754 121.3C180.367 121.633 181.094 121.8 181.934 121.8C182.947 121.8 183.721 121.567 184.254 121.1C184.787 120.633 185.054 119.98 185.054 119.14C185.054 118.46 184.861 117.933 184.474 117.56C184.087 117.173 183.414 116.9 182.454 116.74L180.894 116.48C180.214 116.36 179.641 116.18 179.174 115.94C178.721 115.7 178.354 115.413 178.074 115.08C177.794 114.733 177.594 114.36 177.474 113.96C177.354 113.547 177.294 113.12 177.294 112.68C177.294 111.4 177.714 110.433 178.554 109.78C179.394 109.127 180.527 108.8 181.954 108.8C183.074 108.8 184.014 108.987 184.774 109.36C185.547 109.733 186.167 110.26 186.634 110.94L185.454 111.96C185.067 111.453 184.601 111.04 184.054 110.72C183.507 110.4 182.801 110.24 181.934 110.24C180.987 110.24 180.261 110.44 179.754 110.84C179.247 111.24 178.994 111.84 178.994 112.64C178.994 113.267 179.181 113.78 179.554 114.18C179.941 114.567 180.627 114.847 181.614 115.02L183.114 115.28C183.794 115.4 184.367 115.58 184.834 115.82C185.301 116.06 185.674 116.347 185.954 116.68C186.247 117.013 186.454 117.387 186.574 117.8C186.694 118.213 186.754 118.647 186.754 119.1C186.754 120.393 186.327 121.407 185.474 122.14C184.634 122.873 183.434 123.24 181.874 123.24ZM192.846 123.12L194.226 121.44C193.906 120.973 193.66 120.44 193.486 119.84C193.313 119.227 193.226 118.56 193.226 117.84C193.226 117.027 193.333 116.287 193.546 115.62C193.76 114.953 194.066 114.387 194.466 113.92C194.88 113.44 195.373 113.073 195.946 112.82C196.533 112.567 197.186 112.44 197.906 112.44C198.493 112.44 199.026 112.527 199.506 112.7C199.986 112.873 200.42 113.113 200.806 113.42L202.066 111.88L202.966 112.56L201.586 114.24C201.906 114.707 202.153 115.247 202.326 115.86C202.5 116.46 202.586 117.12 202.586 117.84C202.586 118.667 202.48 119.413 202.266 120.08C202.053 120.733 201.74 121.3 201.326 121.78C200.926 122.247 200.433 122.607 199.846 122.86C199.273 123.113 198.626 123.24 197.906 123.24C197.32 123.24 196.786 123.153 196.306 122.98C195.826 122.807 195.393 122.567 195.006 122.26L193.746 123.8L192.846 123.12ZM197.906 113.82C197.013 113.82 196.293 114.087 195.746 114.62C195.2 115.153 194.926 115.98 194.926 117.1V118.58C194.926 119.247 195.026 119.8 195.226 120.24L199.926 114.5C199.433 114.047 198.76 113.82 197.906 113.82ZM197.906 121.86C198.8 121.86 199.52 121.593 200.066 121.06C200.613 120.527 200.886 119.7 200.886 118.58V117.1C200.886 116.433 200.786 115.88 200.586 115.44L195.886 121.18C196.38 121.633 197.053 121.86 197.906 121.86ZM209.438 121.64H212.458V114.04H209.438V112.68H214.058V115.28H214.158C214.372 114.467 214.772 113.833 215.358 113.38C215.958 112.913 216.718 112.68 217.638 112.68H219.078V114.28H217.138C216.218 114.28 215.472 114.547 214.898 115.08C214.338 115.613 214.058 116.313 214.058 117.18V121.64H218.058V123H209.438V121.64ZM230.071 123.24C229.324 123.24 228.651 123.113 228.051 122.86C227.464 122.607 226.957 122.247 226.531 121.78C226.117 121.3 225.797 120.733 225.571 120.08C225.344 119.413 225.231 118.673 225.231 117.86C225.231 117.033 225.344 116.287 225.571 115.62C225.811 114.953 226.137 114.387 226.551 113.92C226.964 113.44 227.457 113.073 228.031 112.82C228.617 112.567 229.264 112.44 229.971 112.44C230.664 112.44 231.291 112.567 231.851 112.82C232.424 113.073 232.911 113.427 233.311 113.88C233.711 114.32 234.017 114.847 234.231 115.46C234.444 116.073 234.551 116.747 234.551 117.48V118.24H226.911V118.72C226.911 119.173 226.984 119.593 227.131 119.98C227.277 120.367 227.484 120.7 227.751 120.98C228.031 121.26 228.364 121.48 228.751 121.64C229.151 121.787 229.591 121.86 230.071 121.86C230.764 121.86 231.364 121.7 231.871 121.38C232.377 121.06 232.764 120.62 233.031 120.06L234.211 120.86C233.904 121.553 233.391 122.127 232.671 122.58C231.964 123.02 231.097 123.24 230.071 123.24ZM229.971 113.76C229.531 113.76 229.124 113.84 228.751 114C228.377 114.16 228.051 114.38 227.771 114.66C227.504 114.94 227.291 115.273 227.131 115.66C226.984 116.033 226.911 116.447 226.911 116.9V117.04H232.831V116.82C232.831 116.367 232.757 115.953 232.611 115.58C232.477 115.207 232.284 114.887 232.031 114.62C231.791 114.34 231.491 114.127 231.131 113.98C230.784 113.833 230.397 113.76 229.971 113.76ZM241.843 123V112.68H243.443V114.36H243.523C243.629 114.107 243.763 113.867 243.923 113.64C244.083 113.4 244.276 113.193 244.503 113.02C244.743 112.847 245.023 112.707 245.343 112.6C245.663 112.493 246.036 112.44 246.463 112.44C247.543 112.44 248.409 112.787 249.063 113.48C249.716 114.16 250.043 115.127 250.043 116.38V123H248.443V116.66C248.443 115.713 248.236 115.013 247.823 114.56C247.409 114.093 246.803 113.86 246.003 113.86C245.683 113.86 245.369 113.9 245.063 113.98C244.756 114.06 244.483 114.18 244.243 114.34C244.003 114.5 243.809 114.707 243.663 114.96C243.516 115.213 243.443 115.507 243.443 115.84V123H241.843ZM261.995 123.24C260.915 123.24 259.982 123.06 259.195 122.7C258.422 122.327 257.762 121.833 257.215 121.22L258.295 120.28C258.788 120.8 259.328 121.2 259.915 121.48C260.502 121.76 261.208 121.9 262.035 121.9C262.835 121.9 263.488 121.76 263.995 121.48C264.515 121.187 264.775 120.733 264.775 120.12C264.775 119.853 264.722 119.633 264.615 119.46C264.522 119.273 264.388 119.127 264.215 119.02C264.042 118.913 263.848 118.833 263.635 118.78C263.422 118.713 263.195 118.66 262.955 118.62L261.335 118.38C260.975 118.327 260.582 118.253 260.155 118.16C259.742 118.067 259.362 117.92 259.015 117.72C258.668 117.507 258.375 117.227 258.135 116.88C257.908 116.533 257.795 116.08 257.795 115.52C257.795 115 257.895 114.553 258.095 114.18C258.308 113.793 258.602 113.473 258.975 113.22C259.348 112.953 259.788 112.76 260.295 112.64C260.802 112.507 261.355 112.44 261.955 112.44C262.888 112.44 263.695 112.587 264.375 112.88C265.068 113.173 265.662 113.58 266.155 114.1L265.115 115.08C264.995 114.933 264.842 114.787 264.655 114.64C264.482 114.48 264.262 114.34 263.995 114.22C263.742 114.087 263.442 113.98 263.095 113.9C262.748 113.82 262.348 113.78 261.895 113.78C261.082 113.78 260.455 113.92 260.015 114.2C259.588 114.48 259.375 114.887 259.375 115.42C259.375 115.687 259.422 115.913 259.515 116.1C259.622 116.273 259.762 116.413 259.935 116.52C260.108 116.627 260.302 116.713 260.515 116.78C260.742 116.833 260.968 116.88 261.195 116.92L262.815 117.16C263.188 117.213 263.582 117.287 263.995 117.38C264.408 117.473 264.788 117.627 265.135 117.84C265.482 118.04 265.768 118.313 265.995 118.66C266.235 119.007 266.355 119.46 266.355 120.02C266.355 121.047 265.955 121.84 265.155 122.4C264.368 122.96 263.315 123.24 261.995 123.24ZM278.047 123.24C277.301 123.24 276.627 123.113 276.027 122.86C275.441 122.607 274.934 122.247 274.507 121.78C274.094 121.3 273.774 120.733 273.547 120.08C273.321 119.413 273.207 118.673 273.207 117.86C273.207 117.033 273.321 116.287 273.547 115.62C273.787 114.953 274.114 114.387 274.527 113.92C274.941 113.44 275.434 113.073 276.007 112.82C276.594 112.567 277.241 112.44 277.947 112.44C278.641 112.44 279.267 112.567 279.827 112.82C280.401 113.073 280.887 113.427 281.287 113.88C281.687 114.32 281.994 114.847 282.207 115.46C282.421 116.073 282.527 116.747 282.527 117.48V118.24H274.887V118.72C274.887 119.173 274.961 119.593 275.107 119.98C275.254 120.367 275.461 120.7 275.727 120.98C276.007 121.26 276.341 121.48 276.727 121.64C277.127 121.787 277.567 121.86 278.047 121.86C278.741 121.86 279.341 121.7 279.847 121.38C280.354 121.06 280.741 120.62 281.007 120.06L282.187 120.86C281.881 121.553 281.367 122.127 280.647 122.58C279.941 123.02 279.074 123.24 278.047 123.24ZM277.947 113.76C277.507 113.76 277.101 113.84 276.727 114C276.354 114.16 276.027 114.38 275.747 114.66C275.481 114.94 275.267 115.273 275.107 115.66C274.961 116.033 274.887 116.447 274.887 116.9V117.04H280.807V116.82C280.807 116.367 280.734 115.953 280.587 115.58C280.454 115.207 280.261 114.887 280.007 114.62C279.767 114.34 279.467 114.127 279.107 113.98C278.761 113.833 278.374 113.76 277.947 113.76ZM289.819 123V112.68H291.419V114.36H291.499C291.606 114.107 291.739 113.867 291.899 113.64C292.059 113.4 292.253 113.193 292.479 113.02C292.719 112.847 292.999 112.707 293.319 112.6C293.639 112.493 294.013 112.44 294.439 112.44C295.519 112.44 296.386 112.787 297.039 113.48C297.693 114.16 298.019 115.127 298.019 116.38V123H296.419V116.66C296.419 115.713 296.213 115.013 295.799 114.56C295.386 114.093 294.779 113.86 293.979 113.86C293.659 113.86 293.346 113.9 293.039 113.98C292.733 114.06 292.459 114.18 292.219 114.34C291.979 114.5 291.786 114.707 291.639 114.96C291.493 115.213 291.419 115.507 291.419 115.84V123H289.819ZM326.304 123.24C324.597 123.24 323.324 122.62 322.484 121.38C321.657 120.14 321.244 118.353 321.244 116.02C321.244 113.687 321.657 111.9 322.484 110.66C323.324 109.42 324.597 108.8 326.304 108.8C326.944 108.8 327.497 108.887 327.964 109.06C328.43 109.233 328.83 109.467 329.164 109.76C329.497 110.053 329.777 110.387 330.004 110.76C330.23 111.12 330.43 111.487 330.604 111.86L329.164 112.52C329.044 112.213 328.904 111.927 328.744 111.66C328.584 111.38 328.39 111.14 328.164 110.94C327.95 110.727 327.69 110.56 327.384 110.44C327.09 110.32 326.73 110.26 326.304 110.26C325.197 110.26 324.37 110.68 323.824 111.52C323.29 112.36 323.024 113.48 323.024 114.88V117.16C323.024 118.56 323.29 119.68 323.824 120.52C324.37 121.36 325.197 121.78 326.304 121.78C326.73 121.78 327.09 121.72 327.384 121.6C327.69 121.48 327.95 121.32 328.164 121.12C328.39 120.907 328.584 120.667 328.744 120.4C328.904 120.12 329.044 119.827 329.164 119.52L330.604 120.18C330.43 120.567 330.23 120.94 330.004 121.3C329.777 121.66 329.497 121.987 329.164 122.28C328.83 122.573 328.43 122.807 327.964 122.98C327.497 123.153 326.944 123.24 326.304 123.24ZM340.696 123L336.556 109.04H338.336L340.316 116.02L341.816 121.3H341.916L343.416 116.02L345.396 109.04H347.116L342.976 123H340.696Z" fill="black"/>
<defs>
<clipPath id="clip0_152_48">
<rect width="141.435" height="100" fill="white" transform="translate(103)"/>
</clipPath>
</defs>
</svg>
