<svg width="23" height="28" viewBox="0 0 23 28" fill="none" xmlns="http://www.w3.org/2000/svg">
<path d="M8.36 22.276C8.36 23.188 8.408 23.932 8.504 24.508C8.624 25.06 8.864 25.492 9.224 25.804C9.584 26.092 10.088 26.296 10.736 26.416C11.408 26.536 12.284 26.608 13.364 26.632V28H0.62V26.632C1.46 26.608 2.132 26.536 2.636 26.416C3.164 26.296 3.572 26.092 3.86 25.804C4.148 25.516 4.34 25.108 4.436 24.58C4.532 24.052 4.58 23.368 4.58 22.528V5.752C4.58 4.912 4.532 4.24 4.436 3.736C4.364 3.208 4.196 2.8 3.932 2.512C3.692 2.2 3.332 1.996 2.852 1.9C2.372 1.78 1.748 1.696 0.98 1.648V0.279999H21.788L22.184 7.156H20.924C20.78 6.124 20.552 5.284 20.24 4.636C19.928 3.964 19.484 3.436 18.908 3.052C18.356 2.668 17.648 2.404 16.784 2.26C15.92 2.092 14.84 2.008 13.544 2.008H8.972C8.564 2.008 8.36 2.212 8.36 2.62V13.492C9.512 13.492 10.496 13.432 11.312 13.312C12.152 13.168 12.836 12.928 13.364 12.592C13.916 12.256 14.336 11.8 14.624 11.224C14.912 10.648 15.092 9.904 15.164 8.992H16.424V19.54H15.164C15.044 18.628 14.852 17.872 14.588 17.272C14.324 16.672 13.928 16.204 13.4 15.868C12.896 15.532 12.236 15.292 11.42 15.148C10.604 15.004 9.584 14.932 8.36 14.932V22.276Z" fill="#FA7FC1"/>
</svg>
