<svg width="462" height="152" viewBox="0 0 462 152" fill="none" xmlns="http://www.w3.org/2000/svg">
<rect x="0.5" y="0.5" width="461" height="151" rx="15.5" stroke="#FA7FC1"/>
<line x1="1" y1="20.5" x2="461" y2="20.5" stroke="#FA7FC1"/>
<circle cx="22" cy="11" r="4" fill="#3E86BA"/>
<circle cx="50" cy="11" r="4" fill="#3E86BA"/>
<circle cx="36" cy="11" r="4" fill="#3E86BA"/>
<rect x="56.5" y="87.5" width="349" height="47" stroke="#FA7FC1"/>
<path d="M75.42 109.276H76.414L77.24 115.52H77.366L78.598 109.276H79.83L81.062 115.52H81.188L82.014 109.276H82.98L81.874 116.5H80.418L79.27 110.452H79.158L77.982 116.5H76.526L75.42 109.276ZM86.6145 109.276H87.6085L88.4345 115.52H88.5605L89.7925 109.276H91.0245L92.2565 115.52H92.3825L93.2085 109.276H94.1745L93.0685 116.5H91.6125L90.4645 110.452H90.3525L89.1765 116.5H87.7205L86.6145 109.276ZM97.8091 109.276H98.8031L99.6291 115.52H99.7551L100.987 109.276H102.219L103.451 115.52H103.577L104.403 109.276H105.369L104.263 116.5H102.807L101.659 110.452H101.547L100.371 116.5H98.9151L97.8091 109.276ZM112.784 116.626C112.401 116.626 112.13 116.547 111.972 116.388C111.822 116.229 111.748 116.029 111.748 115.786V115.534C111.748 115.291 111.822 115.091 111.972 114.932C112.13 114.773 112.401 114.694 112.784 114.694C113.166 114.694 113.432 114.773 113.582 114.932C113.74 115.091 113.82 115.291 113.82 115.534V115.786C113.82 116.029 113.74 116.229 113.582 116.388C113.432 116.547 113.166 116.626 112.784 116.626ZM120.94 115.548H123.376V110.228H120.8V109.276H123.376V107.792C123.376 107.307 123.502 106.91 123.754 106.602C124.015 106.294 124.421 106.14 124.972 106.14H127.394V107.092H124.496V109.276H127.394V110.228H124.496V115.548H127.072V116.5H120.94V115.548ZM132.051 115.548H134.165V110.228H132.051V109.276H135.285V111.096H135.355C135.504 110.527 135.784 110.083 136.195 109.766C136.615 109.439 137.147 109.276 137.791 109.276H138.799V110.396H137.441C136.797 110.396 136.274 110.583 135.873 110.956C135.481 111.329 135.285 111.819 135.285 112.426V115.548H138.085V116.5H132.051V115.548ZM146.493 116.668C145.971 116.668 145.499 116.579 145.079 116.402C144.669 116.225 144.314 115.973 144.015 115.646C143.726 115.31 143.502 114.913 143.343 114.456C143.185 113.989 143.105 113.471 143.105 112.902C143.105 112.323 143.185 111.801 143.343 111.334C143.511 110.867 143.74 110.471 144.029 110.144C144.319 109.808 144.664 109.551 145.065 109.374C145.476 109.197 145.929 109.108 146.423 109.108C146.909 109.108 147.347 109.197 147.739 109.374C148.141 109.551 148.481 109.799 148.761 110.116C149.041 110.424 149.256 110.793 149.405 111.222C149.555 111.651 149.629 112.123 149.629 112.636V113.168H144.281V113.504C144.281 113.821 144.333 114.115 144.435 114.386C144.538 114.657 144.683 114.89 144.869 115.086C145.065 115.282 145.299 115.436 145.569 115.548C145.849 115.651 146.157 115.702 146.493 115.702C146.979 115.702 147.399 115.59 147.753 115.366C148.108 115.142 148.379 114.834 148.565 114.442L149.391 115.002C149.177 115.487 148.817 115.889 148.313 116.206C147.819 116.514 147.212 116.668 146.493 116.668ZM146.423 110.032C146.115 110.032 145.831 110.088 145.569 110.2C145.308 110.312 145.079 110.466 144.883 110.662C144.697 110.858 144.547 111.091 144.435 111.362C144.333 111.623 144.281 111.913 144.281 112.23V112.328H148.425V112.174C148.425 111.857 148.374 111.567 148.271 111.306C148.178 111.045 148.043 110.821 147.865 110.634C147.697 110.438 147.487 110.289 147.235 110.186C146.993 110.083 146.722 110.032 146.423 110.032ZM159.312 115.324H159.256C158.789 116.22 158.047 116.668 157.03 116.668C156.143 116.668 155.448 116.337 154.944 115.674C154.449 115.011 154.202 114.083 154.202 112.888C154.202 111.693 154.449 110.765 154.944 110.102C155.448 109.439 156.143 109.108 157.03 109.108C158.047 109.108 158.789 109.556 159.256 110.452H159.312V106.14H160.432V116.5H159.312V115.324ZM157.464 115.674C157.716 115.674 157.954 115.641 158.178 115.576C158.402 115.511 158.598 115.417 158.766 115.296C158.934 115.165 159.064 115.011 159.158 114.834C159.26 114.647 159.312 114.433 159.312 114.19V111.586C159.312 111.343 159.26 111.133 159.158 110.956C159.064 110.769 158.934 110.615 158.766 110.494C158.598 110.363 158.402 110.265 158.178 110.2C157.954 110.135 157.716 110.102 157.464 110.102C156.81 110.102 156.302 110.303 155.938 110.704C155.583 111.096 155.406 111.619 155.406 112.272V113.504C155.406 114.157 155.583 114.685 155.938 115.086C156.302 115.478 156.81 115.674 157.464 115.674ZM168.882 116.668C168.36 116.668 167.888 116.579 167.468 116.402C167.058 116.225 166.703 115.973 166.404 115.646C166.115 115.31 165.891 114.913 165.732 114.456C165.574 113.989 165.494 113.471 165.494 112.902C165.494 112.323 165.574 111.801 165.732 111.334C165.9 110.867 166.129 110.471 166.418 110.144C166.708 109.808 167.053 109.551 167.454 109.374C167.865 109.197 168.318 109.108 168.812 109.108C169.298 109.108 169.736 109.197 170.128 109.374C170.53 109.551 170.87 109.799 171.15 110.116C171.43 110.424 171.645 110.793 171.794 111.222C171.944 111.651 172.018 112.123 172.018 112.636V113.168H166.67V113.504C166.67 113.821 166.722 114.115 166.824 114.386C166.927 114.657 167.072 114.89 167.258 115.086C167.454 115.282 167.688 115.436 167.958 115.548C168.238 115.651 168.546 115.702 168.882 115.702C169.368 115.702 169.788 115.59 170.142 115.366C170.497 115.142 170.768 114.834 170.954 114.442L171.78 115.002C171.566 115.487 171.206 115.889 170.702 116.206C170.208 116.514 169.601 116.668 168.882 116.668ZM168.812 110.032C168.504 110.032 168.22 110.088 167.958 110.2C167.697 110.312 167.468 110.466 167.272 110.662C167.086 110.858 166.936 111.091 166.824 111.362C166.722 111.623 166.67 111.913 166.67 112.23V112.328H170.814V112.174C170.814 111.857 170.763 111.567 170.66 111.306C170.567 111.045 170.432 110.821 170.254 110.634C170.086 110.438 169.876 110.289 169.624 110.186C169.382 110.083 169.111 110.032 168.812 110.032ZM176.829 115.548H178.943V110.228H176.829V109.276H180.063V111.096H180.133C180.282 110.527 180.562 110.083 180.973 109.766C181.393 109.439 181.925 109.276 182.569 109.276H183.577V110.396H182.219C181.575 110.396 181.052 110.583 180.651 110.956C180.259 111.329 180.063 111.819 180.063 112.426V115.548H182.863V116.5H176.829V115.548ZM191.593 107.68C191.267 107.68 191.038 107.615 190.907 107.484C190.777 107.344 190.711 107.171 190.711 106.966V106.742C190.711 106.537 190.777 106.369 190.907 106.238C191.038 106.098 191.267 106.028 191.593 106.028C191.92 106.028 192.149 106.098 192.279 106.238C192.41 106.369 192.475 106.537 192.475 106.742V106.966C192.475 107.171 192.41 107.344 192.279 107.484C192.149 107.615 191.92 107.68 191.593 107.68ZM188.429 115.548H191.033V110.228H188.429V109.276H192.153V115.548H194.589V116.5H188.429V115.548ZM199.61 106.14H200.73V112.678H200.786L202.046 111.488L204.454 109.276H205.826L202.83 112.104L206.176 116.5H204.79L201.976 112.748L200.73 113.882V116.5H199.61V106.14ZM210.804 106.14H211.924V112.678H211.98L213.24 111.488L215.648 109.276H217.02L214.024 112.104L217.37 116.5H215.984L213.17 112.748L211.924 113.882V116.5H210.804V106.14ZM224.855 116.668C224.332 116.668 223.861 116.579 223.441 116.402C223.03 116.225 222.676 115.973 222.377 115.646C222.088 115.31 221.864 114.913 221.705 114.456C221.546 113.989 221.467 113.471 221.467 112.902C221.467 112.323 221.546 111.801 221.705 111.334C221.873 110.867 222.102 110.471 222.391 110.144C222.68 109.808 223.026 109.551 223.427 109.374C223.838 109.197 224.29 109.108 224.785 109.108C225.27 109.108 225.709 109.197 226.101 109.374C226.502 109.551 226.843 109.799 227.123 110.116C227.403 110.424 227.618 110.793 227.767 111.222C227.916 111.651 227.991 112.123 227.991 112.636V113.168H222.643V113.504C222.643 113.821 222.694 114.115 222.797 114.386C222.9 114.657 223.044 114.89 223.231 115.086C223.427 115.282 223.66 115.436 223.931 115.548C224.211 115.651 224.519 115.702 224.855 115.702C225.34 115.702 225.76 115.59 226.115 115.366C226.47 115.142 226.74 114.834 226.927 114.442L227.753 115.002C227.538 115.487 227.179 115.889 226.675 116.206C226.18 116.514 225.574 116.668 224.855 116.668ZM224.785 110.032C224.477 110.032 224.192 110.088 223.931 110.2C223.67 110.312 223.441 110.466 223.245 110.662C223.058 110.858 222.909 111.091 222.797 111.362C222.694 111.623 222.643 111.913 222.643 112.23V112.328H226.787V112.174C226.787 111.857 226.736 111.567 226.633 111.306C226.54 111.045 226.404 110.821 226.227 110.634C226.059 110.438 225.849 110.289 225.597 110.186C225.354 110.083 225.084 110.032 224.785 110.032ZM232.479 116.5V109.276H233.515V110.116H233.571C233.683 109.836 233.842 109.598 234.047 109.402C234.253 109.206 234.556 109.108 234.957 109.108C235.377 109.108 235.69 109.215 235.895 109.43C236.101 109.635 236.227 109.906 236.273 110.242H236.315C236.446 109.915 236.633 109.645 236.875 109.43C237.118 109.215 237.454 109.108 237.883 109.108C238.471 109.108 238.863 109.313 239.059 109.724C239.265 110.135 239.367 110.723 239.367 111.488V116.5H238.331V111.67C238.331 111.054 238.266 110.629 238.135 110.396C238.014 110.153 237.785 110.032 237.449 110.032C237.151 110.032 236.908 110.13 236.721 110.326C236.535 110.513 236.441 110.802 236.441 111.194V116.5H235.405V111.67C235.405 111.054 235.34 110.629 235.209 110.396C235.088 110.153 234.864 110.032 234.537 110.032C234.239 110.032 233.991 110.13 233.795 110.326C233.609 110.513 233.515 110.802 233.515 111.194V116.5H232.479ZM247.244 116.668C246.721 116.668 246.25 116.579 245.83 116.402C245.419 116.225 245.065 115.973 244.766 115.646C244.477 115.31 244.253 114.913 244.094 114.456C243.935 113.989 243.856 113.471 243.856 112.902C243.856 112.323 243.935 111.801 244.094 111.334C244.262 110.867 244.491 110.471 244.78 110.144C245.069 109.808 245.415 109.551 245.816 109.374C246.227 109.197 246.679 109.108 247.174 109.108C247.659 109.108 248.098 109.197 248.49 109.374C248.891 109.551 249.232 109.799 249.512 110.116C249.792 110.424 250.007 110.793 250.156 111.222C250.305 111.651 250.38 112.123 250.38 112.636V113.168H245.032V113.504C245.032 113.821 245.083 114.115 245.186 114.386C245.289 114.657 245.433 114.89 245.62 115.086C245.816 115.282 246.049 115.436 246.32 115.548C246.6 115.651 246.908 115.702 247.244 115.702C247.729 115.702 248.149 115.59 248.504 115.366C248.859 115.142 249.129 114.834 249.316 114.442L250.142 115.002C249.927 115.487 249.568 115.889 249.064 116.206C248.569 116.514 247.963 116.668 247.244 116.668ZM247.174 110.032C246.866 110.032 246.581 110.088 246.32 110.2C246.059 110.312 245.83 110.466 245.634 110.662C245.447 110.858 245.298 111.091 245.186 111.362C245.083 111.623 245.032 111.913 245.032 112.23V112.328H249.176V112.174C249.176 111.857 249.125 111.567 249.022 111.306C248.929 111.045 248.793 110.821 248.616 110.634C248.448 110.438 248.238 110.289 247.986 110.186C247.743 110.083 247.473 110.032 247.174 110.032ZM255.541 118.348H259.041V110.228H255.415V109.276H260.161V117.648C260.161 118.133 260.03 118.53 259.769 118.838C259.517 119.146 259.115 119.3 258.565 119.3H255.541V118.348ZM259.601 107.68C259.274 107.68 259.045 107.615 258.915 107.484C258.784 107.344 258.719 107.171 258.719 106.966V106.742C258.719 106.537 258.784 106.369 258.915 106.238C259.045 106.098 259.274 106.028 259.601 106.028C259.927 106.028 260.156 106.098 260.287 106.238C260.417 106.369 260.483 106.537 260.483 106.742V106.966C260.483 107.171 260.417 107.344 260.287 107.484C260.156 107.615 259.927 107.68 259.601 107.68ZM266.427 115.548H268.947V107.092H266.427V106.14H270.067V115.548H272.587V116.5H266.427V115.548ZM279.988 116.5L277.398 109.276H278.532L279.568 112.3L280.688 115.562H280.744L281.864 112.3L282.9 109.276H284.006L281.416 116.5H279.988ZM294.626 116.5C294.187 116.5 293.875 116.388 293.688 116.164C293.501 115.94 293.385 115.66 293.338 115.324H293.268C293.109 115.744 292.853 116.075 292.498 116.318C292.153 116.551 291.686 116.668 291.098 116.668C290.342 116.668 289.74 116.472 289.292 116.08C288.844 115.688 288.62 115.151 288.62 114.47C288.62 113.798 288.863 113.28 289.348 112.916C289.843 112.552 290.636 112.37 291.728 112.37H293.268V111.656C293.268 111.124 293.119 110.727 292.82 110.466C292.521 110.195 292.097 110.06 291.546 110.06C291.061 110.06 290.664 110.158 290.356 110.354C290.048 110.541 289.801 110.797 289.614 111.124L288.858 110.564C288.951 110.377 289.077 110.195 289.236 110.018C289.395 109.841 289.591 109.687 289.824 109.556C290.057 109.416 290.323 109.309 290.622 109.234C290.921 109.15 291.252 109.108 291.616 109.108C292.465 109.108 293.137 109.323 293.632 109.752C294.136 110.181 294.388 110.779 294.388 111.544V115.52H295.396V116.5H294.626ZM291.294 115.73C291.583 115.73 291.845 115.697 292.078 115.632C292.321 115.557 292.531 115.464 292.708 115.352C292.885 115.231 293.021 115.091 293.114 114.932C293.217 114.764 293.268 114.587 293.268 114.4V113.21H291.728C291.056 113.21 290.566 113.303 290.258 113.49C289.95 113.677 289.796 113.947 289.796 114.302V114.596C289.796 114.969 289.927 115.254 290.188 115.45C290.459 115.637 290.827 115.73 291.294 115.73ZM300.263 116.5V109.276H301.383V110.452H301.439C301.513 110.275 301.607 110.107 301.719 109.948C301.831 109.78 301.966 109.635 302.125 109.514C302.293 109.393 302.489 109.295 302.713 109.22C302.937 109.145 303.198 109.108 303.497 109.108C304.253 109.108 304.859 109.351 305.317 109.836C305.774 110.312 306.003 110.989 306.003 111.866V116.5H304.883V112.062C304.883 111.399 304.738 110.909 304.449 110.592C304.159 110.265 303.735 110.102 303.175 110.102C302.951 110.102 302.731 110.13 302.517 110.186C302.302 110.242 302.111 110.326 301.943 110.438C301.775 110.55 301.639 110.695 301.537 110.872C301.434 111.049 301.383 111.255 301.383 111.488V116.5H300.263ZM317.939 117.326C317.939 118.054 317.636 118.591 317.029 118.936C316.422 119.291 315.512 119.468 314.299 119.468C313.132 119.468 312.292 119.314 311.779 119.006C311.275 118.698 311.023 118.255 311.023 117.676C311.023 117.284 311.126 116.981 311.331 116.766C311.536 116.551 311.826 116.393 312.199 116.29V116.122C311.994 116.019 311.835 115.889 311.723 115.73C311.611 115.571 311.555 115.371 311.555 115.128C311.555 114.755 311.676 114.475 311.919 114.288C312.171 114.101 312.484 113.961 312.857 113.868V113.812C312.409 113.616 312.059 113.327 311.807 112.944C311.564 112.561 311.443 112.113 311.443 111.6C311.443 111.236 311.508 110.9 311.639 110.592C311.77 110.284 311.956 110.023 312.199 109.808C312.451 109.584 312.75 109.411 313.095 109.29C313.44 109.169 313.823 109.108 314.243 109.108C314.784 109.108 315.26 109.206 315.671 109.402V109.276C315.671 108.996 315.736 108.763 315.867 108.576C315.998 108.389 316.222 108.296 316.539 108.296H317.869V109.276H316.245V109.766C316.506 109.99 316.707 110.256 316.847 110.564C316.987 110.872 317.057 111.217 317.057 111.6C317.057 111.964 316.987 112.3 316.847 112.608C316.716 112.916 316.53 113.182 316.287 113.406C316.044 113.621 315.746 113.789 315.391 113.91C315.046 114.031 314.663 114.092 314.243 114.092C314.122 114.092 314.005 114.087 313.893 114.078C313.781 114.069 313.669 114.055 313.557 114.036C313.445 114.055 313.328 114.087 313.207 114.134C313.086 114.171 312.974 114.227 312.871 114.302C312.768 114.367 312.684 114.447 312.619 114.54C312.554 114.633 312.521 114.741 312.521 114.862C312.521 115.077 312.628 115.221 312.843 115.296C313.058 115.361 313.338 115.394 313.683 115.394H315.279C316.212 115.394 316.889 115.571 317.309 115.926C317.729 116.271 317.939 116.738 317.939 117.326ZM316.889 117.382C316.889 117.093 316.772 116.859 316.539 116.682C316.306 116.514 315.9 116.43 315.321 116.43H312.815C312.33 116.626 312.087 116.953 312.087 117.41C312.087 117.727 312.213 117.998 312.465 118.222C312.717 118.455 313.137 118.572 313.725 118.572H314.817C315.47 118.572 315.979 118.469 316.343 118.264C316.707 118.068 316.889 117.774 316.889 117.382ZM314.243 113.224C314.803 113.224 315.214 113.093 315.475 112.832C315.746 112.571 315.881 112.225 315.881 111.796V111.39C315.881 110.961 315.746 110.62 315.475 110.368C315.214 110.107 314.803 109.976 314.243 109.976C313.683 109.976 313.272 110.107 313.011 110.368C312.75 110.62 312.619 110.961 312.619 111.39V111.796C312.619 112.225 312.75 112.571 313.011 112.832C313.272 113.093 313.683 113.224 314.243 113.224ZM325.48 116.626C325.097 116.626 324.826 116.547 324.668 116.388C324.518 116.229 324.444 116.029 324.444 115.786V115.534C324.444 115.291 324.518 115.091 324.668 114.932C324.826 114.773 325.097 114.694 325.48 114.694C325.862 114.694 326.128 114.773 326.278 114.932C326.436 115.091 326.516 115.291 326.516 115.534V115.786C326.516 116.029 326.436 116.229 326.278 116.388C326.128 116.547 325.862 116.626 325.48 116.626ZM338.424 115.324H338.368C337.902 116.22 337.16 116.668 336.142 116.668C335.256 116.668 334.56 116.337 334.056 115.674C333.562 115.011 333.314 114.083 333.314 112.888C333.314 111.693 333.562 110.765 334.056 110.102C334.56 109.439 335.256 109.108 336.142 109.108C337.16 109.108 337.902 109.556 338.368 110.452H338.424V106.14H339.544V116.5H338.424V115.324ZM336.576 115.674C336.828 115.674 337.066 115.641 337.29 115.576C337.514 115.511 337.71 115.417 337.878 115.296C338.046 115.165 338.177 115.011 338.27 114.834C338.373 114.647 338.424 114.433 338.424 114.19V111.586C338.424 111.343 338.373 111.133 338.27 110.956C338.177 110.769 338.046 110.615 337.878 110.494C337.71 110.363 337.514 110.265 337.29 110.2C337.066 110.135 336.828 110.102 336.576 110.102C335.923 110.102 335.414 110.303 335.05 110.704C334.696 111.096 334.518 111.619 334.518 112.272V113.504C334.518 114.157 334.696 114.685 335.05 115.086C335.414 115.478 335.923 115.674 336.576 115.674ZM345.139 106.14H346.259V112.678H346.315L347.575 111.488L349.983 109.276H351.355L348.359 112.104L351.705 116.5H350.319L347.505 112.748L346.259 113.882V116.5H345.139V106.14ZM356.123 118.432L360.995 105.86H362.003L357.131 118.432H356.123ZM370.846 107.75V116.5H369.67V107.75H366.408V106.728H374.108V107.75H370.846ZM381.032 110.872C381.714 110.872 382.222 110.723 382.558 110.424C382.904 110.116 383.076 109.724 383.076 109.248V109.15C383.076 108.627 382.908 108.235 382.572 107.974C382.246 107.713 381.816 107.582 381.284 107.582C380.762 107.582 380.337 107.699 380.01 107.932C379.693 108.156 379.432 108.455 379.226 108.828L378.344 108.156C378.466 107.96 378.615 107.769 378.792 107.582C378.97 107.386 379.175 107.213 379.408 107.064C379.651 106.915 379.926 106.793 380.234 106.7C380.552 106.607 380.911 106.56 381.312 106.56C381.732 106.56 382.124 106.616 382.488 106.728C382.852 106.831 383.17 106.989 383.44 107.204C383.711 107.409 383.921 107.666 384.07 107.974C384.229 108.282 384.308 108.632 384.308 109.024C384.308 109.341 384.257 109.626 384.154 109.878C384.061 110.13 383.926 110.349 383.748 110.536C383.58 110.723 383.38 110.881 383.146 111.012C382.913 111.143 382.666 111.241 382.404 111.306V111.362C382.675 111.418 382.936 111.511 383.188 111.642C383.44 111.763 383.664 111.927 383.86 112.132C384.056 112.328 384.21 112.571 384.322 112.86C384.444 113.14 384.504 113.462 384.504 113.826C384.504 114.246 384.42 114.633 384.252 114.988C384.094 115.333 383.865 115.632 383.566 115.884C383.277 116.127 382.922 116.318 382.502 116.458C382.092 116.598 381.634 116.668 381.13 116.668C380.701 116.668 380.318 116.621 379.982 116.528C379.656 116.435 379.362 116.309 379.1 116.15C378.848 115.991 378.624 115.814 378.428 115.618C378.242 115.422 378.074 115.217 377.924 115.002L378.806 114.33C378.937 114.526 379.072 114.703 379.212 114.862C379.352 115.021 379.511 115.161 379.688 115.282C379.875 115.394 380.085 115.483 380.318 115.548C380.552 115.613 380.822 115.646 381.13 115.646C381.821 115.646 382.348 115.487 382.712 115.17C383.086 114.853 383.272 114.4 383.272 113.812V113.7C383.272 113.121 383.09 112.673 382.726 112.356C382.372 112.039 381.835 111.88 381.116 111.88H379.954V110.872H381.032Z" fill="black"/>
<path d="M185.092 37H186.182C189.965 37.0822 193.687 38.6037 196.359 41.2972C195.373 42.3047 194.365 43.271 193.399 44.2785C191.898 42.9215 190.088 41.8729 188.115 41.5028C185.195 40.886 182.049 41.4411 179.602 43.1065C176.93 44.8542 175.12 47.8149 174.73 50.9813C174.298 54.1065 175.182 57.3963 177.217 59.8224C179.171 62.1869 182.152 63.6673 185.236 63.7701C188.115 63.9346 191.116 63.0505 193.214 61.0355C194.859 59.6168 195.619 57.4579 195.866 55.3607C192.453 55.3607 189.04 55.3813 185.627 55.3607V51.1252H199.999C200.739 55.6691 199.67 60.7888 196.216 64.0374C193.913 66.3402 190.726 67.6972 187.477 67.9645C184.331 68.2729 181.083 67.6766 178.287 66.1551C174.935 64.3663 172.262 61.3439 170.946 57.7869C169.713 54.5177 169.692 50.8168 170.844 47.5271C171.892 44.5252 173.907 41.8729 176.498 40.0224C178.986 38.1925 182.008 37.185 185.092 37Z" fill="#E365A9"/>
<path d="M267.541 38.0691H271.941V67.4298C270.481 67.4298 269.001 67.4504 267.541 67.4093C267.562 57.6429 267.541 47.856 267.541 38.0691Z" fill="#FFC7E5"/>
<path d="M209.786 48.2467C212.5 47.7326 215.44 48.3083 217.681 49.9326C219.716 51.3719 221.135 53.6336 221.567 56.1009C222.122 58.9588 221.423 62.084 219.572 64.3457C217.578 66.8747 214.309 68.2317 211.122 68.0261C208.202 67.8616 205.365 66.4018 203.638 64.0167C201.685 61.385 201.212 57.7663 202.281 54.6822C203.35 51.3719 206.372 48.8429 209.786 48.2467ZM210.402 52.1532C209.292 52.441 208.264 53.0784 207.524 53.9831C205.529 56.3682 205.653 60.2541 207.853 62.4747C209.107 63.7495 210.999 64.3457 212.746 63.9962C214.371 63.7083 215.789 62.6186 216.571 61.1794C217.928 58.7326 217.537 55.3607 215.46 53.4485C214.124 52.2149 212.171 51.7009 210.402 52.1532Z" fill="#FA7FC1"/>
<path d="M231.58 48.2467C234.685 47.6504 238.077 48.514 240.401 50.6934C244.184 54.086 244.595 60.4392 241.367 64.3458C239.414 66.8131 236.247 68.1701 233.122 68.0261C230.141 67.9439 227.201 66.4635 225.432 64.0168C223.438 61.3233 223.006 57.6224 224.137 54.4766C225.268 51.2691 228.229 48.8224 231.58 48.2467ZM232.197 52.1532C231.087 52.4411 230.058 53.0785 229.318 53.9626C227.344 56.3065 227.427 60.1308 229.544 62.3719C230.799 63.7084 232.752 64.3663 234.561 63.9962C236.165 63.6878 237.604 62.6187 238.386 61.1794C239.722 58.7121 239.331 55.3402 237.234 53.428C235.898 52.1944 233.944 51.7009 232.197 52.1532Z" fill="#FEAAD8"/>
<path d="M250.064 49.4393C252.429 47.9589 255.575 47.5477 258.124 48.8224C258.926 49.172 259.584 49.7682 260.221 50.3645C260.242 49.8094 260.221 49.2337 260.242 48.658C261.62 48.6785 262.997 48.658 264.395 48.6785V66.8131C264.375 69.5477 263.676 72.4467 261.702 74.4411C259.543 76.6411 256.233 77.3196 253.251 76.8673C250.064 76.3944 247.289 74.071 246.055 71.1308C247.289 70.5346 248.584 70.0617 249.859 69.5065C250.578 71.1925 252.038 72.6318 253.868 72.9607C255.698 73.2897 257.816 72.8374 259.008 71.3159C260.283 69.7533 260.283 67.615 260.221 65.7028C259.276 66.628 258.186 67.4505 256.87 67.7589C254.012 68.5608 250.866 67.5738 248.666 65.6411C246.446 63.7084 245.13 60.7271 245.253 57.7664C245.315 54.415 247.206 51.1869 250.064 49.4393ZM254.32 52.071C253.066 52.2766 251.894 52.9757 251.092 53.9421C249.16 56.2449 249.16 59.9252 251.113 62.1869C252.223 63.5234 254.012 64.2636 255.739 64.0785C257.363 63.914 258.864 62.886 259.666 61.4673C261.023 59.0617 260.797 55.7925 258.967 53.6953C257.836 52.4 256.027 51.7626 254.32 52.071Z" fill="#E365A9"/>
<path d="M277.225 50.4878C279.692 48.185 283.496 47.4037 286.662 48.6168C289.664 49.7476 291.576 52.6056 292.542 55.5458C288.081 57.3962 283.64 59.2261 279.178 61.0766C279.795 62.2486 280.741 63.3177 282.015 63.7495C283.804 64.3869 285.942 64.1607 287.443 62.9682C288.04 62.5159 288.513 61.9196 288.965 61.3439C290.096 62.1046 291.227 62.8448 292.357 63.6056C290.754 66.0112 288.06 67.6972 285.161 67.9645C281.954 68.3551 278.541 67.1215 276.464 64.6131C273.051 60.6654 273.38 54.0448 277.225 50.4878ZM279.425 54.2916C278.726 55.299 278.438 56.5327 278.458 57.7458C281.44 56.5121 284.421 55.2785 287.402 54.0243C286.909 52.8729 285.716 52.1738 284.503 51.9888C282.55 51.6392 280.514 52.6878 279.425 54.2916Z" fill="#FA7FC1"/>
</svg>
