<svg width="404" height="154" viewBox="0 0 404 154" fill="none" xmlns="http://www.w3.org/2000/svg">
<path d="M2 17C2 8.71573 8.71573 2 17 2H387C395.284 2 402 8.71573 402 17V22H2V17Z" fill="#F6F5F1"/>
<rect x="2.5" y="2.5" width="399" height="149" rx="14.5" stroke="#FA7FC1"/>
<line x1="2" y1="21.5" x2="402" y2="21.5" stroke="#FA7FC1"/>
<path d="M2 22H402V137C402 145.284 395.284 152 387 152H17C8.71574 152 2 145.284 2 137V22Z" fill="#FA7FC1"/>
<path d="M51.656 68.768H51.536C51.392 69.088 51.224 69.4 51.032 69.704C50.84 70.008 50.592 70.28 50.288 70.52C50 70.744 49.648 70.928 49.232 71.072C48.816 71.216 48.32 71.288 47.744 71.288C45.92 71.288 44.56 70.552 43.664 69.08C42.784 67.608 42.344 65.496 42.344 62.744C42.344 59.864 42.832 57.68 43.808 56.192C44.784 54.704 46.288 53.96 48.32 53.96C49.104 53.96 49.784 54.064 50.36 54.272C50.936 54.48 51.424 54.76 51.824 55.112C52.24 55.464 52.584 55.864 52.856 56.312C53.128 56.744 53.352 57.184 53.528 57.632L51.8 58.424C51.656 58.056 51.488 57.712 51.296 57.392C51.12 57.056 50.896 56.768 50.624 56.528C50.368 56.272 50.056 56.072 49.688 55.928C49.32 55.784 48.888 55.712 48.392 55.712C47.048 55.712 46.056 56.216 45.416 57.224C44.792 58.232 44.48 59.576 44.48 61.256V63.848C44.48 64.696 44.544 65.472 44.672 66.176C44.8 66.864 45.008 67.464 45.296 67.976C45.6 68.488 45.984 68.888 46.448 69.176C46.928 69.448 47.512 69.584 48.2 69.584C49.288 69.584 50.136 69.256 50.744 68.6C51.352 67.944 51.656 67.096 51.656 66.056V64.328H48.128V62.72H53.528V71H51.656V68.768ZM71.7346 71L70.3186 66.224H64.4386L63.0226 71H60.9346L66.0706 54.248H68.7346L73.8706 71H71.7346ZM67.4866 56.384H67.2706L64.9186 64.472H69.8386L67.4866 56.384ZM67.3906 53.096C67.0066 53.096 66.6386 53.032 66.2866 52.904C65.9506 52.76 65.6546 52.568 65.3986 52.328C65.1586 52.072 64.9666 51.776 64.8226 51.44C64.6786 51.104 64.6066 50.736 64.6066 50.336C64.6066 49.936 64.6786 49.568 64.8226 49.232C64.9666 48.896 65.1586 48.608 65.3986 48.368C65.6546 48.112 65.9506 47.92 66.2866 47.792C66.6386 47.648 67.0066 47.576 67.3906 47.576C67.7746 47.576 68.1346 47.648 68.4706 47.792C68.8226 47.92 69.1186 48.112 69.3586 48.368C69.6146 48.608 69.8146 48.896 69.9586 49.232C70.1026 49.568 70.1746 49.936 70.1746 50.336C70.1746 50.736 70.1026 51.104 69.9586 51.44C69.8146 51.776 69.6146 52.072 69.3586 52.328C69.1186 52.568 68.8226 52.76 68.4706 52.904C68.1346 53.032 67.7746 53.096 67.3906 53.096ZM67.3906 51.92C67.8226 51.92 68.1586 51.808 68.3986 51.584C68.6546 51.344 68.7826 51.016 68.7826 50.6V50.072C68.7826 49.656 68.6546 49.336 68.3986 49.112C68.1586 48.872 67.8226 48.752 67.3906 48.752C66.9586 48.752 66.6146 48.872 66.3586 49.112C66.1186 49.336 65.9986 49.656 65.9986 50.072V50.6C65.9986 51.016 66.1186 51.344 66.3586 51.584C66.6146 51.808 66.9586 51.92 67.3906 51.92ZM106.78 56V71H104.764V56H99.1719V54.248H112.372V56H106.78ZM119.778 71V69.392H123.954V55.856H119.778V54.248H130.146V55.856H125.97V69.392H130.146V71H119.778ZM139.833 71V54.248H141.849V69.248H149.793V71H139.833ZM177.494 71V54.248H183.59C185.142 54.248 186.326 54.672 187.142 55.52C187.958 56.368 188.366 57.552 188.366 59.072C188.366 60.592 187.958 61.776 187.142 62.624C186.326 63.472 185.142 63.896 183.59 63.896H179.51V71H177.494ZM179.51 62.144H183.542C184.39 62.144 185.046 61.936 185.51 61.52C185.99 61.088 186.23 60.48 186.23 59.696V58.448C186.23 57.664 185.99 57.064 185.51 56.648C185.046 56.216 184.39 56 183.542 56H179.51V62.144ZM198.701 71H196.685V54.248H202.781C204.333 54.248 205.517 54.672 206.333 55.52C207.149 56.368 207.557 57.552 207.557 59.072C207.557 60.432 207.205 61.52 206.501 62.336C205.797 63.152 204.773 63.624 203.429 63.752L207.701 71H205.445L201.365 63.848H198.701V71ZM202.733 62.144C203.581 62.144 204.237 61.936 204.701 61.52C205.181 61.088 205.421 60.48 205.421 59.696V58.448C205.421 57.664 205.181 57.064 204.701 56.648C204.237 56.216 203.581 56 202.733 56H198.701V62.144H202.733ZM220.916 71.288C219.892 71.288 219.012 71.096 218.276 70.712C217.54 70.312 216.932 69.744 216.452 69.008C215.972 68.272 215.62 67.368 215.396 66.296C215.172 65.224 215.06 64 215.06 62.624C215.06 61.264 215.172 60.048 215.396 58.976C215.62 57.888 215.972 56.976 216.452 56.24C216.932 55.504 217.54 54.944 218.276 54.56C219.012 54.16 219.892 53.96 220.916 53.96C221.94 53.96 222.82 54.16 223.556 54.56C224.292 54.944 224.9 55.504 225.38 56.24C225.86 56.976 226.212 57.888 226.436 58.976C226.66 60.048 226.772 61.264 226.772 62.624C226.772 64 226.66 65.224 226.436 66.296C226.212 67.368 225.86 68.272 225.38 69.008C224.9 69.744 224.292 70.312 223.556 70.712C222.82 71.096 221.94 71.288 220.916 71.288ZM220.916 69.536C221.588 69.536 222.156 69.408 222.62 69.152C223.084 68.88 223.468 68.504 223.772 68.024C224.076 67.544 224.292 66.968 224.42 66.296C224.564 65.608 224.636 64.84 224.636 63.992V61.256C224.636 60.424 224.564 59.664 224.42 58.976C224.292 58.288 224.076 57.704 223.772 57.224C223.468 56.744 223.084 56.376 222.62 56.12C222.156 55.848 221.588 55.712 220.916 55.712C220.244 55.712 219.676 55.848 219.212 56.12C218.748 56.376 218.364 56.744 218.06 57.224C217.756 57.704 217.532 58.288 217.388 58.976C217.26 59.664 217.196 60.424 217.196 61.256V63.992C217.196 64.84 217.26 65.608 217.388 66.296C217.532 66.968 217.756 67.544 218.06 68.024C218.364 68.504 218.748 68.88 219.212 69.152C219.676 69.408 220.244 69.536 220.916 69.536ZM244.426 54.248V66.656C244.426 67.36 244.306 68 244.066 68.576C243.826 69.152 243.482 69.64 243.034 70.04C242.602 70.44 242.082 70.752 241.474 70.976C240.866 71.184 240.202 71.288 239.482 71.288C238.202 71.288 237.146 70.96 236.314 70.304C235.482 69.632 234.938 68.696 234.682 67.496L236.602 67.088C236.682 67.424 236.786 67.744 236.914 68.048C237.058 68.336 237.242 68.592 237.466 68.816C237.706 69.024 237.994 69.192 238.33 69.32C238.666 69.448 239.066 69.512 239.53 69.512C240.442 69.512 241.146 69.256 241.642 68.744C242.154 68.216 242.41 67.4 242.41 66.296V56H236.362V54.248H244.426ZM254.257 71V54.248H264.577V56H256.273V61.64H264.289V63.392H256.273V69.248H264.577V71H254.257ZM277.744 62.792L275.344 65.624V71H273.328V54.248H275.344V62.984H275.416L277.624 60.2L282.568 54.248H284.992L279.112 61.304L285.16 71H282.808L277.744 62.792ZM298.686 56V71H296.67V56H291.078V54.248H304.278V56H298.686ZM311.829 71V54.248H322.149V56H313.845V61.64H321.861V63.392H313.845V69.248H322.149V71H311.829ZM333.035 71H331.019V54.248H337.115C338.667 54.248 339.851 54.672 340.667 55.52C341.483 56.368 341.891 57.552 341.891 59.072C341.891 60.432 341.539 61.52 340.835 62.336C340.131 63.152 339.107 63.624 337.763 63.752L342.035 71H339.779L335.699 63.848H333.035V71ZM337.067 62.144C337.915 62.144 338.571 61.936 339.035 61.52C339.515 61.088 339.755 60.48 339.755 59.696V58.448C339.755 57.664 339.515 57.064 339.035 56.648C338.571 56.216 337.915 56 337.067 56H333.035V62.144H337.067ZM353.786 65.84V62.072C355.162 62.008 356.242 61.712 357.026 61.184C357.81 60.64 358.202 59.824 358.202 58.736V58.4C358.202 57.504 357.93 56.832 357.386 56.384C356.858 55.936 356.13 55.712 355.202 55.712C354.242 55.712 353.474 55.976 352.898 56.504C352.322 57.032 351.922 57.704 351.698 58.52L349.898 57.848C350.058 57.32 350.282 56.824 350.57 56.36C350.858 55.88 351.218 55.464 351.65 55.112C352.098 54.76 352.618 54.48 353.21 54.272C353.818 54.064 354.506 53.96 355.274 53.96C356.042 53.96 356.73 54.072 357.338 54.296C357.962 54.504 358.49 54.808 358.922 55.208C359.354 55.592 359.69 56.064 359.93 56.624C360.17 57.184 360.29 57.808 360.29 58.496C360.29 59.248 360.154 59.912 359.882 60.488C359.61 61.048 359.258 61.528 358.826 61.928C358.394 62.328 357.898 62.656 357.338 62.912C356.794 63.152 356.242 63.32 355.682 63.416V65.84H353.786ZM354.818 71.216C354.162 71.216 353.698 71.08 353.426 70.808C353.17 70.536 353.042 70.192 353.042 69.776V69.344C353.042 68.928 353.17 68.584 353.426 68.312C353.698 68.04 354.162 67.904 354.818 67.904C355.474 67.904 355.93 68.04 356.186 68.312C356.458 68.584 356.594 68.928 356.594 69.344V69.776C356.594 70.192 356.458 70.536 356.186 70.808C355.93 71.08 355.474 71.216 354.818 71.216Z" fill="#F6F5F1"/>
<circle cx="23" cy="12" r="4" fill="#3E86BA"/>
<circle cx="51" cy="12" r="4" fill="#3E86BA"/>
<circle cx="37" cy="12" r="4" fill="#3E86BA"/>
<rect x="1" y="1" width="402" height="152" rx="16" stroke="#F6F5F1" stroke-width="2"/>
</svg>
