<svg width="153" height="39" viewBox="0 0 153 39" fill="none" xmlns="http://www.w3.org/2000/svg">
<rect x="3.5" y="3.5" width="149" height="35" rx="4.5" fill="#3E86BA" stroke="#3E86BA"/>
<rect x="0.5" y="0.5" width="149" height="35" rx="4.5" fill="#F6F5F1" stroke="#3E86BA"/>
<path d="M62.2 27.288C61.176 27.288 60.296 27.096 59.56 26.712C58.824 26.312 58.216 25.744 57.736 25.008C57.256 24.272 56.904 23.368 56.68 22.296C56.456 21.224 56.344 20 56.344 18.624C56.344 17.264 56.456 16.048 56.68 14.976C56.904 13.888 57.256 12.976 57.736 12.24C58.216 11.504 58.824 10.944 59.56 10.56C60.296 10.16 61.176 9.96 62.2 9.96C63.224 9.96 64.104 10.16 64.84 10.56C65.576 10.944 66.184 11.504 66.664 12.24C67.144 12.976 67.496 13.888 67.72 14.976C67.944 16.048 68.056 17.264 68.056 18.624C68.056 20 67.944 21.224 67.72 22.296C67.496 23.368 67.144 24.272 66.664 25.008C66.184 25.744 65.576 26.312 64.84 26.712C64.104 27.096 63.224 27.288 62.2 27.288ZM62.2 25.536C62.872 25.536 63.44 25.408 63.904 25.152C64.368 24.88 64.752 24.504 65.056 24.024C65.36 23.544 65.576 22.968 65.704 22.296C65.848 21.608 65.92 20.84 65.92 19.992V17.256C65.92 16.424 65.848 15.664 65.704 14.976C65.576 14.288 65.36 13.704 65.056 13.224C64.752 12.744 64.368 12.376 63.904 12.12C63.44 11.848 62.872 11.712 62.2 11.712C61.528 11.712 60.96 11.848 60.496 12.12C60.032 12.376 59.648 12.744 59.344 13.224C59.04 13.704 58.816 14.288 58.672 14.976C58.544 15.664 58.48 16.424 58.48 17.256V19.992C58.48 20.84 58.544 21.608 58.672 22.296C58.816 22.968 59.04 23.544 59.344 24.024C59.648 24.504 60.032 24.88 60.496 25.152C60.96 25.408 61.528 25.536 62.2 25.536ZM80.6466 18.792L78.2466 21.624V27H76.2306V10.248H78.2466V18.984H78.3186L80.5266 16.2L85.4706 10.248H87.8946L82.0146 17.304L88.0626 27H85.7106L80.6466 18.792Z" fill="#3E86BA"/>
</svg>
