<svg width="70" height="63" viewBox="0 0 70 63" fill="none" xmlns="http://www.w3.org/2000/svg">
<path d="M59.2899 30.3949C59.2899 46.3532 46.3532 59.2899 30.3949 59.2899C14.4367 59.2899 1.5 46.3532 1.5 30.3949C1.5 14.4367 14.4367 1.5 30.3949 1.5C46.3532 1.5 59.2899 14.4367 59.2899 30.3949Z" stroke="#FA7FC1" stroke-width="3"/>
<path d="M52.578 57.7767L48.2301 44.589C48.23 44.5888 48.2299 44.5886 48.2299 44.5884C48.0135 43.9284 48.1505 43.2313 48.5851 42.7122C49.0331 42.1826 49.699 41.9292 50.3837 42.0274C50.3839 42.0275 50.384 42.0275 50.3841 42.0275L64.1213 44.02L64.1236 44.0203C64.847 44.1241 65.4189 44.5807 65.6829 45.2702L65.6834 45.2718C65.9439 45.95 65.8236 46.6744 65.3512 47.2373L64.3746 48.4011L63.4104 49.5502L64.5595 50.5143L67.2188 52.7458L67.2232 52.7495C67.6255 53.0844 67.8714 53.554 67.9177 54.084C67.9638 54.6106 67.8052 55.1139 67.4617 55.5232L64.4865 59.0689L64.4828 59.0733C64.1479 59.4756 63.6782 59.7215 63.1483 59.7679C62.6217 59.8139 62.1184 59.6554 61.7091 59.3119L59.0498 57.0805L57.9007 56.1163L56.9366 57.2653L55.96 58.4291L57.1091 59.3933L55.96 58.4291C55.4877 58.992 54.7996 59.2364 54.0804 59.0973C53.3555 58.9571 52.8065 58.4732 52.5787 57.7788L52.578 57.7767Z" fill="#F6F5F1" stroke="#FA7FC1" stroke-width="3"/>
<path d="M27.36 38.276C27.36 39.188 27.408 39.932 27.504 40.508C27.624 41.06 27.864 41.492 28.224 41.804C28.584 42.092 29.088 42.296 29.736 42.416C30.408 42.536 31.284 42.608 32.364 42.632V44H19.62V42.632C20.46 42.608 21.132 42.536 21.636 42.416C22.164 42.296 22.572 42.092 22.86 41.804C23.148 41.516 23.34 41.108 23.436 40.58C23.532 40.052 23.58 39.368 23.58 38.528V21.752C23.58 20.912 23.532 20.24 23.436 19.736C23.364 19.208 23.196 18.8 22.932 18.512C22.692 18.2 22.332 17.996 21.852 17.9C21.372 17.78 20.748 17.696 19.98 17.648V16.28H40.788L41.184 23.156H39.924C39.78 22.124 39.552 21.284 39.24 20.636C38.928 19.964 38.484 19.436 37.908 19.052C37.356 18.668 36.648 18.404 35.784 18.26C34.92 18.092 33.84 18.008 32.544 18.008H27.972C27.564 18.008 27.36 18.212 27.36 18.62V29.492C28.512 29.492 29.496 29.432 30.312 29.312C31.152 29.168 31.836 28.928 32.364 28.592C32.916 28.256 33.336 27.8 33.624 27.224C33.912 26.648 34.092 25.904 34.164 24.992H35.424V35.54H34.164C34.044 34.628 33.852 33.872 33.588 33.272C33.324 32.672 32.928 32.204 32.4 31.868C31.896 31.532 31.236 31.292 30.42 31.148C29.604 31.004 28.584 30.932 27.36 30.932V38.276Z" fill="#FA7FC1"/>
<path d="M40 45.1508L44.4975 45" stroke="#FA7FC1" stroke-width="2" stroke-linecap="round"/>
<path d="M50 34L50.2878 38.4908" stroke="#FA7FC1" stroke-width="2" stroke-linecap="round"/>
<path d="M42 37L45.453 39.8856" stroke="#FA7FC1" stroke-width="2" stroke-linecap="round"/>
</svg>
