<svg width="70" height="64" viewBox="0 0 70 64" fill="none" xmlns="http://www.w3.org/2000/svg">
<path d="M59.2899 30.3949C59.2899 46.3532 46.3532 59.2899 30.3949 59.2899C14.4367 59.2899 1.5 46.3532 1.5 30.3949C1.5 14.4367 14.4367 1.5 30.3949 1.5C46.3532 1.5 59.2899 14.4367 59.2899 30.3949Z" stroke="#FA7FC1" stroke-width="3"/>
<path d="M52.5787 57.7788L52.578 57.7767L48.2301 44.589C48.23 44.5888 48.2299 44.5885 48.2298 44.5883C48.0135 43.9284 48.1505 43.2313 48.585 42.7123C49.033 42.1826 49.6989 41.9292 50.3838 42.0274C50.3839 42.0275 50.384 42.0275 50.3841 42.0275L64.1213 44.02L64.1236 44.0203C64.847 44.1241 65.4189 44.5807 65.6829 45.2702L65.6834 45.2718C65.9439 45.95 65.8236 46.6744 65.3512 47.2373L64.3746 48.4011L63.4104 49.5502L64.5595 50.5143L67.2188 52.7458L67.2232 52.7495C67.6255 53.0844 67.8714 53.554 67.9177 54.084C67.9638 54.6106 67.8052 55.1139 67.4617 55.5232L64.4865 59.0689L64.4828 59.0733C64.1479 59.4756 63.6782 59.7215 63.1483 59.7679C62.6217 59.8139 62.1184 59.6554 61.7091 59.3119L59.0498 57.0805L57.9008 56.1163L56.9366 57.2653L55.96 58.4291C55.4877 58.992 54.7997 59.2364 54.0804 59.0973C53.3555 58.9571 52.8065 58.4732 52.5787 57.7788Z" fill="#F6F5F1" stroke="#FA7FC1" stroke-width="3"/>
<path d="M26.36 35.276C26.36 36.188 26.408 36.932 26.504 37.508C26.624 38.06 26.864 38.492 27.224 38.804C27.584 39.092 28.088 39.296 28.736 39.416C29.408 39.536 30.284 39.608 31.364 39.632V41H18.62V39.632C19.46 39.608 20.132 39.536 20.636 39.416C21.164 39.296 21.572 39.092 21.86 38.804C22.148 38.516 22.34 38.108 22.436 37.58C22.532 37.052 22.58 36.368 22.58 35.528V18.752C22.58 17.912 22.532 17.24 22.436 16.736C22.364 16.208 22.196 15.8 21.932 15.512C21.692 15.2 21.332 14.996 20.852 14.9C20.372 14.78 19.748 14.696 18.98 14.648V13.28H39.788L40.184 20.156H38.924C38.78 19.124 38.552 18.284 38.24 17.636C37.928 16.964 37.484 16.436 36.908 16.052C36.356 15.668 35.648 15.404 34.784 15.26C33.92 15.092 32.84 15.008 31.544 15.008H26.972C26.564 15.008 26.36 15.212 26.36 15.62V26.492C27.512 26.492 28.496 26.432 29.312 26.312C30.152 26.168 30.836 25.928 31.364 25.592C31.916 25.256 32.336 24.8 32.624 24.224C32.912 23.648 33.092 22.904 33.164 21.992H34.424V32.54H33.164C33.044 31.628 32.852 30.872 32.588 30.272C32.324 29.672 31.928 29.204 31.4 28.868C30.896 28.532 30.236 28.292 29.42 28.148C28.604 28.004 27.584 27.932 26.36 27.932V35.276Z" fill="#FA7FC1"/>
</svg>
