<svg width="304" height="70" viewBox="0 0 304 70" fill="none" xmlns="http://www.w3.org/2000/svg">
<path d="M2 15.3333C2 7.96954 7.96954 2 15.3333 2H255.333C262.697 2 268.667 7.96954 268.667 15.3333V15.3333H2V15.3333Z" fill="#F6F5F1"/>
<rect x="2.5" y="2.5" width="299" height="65" rx="14.5" stroke="#FA7FC1"/>
<line x1="2" y1="14.8333" x2="302" y2="14.8333" stroke="#FA7FC1"/>
<path d="M2 15.3333H302V53C302 61.2842 295.284 68 287 68H17C8.71573 68 2 61.2843 2 53V15.3333Z" fill="#FA7FC1"/>
<path d="M30.26 45V35.228H36.42V36.25H31.436V39.54H36V40.562H31.436V45H30.26ZM42.6305 45H41.4545V35.228H45.0105C45.9159 35.228 46.6065 35.4753 47.0825 35.97C47.5585 36.4647 47.7965 37.1553 47.7965 38.042C47.7965 38.8353 47.5912 39.47 47.1805 39.946C46.7699 40.422 46.1725 40.6973 45.3885 40.772L47.8805 45H46.5645L44.1845 40.828H42.6305V45ZM44.9825 39.834C45.4772 39.834 45.8599 39.7127 46.1305 39.47C46.4105 39.218 46.5505 38.8633 46.5505 38.406V37.678C46.5505 37.2207 46.4105 36.8707 46.1305 36.628C45.8599 36.376 45.4772 36.25 44.9825 36.25H42.6305V39.834H44.9825ZM52.6491 45V35.228H58.6691V36.25H53.8251V39.54H58.5011V40.562H53.8251V43.978H58.6691V45H52.6491ZM63.9136 35.228H66.6436C67.8383 35.228 68.7296 35.6387 69.3176 36.46C69.9056 37.2813 70.1996 38.4993 70.1996 40.114C70.1996 41.7287 69.9056 42.9467 69.3176 43.768C68.7296 44.5893 67.8383 45 66.6436 45H63.9136V35.228ZM66.5876 43.978C67.3716 43.978 67.9596 43.7073 68.3516 43.166C68.7529 42.6247 68.9536 41.8593 68.9536 40.87V39.358C68.9536 38.3687 68.7529 37.6033 68.3516 37.062C67.9596 36.5207 67.3716 36.25 66.5876 36.25H65.0896V43.978H66.5876ZM75.0381 45V35.228H81.0581V36.25H76.2141V39.54H80.8901V40.562H76.2141V43.978H81.0581V45H75.0381ZM87.4087 45H86.2327V35.228H89.7887C90.694 35.228 91.3847 35.4753 91.8607 35.97C92.3367 36.4647 92.5747 37.1553 92.5747 38.042C92.5747 38.8353 92.3693 39.47 91.9587 39.946C91.548 40.422 90.9507 40.6973 90.1667 40.772L92.6587 45H91.3427L88.9627 40.828H87.4087V45ZM89.7607 39.834C90.2553 39.834 90.638 39.7127 90.9087 39.47C91.1887 39.218 91.3287 38.8633 91.3287 38.406V37.678C91.3287 37.2207 91.1887 36.8707 90.9087 36.628C90.638 36.376 90.2553 36.25 89.7607 36.25H87.4087V39.834H89.7607ZM97.3432 45V44.062H99.7792V36.166H97.3432V35.228H103.391V36.166H100.955V44.062H103.391V45H97.3432ZM111.128 40.212L109.728 41.864V45H108.552V35.228H109.728V40.324H109.77L111.058 38.7L113.942 35.228H115.356L111.926 39.344L115.454 45H114.082L111.128 40.212ZM122.322 40.212L120.922 41.864V45H119.746V35.228H120.922V40.324H120.964L122.252 38.7L125.136 35.228H126.55L123.12 39.344L126.648 45H125.276L122.322 40.212ZM131.011 45V35.228H137.031V36.25H132.187V39.54H136.863V40.562H132.187V43.978H137.031V45H131.011ZM156.312 45.168C155.435 45.168 154.716 45.0093 154.156 44.692C153.596 44.3653 153.134 43.95 152.77 43.446L153.624 42.746C154.007 43.222 154.408 43.5767 154.828 43.81C155.257 44.0433 155.766 44.16 156.354 44.16C157.063 44.16 157.605 43.9967 157.978 43.67C158.351 43.3433 158.538 42.886 158.538 42.298C158.538 41.822 158.403 41.4533 158.132 41.192C157.861 40.9213 157.39 40.73 156.718 40.618L155.626 40.436C155.15 40.352 154.749 40.226 154.422 40.058C154.105 39.89 153.848 39.6893 153.652 39.456C153.456 39.2133 153.316 38.952 153.232 38.672C153.148 38.3827 153.106 38.084 153.106 37.776C153.106 36.88 153.4 36.2033 153.988 35.746C154.576 35.2887 155.369 35.06 156.368 35.06C157.152 35.06 157.81 35.1907 158.342 35.452C158.883 35.7133 159.317 36.082 159.644 36.558L158.818 37.272C158.547 36.9173 158.221 36.628 157.838 36.404C157.455 36.18 156.961 36.068 156.354 36.068C155.691 36.068 155.183 36.208 154.828 36.488C154.473 36.768 154.296 37.188 154.296 37.748C154.296 38.1867 154.427 38.546 154.688 38.826C154.959 39.0967 155.439 39.2927 156.13 39.414L157.18 39.596C157.656 39.68 158.057 39.806 158.384 39.974C158.711 40.142 158.972 40.3427 159.168 40.576C159.373 40.8093 159.518 41.0707 159.602 41.36C159.686 41.6493 159.728 41.9527 159.728 42.27C159.728 43.1753 159.429 43.8847 158.832 44.398C158.244 44.9113 157.404 45.168 156.312 45.168ZM167.534 45.168C166.685 45.168 166.004 44.944 165.49 44.496L164.832 45.616L163.992 45.112L164.832 43.684C164.59 43.2547 164.408 42.7413 164.286 42.144C164.174 41.5467 164.118 40.87 164.118 40.114C164.118 39.3207 164.184 38.6113 164.314 37.986C164.445 37.3513 164.65 36.8193 164.93 36.39C165.21 35.9607 165.565 35.634 165.994 35.41C166.424 35.1767 166.937 35.06 167.534 35.06C168.374 35.06 169.056 35.284 169.578 35.732L170.236 34.612L171.076 35.116L170.236 36.544C170.479 36.9733 170.656 37.4867 170.768 38.084C170.89 38.6813 170.95 39.358 170.95 40.114C170.95 40.9167 170.885 41.6307 170.754 42.256C170.624 42.8813 170.418 43.4087 170.138 43.838C169.858 44.2673 169.504 44.5987 169.074 44.832C168.645 45.056 168.132 45.168 167.534 45.168ZM165.364 40.912C165.364 41.2293 165.378 41.528 165.406 41.808C165.434 42.0787 165.486 42.3307 165.56 42.564L169.032 36.726C168.855 36.5207 168.64 36.362 168.388 36.25C168.146 36.138 167.861 36.082 167.534 36.082C167.142 36.082 166.811 36.1613 166.54 36.32C166.27 36.4693 166.046 36.684 165.868 36.964C165.691 37.244 165.56 37.5847 165.476 37.986C165.402 38.3873 165.364 38.8307 165.364 39.316V40.912ZM167.534 44.146C167.926 44.146 168.258 44.0713 168.528 43.922C168.799 43.7633 169.023 43.544 169.2 43.264C169.378 42.984 169.504 42.648 169.578 42.256C169.662 41.8547 169.704 41.4067 169.704 40.912V39.316C169.704 38.9987 169.69 38.7047 169.662 38.434C169.634 38.154 169.583 37.8973 169.508 37.664L166.036 43.502C166.214 43.7073 166.424 43.866 166.666 43.978C166.918 44.09 167.208 44.146 167.534 44.146ZM176.965 45H175.789V35.228H179.345C180.25 35.228 180.941 35.4753 181.417 35.97C181.893 36.4647 182.131 37.1553 182.131 38.042C182.131 38.8353 181.926 39.47 181.515 39.946C181.104 40.422 180.507 40.6973 179.723 40.772L182.215 45H180.899L178.519 40.828H176.965V45ZM179.317 39.834C179.812 39.834 180.194 39.7127 180.465 39.47C180.745 39.218 180.885 38.8633 180.885 38.406V37.678C180.885 37.2207 180.745 36.8707 180.465 36.628C180.194 36.376 179.812 36.25 179.317 36.25H176.965V39.834H179.317ZM186.983 45V35.228H193.003V36.25H188.159V39.54H192.835V40.562H188.159V43.978H193.003V45H186.983ZM199.2 36.726H199.102V45H198.038V35.228H199.704L203.036 43.418H203.134V35.228H204.198V45H202.532L199.2 36.726ZM212.285 45.168C211.407 45.168 210.689 45.0093 210.129 44.692C209.569 44.3653 209.107 43.95 208.743 43.446L209.597 42.746C209.979 43.222 210.381 43.5767 210.801 43.81C211.23 44.0433 211.739 44.16 212.327 44.16C213.036 44.16 213.577 43.9967 213.951 43.67C214.324 43.3433 214.511 42.886 214.511 42.298C214.511 41.822 214.375 41.4533 214.105 41.192C213.834 40.9213 213.363 40.73 212.691 40.618L211.599 40.436C211.123 40.352 210.721 40.226 210.395 40.058C210.077 39.89 209.821 39.6893 209.625 39.456C209.429 39.2133 209.289 38.952 209.205 38.672C209.121 38.3827 209.079 38.084 209.079 37.776C209.079 36.88 209.373 36.2033 209.961 35.746C210.549 35.2887 211.342 35.06 212.341 35.06C213.125 35.06 213.783 35.1907 214.315 35.452C214.856 35.7133 215.29 36.082 215.617 36.558L214.791 37.272C214.52 36.9173 214.193 36.628 213.811 36.404C213.428 36.18 212.933 36.068 212.327 36.068C211.664 36.068 211.155 36.208 210.801 36.488C210.446 36.768 210.269 37.188 210.269 37.748C210.269 38.1867 210.399 38.546 210.661 38.826C210.931 39.0967 211.412 39.2927 212.103 39.414L213.153 39.596C213.629 39.68 214.03 39.806 214.357 39.974C214.683 40.142 214.945 40.3427 215.141 40.576C215.346 40.8093 215.491 41.0707 215.575 41.36C215.659 41.6493 215.701 41.9527 215.701 42.27C215.701 43.1753 215.402 43.8847 214.805 44.398C214.217 44.9113 213.377 45.168 212.285 45.168ZM220.567 45V35.228H226.587V36.25H221.743V39.54H226.419V40.562H221.743V43.978H226.587V45H220.567ZM232.784 36.726H232.686V45H231.622V35.228H233.288L236.62 43.418H236.718V35.228H237.782V45H236.116L232.784 36.726ZM254.081 41.29V40.17L260.101 36.684V37.846L255.131 40.66V40.772L260.101 43.586V44.776L254.081 41.29ZM267.865 39.372C268.546 39.372 269.055 39.2227 269.391 38.924C269.736 38.616 269.909 38.224 269.909 37.748V37.65C269.909 37.1273 269.741 36.7353 269.405 36.474C269.078 36.2127 268.649 36.082 268.117 36.082C267.594 36.082 267.17 36.1987 266.843 36.432C266.526 36.656 266.264 36.9547 266.059 37.328L265.177 36.656C265.298 36.46 265.448 36.2687 265.625 36.082C265.802 35.886 266.008 35.7133 266.241 35.564C266.484 35.4147 266.759 35.2933 267.067 35.2C267.384 35.1067 267.744 35.06 268.145 35.06C268.565 35.06 268.957 35.116 269.321 35.228C269.685 35.3307 270.002 35.4893 270.273 35.704C270.544 35.9093 270.754 36.166 270.903 36.474C271.062 36.782 271.141 37.132 271.141 37.524C271.141 37.8413 271.09 38.126 270.987 38.378C270.894 38.63 270.758 38.8493 270.581 39.036C270.413 39.2227 270.212 39.3813 269.979 39.512C269.746 39.6427 269.498 39.7407 269.237 39.806V39.862C269.508 39.918 269.769 40.0113 270.021 40.142C270.273 40.2633 270.497 40.4267 270.693 40.632C270.889 40.828 271.043 41.0707 271.155 41.36C271.276 41.64 271.337 41.962 271.337 42.326C271.337 42.746 271.253 43.1333 271.085 43.488C270.926 43.8333 270.698 44.132 270.399 44.384C270.11 44.6267 269.755 44.818 269.335 44.958C268.924 45.098 268.467 45.168 267.963 45.168C267.534 45.168 267.151 45.1213 266.815 45.028C266.488 44.9347 266.194 44.8087 265.933 44.65C265.681 44.4913 265.457 44.314 265.261 44.118C265.074 43.922 264.906 43.7167 264.757 43.502L265.639 42.83C265.77 43.026 265.905 43.2033 266.045 43.362C266.185 43.5207 266.344 43.6607 266.521 43.782C266.708 43.894 266.918 43.9827 267.151 44.048C267.384 44.1133 267.655 44.146 267.963 44.146C268.654 44.146 269.181 43.9873 269.545 43.67C269.918 43.3527 270.105 42.9 270.105 42.312V42.2C270.105 41.6213 269.923 41.1733 269.559 40.856C269.204 40.5387 268.668 40.38 267.949 40.38H266.787V39.372H267.865Z" fill="#F6F5F1"/>
<circle cx="16" cy="8.66667" r="2.66667" fill="#3E86BA"/>
<circle cx="34.6667" cy="8.66667" r="2.66667" fill="#3E86BA"/>
<circle cx="25.3333" cy="8.66667" r="2.66667" fill="#3E86BA"/>
<rect x="1" y="1" width="302" height="68" rx="16" stroke="#F6F5F1" stroke-width="2"/>
</svg>
