<svg width="587" height="373" viewBox="0 0 587 373" fill="none" xmlns="http://www.w3.org/2000/svg">
<rect x="0.5" y="0.5" width="541" height="326.35" rx="20.5" fill="#F6F5F1" stroke="#FA7FC1"/>
<path d="M1 68.5H541V306.35C541 317.396 532.046 326.35 521 326.35H21C9.95429 326.35 1 317.396 1 306.35V68.5Z" fill="#90C58B"/>
<line x1="1" y1="68" x2="541" y2="68" stroke="#FA7FC1"/>
<line x1="1" y1="27.5" x2="541" y2="27.5" stroke="#FA7FC1"/>
<rect x="122" y="34.25" width="406" height="28" stroke="#FA7FC1"/>
<circle cx="29.35" cy="14.5" r="5.4" fill="#3E86BA"/>
<circle cx="67.15" cy="14.5" r="5.4" fill="#3E86BA"/>
<circle cx="48.25" cy="14.5" r="5.4" fill="#3E86BA"/>
<path d="M96.2071 48.9571C96.5976 48.5666 96.5976 47.9334 96.2071 47.5429L89.8431 41.1789C89.4526 40.7884 88.8195 40.7884 88.4289 41.1789C88.0384 41.5695 88.0384 42.2026 88.4289 42.5931L94.0858 48.25L88.4289 53.9069C88.0384 54.2974 88.0384 54.9305 88.4289 55.3211C88.8195 55.7116 89.4526 55.7116 89.8431 55.3211L96.2071 48.9571ZM75.25 49.25H95.5V47.25H75.25V49.25Z" fill="#3E86BA"/>
<path d="M29.9929 47.5429C29.6024 47.9334 29.6024 48.5666 29.9929 48.9571L36.3569 55.3211C36.7474 55.7116 37.3806 55.7116 37.7711 55.3211C38.1616 54.9305 38.1616 54.2974 37.7711 53.9069L32.1142 48.25L37.7711 42.5931C38.1616 42.2026 38.1616 41.5695 37.7711 41.1789C37.3806 40.7884 36.7474 40.7884 36.3569 41.1789L29.9929 47.5429ZM50.95 47.25H30.7V49.25H50.95V47.25Z" fill="#3E86BA"/>
<path d="M132.93 42.75H133.73V45.83H133.77C133.823 45.7033 133.89 45.5833 133.97 45.47C134.05 45.35 134.147 45.2467 134.26 45.16C134.38 45.0733 134.52 45.0033 134.68 44.95C134.84 44.8967 135.027 44.87 135.24 44.87C135.78 44.87 136.213 45.0433 136.54 45.39C136.867 45.73 137.03 46.2133 137.03 46.84V50.15H136.23V46.98C136.23 46.5067 136.127 46.1567 135.92 45.93C135.713 45.6967 135.41 45.58 135.01 45.58C134.85 45.58 134.693 45.6 134.54 45.64C134.387 45.68 134.25 45.74 134.13 45.82C134.01 45.9 133.913 46.0033 133.84 46.13C133.767 46.2567 133.73 46.4033 133.73 46.57V50.15H132.93V42.75ZM143.196 50.15C142.803 50.15 142.513 50.04 142.326 49.82C142.146 49.6 142.056 49.3167 142.056 48.97V45.67H140.336V44.99H141.616C141.789 44.99 141.909 44.9567 141.976 44.89C142.049 44.8167 142.086 44.6933 142.086 44.52V43.17H142.856V44.99H145.206V45.67H142.856V49.47H145.206V50.15H143.196ZM151.192 50.15C150.799 50.15 150.509 50.04 150.322 49.82C150.142 49.6 150.052 49.3167 150.052 48.97V45.67H148.332V44.99H149.612C149.786 44.99 149.906 44.9567 149.972 44.89C150.046 44.8167 150.082 44.6933 150.082 44.52V43.17H150.852V44.99H153.202V45.67H150.852V49.47H153.202V50.15H151.192ZM156.888 44.99H157.688V45.83H157.728C158.062 45.19 158.592 44.87 159.318 44.87C159.952 44.87 160.445 45.1067 160.798 45.58C161.158 46.0533 161.338 46.7167 161.338 47.57C161.338 48.4233 161.158 49.0867 160.798 49.56C160.445 50.0333 159.952 50.27 159.318 50.27C158.592 50.27 158.062 49.95 157.728 49.31H157.688V52.15H156.888V44.99ZM159.008 49.56C159.475 49.56 159.835 49.42 160.088 49.14C160.348 48.8533 160.478 48.4767 160.478 48.01V47.13C160.478 46.6633 160.348 46.29 160.088 46.01C159.835 45.7233 159.475 45.58 159.008 45.58C158.828 45.58 158.658 45.6033 158.498 45.65C158.338 45.6967 158.198 45.7667 158.078 45.86C157.958 45.9467 157.862 46.0567 157.788 46.19C157.722 46.3167 157.688 46.4667 157.688 46.64V48.5C157.688 48.6733 157.722 48.8267 157.788 48.96C157.862 49.0867 157.958 49.1967 158.078 49.29C158.198 49.3767 158.338 49.4433 158.498 49.49C158.658 49.5367 158.828 49.56 159.008 49.56ZM166.934 50.24C166.661 50.24 166.468 50.1833 166.354 50.07C166.248 49.9567 166.194 49.8133 166.194 49.64V49.46C166.194 49.2867 166.248 49.1433 166.354 49.03C166.468 48.9167 166.661 48.86 166.934 48.86C167.208 48.86 167.398 48.9167 167.504 49.03C167.618 49.1433 167.674 49.2867 167.674 49.46V49.64C167.674 49.8133 167.618 49.9567 167.504 50.07C167.398 50.1833 167.208 50.24 166.934 50.24ZM166.934 46.28C166.661 46.28 166.468 46.2233 166.354 46.11C166.248 45.9967 166.194 45.8533 166.194 45.68V45.5C166.194 45.3267 166.248 45.1833 166.354 45.07C166.468 44.9567 166.661 44.9 166.934 44.9C167.208 44.9 167.398 44.9567 167.504 45.07C167.618 45.1833 167.674 45.3267 167.674 45.5V45.68C167.674 45.8533 167.618 45.9967 167.504 46.11C167.398 46.2233 167.208 46.28 166.934 46.28ZM172.83 51.53L176.31 42.55H177.03L173.55 51.53H172.83ZM180.827 51.53L184.307 42.55H185.027L181.547 51.53H180.827ZM188.223 44.99H188.933L189.523 49.45H189.613L190.493 44.99H191.373L192.253 49.45H192.343L192.933 44.99H193.623L192.833 50.15H191.793L190.973 45.83H190.893L190.053 50.15H189.013L188.223 44.99ZM196.219 44.99H196.929L197.519 49.45H197.609L198.489 44.99H199.369L200.249 49.45H200.339L200.929 44.99H201.619L200.829 50.15H199.789L198.969 45.83H198.889L198.049 50.15H197.009L196.219 44.99ZM204.215 44.99H204.925L205.515 49.45H205.605L206.485 44.99H207.365L208.245 49.45H208.335L208.925 44.99H209.615L208.825 50.15H207.785L206.965 45.83H206.885L206.045 50.15H205.005L204.215 44.99ZM214.911 50.24C214.638 50.24 214.444 50.1833 214.331 50.07C214.224 49.9567 214.171 49.8133 214.171 49.64V49.46C214.171 49.2867 214.224 49.1433 214.331 49.03C214.444 48.9167 214.638 48.86 214.911 48.86C215.184 48.86 215.374 48.9167 215.481 49.03C215.594 49.1433 215.651 49.2867 215.651 49.46V49.64C215.651 49.8133 215.594 49.9567 215.481 50.07C215.374 50.1833 215.184 50.24 214.911 50.24ZM220.737 49.47H222.477V45.67H220.637V44.99H222.477V43.93C222.477 43.5833 222.567 43.3 222.747 43.08C222.934 42.86 223.224 42.75 223.617 42.75H225.347V43.43H223.277V44.99H225.347V45.67H223.277V49.47H225.117V50.15H220.737V49.47ZM228.673 49.47H230.183V45.67H228.673V44.99H230.983V46.29H231.033C231.14 45.8833 231.34 45.5667 231.633 45.34C231.933 45.1067 232.313 44.99 232.773 44.99H233.493V45.79H232.523C232.063 45.79 231.69 45.9233 231.403 46.19C231.123 46.4567 230.983 46.8067 230.983 47.24V49.47H232.983V50.15H228.673V49.47ZM238.989 50.27C238.616 50.27 238.279 50.2067 237.979 50.08C237.686 49.9533 237.433 49.7733 237.219 49.54C237.013 49.3 236.853 49.0167 236.739 48.69C236.626 48.3567 236.569 47.9867 236.569 47.58C236.569 47.1667 236.626 46.7933 236.739 46.46C236.859 46.1267 237.023 45.8433 237.229 45.61C237.436 45.37 237.683 45.1867 237.969 45.06C238.263 44.9333 238.586 44.87 238.939 44.87C239.286 44.87 239.599 44.9333 239.879 45.06C240.166 45.1867 240.409 45.3633 240.609 45.59C240.809 45.81 240.963 46.0733 241.069 46.38C241.176 46.6867 241.229 47.0233 241.229 47.39V47.77H237.409V48.01C237.409 48.2367 237.446 48.4467 237.519 48.64C237.593 48.8333 237.696 49 237.829 49.14C237.969 49.28 238.136 49.39 238.329 49.47C238.529 49.5433 238.749 49.58 238.989 49.58C239.336 49.58 239.636 49.5 239.889 49.34C240.143 49.18 240.336 48.96 240.469 48.68L241.059 49.08C240.906 49.4267 240.649 49.7133 240.289 49.94C239.936 50.16 239.503 50.27 238.989 50.27ZM238.939 45.53C238.719 45.53 238.516 45.57 238.329 45.65C238.143 45.73 237.979 45.84 237.839 45.98C237.706 46.12 237.599 46.2867 237.519 46.48C237.446 46.6667 237.409 46.8733 237.409 47.1V47.17H240.369V47.06C240.369 46.8333 240.333 46.6267 240.259 46.44C240.193 46.2533 240.096 46.0933 239.969 45.96C239.849 45.82 239.699 45.7133 239.519 45.64C239.346 45.5667 239.153 45.53 238.939 45.53ZM248.145 49.31H248.105C247.772 49.95 247.242 50.27 246.515 50.27C245.882 50.27 245.385 50.0333 245.025 49.56C244.672 49.0867 244.495 48.4233 244.495 47.57C244.495 46.7167 244.672 46.0533 245.025 45.58C245.385 45.1067 245.882 44.87 246.515 44.87C247.242 44.87 247.772 45.19 248.105 45.83H248.145V42.75H248.945V50.15H248.145V49.31ZM246.825 49.56C247.005 49.56 247.175 49.5367 247.335 49.49C247.495 49.4433 247.635 49.3767 247.755 49.29C247.875 49.1967 247.969 49.0867 248.035 48.96C248.109 48.8267 248.145 48.6733 248.145 48.5V46.64C248.145 46.4667 248.109 46.3167 248.035 46.19C247.969 46.0567 247.875 45.9467 247.755 45.86C247.635 45.7667 247.495 45.6967 247.335 45.65C247.175 45.6033 247.005 45.58 246.825 45.58C246.359 45.58 245.995 45.7233 245.735 46.01C245.482 46.29 245.355 46.6633 245.355 47.13V48.01C245.355 48.4767 245.482 48.8533 245.735 49.14C245.995 49.42 246.359 49.56 246.825 49.56ZM254.981 50.27C254.608 50.27 254.271 50.2067 253.971 50.08C253.678 49.9533 253.425 49.7733 253.211 49.54C253.005 49.3 252.845 49.0167 252.731 48.69C252.618 48.3567 252.561 47.9867 252.561 47.58C252.561 47.1667 252.618 46.7933 252.731 46.46C252.851 46.1267 253.015 45.8433 253.221 45.61C253.428 45.37 253.675 45.1867 253.961 45.06C254.255 44.9333 254.578 44.87 254.931 44.87C255.278 44.87 255.591 44.9333 255.871 45.06C256.158 45.1867 256.401 45.3633 256.601 45.59C256.801 45.81 256.955 46.0733 257.061 46.38C257.168 46.6867 257.221 47.0233 257.221 47.39V47.77H253.401V48.01C253.401 48.2367 253.438 48.4467 253.511 48.64C253.585 48.8333 253.688 49 253.821 49.14C253.961 49.28 254.128 49.39 254.321 49.47C254.521 49.5433 254.741 49.58 254.981 49.58C255.328 49.58 255.628 49.5 255.881 49.34C256.135 49.18 256.328 48.96 256.461 48.68L257.051 49.08C256.898 49.4267 256.641 49.7133 256.281 49.94C255.928 50.16 255.495 50.27 254.981 50.27ZM254.931 45.53C254.711 45.53 254.508 45.57 254.321 45.65C254.135 45.73 253.971 45.84 253.831 45.98C253.698 46.12 253.591 46.2867 253.511 46.48C253.438 46.6667 253.401 46.8733 253.401 47.1V47.17H256.361V47.06C256.361 46.8333 256.325 46.6267 256.251 46.44C256.185 46.2533 256.088 46.0933 255.961 45.96C255.841 45.82 255.691 45.7133 255.511 45.64C255.338 45.5667 255.145 45.53 254.931 45.53ZM260.658 49.47H262.168V45.67H260.658V44.99H262.968V46.29H263.018C263.124 45.8833 263.324 45.5667 263.618 45.34C263.918 45.1067 264.298 44.99 264.758 44.99H265.478V45.79H264.508C264.048 45.79 263.674 45.9233 263.388 46.19C263.108 46.4567 262.968 46.8067 262.968 47.24V49.47H264.968V50.15H260.658V49.47ZM271.204 43.85C270.97 43.85 270.807 43.8033 270.714 43.71C270.62 43.61 270.574 43.4867 270.574 43.34V43.18C270.574 43.0333 270.62 42.9133 270.714 42.82C270.807 42.72 270.97 42.67 271.204 42.67C271.437 42.67 271.6 42.72 271.694 42.82C271.787 42.9133 271.834 43.0333 271.834 43.18V43.34C271.834 43.4867 271.787 43.61 271.694 43.71C271.6 43.8033 271.437 43.85 271.204 43.85ZM268.944 49.47H270.804V45.67H268.944V44.99H271.604V49.47H273.344V50.15H268.944V49.47ZM276.93 42.75H277.73V47.42H277.77L278.67 46.57L280.39 44.99H281.37L279.23 47.01L281.62 50.15H280.63L278.62 47.47L277.73 48.28V50.15H276.93V42.75ZM284.926 42.75H285.726V47.42H285.766L286.666 46.57L288.386 44.99H289.366L287.226 47.01L289.616 50.15H288.626L286.616 47.47L285.726 48.28V50.15H284.926V42.75ZM294.962 50.27C294.589 50.27 294.252 50.2067 293.952 50.08C293.659 49.9533 293.405 49.7733 293.192 49.54C292.985 49.3 292.825 49.0167 292.712 48.69C292.599 48.3567 292.542 47.9867 292.542 47.58C292.542 47.1667 292.599 46.7933 292.712 46.46C292.832 46.1267 292.995 45.8433 293.202 45.61C293.409 45.37 293.655 45.1867 293.942 45.06C294.235 44.9333 294.559 44.87 294.912 44.87C295.259 44.87 295.572 44.9333 295.852 45.06C296.139 45.1867 296.382 45.3633 296.582 45.59C296.782 45.81 296.935 46.0733 297.042 46.38C297.149 46.6867 297.202 47.0233 297.202 47.39V47.77H293.382V48.01C293.382 48.2367 293.419 48.4467 293.492 48.64C293.565 48.8333 293.669 49 293.802 49.14C293.942 49.28 294.109 49.39 294.302 49.47C294.502 49.5433 294.722 49.58 294.962 49.58C295.309 49.58 295.609 49.5 295.862 49.34C296.115 49.18 296.309 48.96 296.442 48.68L297.032 49.08C296.879 49.4267 296.622 49.7133 296.262 49.94C295.909 50.16 295.475 50.27 294.962 50.27ZM294.912 45.53C294.692 45.53 294.489 45.57 294.302 45.65C294.115 45.73 293.952 45.84 293.812 45.98C293.679 46.12 293.572 46.2867 293.492 46.48C293.419 46.6667 293.382 46.8733 293.382 47.1V47.17H296.342V47.06C296.342 46.8333 296.305 46.6267 296.232 46.44C296.165 46.2533 296.069 46.0933 295.942 45.96C295.822 45.82 295.672 45.7133 295.492 45.64C295.319 45.5667 295.125 45.53 294.912 45.53ZM300.408 50.15V44.99H301.148V45.59H301.188C301.268 45.39 301.381 45.22 301.528 45.08C301.675 44.94 301.891 44.87 302.178 44.87C302.478 44.87 302.701 44.9467 302.848 45.1C302.995 45.2467 303.085 45.44 303.118 45.68H303.148C303.241 45.4467 303.375 45.2533 303.548 45.1C303.721 44.9467 303.961 44.87 304.268 44.87C304.688 44.87 304.968 45.0167 305.108 45.31C305.255 45.6033 305.328 46.0233 305.328 46.57V50.15H304.588V46.7C304.588 46.26 304.541 45.9567 304.448 45.79C304.361 45.6167 304.198 45.53 303.958 45.53C303.745 45.53 303.571 45.6 303.438 45.74C303.305 45.8733 303.238 46.08 303.238 46.36V50.15H302.498V46.7C302.498 46.26 302.451 45.9567 302.358 45.79C302.271 45.6167 302.111 45.53 301.878 45.53C301.665 45.53 301.488 45.6 301.348 45.74C301.215 45.8733 301.148 46.08 301.148 46.36V50.15H300.408ZM310.954 50.27C310.581 50.27 310.244 50.2067 309.944 50.08C309.651 49.9533 309.397 49.7733 309.184 49.54C308.977 49.3 308.817 49.0167 308.704 48.69C308.591 48.3567 308.534 47.9867 308.534 47.58C308.534 47.1667 308.591 46.7933 308.704 46.46C308.824 46.1267 308.987 45.8433 309.194 45.61C309.401 45.37 309.647 45.1867 309.934 45.06C310.227 44.9333 310.551 44.87 310.904 44.87C311.251 44.87 311.564 44.9333 311.844 45.06C312.131 45.1867 312.374 45.3633 312.574 45.59C312.774 45.81 312.927 46.0733 313.034 46.38C313.141 46.6867 313.194 47.0233 313.194 47.39V47.77H309.374V48.01C309.374 48.2367 309.411 48.4467 309.484 48.64C309.557 48.8333 309.661 49 309.794 49.14C309.934 49.28 310.101 49.39 310.294 49.47C310.494 49.5433 310.714 49.58 310.954 49.58C311.301 49.58 311.601 49.5 311.854 49.34C312.107 49.18 312.301 48.96 312.434 48.68L313.024 49.08C312.871 49.4267 312.614 49.7133 312.254 49.94C311.901 50.16 311.467 50.27 310.954 50.27ZM310.904 45.53C310.684 45.53 310.481 45.57 310.294 45.65C310.107 45.73 309.944 45.84 309.804 45.98C309.671 46.12 309.564 46.2867 309.484 46.48C309.411 46.6667 309.374 46.8733 309.374 47.1V47.17H312.334V47.06C312.334 46.8333 312.297 46.6267 312.224 46.44C312.157 46.2533 312.061 46.0933 311.934 45.96C311.814 45.82 311.664 45.7133 311.484 45.64C311.311 45.5667 311.117 45.53 310.904 45.53ZM316.88 51.47H319.38V45.67H316.79V44.99H320.18V50.97C320.18 51.3167 320.087 51.6 319.9 51.82C319.72 52.04 319.434 52.15 319.04 52.15H316.88V51.47ZM319.78 43.85C319.547 43.85 319.384 43.8033 319.29 43.71C319.197 43.61 319.15 43.4867 319.15 43.34V43.18C319.15 43.0333 319.197 42.9133 319.29 42.82C319.384 42.72 319.547 42.67 319.78 42.67C320.014 42.67 320.177 42.72 320.27 42.82C320.364 42.9133 320.41 43.0333 320.41 43.18V43.34C320.41 43.4867 320.364 43.61 320.27 43.71C320.177 43.8033 320.014 43.85 319.78 43.85ZM324.656 49.47H326.456V43.43H324.656V42.75H327.256V49.47H329.056V50.15H324.656V49.47ZM334.342 50.15L332.492 44.99H333.302L334.042 47.15L334.842 49.48H334.882L335.682 47.15L336.422 44.99H337.212L335.362 50.15H334.342ZM344.798 50.15C344.485 50.15 344.262 50.07 344.128 49.91C343.995 49.75 343.912 49.55 343.878 49.31H343.828C343.715 49.61 343.532 49.8467 343.278 50.02C343.032 50.1867 342.698 50.27 342.278 50.27C341.738 50.27 341.308 50.13 340.988 49.85C340.668 49.57 340.508 49.1867 340.508 48.7C340.508 48.22 340.682 47.85 341.028 47.59C341.382 47.33 341.948 47.2 342.728 47.2H343.828V46.69C343.828 46.31 343.722 46.0267 343.508 45.84C343.295 45.6467 342.992 45.55 342.598 45.55C342.252 45.55 341.968 45.62 341.748 45.76C341.528 45.8933 341.352 46.0767 341.218 46.31L340.678 45.91C340.745 45.7767 340.835 45.6467 340.948 45.52C341.062 45.3933 341.202 45.2833 341.368 45.19C341.535 45.09 341.725 45.0133 341.938 44.96C342.152 44.9 342.388 44.87 342.648 44.87C343.255 44.87 343.735 45.0233 344.088 45.33C344.448 45.6367 344.628 46.0633 344.628 46.61V49.45H345.348V50.15H344.798ZM342.418 49.6C342.625 49.6 342.812 49.5767 342.978 49.53C343.152 49.4767 343.302 49.41 343.428 49.33C343.555 49.2433 343.652 49.1433 343.718 49.03C343.792 48.91 343.828 48.7833 343.828 48.65V47.8H342.728C342.248 47.8 341.898 47.8667 341.678 48C341.458 48.1333 341.348 48.3267 341.348 48.58V48.79C341.348 49.0567 341.442 49.26 341.628 49.4C341.822 49.5333 342.085 49.6 342.418 49.6ZM348.825 50.15V44.99H349.625V45.83H349.665C349.718 45.7033 349.785 45.5833 349.865 45.47C349.945 45.35 350.041 45.2467 350.155 45.16C350.275 45.0733 350.415 45.0033 350.575 44.95C350.735 44.8967 350.921 44.87 351.135 44.87C351.675 44.87 352.108 45.0433 352.435 45.39C352.761 45.73 352.925 46.2133 352.925 46.84V50.15H352.125V46.98C352.125 46.5067 352.021 46.1567 351.815 45.93C351.608 45.6967 351.305 45.58 350.905 45.58C350.745 45.58 350.588 45.6 350.435 45.64C350.281 45.68 350.145 45.74 350.025 45.82C349.905 45.9 349.808 46.0033 349.735 46.13C349.661 46.2567 349.625 46.4033 349.625 46.57V50.15H348.825ZM361.451 50.74C361.451 51.26 361.234 51.6433 360.801 51.89C360.367 52.1433 359.717 52.27 358.851 52.27C358.017 52.27 357.417 52.16 357.051 51.94C356.691 51.72 356.511 51.4033 356.511 50.99C356.511 50.71 356.584 50.4933 356.731 50.34C356.877 50.1867 357.084 50.0733 357.351 50V49.88C357.204 49.8067 357.091 49.7133 357.011 49.6C356.931 49.4867 356.891 49.3433 356.891 49.17C356.891 48.9033 356.977 48.7033 357.151 48.57C357.331 48.4367 357.554 48.3367 357.821 48.27V48.23C357.501 48.09 357.251 47.8833 357.071 47.61C356.897 47.3367 356.811 47.0167 356.811 46.65C356.811 46.39 356.857 46.15 356.951 45.93C357.044 45.71 357.177 45.5233 357.351 45.37C357.531 45.21 357.744 45.0867 357.991 45C358.237 44.9133 358.511 44.87 358.811 44.87C359.197 44.87 359.537 44.94 359.831 45.08V44.99C359.831 44.79 359.877 44.6233 359.971 44.49C360.064 44.3567 360.224 44.29 360.451 44.29H361.401V44.99H360.241V45.34C360.427 45.5 360.571 45.69 360.671 45.91C360.771 46.13 360.821 46.3767 360.821 46.65C360.821 46.91 360.771 47.15 360.671 47.37C360.577 47.59 360.444 47.78 360.271 47.94C360.097 48.0933 359.884 48.2133 359.631 48.3C359.384 48.3867 359.111 48.43 358.811 48.43C358.724 48.43 358.641 48.4267 358.561 48.42C358.481 48.4133 358.401 48.4033 358.321 48.39C358.241 48.4033 358.157 48.4267 358.071 48.46C357.984 48.4867 357.904 48.5267 357.831 48.58C357.757 48.6267 357.697 48.6833 357.651 48.75C357.604 48.8167 357.581 48.8933 357.581 48.98C357.581 49.1333 357.657 49.2367 357.811 49.29C357.964 49.3367 358.164 49.36 358.411 49.36H359.551C360.217 49.36 360.701 49.4867 361.001 49.74C361.301 49.9867 361.451 50.32 361.451 50.74ZM360.701 50.78C360.701 50.5733 360.617 50.4067 360.451 50.28C360.284 50.16 359.994 50.1 359.581 50.1H357.791C357.444 50.24 357.271 50.4733 357.271 50.8C357.271 51.0267 357.361 51.22 357.541 51.38C357.721 51.5467 358.021 51.63 358.441 51.63H359.221C359.687 51.63 360.051 51.5567 360.311 51.41C360.571 51.27 360.701 51.06 360.701 50.78ZM358.811 47.81C359.211 47.81 359.504 47.7167 359.691 47.53C359.884 47.3433 359.981 47.0967 359.981 46.79V46.5C359.981 46.1933 359.884 45.95 359.691 45.77C359.504 45.5833 359.211 45.49 358.811 45.49C358.411 45.49 358.117 45.5833 357.931 45.77C357.744 45.95 357.651 46.1933 357.651 46.5V46.79C357.651 47.0967 357.744 47.3433 357.931 47.53C358.117 47.7167 358.411 47.81 358.811 47.81ZM366.837 50.24C366.563 50.24 366.37 50.1833 366.257 50.07C366.15 49.9567 366.097 49.8133 366.097 49.64V49.46C366.097 49.2867 366.15 49.1433 366.257 49.03C366.37 48.9167 366.563 48.86 366.837 48.86C367.11 48.86 367.3 48.9167 367.407 49.03C367.52 49.1433 367.577 49.2867 367.577 49.46V49.64C367.577 49.8133 367.52 49.9567 367.407 50.07C367.3 50.1833 367.11 50.24 366.837 50.24ZM376.083 49.31H376.043C375.709 49.95 375.179 50.27 374.453 50.27C373.819 50.27 373.323 50.0333 372.963 49.56C372.609 49.0867 372.433 48.4233 372.433 47.57C372.433 46.7167 372.609 46.0533 372.963 45.58C373.323 45.1067 373.819 44.87 374.453 44.87C375.179 44.87 375.709 45.19 376.043 45.83H376.083V42.75H376.883V50.15H376.083V49.31ZM374.763 49.56C374.943 49.56 375.113 49.5367 375.273 49.49C375.433 49.4433 375.573 49.3767 375.693 49.29C375.813 49.1967 375.906 49.0867 375.973 48.96C376.046 48.8267 376.083 48.6733 376.083 48.5V46.64C376.083 46.4667 376.046 46.3167 375.973 46.19C375.906 46.0567 375.813 45.9467 375.693 45.86C375.573 45.7667 375.433 45.6967 375.273 45.65C375.113 45.6033 374.943 45.58 374.763 45.58C374.296 45.58 373.933 45.7233 373.673 46.01C373.419 46.29 373.293 46.6633 373.293 47.13V48.01C373.293 48.4767 373.419 48.8533 373.673 49.14C373.933 49.42 374.296 49.56 374.763 49.56ZM380.879 42.75H381.679V47.42H381.719L382.619 46.57L384.339 44.99H385.319L383.179 47.01L385.569 50.15H384.579L382.569 47.47L381.679 48.28V50.15H380.879V42.75Z" fill="black"/>
<path d="M34.214 150.7V106.028H51.494C53.67 106.028 55.6113 106.369 57.318 107.052C59.0247 107.692 60.454 108.631 61.606 109.868C62.8007 111.105 63.6967 112.599 64.294 114.348C64.8913 116.097 65.19 118.06 65.19 120.236C65.19 122.412 64.8913 124.375 64.294 126.124C63.6967 127.873 62.8007 129.367 61.606 130.604C60.454 131.841 59.0247 132.801 57.318 133.484C55.6113 134.124 53.67 134.444 51.494 134.444H43.878V150.7H34.214ZM43.878 126.7H49.062C51.3233 126.7 52.8807 126.273 53.734 125.42C54.63 124.567 55.078 123.159 55.078 121.196V119.276C55.078 117.313 54.63 115.905 53.734 115.052C52.8807 114.199 51.3233 113.772 49.062 113.772H43.878V126.7ZM99.725 151.468C93.7517 151.468 89.3357 149.441 86.477 145.388C83.661 141.335 82.253 135.66 82.253 128.364C82.253 121.068 83.661 115.393 86.477 111.34C89.3357 107.287 93.7517 105.26 99.725 105.26C105.698 105.26 110.093 107.287 112.909 111.34C115.768 115.393 117.197 121.068 117.197 128.364C117.197 135.66 115.768 141.335 112.909 145.388C110.093 149.441 105.698 151.468 99.725 151.468ZM99.725 143.724C102.456 143.724 104.333 142.721 105.357 140.716C106.424 138.668 106.957 135.831 106.957 132.204V124.46C106.957 120.876 106.424 118.081 105.357 116.076C104.333 114.028 102.456 113.004 99.725 113.004C96.9943 113.004 95.0957 114.028 94.029 116.076C93.005 118.081 92.493 120.876 92.493 124.46V132.268C92.493 135.852 93.005 138.668 94.029 140.716C95.0957 142.721 96.9943 143.724 99.725 143.724ZM146.036 150.7H136.564V106.028H153.844C156.02 106.028 157.961 106.369 159.668 107.052C161.375 107.692 162.804 108.631 163.956 109.868C165.151 111.105 166.047 112.599 166.644 114.348C167.241 116.097 167.54 118.06 167.54 120.236C167.54 123.393 166.857 126.103 165.492 128.364C164.127 130.625 162.185 132.119 159.668 132.844L168.436 150.7H157.94L150.452 134.124H146.036V150.7ZM151.54 126.7C153.801 126.7 155.359 126.273 156.212 125.42C157.108 124.567 157.556 123.159 157.556 121.196V119.276C157.556 117.313 157.108 115.905 156.212 115.052C155.359 114.199 153.801 113.772 151.54 113.772H146.036V126.7H151.54ZM206.875 113.9V150.7H197.275V113.9H184.411V106.028H219.739V113.9H206.875ZM34.47 233.7V189.028H64.102V196.9H44.07V207.14H61.99V215.012H44.07V233.7H34.47ZM99.725 234.468C93.7517 234.468 89.3357 232.441 86.477 228.388C83.661 224.335 82.253 218.66 82.253 211.364C82.253 204.068 83.661 198.393 86.477 194.34C89.3357 190.287 93.7517 188.26 99.725 188.26C105.698 188.26 110.093 190.287 112.909 194.34C115.768 198.393 117.197 204.068 117.197 211.364C117.197 218.66 115.768 224.335 112.909 228.388C110.093 232.441 105.698 234.468 99.725 234.468ZM99.725 226.724C102.456 226.724 104.333 225.721 105.357 223.716C106.424 221.668 106.957 218.831 106.957 215.204V207.46C106.957 203.876 106.424 201.081 105.357 199.076C104.333 197.028 102.456 196.004 99.725 196.004C96.9943 196.004 95.0957 197.028 94.029 199.076C93.005 201.081 92.493 203.876 92.493 207.46V215.268C92.493 218.852 93.005 221.668 94.029 223.716C95.0957 225.721 96.9943 226.724 99.725 226.724ZM137.588 233.7V189.028H147.252V225.828H166.452V233.7H137.588ZM187.675 233.7V226.596H197.275V196.132H187.675V189.028H216.475V196.132H206.875V226.596H216.475V233.7H187.675ZM253.25 234.468C247.277 234.468 242.861 232.441 240.002 228.388C237.186 224.335 235.778 218.66 235.778 211.364C235.778 204.068 237.186 198.393 240.002 194.34C242.861 190.287 247.277 188.26 253.25 188.26C259.223 188.26 263.618 190.287 266.434 194.34C269.293 198.393 270.722 204.068 270.722 211.364C270.722 218.66 269.293 224.335 266.434 228.388C263.618 232.441 259.223 234.468 253.25 234.468ZM253.25 226.724C255.981 226.724 257.858 225.721 258.882 223.716C259.949 221.668 260.482 218.831 260.482 215.204V207.46C260.482 203.876 259.949 201.081 258.882 199.076C257.858 197.028 255.981 196.004 253.25 196.004C250.519 196.004 248.621 197.028 247.554 199.076C246.53 201.081 246.018 203.876 246.018 207.46V215.268C246.018 218.852 246.53 221.668 247.554 223.716C248.621 225.721 250.519 226.724 253.25 226.724Z" fill="#F6F5F1"/>
<rect x="15.5" y="15.5" width="541" height="326.35" rx="20.5" fill="#F6F5F1" stroke="#FA7FC1"/>
<path d="M16 83.5H556V321.35C556 332.396 547.046 341.35 536 341.35H36C24.9543 341.35 16 332.396 16 321.35V83.5Z" fill="#FA7FC1"/>
<line x1="16" y1="83" x2="556" y2="83" stroke="#FA7FC1"/>
<line x1="16" y1="42.5" x2="556" y2="42.5" stroke="#FA7FC1"/>
<rect x="137" y="49.25" width="406" height="28" stroke="#FA7FC1"/>
<circle cx="44.35" cy="29.5" r="5.4" fill="#3E86BA"/>
<circle cx="82.15" cy="29.5" r="5.4" fill="#3E86BA"/>
<circle cx="63.25" cy="29.5" r="5.4" fill="#3E86BA"/>
<path d="M111.207 63.9571C111.598 63.5666 111.598 62.9334 111.207 62.5429L104.843 56.1789C104.453 55.7884 103.819 55.7884 103.429 56.1789C103.038 56.5695 103.038 57.2026 103.429 57.5931L109.086 63.25L103.429 68.9069C103.038 69.2974 103.038 69.9305 103.429 70.3211C103.819 70.7116 104.453 70.7116 104.843 70.3211L111.207 63.9571ZM90.25 64.25H110.5V62.25H90.25V64.25Z" fill="#3E86BA"/>
<path d="M44.9929 62.5429C44.6024 62.9334 44.6024 63.5666 44.9929 63.9571L51.3569 70.3211C51.7474 70.7116 52.3806 70.7116 52.7711 70.3211C53.1616 69.9305 53.1616 69.2974 52.7711 68.9069L47.1142 63.25L52.7711 57.5931C53.1616 57.2026 53.1616 56.5695 52.7711 56.1789C52.3806 55.7884 51.7474 55.7884 51.3569 56.1789L44.9929 62.5429ZM65.95 62.25H45.7V64.25H65.95V62.25Z" fill="#3E86BA"/>
<path d="M147.93 57.75H148.73V60.83H148.77C148.823 60.7033 148.89 60.5833 148.97 60.47C149.05 60.35 149.147 60.2467 149.26 60.16C149.38 60.0733 149.52 60.0033 149.68 59.95C149.84 59.8967 150.027 59.87 150.24 59.87C150.78 59.87 151.213 60.0433 151.54 60.39C151.867 60.73 152.03 61.2133 152.03 61.84V65.15H151.23V61.98C151.23 61.5067 151.127 61.1567 150.92 60.93C150.713 60.6967 150.41 60.58 150.01 60.58C149.85 60.58 149.693 60.6 149.54 60.64C149.387 60.68 149.25 60.74 149.13 60.82C149.01 60.9 148.913 61.0033 148.84 61.13C148.767 61.2567 148.73 61.4033 148.73 61.57V65.15H147.93V57.75ZM158.196 65.15C157.803 65.15 157.513 65.04 157.326 64.82C157.146 64.6 157.056 64.3167 157.056 63.97V60.67H155.336V59.99H156.616C156.789 59.99 156.909 59.9567 156.976 59.89C157.049 59.8167 157.086 59.6933 157.086 59.52V58.17H157.856V59.99H160.206V60.67H157.856V64.47H160.206V65.15H158.196ZM166.192 65.15C165.799 65.15 165.509 65.04 165.322 64.82C165.142 64.6 165.052 64.3167 165.052 63.97V60.67H163.332V59.99H164.612C164.786 59.99 164.906 59.9567 164.972 59.89C165.046 59.8167 165.082 59.6933 165.082 59.52V58.17H165.852V59.99H168.202V60.67H165.852V64.47H168.202V65.15H166.192ZM171.888 59.99H172.688V60.83H172.728C173.062 60.19 173.592 59.87 174.318 59.87C174.952 59.87 175.445 60.1067 175.798 60.58C176.158 61.0533 176.338 61.7167 176.338 62.57C176.338 63.4233 176.158 64.0867 175.798 64.56C175.445 65.0333 174.952 65.27 174.318 65.27C173.592 65.27 173.062 64.95 172.728 64.31H172.688V67.15H171.888V59.99ZM174.008 64.56C174.475 64.56 174.835 64.42 175.088 64.14C175.348 63.8533 175.478 63.4767 175.478 63.01V62.13C175.478 61.6633 175.348 61.29 175.088 61.01C174.835 60.7233 174.475 60.58 174.008 60.58C173.828 60.58 173.658 60.6033 173.498 60.65C173.338 60.6967 173.198 60.7667 173.078 60.86C172.958 60.9467 172.862 61.0567 172.788 61.19C172.722 61.3167 172.688 61.4667 172.688 61.64V63.5C172.688 63.6733 172.722 63.8267 172.788 63.96C172.862 64.0867 172.958 64.1967 173.078 64.29C173.198 64.3767 173.338 64.4433 173.498 64.49C173.658 64.5367 173.828 64.56 174.008 64.56ZM181.934 65.24C181.661 65.24 181.468 65.1833 181.354 65.07C181.248 64.9567 181.194 64.8133 181.194 64.64V64.46C181.194 64.2867 181.248 64.1433 181.354 64.03C181.468 63.9167 181.661 63.86 181.934 63.86C182.208 63.86 182.398 63.9167 182.504 64.03C182.618 64.1433 182.674 64.2867 182.674 64.46V64.64C182.674 64.8133 182.618 64.9567 182.504 65.07C182.398 65.1833 182.208 65.24 181.934 65.24ZM181.934 61.28C181.661 61.28 181.468 61.2233 181.354 61.11C181.248 60.9967 181.194 60.8533 181.194 60.68V60.5C181.194 60.3267 181.248 60.1833 181.354 60.07C181.468 59.9567 181.661 59.9 181.934 59.9C182.208 59.9 182.398 59.9567 182.504 60.07C182.618 60.1833 182.674 60.3267 182.674 60.5V60.68C182.674 60.8533 182.618 60.9967 182.504 61.11C182.398 61.2233 182.208 61.28 181.934 61.28ZM187.83 66.53L191.31 57.55H192.03L188.55 66.53H187.83ZM195.827 66.53L199.307 57.55H200.027L196.547 66.53H195.827ZM203.223 59.99H203.933L204.523 64.45H204.613L205.493 59.99H206.373L207.253 64.45H207.343L207.933 59.99H208.623L207.833 65.15H206.793L205.973 60.83H205.893L205.053 65.15H204.013L203.223 59.99ZM211.219 59.99H211.929L212.519 64.45H212.609L213.489 59.99H214.369L215.249 64.45H215.339L215.929 59.99H216.619L215.829 65.15H214.789L213.969 60.83H213.889L213.049 65.15H212.009L211.219 59.99ZM219.215 59.99H219.925L220.515 64.45H220.605L221.485 59.99H222.365L223.245 64.45H223.335L223.925 59.99H224.615L223.825 65.15H222.785L221.965 60.83H221.885L221.045 65.15H220.005L219.215 59.99ZM229.911 65.24C229.638 65.24 229.444 65.1833 229.331 65.07C229.224 64.9567 229.171 64.8133 229.171 64.64V64.46C229.171 64.2867 229.224 64.1433 229.331 64.03C229.444 63.9167 229.638 63.86 229.911 63.86C230.184 63.86 230.374 63.9167 230.481 64.03C230.594 64.1433 230.651 64.2867 230.651 64.46V64.64C230.651 64.8133 230.594 64.9567 230.481 65.07C230.374 65.1833 230.184 65.24 229.911 65.24ZM235.737 64.47H237.477V60.67H235.637V59.99H237.477V58.93C237.477 58.5833 237.567 58.3 237.747 58.08C237.934 57.86 238.224 57.75 238.617 57.75H240.347V58.43H238.277V59.99H240.347V60.67H238.277V64.47H240.117V65.15H235.737V64.47ZM243.673 64.47H245.183V60.67H243.673V59.99H245.983V61.29H246.033C246.14 60.8833 246.34 60.5667 246.633 60.34C246.933 60.1067 247.313 59.99 247.773 59.99H248.493V60.79H247.523C247.063 60.79 246.69 60.9233 246.403 61.19C246.123 61.4567 245.983 61.8067 245.983 62.24V64.47H247.983V65.15H243.673V64.47ZM253.989 65.27C253.616 65.27 253.279 65.2067 252.979 65.08C252.686 64.9533 252.433 64.7733 252.219 64.54C252.013 64.3 251.853 64.0167 251.739 63.69C251.626 63.3567 251.569 62.9867 251.569 62.58C251.569 62.1667 251.626 61.7933 251.739 61.46C251.859 61.1267 252.023 60.8433 252.229 60.61C252.436 60.37 252.683 60.1867 252.969 60.06C253.263 59.9333 253.586 59.87 253.939 59.87C254.286 59.87 254.599 59.9333 254.879 60.06C255.166 60.1867 255.409 60.3633 255.609 60.59C255.809 60.81 255.963 61.0733 256.069 61.38C256.176 61.6867 256.229 62.0233 256.229 62.39V62.77H252.409V63.01C252.409 63.2367 252.446 63.4467 252.519 63.64C252.593 63.8333 252.696 64 252.829 64.14C252.969 64.28 253.136 64.39 253.329 64.47C253.529 64.5433 253.749 64.58 253.989 64.58C254.336 64.58 254.636 64.5 254.889 64.34C255.143 64.18 255.336 63.96 255.469 63.68L256.059 64.08C255.906 64.4267 255.649 64.7133 255.289 64.94C254.936 65.16 254.503 65.27 253.989 65.27ZM253.939 60.53C253.719 60.53 253.516 60.57 253.329 60.65C253.143 60.73 252.979 60.84 252.839 60.98C252.706 61.12 252.599 61.2867 252.519 61.48C252.446 61.6667 252.409 61.8733 252.409 62.1V62.17H255.369V62.06C255.369 61.8333 255.333 61.6267 255.259 61.44C255.193 61.2533 255.096 61.0933 254.969 60.96C254.849 60.82 254.699 60.7133 254.519 60.64C254.346 60.5667 254.153 60.53 253.939 60.53ZM263.145 64.31H263.105C262.772 64.95 262.242 65.27 261.515 65.27C260.882 65.27 260.385 65.0333 260.025 64.56C259.672 64.0867 259.495 63.4233 259.495 62.57C259.495 61.7167 259.672 61.0533 260.025 60.58C260.385 60.1067 260.882 59.87 261.515 59.87C262.242 59.87 262.772 60.19 263.105 60.83H263.145V57.75H263.945V65.15H263.145V64.31ZM261.825 64.56C262.005 64.56 262.175 64.5367 262.335 64.49C262.495 64.4433 262.635 64.3767 262.755 64.29C262.875 64.1967 262.969 64.0867 263.035 63.96C263.109 63.8267 263.145 63.6733 263.145 63.5V61.64C263.145 61.4667 263.109 61.3167 263.035 61.19C262.969 61.0567 262.875 60.9467 262.755 60.86C262.635 60.7667 262.495 60.6967 262.335 60.65C262.175 60.6033 262.005 60.58 261.825 60.58C261.359 60.58 260.995 60.7233 260.735 61.01C260.482 61.29 260.355 61.6633 260.355 62.13V63.01C260.355 63.4767 260.482 63.8533 260.735 64.14C260.995 64.42 261.359 64.56 261.825 64.56ZM269.981 65.27C269.608 65.27 269.271 65.2067 268.971 65.08C268.678 64.9533 268.425 64.7733 268.211 64.54C268.005 64.3 267.845 64.0167 267.731 63.69C267.618 63.3567 267.561 62.9867 267.561 62.58C267.561 62.1667 267.618 61.7933 267.731 61.46C267.851 61.1267 268.015 60.8433 268.221 60.61C268.428 60.37 268.675 60.1867 268.961 60.06C269.255 59.9333 269.578 59.87 269.931 59.87C270.278 59.87 270.591 59.9333 270.871 60.06C271.158 60.1867 271.401 60.3633 271.601 60.59C271.801 60.81 271.955 61.0733 272.061 61.38C272.168 61.6867 272.221 62.0233 272.221 62.39V62.77H268.401V63.01C268.401 63.2367 268.438 63.4467 268.511 63.64C268.585 63.8333 268.688 64 268.821 64.14C268.961 64.28 269.128 64.39 269.321 64.47C269.521 64.5433 269.741 64.58 269.981 64.58C270.328 64.58 270.628 64.5 270.881 64.34C271.135 64.18 271.328 63.96 271.461 63.68L272.051 64.08C271.898 64.4267 271.641 64.7133 271.281 64.94C270.928 65.16 270.495 65.27 269.981 65.27ZM269.931 60.53C269.711 60.53 269.508 60.57 269.321 60.65C269.135 60.73 268.971 60.84 268.831 60.98C268.698 61.12 268.591 61.2867 268.511 61.48C268.438 61.6667 268.401 61.8733 268.401 62.1V62.17H271.361V62.06C271.361 61.8333 271.325 61.6267 271.251 61.44C271.185 61.2533 271.088 61.0933 270.961 60.96C270.841 60.82 270.691 60.7133 270.511 60.64C270.338 60.5667 270.145 60.53 269.931 60.53ZM275.658 64.47H277.168V60.67H275.658V59.99H277.968V61.29H278.018C278.124 60.8833 278.324 60.5667 278.618 60.34C278.918 60.1067 279.298 59.99 279.758 59.99H280.478V60.79H279.508C279.048 60.79 278.674 60.9233 278.388 61.19C278.108 61.4567 277.968 61.8067 277.968 62.24V64.47H279.968V65.15H275.658V64.47ZM286.204 58.85C285.97 58.85 285.807 58.8033 285.714 58.71C285.62 58.61 285.574 58.4867 285.574 58.34V58.18C285.574 58.0333 285.62 57.9133 285.714 57.82C285.807 57.72 285.97 57.67 286.204 57.67C286.437 57.67 286.6 57.72 286.694 57.82C286.787 57.9133 286.834 58.0333 286.834 58.18V58.34C286.834 58.4867 286.787 58.61 286.694 58.71C286.6 58.8033 286.437 58.85 286.204 58.85ZM283.944 64.47H285.804V60.67H283.944V59.99H286.604V64.47H288.344V65.15H283.944V64.47ZM291.93 57.75H292.73V62.42H292.77L293.67 61.57L295.39 59.99H296.37L294.23 62.01L296.62 65.15H295.63L293.62 62.47L292.73 63.28V65.15H291.93V57.75ZM299.926 57.75H300.726V62.42H300.766L301.666 61.57L303.386 59.99H304.366L302.226 62.01L304.616 65.15H303.626L301.616 62.47L300.726 63.28V65.15H299.926V57.75ZM309.962 65.27C309.589 65.27 309.252 65.2067 308.952 65.08C308.659 64.9533 308.405 64.7733 308.192 64.54C307.985 64.3 307.825 64.0167 307.712 63.69C307.599 63.3567 307.542 62.9867 307.542 62.58C307.542 62.1667 307.599 61.7933 307.712 61.46C307.832 61.1267 307.995 60.8433 308.202 60.61C308.409 60.37 308.655 60.1867 308.942 60.06C309.235 59.9333 309.559 59.87 309.912 59.87C310.259 59.87 310.572 59.9333 310.852 60.06C311.139 60.1867 311.382 60.3633 311.582 60.59C311.782 60.81 311.935 61.0733 312.042 61.38C312.149 61.6867 312.202 62.0233 312.202 62.39V62.77H308.382V63.01C308.382 63.2367 308.419 63.4467 308.492 63.64C308.565 63.8333 308.669 64 308.802 64.14C308.942 64.28 309.109 64.39 309.302 64.47C309.502 64.5433 309.722 64.58 309.962 64.58C310.309 64.58 310.609 64.5 310.862 64.34C311.115 64.18 311.309 63.96 311.442 63.68L312.032 64.08C311.879 64.4267 311.622 64.7133 311.262 64.94C310.909 65.16 310.475 65.27 309.962 65.27ZM309.912 60.53C309.692 60.53 309.489 60.57 309.302 60.65C309.115 60.73 308.952 60.84 308.812 60.98C308.679 61.12 308.572 61.2867 308.492 61.48C308.419 61.6667 308.382 61.8733 308.382 62.1V62.17H311.342V62.06C311.342 61.8333 311.305 61.6267 311.232 61.44C311.165 61.2533 311.069 61.0933 310.942 60.96C310.822 60.82 310.672 60.7133 310.492 60.64C310.319 60.5667 310.125 60.53 309.912 60.53ZM315.408 65.15V59.99H316.148V60.59H316.188C316.268 60.39 316.381 60.22 316.528 60.08C316.675 59.94 316.891 59.87 317.178 59.87C317.478 59.87 317.701 59.9467 317.848 60.1C317.995 60.2467 318.085 60.44 318.118 60.68H318.148C318.241 60.4467 318.375 60.2533 318.548 60.1C318.721 59.9467 318.961 59.87 319.268 59.87C319.688 59.87 319.968 60.0167 320.108 60.31C320.255 60.6033 320.328 61.0233 320.328 61.57V65.15H319.588V61.7C319.588 61.26 319.541 60.9567 319.448 60.79C319.361 60.6167 319.198 60.53 318.958 60.53C318.745 60.53 318.571 60.6 318.438 60.74C318.305 60.8733 318.238 61.08 318.238 61.36V65.15H317.498V61.7C317.498 61.26 317.451 60.9567 317.358 60.79C317.271 60.6167 317.111 60.53 316.878 60.53C316.665 60.53 316.488 60.6 316.348 60.74C316.215 60.8733 316.148 61.08 316.148 61.36V65.15H315.408ZM325.954 65.27C325.581 65.27 325.244 65.2067 324.944 65.08C324.651 64.9533 324.397 64.7733 324.184 64.54C323.977 64.3 323.817 64.0167 323.704 63.69C323.591 63.3567 323.534 62.9867 323.534 62.58C323.534 62.1667 323.591 61.7933 323.704 61.46C323.824 61.1267 323.987 60.8433 324.194 60.61C324.401 60.37 324.647 60.1867 324.934 60.06C325.227 59.9333 325.551 59.87 325.904 59.87C326.251 59.87 326.564 59.9333 326.844 60.06C327.131 60.1867 327.374 60.3633 327.574 60.59C327.774 60.81 327.927 61.0733 328.034 61.38C328.141 61.6867 328.194 62.0233 328.194 62.39V62.77H324.374V63.01C324.374 63.2367 324.411 63.4467 324.484 63.64C324.557 63.8333 324.661 64 324.794 64.14C324.934 64.28 325.101 64.39 325.294 64.47C325.494 64.5433 325.714 64.58 325.954 64.58C326.301 64.58 326.601 64.5 326.854 64.34C327.107 64.18 327.301 63.96 327.434 63.68L328.024 64.08C327.871 64.4267 327.614 64.7133 327.254 64.94C326.901 65.16 326.467 65.27 325.954 65.27ZM325.904 60.53C325.684 60.53 325.481 60.57 325.294 60.65C325.107 60.73 324.944 60.84 324.804 60.98C324.671 61.12 324.564 61.2867 324.484 61.48C324.411 61.6667 324.374 61.8733 324.374 62.1V62.17H327.334V62.06C327.334 61.8333 327.297 61.6267 327.224 61.44C327.157 61.2533 327.061 61.0933 326.934 60.96C326.814 60.82 326.664 60.7133 326.484 60.64C326.311 60.5667 326.117 60.53 325.904 60.53ZM331.88 66.47H334.38V60.67H331.79V59.99H335.18V65.97C335.18 66.3167 335.087 66.6 334.9 66.82C334.72 67.04 334.434 67.15 334.04 67.15H331.88V66.47ZM334.78 58.85C334.547 58.85 334.384 58.8033 334.29 58.71C334.197 58.61 334.15 58.4867 334.15 58.34V58.18C334.15 58.0333 334.197 57.9133 334.29 57.82C334.384 57.72 334.547 57.67 334.78 57.67C335.014 57.67 335.177 57.72 335.27 57.82C335.364 57.9133 335.41 58.0333 335.41 58.18V58.34C335.41 58.4867 335.364 58.61 335.27 58.71C335.177 58.8033 335.014 58.85 334.78 58.85ZM339.656 64.47H341.456V58.43H339.656V57.75H342.256V64.47H344.056V65.15H339.656V64.47ZM349.342 65.15L347.492 59.99H348.302L349.042 62.15L349.842 64.48H349.882L350.682 62.15L351.422 59.99H352.212L350.362 65.15H349.342ZM359.798 65.15C359.485 65.15 359.262 65.07 359.128 64.91C358.995 64.75 358.912 64.55 358.878 64.31H358.828C358.715 64.61 358.532 64.8467 358.278 65.02C358.032 65.1867 357.698 65.27 357.278 65.27C356.738 65.27 356.308 65.13 355.988 64.85C355.668 64.57 355.508 64.1867 355.508 63.7C355.508 63.22 355.682 62.85 356.028 62.59C356.382 62.33 356.948 62.2 357.728 62.2H358.828V61.69C358.828 61.31 358.722 61.0267 358.508 60.84C358.295 60.6467 357.992 60.55 357.598 60.55C357.252 60.55 356.968 60.62 356.748 60.76C356.528 60.8933 356.352 61.0767 356.218 61.31L355.678 60.91C355.745 60.7767 355.835 60.6467 355.948 60.52C356.062 60.3933 356.202 60.2833 356.368 60.19C356.535 60.09 356.725 60.0133 356.938 59.96C357.152 59.9 357.388 59.87 357.648 59.87C358.255 59.87 358.735 60.0233 359.088 60.33C359.448 60.6367 359.628 61.0633 359.628 61.61V64.45H360.348V65.15H359.798ZM357.418 64.6C357.625 64.6 357.812 64.5767 357.978 64.53C358.152 64.4767 358.302 64.41 358.428 64.33C358.555 64.2433 358.652 64.1433 358.718 64.03C358.792 63.91 358.828 63.7833 358.828 63.65V62.8H357.728C357.248 62.8 356.898 62.8667 356.678 63C356.458 63.1333 356.348 63.3267 356.348 63.58V63.79C356.348 64.0567 356.442 64.26 356.628 64.4C356.822 64.5333 357.085 64.6 357.418 64.6ZM363.825 65.15V59.99H364.625V60.83H364.665C364.718 60.7033 364.785 60.5833 364.865 60.47C364.945 60.35 365.041 60.2467 365.155 60.16C365.275 60.0733 365.415 60.0033 365.575 59.95C365.735 59.8967 365.921 59.87 366.135 59.87C366.675 59.87 367.108 60.0433 367.435 60.39C367.761 60.73 367.925 61.2133 367.925 61.84V65.15H367.125V61.98C367.125 61.5067 367.021 61.1567 366.815 60.93C366.608 60.6967 366.305 60.58 365.905 60.58C365.745 60.58 365.588 60.6 365.435 60.64C365.281 60.68 365.145 60.74 365.025 60.82C364.905 60.9 364.808 61.0033 364.735 61.13C364.661 61.2567 364.625 61.4033 364.625 61.57V65.15H363.825ZM376.451 65.74C376.451 66.26 376.234 66.6433 375.801 66.89C375.367 67.1433 374.717 67.27 373.851 67.27C373.017 67.27 372.417 67.16 372.051 66.94C371.691 66.72 371.511 66.4033 371.511 65.99C371.511 65.71 371.584 65.4933 371.731 65.34C371.877 65.1867 372.084 65.0733 372.351 65V64.88C372.204 64.8067 372.091 64.7133 372.011 64.6C371.931 64.4867 371.891 64.3433 371.891 64.17C371.891 63.9033 371.977 63.7033 372.151 63.57C372.331 63.4367 372.554 63.3367 372.821 63.27V63.23C372.501 63.09 372.251 62.8833 372.071 62.61C371.897 62.3367 371.811 62.0167 371.811 61.65C371.811 61.39 371.857 61.15 371.951 60.93C372.044 60.71 372.177 60.5233 372.351 60.37C372.531 60.21 372.744 60.0867 372.991 60C373.237 59.9133 373.511 59.87 373.811 59.87C374.197 59.87 374.537 59.94 374.831 60.08V59.99C374.831 59.79 374.877 59.6233 374.971 59.49C375.064 59.3567 375.224 59.29 375.451 59.29H376.401V59.99H375.241V60.34C375.427 60.5 375.571 60.69 375.671 60.91C375.771 61.13 375.821 61.3767 375.821 61.65C375.821 61.91 375.771 62.15 375.671 62.37C375.577 62.59 375.444 62.78 375.271 62.94C375.097 63.0933 374.884 63.2133 374.631 63.3C374.384 63.3867 374.111 63.43 373.811 63.43C373.724 63.43 373.641 63.4267 373.561 63.42C373.481 63.4133 373.401 63.4033 373.321 63.39C373.241 63.4033 373.157 63.4267 373.071 63.46C372.984 63.4867 372.904 63.5267 372.831 63.58C372.757 63.6267 372.697 63.6833 372.651 63.75C372.604 63.8167 372.581 63.8933 372.581 63.98C372.581 64.1333 372.657 64.2367 372.811 64.29C372.964 64.3367 373.164 64.36 373.411 64.36H374.551C375.217 64.36 375.701 64.4867 376.001 64.74C376.301 64.9867 376.451 65.32 376.451 65.74ZM375.701 65.78C375.701 65.5733 375.617 65.4067 375.451 65.28C375.284 65.16 374.994 65.1 374.581 65.1H372.791C372.444 65.24 372.271 65.4733 372.271 65.8C372.271 66.0267 372.361 66.22 372.541 66.38C372.721 66.5467 373.021 66.63 373.441 66.63H374.221C374.687 66.63 375.051 66.5567 375.311 66.41C375.571 66.27 375.701 66.06 375.701 65.78ZM373.811 62.81C374.211 62.81 374.504 62.7167 374.691 62.53C374.884 62.3433 374.981 62.0967 374.981 61.79V61.5C374.981 61.1933 374.884 60.95 374.691 60.77C374.504 60.5833 374.211 60.49 373.811 60.49C373.411 60.49 373.117 60.5833 372.931 60.77C372.744 60.95 372.651 61.1933 372.651 61.5V61.79C372.651 62.0967 372.744 62.3433 372.931 62.53C373.117 62.7167 373.411 62.81 373.811 62.81ZM381.837 65.24C381.563 65.24 381.37 65.1833 381.257 65.07C381.15 64.9567 381.097 64.8133 381.097 64.64V64.46C381.097 64.2867 381.15 64.1433 381.257 64.03C381.37 63.9167 381.563 63.86 381.837 63.86C382.11 63.86 382.3 63.9167 382.407 64.03C382.52 64.1433 382.577 64.2867 382.577 64.46V64.64C382.577 64.8133 382.52 64.9567 382.407 65.07C382.3 65.1833 382.11 65.24 381.837 65.24ZM391.083 64.31H391.043C390.709 64.95 390.179 65.27 389.453 65.27C388.819 65.27 388.323 65.0333 387.963 64.56C387.609 64.0867 387.433 63.4233 387.433 62.57C387.433 61.7167 387.609 61.0533 387.963 60.58C388.323 60.1067 388.819 59.87 389.453 59.87C390.179 59.87 390.709 60.19 391.043 60.83H391.083V57.75H391.883V65.15H391.083V64.31ZM389.763 64.56C389.943 64.56 390.113 64.5367 390.273 64.49C390.433 64.4433 390.573 64.3767 390.693 64.29C390.813 64.1967 390.906 64.0867 390.973 63.96C391.046 63.8267 391.083 63.6733 391.083 63.5V61.64C391.083 61.4667 391.046 61.3167 390.973 61.19C390.906 61.0567 390.813 60.9467 390.693 60.86C390.573 60.7667 390.433 60.6967 390.273 60.65C390.113 60.6033 389.943 60.58 389.763 60.58C389.296 60.58 388.933 60.7233 388.673 61.01C388.419 61.29 388.293 61.6633 388.293 62.13V63.01C388.293 63.4767 388.419 63.8533 388.673 64.14C388.933 64.42 389.296 64.56 389.763 64.56ZM395.879 57.75H396.679V62.42H396.719L397.619 61.57L399.339 59.99H400.319L398.179 62.01L400.569 65.15H399.579L397.569 62.47L396.679 63.28V65.15H395.879V57.75Z" fill="black"/>
<path d="M49.214 165.7V121.028H66.494C68.67 121.028 70.6113 121.369 72.318 122.052C74.0247 122.692 75.454 123.631 76.606 124.868C77.8007 126.105 78.6967 127.599 79.294 129.348C79.8913 131.097 80.19 133.06 80.19 135.236C80.19 137.412 79.8913 139.375 79.294 141.124C78.6967 142.873 77.8007 144.367 76.606 145.604C75.454 146.841 74.0247 147.801 72.318 148.484C70.6113 149.124 68.67 149.444 66.494 149.444H58.878V165.7H49.214ZM58.878 141.7H64.062C66.3233 141.7 67.8807 141.273 68.734 140.42C69.63 139.567 70.078 138.159 70.078 136.196V134.276C70.078 132.313 69.63 130.905 68.734 130.052C67.8807 129.199 66.3233 128.772 64.062 128.772H58.878V141.7ZM114.725 166.468C108.752 166.468 104.336 164.441 101.477 160.388C98.661 156.335 97.253 150.66 97.253 143.364C97.253 136.068 98.661 130.393 101.477 126.34C104.336 122.287 108.752 120.26 114.725 120.26C120.698 120.26 125.093 122.287 127.909 126.34C130.768 130.393 132.197 136.068 132.197 143.364C132.197 150.66 130.768 156.335 127.909 160.388C125.093 164.441 120.698 166.468 114.725 166.468ZM114.725 158.724C117.456 158.724 119.333 157.721 120.357 155.716C121.424 153.668 121.957 150.831 121.957 147.204V139.46C121.957 135.876 121.424 133.081 120.357 131.076C119.333 129.028 117.456 128.004 114.725 128.004C111.994 128.004 110.096 129.028 109.029 131.076C108.005 133.081 107.493 135.876 107.493 139.46V147.268C107.493 150.852 108.005 153.668 109.029 155.716C110.096 157.721 111.994 158.724 114.725 158.724ZM161.036 165.7H151.564V121.028H168.844C171.02 121.028 172.961 121.369 174.668 122.052C176.375 122.692 177.804 123.631 178.956 124.868C180.151 126.105 181.047 127.599 181.644 129.348C182.241 131.097 182.54 133.06 182.54 135.236C182.54 138.393 181.857 141.103 180.492 143.364C179.127 145.625 177.185 147.119 174.668 147.844L183.436 165.7H172.94L165.452 149.124H161.036V165.7ZM166.54 141.7C168.801 141.7 170.359 141.273 171.212 140.42C172.108 139.567 172.556 138.159 172.556 136.196V134.276C172.556 132.313 172.108 130.905 171.212 130.052C170.359 129.199 168.801 128.772 166.54 128.772H161.036V141.7H166.54ZM221.875 128.9V165.7H212.275V128.9H199.411V121.028H234.739V128.9H221.875ZM49.47 248.7V204.028H79.102V211.9H59.07V222.14H76.99V230.012H59.07V248.7H49.47ZM114.725 249.468C108.752 249.468 104.336 247.441 101.477 243.388C98.661 239.335 97.253 233.66 97.253 226.364C97.253 219.068 98.661 213.393 101.477 209.34C104.336 205.287 108.752 203.26 114.725 203.26C120.698 203.26 125.093 205.287 127.909 209.34C130.768 213.393 132.197 219.068 132.197 226.364C132.197 233.66 130.768 239.335 127.909 243.388C125.093 247.441 120.698 249.468 114.725 249.468ZM114.725 241.724C117.456 241.724 119.333 240.721 120.357 238.716C121.424 236.668 121.957 233.831 121.957 230.204V222.46C121.957 218.876 121.424 216.081 120.357 214.076C119.333 212.028 117.456 211.004 114.725 211.004C111.994 211.004 110.096 212.028 109.029 214.076C108.005 216.081 107.493 218.876 107.493 222.46V230.268C107.493 233.852 108.005 236.668 109.029 238.716C110.096 240.721 111.994 241.724 114.725 241.724ZM152.588 248.7V204.028H162.252V240.828H181.452V248.7H152.588ZM202.675 248.7V241.596H212.275V211.132H202.675V204.028H231.475V211.132H221.875V241.596H231.475V248.7H202.675ZM268.25 249.468C262.277 249.468 257.861 247.441 255.002 243.388C252.186 239.335 250.778 233.66 250.778 226.364C250.778 219.068 252.186 213.393 255.002 209.34C257.861 205.287 262.277 203.26 268.25 203.26C274.223 203.26 278.618 205.287 281.434 209.34C284.293 213.393 285.722 219.068 285.722 226.364C285.722 233.66 284.293 239.335 281.434 243.388C278.618 247.441 274.223 249.468 268.25 249.468ZM268.25 241.724C270.981 241.724 272.858 240.721 273.882 238.716C274.949 236.668 275.482 233.831 275.482 230.204V222.46C275.482 218.876 274.949 216.081 273.882 214.076C272.858 212.028 270.981 211.004 268.25 211.004C265.519 211.004 263.621 212.028 262.554 214.076C261.53 216.081 261.018 218.876 261.018 222.46V230.268C261.018 233.852 261.53 236.668 262.554 238.716C263.621 240.721 265.519 241.724 268.25 241.724Z" fill="#F6F5F1"/>
<rect x="30.5" y="30.5" width="541" height="326.35" rx="20.5" fill="#F6F5F1" stroke="#FA7FC1"/>
<path d="M31 98.5H571V336.35C571 347.396 562.046 356.35 551 356.35H51C39.9543 356.35 31 347.396 31 336.35V98.5Z" fill="#90C58B"/>
<line x1="31" y1="98" x2="571" y2="98" stroke="#FA7FC1"/>
<line x1="31" y1="57.5" x2="571" y2="57.5" stroke="#FA7FC1"/>
<rect x="152" y="64.25" width="406" height="28" stroke="#FA7FC1"/>
<circle cx="59.35" cy="44.5" r="5.4" fill="#3E86BA"/>
<circle cx="97.15" cy="44.5" r="5.4" fill="#3E86BA"/>
<circle cx="78.25" cy="44.5" r="5.4" fill="#3E86BA"/>
<path d="M126.207 78.9571C126.598 78.5666 126.598 77.9334 126.207 77.5429L119.843 71.1789C119.453 70.7884 118.819 70.7884 118.429 71.1789C118.038 71.5695 118.038 72.2026 118.429 72.5931L124.086 78.25L118.429 83.9069C118.038 84.2974 118.038 84.9305 118.429 85.3211C118.819 85.7116 119.453 85.7116 119.843 85.3211L126.207 78.9571ZM105.25 79.25H125.5V77.25H105.25V79.25Z" fill="#90C58B"/>
<path d="M59.9929 77.5429C59.6024 77.9334 59.6024 78.5666 59.9929 78.9571L66.3569 85.3211C66.7474 85.7116 67.3806 85.7116 67.7711 85.3211C68.1616 84.9305 68.1616 84.2974 67.7711 83.9069L62.1142 78.25L67.7711 72.5931C68.1616 72.2026 68.1616 71.5695 67.7711 71.1789C67.3806 70.7884 66.7474 70.7884 66.3569 71.1789L59.9929 77.5429ZM80.95 77.25H60.7V79.25H80.95V77.25Z" fill="#90C58B"/>
<path d="M162.93 72.75H163.73V75.83H163.77C163.823 75.7033 163.89 75.5833 163.97 75.47C164.05 75.35 164.147 75.2467 164.26 75.16C164.38 75.0733 164.52 75.0033 164.68 74.95C164.84 74.8967 165.027 74.87 165.24 74.87C165.78 74.87 166.213 75.0433 166.54 75.39C166.867 75.73 167.03 76.2133 167.03 76.84V80.15H166.23V76.98C166.23 76.5067 166.127 76.1567 165.92 75.93C165.713 75.6967 165.41 75.58 165.01 75.58C164.85 75.58 164.693 75.6 164.54 75.64C164.387 75.68 164.25 75.74 164.13 75.82C164.01 75.9 163.913 76.0033 163.84 76.13C163.767 76.2567 163.73 76.4033 163.73 76.57V80.15H162.93V72.75ZM173.196 80.15C172.803 80.15 172.513 80.04 172.326 79.82C172.146 79.6 172.056 79.3167 172.056 78.97V75.67H170.336V74.99H171.616C171.789 74.99 171.909 74.9567 171.976 74.89C172.049 74.8167 172.086 74.6933 172.086 74.52V73.17H172.856V74.99H175.206V75.67H172.856V79.47H175.206V80.15H173.196ZM181.192 80.15C180.799 80.15 180.509 80.04 180.322 79.82C180.142 79.6 180.052 79.3167 180.052 78.97V75.67H178.332V74.99H179.612C179.786 74.99 179.906 74.9567 179.972 74.89C180.046 74.8167 180.082 74.6933 180.082 74.52V73.17H180.852V74.99H183.202V75.67H180.852V79.47H183.202V80.15H181.192ZM186.888 74.99H187.688V75.83H187.728C188.062 75.19 188.592 74.87 189.318 74.87C189.952 74.87 190.445 75.1067 190.798 75.58C191.158 76.0533 191.338 76.7167 191.338 77.57C191.338 78.4233 191.158 79.0867 190.798 79.56C190.445 80.0333 189.952 80.27 189.318 80.27C188.592 80.27 188.062 79.95 187.728 79.31H187.688V82.15H186.888V74.99ZM189.008 79.56C189.475 79.56 189.835 79.42 190.088 79.14C190.348 78.8533 190.478 78.4767 190.478 78.01V77.13C190.478 76.6633 190.348 76.29 190.088 76.01C189.835 75.7233 189.475 75.58 189.008 75.58C188.828 75.58 188.658 75.6033 188.498 75.65C188.338 75.6967 188.198 75.7667 188.078 75.86C187.958 75.9467 187.862 76.0567 187.788 76.19C187.722 76.3167 187.688 76.4667 187.688 76.64V78.5C187.688 78.6733 187.722 78.8267 187.788 78.96C187.862 79.0867 187.958 79.1967 188.078 79.29C188.198 79.3767 188.338 79.4433 188.498 79.49C188.658 79.5367 188.828 79.56 189.008 79.56ZM196.934 80.24C196.661 80.24 196.468 80.1833 196.354 80.07C196.248 79.9567 196.194 79.8133 196.194 79.64V79.46C196.194 79.2867 196.248 79.1433 196.354 79.03C196.468 78.9167 196.661 78.86 196.934 78.86C197.208 78.86 197.398 78.9167 197.504 79.03C197.618 79.1433 197.674 79.2867 197.674 79.46V79.64C197.674 79.8133 197.618 79.9567 197.504 80.07C197.398 80.1833 197.208 80.24 196.934 80.24ZM196.934 76.28C196.661 76.28 196.468 76.2233 196.354 76.11C196.248 75.9967 196.194 75.8533 196.194 75.68V75.5C196.194 75.3267 196.248 75.1833 196.354 75.07C196.468 74.9567 196.661 74.9 196.934 74.9C197.208 74.9 197.398 74.9567 197.504 75.07C197.618 75.1833 197.674 75.3267 197.674 75.5V75.68C197.674 75.8533 197.618 75.9967 197.504 76.11C197.398 76.2233 197.208 76.28 196.934 76.28ZM202.83 81.53L206.31 72.55H207.03L203.55 81.53H202.83ZM210.827 81.53L214.307 72.55H215.027L211.547 81.53H210.827ZM218.223 74.99H218.933L219.523 79.45H219.613L220.493 74.99H221.373L222.253 79.45H222.343L222.933 74.99H223.623L222.833 80.15H221.793L220.973 75.83H220.893L220.053 80.15H219.013L218.223 74.99ZM226.219 74.99H226.929L227.519 79.45H227.609L228.489 74.99H229.369L230.249 79.45H230.339L230.929 74.99H231.619L230.829 80.15H229.789L228.969 75.83H228.889L228.049 80.15H227.009L226.219 74.99ZM234.215 74.99H234.925L235.515 79.45H235.605L236.485 74.99H237.365L238.245 79.45H238.335L238.925 74.99H239.615L238.825 80.15H237.785L236.965 75.83H236.885L236.045 80.15H235.005L234.215 74.99ZM244.911 80.24C244.638 80.24 244.444 80.1833 244.331 80.07C244.224 79.9567 244.171 79.8133 244.171 79.64V79.46C244.171 79.2867 244.224 79.1433 244.331 79.03C244.444 78.9167 244.638 78.86 244.911 78.86C245.184 78.86 245.374 78.9167 245.481 79.03C245.594 79.1433 245.651 79.2867 245.651 79.46V79.64C245.651 79.8133 245.594 79.9567 245.481 80.07C245.374 80.1833 245.184 80.24 244.911 80.24ZM250.737 79.47H252.477V75.67H250.637V74.99H252.477V73.93C252.477 73.5833 252.567 73.3 252.747 73.08C252.934 72.86 253.224 72.75 253.617 72.75H255.347V73.43H253.277V74.99H255.347V75.67H253.277V79.47H255.117V80.15H250.737V79.47ZM258.673 79.47H260.183V75.67H258.673V74.99H260.983V76.29H261.033C261.14 75.8833 261.34 75.5667 261.633 75.34C261.933 75.1067 262.313 74.99 262.773 74.99H263.493V75.79H262.523C262.063 75.79 261.69 75.9233 261.403 76.19C261.123 76.4567 260.983 76.8067 260.983 77.24V79.47H262.983V80.15H258.673V79.47ZM268.989 80.27C268.616 80.27 268.279 80.2067 267.979 80.08C267.686 79.9533 267.433 79.7733 267.219 79.54C267.013 79.3 266.853 79.0167 266.739 78.69C266.626 78.3567 266.569 77.9867 266.569 77.58C266.569 77.1667 266.626 76.7933 266.739 76.46C266.859 76.1267 267.023 75.8433 267.229 75.61C267.436 75.37 267.683 75.1867 267.969 75.06C268.263 74.9333 268.586 74.87 268.939 74.87C269.286 74.87 269.599 74.9333 269.879 75.06C270.166 75.1867 270.409 75.3633 270.609 75.59C270.809 75.81 270.963 76.0733 271.069 76.38C271.176 76.6867 271.229 77.0233 271.229 77.39V77.77H267.409V78.01C267.409 78.2367 267.446 78.4467 267.519 78.64C267.593 78.8333 267.696 79 267.829 79.14C267.969 79.28 268.136 79.39 268.329 79.47C268.529 79.5433 268.749 79.58 268.989 79.58C269.336 79.58 269.636 79.5 269.889 79.34C270.143 79.18 270.336 78.96 270.469 78.68L271.059 79.08C270.906 79.4267 270.649 79.7133 270.289 79.94C269.936 80.16 269.503 80.27 268.989 80.27ZM268.939 75.53C268.719 75.53 268.516 75.57 268.329 75.65C268.143 75.73 267.979 75.84 267.839 75.98C267.706 76.12 267.599 76.2867 267.519 76.48C267.446 76.6667 267.409 76.8733 267.409 77.1V77.17H270.369V77.06C270.369 76.8333 270.333 76.6267 270.259 76.44C270.193 76.2533 270.096 76.0933 269.969 75.96C269.849 75.82 269.699 75.7133 269.519 75.64C269.346 75.5667 269.153 75.53 268.939 75.53ZM278.145 79.31H278.105C277.772 79.95 277.242 80.27 276.515 80.27C275.882 80.27 275.385 80.0333 275.025 79.56C274.672 79.0867 274.495 78.4233 274.495 77.57C274.495 76.7167 274.672 76.0533 275.025 75.58C275.385 75.1067 275.882 74.87 276.515 74.87C277.242 74.87 277.772 75.19 278.105 75.83H278.145V72.75H278.945V80.15H278.145V79.31ZM276.825 79.56C277.005 79.56 277.175 79.5367 277.335 79.49C277.495 79.4433 277.635 79.3767 277.755 79.29C277.875 79.1967 277.969 79.0867 278.035 78.96C278.109 78.8267 278.145 78.6733 278.145 78.5V76.64C278.145 76.4667 278.109 76.3167 278.035 76.19C277.969 76.0567 277.875 75.9467 277.755 75.86C277.635 75.7667 277.495 75.6967 277.335 75.65C277.175 75.6033 277.005 75.58 276.825 75.58C276.359 75.58 275.995 75.7233 275.735 76.01C275.482 76.29 275.355 76.6633 275.355 77.13V78.01C275.355 78.4767 275.482 78.8533 275.735 79.14C275.995 79.42 276.359 79.56 276.825 79.56ZM284.981 80.27C284.608 80.27 284.271 80.2067 283.971 80.08C283.678 79.9533 283.425 79.7733 283.211 79.54C283.005 79.3 282.845 79.0167 282.731 78.69C282.618 78.3567 282.561 77.9867 282.561 77.58C282.561 77.1667 282.618 76.7933 282.731 76.46C282.851 76.1267 283.015 75.8433 283.221 75.61C283.428 75.37 283.675 75.1867 283.961 75.06C284.255 74.9333 284.578 74.87 284.931 74.87C285.278 74.87 285.591 74.9333 285.871 75.06C286.158 75.1867 286.401 75.3633 286.601 75.59C286.801 75.81 286.955 76.0733 287.061 76.38C287.168 76.6867 287.221 77.0233 287.221 77.39V77.77H283.401V78.01C283.401 78.2367 283.438 78.4467 283.511 78.64C283.585 78.8333 283.688 79 283.821 79.14C283.961 79.28 284.128 79.39 284.321 79.47C284.521 79.5433 284.741 79.58 284.981 79.58C285.328 79.58 285.628 79.5 285.881 79.34C286.135 79.18 286.328 78.96 286.461 78.68L287.051 79.08C286.898 79.4267 286.641 79.7133 286.281 79.94C285.928 80.16 285.495 80.27 284.981 80.27ZM284.931 75.53C284.711 75.53 284.508 75.57 284.321 75.65C284.135 75.73 283.971 75.84 283.831 75.98C283.698 76.12 283.591 76.2867 283.511 76.48C283.438 76.6667 283.401 76.8733 283.401 77.1V77.17H286.361V77.06C286.361 76.8333 286.325 76.6267 286.251 76.44C286.185 76.2533 286.088 76.0933 285.961 75.96C285.841 75.82 285.691 75.7133 285.511 75.64C285.338 75.5667 285.145 75.53 284.931 75.53ZM290.658 79.47H292.168V75.67H290.658V74.99H292.968V76.29H293.018C293.124 75.8833 293.324 75.5667 293.618 75.34C293.918 75.1067 294.298 74.99 294.758 74.99H295.478V75.79H294.508C294.048 75.79 293.674 75.9233 293.388 76.19C293.108 76.4567 292.968 76.8067 292.968 77.24V79.47H294.968V80.15H290.658V79.47ZM301.204 73.85C300.97 73.85 300.807 73.8033 300.714 73.71C300.62 73.61 300.574 73.4867 300.574 73.34V73.18C300.574 73.0333 300.62 72.9133 300.714 72.82C300.807 72.72 300.97 72.67 301.204 72.67C301.437 72.67 301.6 72.72 301.694 72.82C301.787 72.9133 301.834 73.0333 301.834 73.18V73.34C301.834 73.4867 301.787 73.61 301.694 73.71C301.6 73.8033 301.437 73.85 301.204 73.85ZM298.944 79.47H300.804V75.67H298.944V74.99H301.604V79.47H303.344V80.15H298.944V79.47ZM306.93 72.75H307.73V77.42H307.77L308.67 76.57L310.39 74.99H311.37L309.23 77.01L311.62 80.15H310.63L308.62 77.47L307.73 78.28V80.15H306.93V72.75ZM314.926 72.75H315.726V77.42H315.766L316.666 76.57L318.386 74.99H319.366L317.226 77.01L319.616 80.15H318.626L316.616 77.47L315.726 78.28V80.15H314.926V72.75ZM324.962 80.27C324.589 80.27 324.252 80.2067 323.952 80.08C323.659 79.9533 323.405 79.7733 323.192 79.54C322.985 79.3 322.825 79.0167 322.712 78.69C322.599 78.3567 322.542 77.9867 322.542 77.58C322.542 77.1667 322.599 76.7933 322.712 76.46C322.832 76.1267 322.995 75.8433 323.202 75.61C323.409 75.37 323.655 75.1867 323.942 75.06C324.235 74.9333 324.559 74.87 324.912 74.87C325.259 74.87 325.572 74.9333 325.852 75.06C326.139 75.1867 326.382 75.3633 326.582 75.59C326.782 75.81 326.935 76.0733 327.042 76.38C327.149 76.6867 327.202 77.0233 327.202 77.39V77.77H323.382V78.01C323.382 78.2367 323.419 78.4467 323.492 78.64C323.565 78.8333 323.669 79 323.802 79.14C323.942 79.28 324.109 79.39 324.302 79.47C324.502 79.5433 324.722 79.58 324.962 79.58C325.309 79.58 325.609 79.5 325.862 79.34C326.115 79.18 326.309 78.96 326.442 78.68L327.032 79.08C326.879 79.4267 326.622 79.7133 326.262 79.94C325.909 80.16 325.475 80.27 324.962 80.27ZM324.912 75.53C324.692 75.53 324.489 75.57 324.302 75.65C324.115 75.73 323.952 75.84 323.812 75.98C323.679 76.12 323.572 76.2867 323.492 76.48C323.419 76.6667 323.382 76.8733 323.382 77.1V77.17H326.342V77.06C326.342 76.8333 326.305 76.6267 326.232 76.44C326.165 76.2533 326.069 76.0933 325.942 75.96C325.822 75.82 325.672 75.7133 325.492 75.64C325.319 75.5667 325.125 75.53 324.912 75.53ZM330.408 80.15V74.99H331.148V75.59H331.188C331.268 75.39 331.381 75.22 331.528 75.08C331.675 74.94 331.891 74.87 332.178 74.87C332.478 74.87 332.701 74.9467 332.848 75.1C332.995 75.2467 333.085 75.44 333.118 75.68H333.148C333.241 75.4467 333.375 75.2533 333.548 75.1C333.721 74.9467 333.961 74.87 334.268 74.87C334.688 74.87 334.968 75.0167 335.108 75.31C335.255 75.6033 335.328 76.0233 335.328 76.57V80.15H334.588V76.7C334.588 76.26 334.541 75.9567 334.448 75.79C334.361 75.6167 334.198 75.53 333.958 75.53C333.745 75.53 333.571 75.6 333.438 75.74C333.305 75.8733 333.238 76.08 333.238 76.36V80.15H332.498V76.7C332.498 76.26 332.451 75.9567 332.358 75.79C332.271 75.6167 332.111 75.53 331.878 75.53C331.665 75.53 331.488 75.6 331.348 75.74C331.215 75.8733 331.148 76.08 331.148 76.36V80.15H330.408ZM340.954 80.27C340.581 80.27 340.244 80.2067 339.944 80.08C339.651 79.9533 339.397 79.7733 339.184 79.54C338.977 79.3 338.817 79.0167 338.704 78.69C338.591 78.3567 338.534 77.9867 338.534 77.58C338.534 77.1667 338.591 76.7933 338.704 76.46C338.824 76.1267 338.987 75.8433 339.194 75.61C339.401 75.37 339.647 75.1867 339.934 75.06C340.227 74.9333 340.551 74.87 340.904 74.87C341.251 74.87 341.564 74.9333 341.844 75.06C342.131 75.1867 342.374 75.3633 342.574 75.59C342.774 75.81 342.927 76.0733 343.034 76.38C343.141 76.6867 343.194 77.0233 343.194 77.39V77.77H339.374V78.01C339.374 78.2367 339.411 78.4467 339.484 78.64C339.557 78.8333 339.661 79 339.794 79.14C339.934 79.28 340.101 79.39 340.294 79.47C340.494 79.5433 340.714 79.58 340.954 79.58C341.301 79.58 341.601 79.5 341.854 79.34C342.107 79.18 342.301 78.96 342.434 78.68L343.024 79.08C342.871 79.4267 342.614 79.7133 342.254 79.94C341.901 80.16 341.467 80.27 340.954 80.27ZM340.904 75.53C340.684 75.53 340.481 75.57 340.294 75.65C340.107 75.73 339.944 75.84 339.804 75.98C339.671 76.12 339.564 76.2867 339.484 76.48C339.411 76.6667 339.374 76.8733 339.374 77.1V77.17H342.334V77.06C342.334 76.8333 342.297 76.6267 342.224 76.44C342.157 76.2533 342.061 76.0933 341.934 75.96C341.814 75.82 341.664 75.7133 341.484 75.64C341.311 75.5667 341.117 75.53 340.904 75.53ZM346.88 81.47H349.38V75.67H346.79V74.99H350.18V80.97C350.18 81.3167 350.087 81.6 349.9 81.82C349.72 82.04 349.434 82.15 349.04 82.15H346.88V81.47ZM349.78 73.85C349.547 73.85 349.384 73.8033 349.29 73.71C349.197 73.61 349.15 73.4867 349.15 73.34V73.18C349.15 73.0333 349.197 72.9133 349.29 72.82C349.384 72.72 349.547 72.67 349.78 72.67C350.014 72.67 350.177 72.72 350.27 72.82C350.364 72.9133 350.41 73.0333 350.41 73.18V73.34C350.41 73.4867 350.364 73.61 350.27 73.71C350.177 73.8033 350.014 73.85 349.78 73.85ZM354.656 79.47H356.456V73.43H354.656V72.75H357.256V79.47H359.056V80.15H354.656V79.47ZM364.342 80.15L362.492 74.99H363.302L364.042 77.15L364.842 79.48H364.882L365.682 77.15L366.422 74.99H367.212L365.362 80.15H364.342ZM374.798 80.15C374.485 80.15 374.262 80.07 374.128 79.91C373.995 79.75 373.912 79.55 373.878 79.31H373.828C373.715 79.61 373.532 79.8467 373.278 80.02C373.032 80.1867 372.698 80.27 372.278 80.27C371.738 80.27 371.308 80.13 370.988 79.85C370.668 79.57 370.508 79.1867 370.508 78.7C370.508 78.22 370.682 77.85 371.028 77.59C371.382 77.33 371.948 77.2 372.728 77.2H373.828V76.69C373.828 76.31 373.722 76.0267 373.508 75.84C373.295 75.6467 372.992 75.55 372.598 75.55C372.252 75.55 371.968 75.62 371.748 75.76C371.528 75.8933 371.352 76.0767 371.218 76.31L370.678 75.91C370.745 75.7767 370.835 75.6467 370.948 75.52C371.062 75.3933 371.202 75.2833 371.368 75.19C371.535 75.09 371.725 75.0133 371.938 74.96C372.152 74.9 372.388 74.87 372.648 74.87C373.255 74.87 373.735 75.0233 374.088 75.33C374.448 75.6367 374.628 76.0633 374.628 76.61V79.45H375.348V80.15H374.798ZM372.418 79.6C372.625 79.6 372.812 79.5767 372.978 79.53C373.152 79.4767 373.302 79.41 373.428 79.33C373.555 79.2433 373.652 79.1433 373.718 79.03C373.792 78.91 373.828 78.7833 373.828 78.65V77.8H372.728C372.248 77.8 371.898 77.8667 371.678 78C371.458 78.1333 371.348 78.3267 371.348 78.58V78.79C371.348 79.0567 371.442 79.26 371.628 79.4C371.822 79.5333 372.085 79.6 372.418 79.6ZM378.825 80.15V74.99H379.625V75.83H379.665C379.718 75.7033 379.785 75.5833 379.865 75.47C379.945 75.35 380.041 75.2467 380.155 75.16C380.275 75.0733 380.415 75.0033 380.575 74.95C380.735 74.8967 380.921 74.87 381.135 74.87C381.675 74.87 382.108 75.0433 382.435 75.39C382.761 75.73 382.925 76.2133 382.925 76.84V80.15H382.125V76.98C382.125 76.5067 382.021 76.1567 381.815 75.93C381.608 75.6967 381.305 75.58 380.905 75.58C380.745 75.58 380.588 75.6 380.435 75.64C380.281 75.68 380.145 75.74 380.025 75.82C379.905 75.9 379.808 76.0033 379.735 76.13C379.661 76.2567 379.625 76.4033 379.625 76.57V80.15H378.825ZM391.451 80.74C391.451 81.26 391.234 81.6433 390.801 81.89C390.367 82.1433 389.717 82.27 388.851 82.27C388.017 82.27 387.417 82.16 387.051 81.94C386.691 81.72 386.511 81.4033 386.511 80.99C386.511 80.71 386.584 80.4933 386.731 80.34C386.877 80.1867 387.084 80.0733 387.351 80V79.88C387.204 79.8067 387.091 79.7133 387.011 79.6C386.931 79.4867 386.891 79.3433 386.891 79.17C386.891 78.9033 386.977 78.7033 387.151 78.57C387.331 78.4367 387.554 78.3367 387.821 78.27V78.23C387.501 78.09 387.251 77.8833 387.071 77.61C386.897 77.3367 386.811 77.0167 386.811 76.65C386.811 76.39 386.857 76.15 386.951 75.93C387.044 75.71 387.177 75.5233 387.351 75.37C387.531 75.21 387.744 75.0867 387.991 75C388.237 74.9133 388.511 74.87 388.811 74.87C389.197 74.87 389.537 74.94 389.831 75.08V74.99C389.831 74.79 389.877 74.6233 389.971 74.49C390.064 74.3567 390.224 74.29 390.451 74.29H391.401V74.99H390.241V75.34C390.427 75.5 390.571 75.69 390.671 75.91C390.771 76.13 390.821 76.3767 390.821 76.65C390.821 76.91 390.771 77.15 390.671 77.37C390.577 77.59 390.444 77.78 390.271 77.94C390.097 78.0933 389.884 78.2133 389.631 78.3C389.384 78.3867 389.111 78.43 388.811 78.43C388.724 78.43 388.641 78.4267 388.561 78.42C388.481 78.4133 388.401 78.4033 388.321 78.39C388.241 78.4033 388.157 78.4267 388.071 78.46C387.984 78.4867 387.904 78.5267 387.831 78.58C387.757 78.6267 387.697 78.6833 387.651 78.75C387.604 78.8167 387.581 78.8933 387.581 78.98C387.581 79.1333 387.657 79.2367 387.811 79.29C387.964 79.3367 388.164 79.36 388.411 79.36H389.551C390.217 79.36 390.701 79.4867 391.001 79.74C391.301 79.9867 391.451 80.32 391.451 80.74ZM390.701 80.78C390.701 80.5733 390.617 80.4067 390.451 80.28C390.284 80.16 389.994 80.1 389.581 80.1H387.791C387.444 80.24 387.271 80.4733 387.271 80.8C387.271 81.0267 387.361 81.22 387.541 81.38C387.721 81.5467 388.021 81.63 388.441 81.63H389.221C389.687 81.63 390.051 81.5567 390.311 81.41C390.571 81.27 390.701 81.06 390.701 80.78ZM388.811 77.81C389.211 77.81 389.504 77.7167 389.691 77.53C389.884 77.3433 389.981 77.0967 389.981 76.79V76.5C389.981 76.1933 389.884 75.95 389.691 75.77C389.504 75.5833 389.211 75.49 388.811 75.49C388.411 75.49 388.117 75.5833 387.931 75.77C387.744 75.95 387.651 76.1933 387.651 76.5V76.79C387.651 77.0967 387.744 77.3433 387.931 77.53C388.117 77.7167 388.411 77.81 388.811 77.81ZM396.837 80.24C396.563 80.24 396.37 80.1833 396.257 80.07C396.15 79.9567 396.097 79.8133 396.097 79.64V79.46C396.097 79.2867 396.15 79.1433 396.257 79.03C396.37 78.9167 396.563 78.86 396.837 78.86C397.11 78.86 397.3 78.9167 397.407 79.03C397.52 79.1433 397.577 79.2867 397.577 79.46V79.64C397.577 79.8133 397.52 79.9567 397.407 80.07C397.3 80.1833 397.11 80.24 396.837 80.24ZM406.083 79.31H406.043C405.709 79.95 405.179 80.27 404.453 80.27C403.819 80.27 403.323 80.0333 402.963 79.56C402.609 79.0867 402.433 78.4233 402.433 77.57C402.433 76.7167 402.609 76.0533 402.963 75.58C403.323 75.1067 403.819 74.87 404.453 74.87C405.179 74.87 405.709 75.19 406.043 75.83H406.083V72.75H406.883V80.15H406.083V79.31ZM404.763 79.56C404.943 79.56 405.113 79.5367 405.273 79.49C405.433 79.4433 405.573 79.3767 405.693 79.29C405.813 79.1967 405.906 79.0867 405.973 78.96C406.046 78.8267 406.083 78.6733 406.083 78.5V76.64C406.083 76.4667 406.046 76.3167 405.973 76.19C405.906 76.0567 405.813 75.9467 405.693 75.86C405.573 75.7667 405.433 75.6967 405.273 75.65C405.113 75.6033 404.943 75.58 404.763 75.58C404.296 75.58 403.933 75.7233 403.673 76.01C403.419 76.29 403.293 76.6633 403.293 77.13V78.01C403.293 78.4767 403.419 78.8533 403.673 79.14C403.933 79.42 404.296 79.56 404.763 79.56ZM410.879 72.75H411.679V77.42H411.719L412.619 76.57L414.339 74.99H415.319L413.179 77.01L415.569 80.15H414.579L412.569 77.47L411.679 78.28V80.15H410.879V72.75Z" fill="black"/>
<path d="M64.214 180.7V136.028H81.494C83.67 136.028 85.6113 136.369 87.318 137.052C89.0247 137.692 90.454 138.631 91.606 139.868C92.8007 141.105 93.6967 142.599 94.294 144.348C94.8913 146.097 95.19 148.06 95.19 150.236C95.19 152.412 94.8913 154.375 94.294 156.124C93.6967 157.873 92.8007 159.367 91.606 160.604C90.454 161.841 89.0247 162.801 87.318 163.484C85.6113 164.124 83.67 164.444 81.494 164.444H73.878V180.7H64.214ZM73.878 156.7H79.062C81.3233 156.7 82.8807 156.273 83.734 155.42C84.63 154.567 85.078 153.159 85.078 151.196V149.276C85.078 147.313 84.63 145.905 83.734 145.052C82.8807 144.199 81.3233 143.772 79.062 143.772H73.878V156.7ZM129.725 181.468C123.752 181.468 119.336 179.441 116.477 175.388C113.661 171.335 112.253 165.66 112.253 158.364C112.253 151.068 113.661 145.393 116.477 141.34C119.336 137.287 123.752 135.26 129.725 135.26C135.698 135.26 140.093 137.287 142.909 141.34C145.768 145.393 147.197 151.068 147.197 158.364C147.197 165.66 145.768 171.335 142.909 175.388C140.093 179.441 135.698 181.468 129.725 181.468ZM129.725 173.724C132.456 173.724 134.333 172.721 135.357 170.716C136.424 168.668 136.957 165.831 136.957 162.204V154.46C136.957 150.876 136.424 148.081 135.357 146.076C134.333 144.028 132.456 143.004 129.725 143.004C126.994 143.004 125.096 144.028 124.029 146.076C123.005 148.081 122.493 150.876 122.493 154.46V162.268C122.493 165.852 123.005 168.668 124.029 170.716C125.096 172.721 126.994 173.724 129.725 173.724ZM176.036 180.7H166.564V136.028H183.844C186.02 136.028 187.961 136.369 189.668 137.052C191.375 137.692 192.804 138.631 193.956 139.868C195.151 141.105 196.047 142.599 196.644 144.348C197.241 146.097 197.54 148.06 197.54 150.236C197.54 153.393 196.857 156.103 195.492 158.364C194.127 160.625 192.185 162.119 189.668 162.844L198.436 180.7H187.94L180.452 164.124H176.036V180.7ZM181.54 156.7C183.801 156.7 185.359 156.273 186.212 155.42C187.108 154.567 187.556 153.159 187.556 151.196V149.276C187.556 147.313 187.108 145.905 186.212 145.052C185.359 144.199 183.801 143.772 181.54 143.772H176.036V156.7H181.54ZM236.875 143.9V180.7H227.275V143.9H214.411V136.028H249.739V143.9H236.875ZM64.47 263.7V219.028H94.102V226.9H74.07V237.14H91.99V245.012H74.07V263.7H64.47ZM129.725 264.468C123.752 264.468 119.336 262.441 116.477 258.388C113.661 254.335 112.253 248.66 112.253 241.364C112.253 234.068 113.661 228.393 116.477 224.34C119.336 220.287 123.752 218.26 129.725 218.26C135.698 218.26 140.093 220.287 142.909 224.34C145.768 228.393 147.197 234.068 147.197 241.364C147.197 248.66 145.768 254.335 142.909 258.388C140.093 262.441 135.698 264.468 129.725 264.468ZM129.725 256.724C132.456 256.724 134.333 255.721 135.357 253.716C136.424 251.668 136.957 248.831 136.957 245.204V237.46C136.957 233.876 136.424 231.081 135.357 229.076C134.333 227.028 132.456 226.004 129.725 226.004C126.994 226.004 125.096 227.028 124.029 229.076C123.005 231.081 122.493 233.876 122.493 237.46V245.268C122.493 248.852 123.005 251.668 124.029 253.716C125.096 255.721 126.994 256.724 129.725 256.724ZM167.588 263.7V219.028H177.252V255.828H196.452V263.7H167.588ZM217.675 263.7V256.596H227.275V226.132H217.675V219.028H246.475V226.132H236.875V256.596H246.475V263.7H217.675ZM283.25 264.468C277.277 264.468 272.861 262.441 270.002 258.388C267.186 254.335 265.778 248.66 265.778 241.364C265.778 234.068 267.186 228.393 270.002 224.34C272.861 220.287 277.277 218.26 283.25 218.26C289.223 218.26 293.618 220.287 296.434 224.34C299.293 228.393 300.722 234.068 300.722 241.364C300.722 248.66 299.293 254.335 296.434 258.388C293.618 262.441 289.223 264.468 283.25 264.468ZM283.25 256.724C285.981 256.724 287.858 255.721 288.882 253.716C289.949 251.668 290.482 248.831 290.482 245.204V237.46C290.482 233.876 289.949 231.081 288.882 229.076C287.858 227.028 285.981 226.004 283.25 226.004C280.519 226.004 278.621 227.028 277.554 229.076C276.53 231.081 276.018 233.876 276.018 237.46V245.268C276.018 248.852 276.53 251.668 277.554 253.716C278.621 255.721 280.519 256.724 283.25 256.724Z" fill="#F6F5F1"/>
<rect x="45.5" y="45.5" width="541" height="326.35" rx="20.5" fill="#F6F5F1" stroke="#FA7FC1"/>
<path d="M46 113.5H586V351.35C586 362.396 577.046 371.35 566 371.35H66C54.9543 371.35 46 362.396 46 351.35V113.5Z" fill="#FA7FC1"/>
<line x1="46" y1="113" x2="586" y2="113" stroke="#FA7FC1"/>
<line x1="46" y1="72.5" x2="586" y2="72.5" stroke="#FA7FC1"/>
<rect x="167" y="79.25" width="406" height="28" stroke="#FA7FC1"/>
<circle cx="74.35" cy="59.5" r="5.4" fill="#3E86BA"/>
<circle cx="112.15" cy="59.5" r="5.4" fill="#3E86BA"/>
<circle cx="93.25" cy="59.5" r="5.4" fill="#3E86BA"/>
<path d="M141.207 93.9571C141.598 93.5666 141.598 92.9334 141.207 92.5429L134.843 86.1789C134.453 85.7884 133.819 85.7884 133.429 86.1789C133.038 86.5695 133.038 87.2026 133.429 87.5931L139.086 93.25L133.429 98.9069C133.038 99.2974 133.038 99.9305 133.429 100.321C133.819 100.712 134.453 100.712 134.843 100.321L141.207 93.9571ZM120.25 94.25H140.5V92.25H120.25V94.25Z" fill="#3E86BA"/>
<path d="M74.9929 92.5429C74.6024 92.9334 74.6024 93.5666 74.9929 93.9571L81.3569 100.321C81.7474 100.712 82.3806 100.712 82.7711 100.321C83.1616 99.9305 83.1616 99.2974 82.7711 98.9069L77.1142 93.25L82.7711 87.5931C83.1616 87.2026 83.1616 86.5695 82.7711 86.1789C82.3806 85.7884 81.7474 85.7884 81.3569 86.1789L74.9929 92.5429ZM95.95 92.25H75.7V94.25H95.95V92.25Z" fill="#3E86BA"/>
<path d="M177.93 87.75H178.73V90.83H178.77C178.823 90.7033 178.89 90.5833 178.97 90.47C179.05 90.35 179.147 90.2467 179.26 90.16C179.38 90.0733 179.52 90.0033 179.68 89.95C179.84 89.8967 180.027 89.87 180.24 89.87C180.78 89.87 181.213 90.0433 181.54 90.39C181.867 90.73 182.03 91.2133 182.03 91.84V95.15H181.23V91.98C181.23 91.5067 181.127 91.1567 180.92 90.93C180.713 90.6967 180.41 90.58 180.01 90.58C179.85 90.58 179.693 90.6 179.54 90.64C179.387 90.68 179.25 90.74 179.13 90.82C179.01 90.9 178.913 91.0033 178.84 91.13C178.767 91.2567 178.73 91.4033 178.73 91.57V95.15H177.93V87.75ZM188.196 95.15C187.803 95.15 187.513 95.04 187.326 94.82C187.146 94.6 187.056 94.3167 187.056 93.97V90.67H185.336V89.99H186.616C186.789 89.99 186.909 89.9567 186.976 89.89C187.049 89.8167 187.086 89.6933 187.086 89.52V88.17H187.856V89.99H190.206V90.67H187.856V94.47H190.206V95.15H188.196ZM196.192 95.15C195.799 95.15 195.509 95.04 195.322 94.82C195.142 94.6 195.052 94.3167 195.052 93.97V90.67H193.332V89.99H194.612C194.786 89.99 194.906 89.9567 194.972 89.89C195.046 89.8167 195.082 89.6933 195.082 89.52V88.17H195.852V89.99H198.202V90.67H195.852V94.47H198.202V95.15H196.192ZM201.888 89.99H202.688V90.83H202.728C203.062 90.19 203.592 89.87 204.318 89.87C204.952 89.87 205.445 90.1067 205.798 90.58C206.158 91.0533 206.338 91.7167 206.338 92.57C206.338 93.4233 206.158 94.0867 205.798 94.56C205.445 95.0333 204.952 95.27 204.318 95.27C203.592 95.27 203.062 94.95 202.728 94.31H202.688V97.15H201.888V89.99ZM204.008 94.56C204.475 94.56 204.835 94.42 205.088 94.14C205.348 93.8533 205.478 93.4767 205.478 93.01V92.13C205.478 91.6633 205.348 91.29 205.088 91.01C204.835 90.7233 204.475 90.58 204.008 90.58C203.828 90.58 203.658 90.6033 203.498 90.65C203.338 90.6967 203.198 90.7667 203.078 90.86C202.958 90.9467 202.862 91.0567 202.788 91.19C202.722 91.3167 202.688 91.4667 202.688 91.64V93.5C202.688 93.6733 202.722 93.8267 202.788 93.96C202.862 94.0867 202.958 94.1967 203.078 94.29C203.198 94.3767 203.338 94.4433 203.498 94.49C203.658 94.5367 203.828 94.56 204.008 94.56ZM211.934 95.24C211.661 95.24 211.468 95.1833 211.354 95.07C211.248 94.9567 211.194 94.8133 211.194 94.64V94.46C211.194 94.2867 211.248 94.1433 211.354 94.03C211.468 93.9167 211.661 93.86 211.934 93.86C212.208 93.86 212.398 93.9167 212.504 94.03C212.618 94.1433 212.674 94.2867 212.674 94.46V94.64C212.674 94.8133 212.618 94.9567 212.504 95.07C212.398 95.1833 212.208 95.24 211.934 95.24ZM211.934 91.28C211.661 91.28 211.468 91.2233 211.354 91.11C211.248 90.9967 211.194 90.8533 211.194 90.68V90.5C211.194 90.3267 211.248 90.1833 211.354 90.07C211.468 89.9567 211.661 89.9 211.934 89.9C212.208 89.9 212.398 89.9567 212.504 90.07C212.618 90.1833 212.674 90.3267 212.674 90.5V90.68C212.674 90.8533 212.618 90.9967 212.504 91.11C212.398 91.2233 212.208 91.28 211.934 91.28ZM217.83 96.53L221.31 87.55H222.03L218.55 96.53H217.83ZM225.827 96.53L229.307 87.55H230.027L226.547 96.53H225.827ZM233.223 89.99H233.933L234.523 94.45H234.613L235.493 89.99H236.373L237.253 94.45H237.343L237.933 89.99H238.623L237.833 95.15H236.793L235.973 90.83H235.893L235.053 95.15H234.013L233.223 89.99ZM241.219 89.99H241.929L242.519 94.45H242.609L243.489 89.99H244.369L245.249 94.45H245.339L245.929 89.99H246.619L245.829 95.15H244.789L243.969 90.83H243.889L243.049 95.15H242.009L241.219 89.99ZM249.215 89.99H249.925L250.515 94.45H250.605L251.485 89.99H252.365L253.245 94.45H253.335L253.925 89.99H254.615L253.825 95.15H252.785L251.965 90.83H251.885L251.045 95.15H250.005L249.215 89.99ZM259.911 95.24C259.638 95.24 259.444 95.1833 259.331 95.07C259.224 94.9567 259.171 94.8133 259.171 94.64V94.46C259.171 94.2867 259.224 94.1433 259.331 94.03C259.444 93.9167 259.638 93.86 259.911 93.86C260.184 93.86 260.374 93.9167 260.481 94.03C260.594 94.1433 260.651 94.2867 260.651 94.46V94.64C260.651 94.8133 260.594 94.9567 260.481 95.07C260.374 95.1833 260.184 95.24 259.911 95.24ZM265.737 94.47H267.477V90.67H265.637V89.99H267.477V88.93C267.477 88.5833 267.567 88.3 267.747 88.08C267.934 87.86 268.224 87.75 268.617 87.75H270.347V88.43H268.277V89.99H270.347V90.67H268.277V94.47H270.117V95.15H265.737V94.47ZM273.673 94.47H275.183V90.67H273.673V89.99H275.983V91.29H276.033C276.14 90.8833 276.34 90.5667 276.633 90.34C276.933 90.1067 277.313 89.99 277.773 89.99H278.493V90.79H277.523C277.063 90.79 276.69 90.9233 276.403 91.19C276.123 91.4567 275.983 91.8067 275.983 92.24V94.47H277.983V95.15H273.673V94.47ZM283.989 95.27C283.616 95.27 283.279 95.2067 282.979 95.08C282.686 94.9533 282.433 94.7733 282.219 94.54C282.013 94.3 281.853 94.0167 281.739 93.69C281.626 93.3567 281.569 92.9867 281.569 92.58C281.569 92.1667 281.626 91.7933 281.739 91.46C281.859 91.1267 282.023 90.8433 282.229 90.61C282.436 90.37 282.683 90.1867 282.969 90.06C283.263 89.9333 283.586 89.87 283.939 89.87C284.286 89.87 284.599 89.9333 284.879 90.06C285.166 90.1867 285.409 90.3633 285.609 90.59C285.809 90.81 285.963 91.0733 286.069 91.38C286.176 91.6867 286.229 92.0233 286.229 92.39V92.77H282.409V93.01C282.409 93.2367 282.446 93.4467 282.519 93.64C282.593 93.8333 282.696 94 282.829 94.14C282.969 94.28 283.136 94.39 283.329 94.47C283.529 94.5433 283.749 94.58 283.989 94.58C284.336 94.58 284.636 94.5 284.889 94.34C285.143 94.18 285.336 93.96 285.469 93.68L286.059 94.08C285.906 94.4267 285.649 94.7133 285.289 94.94C284.936 95.16 284.503 95.27 283.989 95.27ZM283.939 90.53C283.719 90.53 283.516 90.57 283.329 90.65C283.143 90.73 282.979 90.84 282.839 90.98C282.706 91.12 282.599 91.2867 282.519 91.48C282.446 91.6667 282.409 91.8733 282.409 92.1V92.17H285.369V92.06C285.369 91.8333 285.333 91.6267 285.259 91.44C285.193 91.2533 285.096 91.0933 284.969 90.96C284.849 90.82 284.699 90.7133 284.519 90.64C284.346 90.5667 284.153 90.53 283.939 90.53ZM293.145 94.31H293.105C292.772 94.95 292.242 95.27 291.515 95.27C290.882 95.27 290.385 95.0333 290.025 94.56C289.672 94.0867 289.495 93.4233 289.495 92.57C289.495 91.7167 289.672 91.0533 290.025 90.58C290.385 90.1067 290.882 89.87 291.515 89.87C292.242 89.87 292.772 90.19 293.105 90.83H293.145V87.75H293.945V95.15H293.145V94.31ZM291.825 94.56C292.005 94.56 292.175 94.5367 292.335 94.49C292.495 94.4433 292.635 94.3767 292.755 94.29C292.875 94.1967 292.969 94.0867 293.035 93.96C293.109 93.8267 293.145 93.6733 293.145 93.5V91.64C293.145 91.4667 293.109 91.3167 293.035 91.19C292.969 91.0567 292.875 90.9467 292.755 90.86C292.635 90.7667 292.495 90.6967 292.335 90.65C292.175 90.6033 292.005 90.58 291.825 90.58C291.359 90.58 290.995 90.7233 290.735 91.01C290.482 91.29 290.355 91.6633 290.355 92.13V93.01C290.355 93.4767 290.482 93.8533 290.735 94.14C290.995 94.42 291.359 94.56 291.825 94.56ZM299.981 95.27C299.608 95.27 299.271 95.2067 298.971 95.08C298.678 94.9533 298.425 94.7733 298.211 94.54C298.005 94.3 297.845 94.0167 297.731 93.69C297.618 93.3567 297.561 92.9867 297.561 92.58C297.561 92.1667 297.618 91.7933 297.731 91.46C297.851 91.1267 298.015 90.8433 298.221 90.61C298.428 90.37 298.675 90.1867 298.961 90.06C299.255 89.9333 299.578 89.87 299.931 89.87C300.278 89.87 300.591 89.9333 300.871 90.06C301.158 90.1867 301.401 90.3633 301.601 90.59C301.801 90.81 301.955 91.0733 302.061 91.38C302.168 91.6867 302.221 92.0233 302.221 92.39V92.77H298.401V93.01C298.401 93.2367 298.438 93.4467 298.511 93.64C298.585 93.8333 298.688 94 298.821 94.14C298.961 94.28 299.128 94.39 299.321 94.47C299.521 94.5433 299.741 94.58 299.981 94.58C300.328 94.58 300.628 94.5 300.881 94.34C301.135 94.18 301.328 93.96 301.461 93.68L302.051 94.08C301.898 94.4267 301.641 94.7133 301.281 94.94C300.928 95.16 300.495 95.27 299.981 95.27ZM299.931 90.53C299.711 90.53 299.508 90.57 299.321 90.65C299.135 90.73 298.971 90.84 298.831 90.98C298.698 91.12 298.591 91.2867 298.511 91.48C298.438 91.6667 298.401 91.8733 298.401 92.1V92.17H301.361V92.06C301.361 91.8333 301.325 91.6267 301.251 91.44C301.185 91.2533 301.088 91.0933 300.961 90.96C300.841 90.82 300.691 90.7133 300.511 90.64C300.338 90.5667 300.145 90.53 299.931 90.53ZM305.658 94.47H307.168V90.67H305.658V89.99H307.968V91.29H308.018C308.124 90.8833 308.324 90.5667 308.618 90.34C308.918 90.1067 309.298 89.99 309.758 89.99H310.478V90.79H309.508C309.048 90.79 308.674 90.9233 308.388 91.19C308.108 91.4567 307.968 91.8067 307.968 92.24V94.47H309.968V95.15H305.658V94.47ZM316.204 88.85C315.97 88.85 315.807 88.8033 315.714 88.71C315.62 88.61 315.574 88.4867 315.574 88.34V88.18C315.574 88.0333 315.62 87.9133 315.714 87.82C315.807 87.72 315.97 87.67 316.204 87.67C316.437 87.67 316.6 87.72 316.694 87.82C316.787 87.9133 316.834 88.0333 316.834 88.18V88.34C316.834 88.4867 316.787 88.61 316.694 88.71C316.6 88.8033 316.437 88.85 316.204 88.85ZM313.944 94.47H315.804V90.67H313.944V89.99H316.604V94.47H318.344V95.15H313.944V94.47ZM321.93 87.75H322.73V92.42H322.77L323.67 91.57L325.39 89.99H326.37L324.23 92.01L326.62 95.15H325.63L323.62 92.47L322.73 93.28V95.15H321.93V87.75ZM329.926 87.75H330.726V92.42H330.766L331.666 91.57L333.386 89.99H334.366L332.226 92.01L334.616 95.15H333.626L331.616 92.47L330.726 93.28V95.15H329.926V87.75ZM339.962 95.27C339.589 95.27 339.252 95.2067 338.952 95.08C338.659 94.9533 338.405 94.7733 338.192 94.54C337.985 94.3 337.825 94.0167 337.712 93.69C337.599 93.3567 337.542 92.9867 337.542 92.58C337.542 92.1667 337.599 91.7933 337.712 91.46C337.832 91.1267 337.995 90.8433 338.202 90.61C338.409 90.37 338.655 90.1867 338.942 90.06C339.235 89.9333 339.559 89.87 339.912 89.87C340.259 89.87 340.572 89.9333 340.852 90.06C341.139 90.1867 341.382 90.3633 341.582 90.59C341.782 90.81 341.935 91.0733 342.042 91.38C342.149 91.6867 342.202 92.0233 342.202 92.39V92.77H338.382V93.01C338.382 93.2367 338.419 93.4467 338.492 93.64C338.565 93.8333 338.669 94 338.802 94.14C338.942 94.28 339.109 94.39 339.302 94.47C339.502 94.5433 339.722 94.58 339.962 94.58C340.309 94.58 340.609 94.5 340.862 94.34C341.115 94.18 341.309 93.96 341.442 93.68L342.032 94.08C341.879 94.4267 341.622 94.7133 341.262 94.94C340.909 95.16 340.475 95.27 339.962 95.27ZM339.912 90.53C339.692 90.53 339.489 90.57 339.302 90.65C339.115 90.73 338.952 90.84 338.812 90.98C338.679 91.12 338.572 91.2867 338.492 91.48C338.419 91.6667 338.382 91.8733 338.382 92.1V92.17H341.342V92.06C341.342 91.8333 341.305 91.6267 341.232 91.44C341.165 91.2533 341.069 91.0933 340.942 90.96C340.822 90.82 340.672 90.7133 340.492 90.64C340.319 90.5667 340.125 90.53 339.912 90.53ZM345.408 95.15V89.99H346.148V90.59H346.188C346.268 90.39 346.381 90.22 346.528 90.08C346.675 89.94 346.891 89.87 347.178 89.87C347.478 89.87 347.701 89.9467 347.848 90.1C347.995 90.2467 348.085 90.44 348.118 90.68H348.148C348.241 90.4467 348.375 90.2533 348.548 90.1C348.721 89.9467 348.961 89.87 349.268 89.87C349.688 89.87 349.968 90.0167 350.108 90.31C350.255 90.6033 350.328 91.0233 350.328 91.57V95.15H349.588V91.7C349.588 91.26 349.541 90.9567 349.448 90.79C349.361 90.6167 349.198 90.53 348.958 90.53C348.745 90.53 348.571 90.6 348.438 90.74C348.305 90.8733 348.238 91.08 348.238 91.36V95.15H347.498V91.7C347.498 91.26 347.451 90.9567 347.358 90.79C347.271 90.6167 347.111 90.53 346.878 90.53C346.665 90.53 346.488 90.6 346.348 90.74C346.215 90.8733 346.148 91.08 346.148 91.36V95.15H345.408ZM355.954 95.27C355.581 95.27 355.244 95.2067 354.944 95.08C354.651 94.9533 354.397 94.7733 354.184 94.54C353.977 94.3 353.817 94.0167 353.704 93.69C353.591 93.3567 353.534 92.9867 353.534 92.58C353.534 92.1667 353.591 91.7933 353.704 91.46C353.824 91.1267 353.987 90.8433 354.194 90.61C354.401 90.37 354.647 90.1867 354.934 90.06C355.227 89.9333 355.551 89.87 355.904 89.87C356.251 89.87 356.564 89.9333 356.844 90.06C357.131 90.1867 357.374 90.3633 357.574 90.59C357.774 90.81 357.927 91.0733 358.034 91.38C358.141 91.6867 358.194 92.0233 358.194 92.39V92.77H354.374V93.01C354.374 93.2367 354.411 93.4467 354.484 93.64C354.557 93.8333 354.661 94 354.794 94.14C354.934 94.28 355.101 94.39 355.294 94.47C355.494 94.5433 355.714 94.58 355.954 94.58C356.301 94.58 356.601 94.5 356.854 94.34C357.107 94.18 357.301 93.96 357.434 93.68L358.024 94.08C357.871 94.4267 357.614 94.7133 357.254 94.94C356.901 95.16 356.467 95.27 355.954 95.27ZM355.904 90.53C355.684 90.53 355.481 90.57 355.294 90.65C355.107 90.73 354.944 90.84 354.804 90.98C354.671 91.12 354.564 91.2867 354.484 91.48C354.411 91.6667 354.374 91.8733 354.374 92.1V92.17H357.334V92.06C357.334 91.8333 357.297 91.6267 357.224 91.44C357.157 91.2533 357.061 91.0933 356.934 90.96C356.814 90.82 356.664 90.7133 356.484 90.64C356.311 90.5667 356.117 90.53 355.904 90.53ZM361.88 96.47H364.38V90.67H361.79V89.99H365.18V95.97C365.18 96.3167 365.087 96.6 364.9 96.82C364.72 97.04 364.434 97.15 364.04 97.15H361.88V96.47ZM364.78 88.85C364.547 88.85 364.384 88.8033 364.29 88.71C364.197 88.61 364.15 88.4867 364.15 88.34V88.18C364.15 88.0333 364.197 87.9133 364.29 87.82C364.384 87.72 364.547 87.67 364.78 87.67C365.014 87.67 365.177 87.72 365.27 87.82C365.364 87.9133 365.41 88.0333 365.41 88.18V88.34C365.41 88.4867 365.364 88.61 365.27 88.71C365.177 88.8033 365.014 88.85 364.78 88.85ZM369.656 94.47H371.456V88.43H369.656V87.75H372.256V94.47H374.056V95.15H369.656V94.47ZM379.342 95.15L377.492 89.99H378.302L379.042 92.15L379.842 94.48H379.882L380.682 92.15L381.422 89.99H382.212L380.362 95.15H379.342ZM389.798 95.15C389.485 95.15 389.262 95.07 389.128 94.91C388.995 94.75 388.912 94.55 388.878 94.31H388.828C388.715 94.61 388.532 94.8467 388.278 95.02C388.032 95.1867 387.698 95.27 387.278 95.27C386.738 95.27 386.308 95.13 385.988 94.85C385.668 94.57 385.508 94.1867 385.508 93.7C385.508 93.22 385.682 92.85 386.028 92.59C386.382 92.33 386.948 92.2 387.728 92.2H388.828V91.69C388.828 91.31 388.722 91.0267 388.508 90.84C388.295 90.6467 387.992 90.55 387.598 90.55C387.252 90.55 386.968 90.62 386.748 90.76C386.528 90.8933 386.352 91.0767 386.218 91.31L385.678 90.91C385.745 90.7767 385.835 90.6467 385.948 90.52C386.062 90.3933 386.202 90.2833 386.368 90.19C386.535 90.09 386.725 90.0133 386.938 89.96C387.152 89.9 387.388 89.87 387.648 89.87C388.255 89.87 388.735 90.0233 389.088 90.33C389.448 90.6367 389.628 91.0633 389.628 91.61V94.45H390.348V95.15H389.798ZM387.418 94.6C387.625 94.6 387.812 94.5767 387.978 94.53C388.152 94.4767 388.302 94.41 388.428 94.33C388.555 94.2433 388.652 94.1433 388.718 94.03C388.792 93.91 388.828 93.7833 388.828 93.65V92.8H387.728C387.248 92.8 386.898 92.8667 386.678 93C386.458 93.1333 386.348 93.3267 386.348 93.58V93.79C386.348 94.0567 386.442 94.26 386.628 94.4C386.822 94.5333 387.085 94.6 387.418 94.6ZM393.825 95.15V89.99H394.625V90.83H394.665C394.718 90.7033 394.785 90.5833 394.865 90.47C394.945 90.35 395.041 90.2467 395.155 90.16C395.275 90.0733 395.415 90.0033 395.575 89.95C395.735 89.8967 395.921 89.87 396.135 89.87C396.675 89.87 397.108 90.0433 397.435 90.39C397.761 90.73 397.925 91.2133 397.925 91.84V95.15H397.125V91.98C397.125 91.5067 397.021 91.1567 396.815 90.93C396.608 90.6967 396.305 90.58 395.905 90.58C395.745 90.58 395.588 90.6 395.435 90.64C395.281 90.68 395.145 90.74 395.025 90.82C394.905 90.9 394.808 91.0033 394.735 91.13C394.661 91.2567 394.625 91.4033 394.625 91.57V95.15H393.825ZM406.451 95.74C406.451 96.26 406.234 96.6433 405.801 96.89C405.367 97.1433 404.717 97.27 403.851 97.27C403.017 97.27 402.417 97.16 402.051 96.94C401.691 96.72 401.511 96.4033 401.511 95.99C401.511 95.71 401.584 95.4933 401.731 95.34C401.877 95.1867 402.084 95.0733 402.351 95V94.88C402.204 94.8067 402.091 94.7133 402.011 94.6C401.931 94.4867 401.891 94.3433 401.891 94.17C401.891 93.9033 401.977 93.7033 402.151 93.57C402.331 93.4367 402.554 93.3367 402.821 93.27V93.23C402.501 93.09 402.251 92.8833 402.071 92.61C401.897 92.3367 401.811 92.0167 401.811 91.65C401.811 91.39 401.857 91.15 401.951 90.93C402.044 90.71 402.177 90.5233 402.351 90.37C402.531 90.21 402.744 90.0867 402.991 90C403.237 89.9133 403.511 89.87 403.811 89.87C404.197 89.87 404.537 89.94 404.831 90.08V89.99C404.831 89.79 404.877 89.6233 404.971 89.49C405.064 89.3567 405.224 89.29 405.451 89.29H406.401V89.99H405.241V90.34C405.427 90.5 405.571 90.69 405.671 90.91C405.771 91.13 405.821 91.3767 405.821 91.65C405.821 91.91 405.771 92.15 405.671 92.37C405.577 92.59 405.444 92.78 405.271 92.94C405.097 93.0933 404.884 93.2133 404.631 93.3C404.384 93.3867 404.111 93.43 403.811 93.43C403.724 93.43 403.641 93.4267 403.561 93.42C403.481 93.4133 403.401 93.4033 403.321 93.39C403.241 93.4033 403.157 93.4267 403.071 93.46C402.984 93.4867 402.904 93.5267 402.831 93.58C402.757 93.6267 402.697 93.6833 402.651 93.75C402.604 93.8167 402.581 93.8933 402.581 93.98C402.581 94.1333 402.657 94.2367 402.811 94.29C402.964 94.3367 403.164 94.36 403.411 94.36H404.551C405.217 94.36 405.701 94.4867 406.001 94.74C406.301 94.9867 406.451 95.32 406.451 95.74ZM405.701 95.78C405.701 95.5733 405.617 95.4067 405.451 95.28C405.284 95.16 404.994 95.1 404.581 95.1H402.791C402.444 95.24 402.271 95.4733 402.271 95.8C402.271 96.0267 402.361 96.22 402.541 96.38C402.721 96.5467 403.021 96.63 403.441 96.63H404.221C404.687 96.63 405.051 96.5567 405.311 96.41C405.571 96.27 405.701 96.06 405.701 95.78ZM403.811 92.81C404.211 92.81 404.504 92.7167 404.691 92.53C404.884 92.3433 404.981 92.0967 404.981 91.79V91.5C404.981 91.1933 404.884 90.95 404.691 90.77C404.504 90.5833 404.211 90.49 403.811 90.49C403.411 90.49 403.117 90.5833 402.931 90.77C402.744 90.95 402.651 91.1933 402.651 91.5V91.79C402.651 92.0967 402.744 92.3433 402.931 92.53C403.117 92.7167 403.411 92.81 403.811 92.81ZM411.837 95.24C411.563 95.24 411.37 95.1833 411.257 95.07C411.15 94.9567 411.097 94.8133 411.097 94.64V94.46C411.097 94.2867 411.15 94.1433 411.257 94.03C411.37 93.9167 411.563 93.86 411.837 93.86C412.11 93.86 412.3 93.9167 412.407 94.03C412.52 94.1433 412.577 94.2867 412.577 94.46V94.64C412.577 94.8133 412.52 94.9567 412.407 95.07C412.3 95.1833 412.11 95.24 411.837 95.24ZM421.083 94.31H421.043C420.709 94.95 420.179 95.27 419.453 95.27C418.819 95.27 418.323 95.0333 417.963 94.56C417.609 94.0867 417.433 93.4233 417.433 92.57C417.433 91.7167 417.609 91.0533 417.963 90.58C418.323 90.1067 418.819 89.87 419.453 89.87C420.179 89.87 420.709 90.19 421.043 90.83H421.083V87.75H421.883V95.15H421.083V94.31ZM419.763 94.56C419.943 94.56 420.113 94.5367 420.273 94.49C420.433 94.4433 420.573 94.3767 420.693 94.29C420.813 94.1967 420.906 94.0867 420.973 93.96C421.046 93.8267 421.083 93.6733 421.083 93.5V91.64C421.083 91.4667 421.046 91.3167 420.973 91.19C420.906 91.0567 420.813 90.9467 420.693 90.86C420.573 90.7667 420.433 90.6967 420.273 90.65C420.113 90.6033 419.943 90.58 419.763 90.58C419.296 90.58 418.933 90.7233 418.673 91.01C418.419 91.29 418.293 91.6633 418.293 92.13V93.01C418.293 93.4767 418.419 93.8533 418.673 94.14C418.933 94.42 419.296 94.56 419.763 94.56ZM425.879 87.75H426.679V92.42H426.719L427.619 91.57L429.339 89.99H430.319L428.179 92.01L430.569 95.15H429.579L427.569 92.47L426.679 93.28V95.15H425.879V87.75Z" fill="black"/>
<path d="M75.296 220V152.992H101.216C104.48 152.992 107.392 153.504 109.952 154.528C112.512 155.488 114.656 156.896 116.384 158.752C118.176 160.608 119.52 162.848 120.416 165.472C121.312 168.096 121.76 171.04 121.76 174.304C121.76 177.568 121.312 180.512 120.416 183.136C119.52 185.76 118.176 188 116.384 189.856C114.656 191.712 112.512 193.152 109.952 194.176C107.392 195.136 104.48 195.616 101.216 195.616H89.792V220H75.296ZM89.792 184H97.568C100.96 184 103.296 183.36 104.576 182.08C105.92 180.8 106.592 178.688 106.592 175.744V172.864C106.592 169.92 105.92 167.808 104.576 166.528C103.296 165.248 100.96 164.608 97.568 164.608H89.792V184ZM173.562 221.152C164.602 221.152 157.978 218.112 153.69 212.032C149.466 205.952 147.354 197.44 147.354 186.496C147.354 175.552 149.466 167.04 153.69 160.96C157.978 154.88 164.602 151.84 173.562 151.84C182.522 151.84 189.115 154.88 193.339 160.96C197.626 167.04 199.77 175.552 199.77 186.496C199.77 197.44 197.626 205.952 193.339 212.032C189.115 218.112 182.522 221.152 173.562 221.152ZM173.562 209.536C177.658 209.536 180.474 208.032 182.01 205.024C183.61 201.952 184.41 197.696 184.41 192.256V180.64C184.41 175.264 183.61 171.072 182.01 168.064C180.474 164.992 177.658 163.456 173.562 163.456C169.466 163.456 166.618 164.992 165.018 168.064C163.482 171.072 162.714 175.264 162.714 180.64V192.352C162.714 197.728 163.482 201.952 165.018 205.024C166.618 208.032 169.466 209.536 173.562 209.536ZM243.029 220H228.821V152.992H254.741C258.005 152.992 260.917 153.504 263.477 154.528C266.037 155.488 268.181 156.896 269.909 158.752C271.701 160.608 273.045 162.848 273.941 165.472C274.837 168.096 275.285 171.04 275.285 174.304C275.285 179.04 274.261 183.104 272.213 186.496C270.165 189.888 267.253 192.128 263.477 193.216L276.629 220H260.885L249.653 195.136H243.029V220ZM251.285 184C254.677 184 257.013 183.36 258.293 182.08C259.637 180.8 260.309 178.688 260.309 175.744V172.864C260.309 169.92 259.637 167.808 258.293 166.528C257.013 165.248 254.677 164.608 251.285 164.608H243.029V184H251.285ZM334.288 164.8V220H319.888V164.8H300.592V152.992H353.584V164.8H334.288ZM75.68 345V277.992H120.128V289.8H90.08V305.16H116.96V316.968H90.08V345H75.68ZM173.562 346.152C164.602 346.152 157.978 343.112 153.69 337.032C149.466 330.952 147.354 322.44 147.354 311.496C147.354 300.552 149.466 292.04 153.69 285.96C157.978 279.88 164.602 276.84 173.562 276.84C182.522 276.84 189.115 279.88 193.339 285.96C197.626 292.04 199.77 300.552 199.77 311.496C199.77 322.44 197.626 330.952 193.339 337.032C189.115 343.112 182.522 346.152 173.562 346.152ZM173.562 334.536C177.658 334.536 180.474 333.032 182.01 330.024C183.61 326.952 184.41 322.696 184.41 317.256V305.64C184.41 300.264 183.61 296.072 182.01 293.064C180.474 289.992 177.658 288.456 173.562 288.456C169.466 288.456 166.618 289.992 165.018 293.064C163.482 296.072 162.714 300.264 162.714 305.64V317.352C162.714 322.728 163.482 326.952 165.018 330.024C166.618 333.032 169.466 334.536 173.562 334.536ZM230.357 345V277.992H244.853V333.192H273.653V345H230.357ZM305.488 345V334.344H319.888V288.648H305.488V277.992H348.688V288.648H334.288V334.344H348.688V345H305.488ZM403.85 346.152C394.89 346.152 388.266 343.112 383.978 337.032C379.754 330.952 377.642 322.44 377.642 311.496C377.642 300.552 379.754 292.04 383.978 285.96C388.266 279.88 394.89 276.84 403.85 276.84C412.81 276.84 419.402 279.88 423.626 285.96C427.914 292.04 430.058 300.552 430.058 311.496C430.058 322.44 427.914 330.952 423.626 337.032C419.402 343.112 412.81 346.152 403.85 346.152ZM403.85 334.536C407.946 334.536 410.762 333.032 412.298 330.024C413.898 326.952 414.698 322.696 414.698 317.256V305.64C414.698 300.264 413.898 296.072 412.298 293.064C410.762 289.992 407.946 288.456 403.85 288.456C399.754 288.456 396.906 289.992 395.306 293.064C393.77 296.072 393.002 300.264 393.002 305.64V317.352C393.002 322.728 393.77 326.952 395.306 330.024C396.906 333.032 399.754 334.536 403.85 334.536Z" fill="#F6F5F1"/>
</svg>
