<svg width="460" height="361" viewBox="0 0 460 361" fill="none" xmlns="http://www.w3.org/2000/svg">
<rect x="180.5" y="211.5" width="99" height="99" rx="9.5" stroke="#90C58B"/>
<path fill-rule="evenodd" clip-rule="evenodd" d="M219.804 229H240.279C247.337 229 253.083 234.585 253.083 241.291C253.083 245.211 251.118 248.752 248.073 251.012C251.118 253.275 253.083 256.813 253.083 260.736C253.083 267.439 247.337 273.024 240.279 273.024C237.403 273.024 234.746 272.1 232.608 270.548V280.179C232.608 286.884 226.865 292.47 219.804 292.47C212.746 292.47 207 286.884 207 280.179C207 276.259 208.966 272.721 212.011 270.457C208.966 268.194 207 264.656 207 260.736C207 256.813 208.966 253.275 212.011 251.012C208.966 248.752 207 245.211 207 241.291C207 234.585 212.746 229 219.804 229ZM227.475 273.024H219.804C215.633 273.024 212.133 276.218 212.133 280.179C212.133 284.142 215.633 287.333 219.804 287.333C223.978 287.333 227.475 284.142 227.475 280.179V273.024ZM232.608 260.736C232.608 256.773 236.105 253.579 240.279 253.579C244.45 253.579 247.95 256.773 247.95 260.736C247.95 264.697 244.45 267.891 240.279 267.891C236.105 267.891 232.608 264.697 232.608 260.736ZM219.708 253.582C215.578 253.628 212.133 256.805 212.133 260.736C212.133 264.697 215.633 267.891 219.804 267.891H227.475V253.579H219.804L219.708 253.582ZM227.475 248.445V234.136H219.804C215.633 234.136 212.133 237.327 212.133 241.291C212.133 245.255 215.633 248.445 219.804 248.445H227.475ZM232.608 248.445H240.279C244.45 248.445 247.95 245.255 247.95 241.291C247.95 237.327 244.45 234.136 240.279 234.136H232.608V248.445Z" fill="#3E86BA"/>
<path d="M204.26 327V317.228H210.42V318.25H205.436V321.54H210V322.562H205.436V327H204.26ZM218.843 318.18C218.516 318.18 218.287 318.115 218.157 317.984C218.026 317.844 217.961 317.671 217.961 317.466V317.242C217.961 317.037 218.026 316.869 218.157 316.738C218.287 316.598 218.516 316.528 218.843 316.528C219.169 316.528 219.398 316.598 219.529 316.738C219.659 316.869 219.725 317.037 219.725 317.242V317.466C219.725 317.671 219.659 317.844 219.529 317.984C219.398 318.115 219.169 318.18 218.843 318.18ZM215.679 326.048H218.283V320.728H215.679V319.776H219.403V326.048H221.839V327H215.679V326.048ZM233.243 327.826C233.243 328.554 232.94 329.091 232.333 329.436C231.726 329.791 230.816 329.968 229.603 329.968C228.436 329.968 227.596 329.814 227.083 329.506C226.579 329.198 226.327 328.755 226.327 328.176C226.327 327.784 226.43 327.481 226.635 327.266C226.84 327.051 227.13 326.893 227.503 326.79V326.622C227.298 326.519 227.139 326.389 227.027 326.23C226.915 326.071 226.859 325.871 226.859 325.628C226.859 325.255 226.98 324.975 227.223 324.788C227.475 324.601 227.788 324.461 228.161 324.368V324.312C227.713 324.116 227.363 323.827 227.111 323.444C226.868 323.061 226.747 322.613 226.747 322.1C226.747 321.736 226.812 321.4 226.943 321.092C227.074 320.784 227.26 320.523 227.503 320.308C227.755 320.084 228.054 319.911 228.399 319.79C228.744 319.669 229.127 319.608 229.547 319.608C230.088 319.608 230.564 319.706 230.975 319.902V319.776C230.975 319.496 231.04 319.263 231.171 319.076C231.302 318.889 231.526 318.796 231.843 318.796H233.173V319.776H231.549V320.266C231.81 320.49 232.011 320.756 232.151 321.064C232.291 321.372 232.361 321.717 232.361 322.1C232.361 322.464 232.291 322.8 232.151 323.108C232.02 323.416 231.834 323.682 231.591 323.906C231.348 324.121 231.05 324.289 230.695 324.41C230.35 324.531 229.967 324.592 229.547 324.592C229.426 324.592 229.309 324.587 229.197 324.578C229.085 324.569 228.973 324.555 228.861 324.536C228.749 324.555 228.632 324.587 228.511 324.634C228.39 324.671 228.278 324.727 228.175 324.802C228.072 324.867 227.988 324.947 227.923 325.04C227.858 325.133 227.825 325.241 227.825 325.362C227.825 325.577 227.932 325.721 228.147 325.796C228.362 325.861 228.642 325.894 228.987 325.894H230.583C231.516 325.894 232.193 326.071 232.613 326.426C233.033 326.771 233.243 327.238 233.243 327.826ZM232.193 327.882C232.193 327.593 232.076 327.359 231.843 327.182C231.61 327.014 231.204 326.93 230.625 326.93H228.119C227.634 327.126 227.391 327.453 227.391 327.91C227.391 328.227 227.517 328.498 227.769 328.722C228.021 328.955 228.441 329.072 229.029 329.072H230.121C230.774 329.072 231.283 328.969 231.647 328.764C232.011 328.568 232.193 328.274 232.193 327.882ZM229.547 323.724C230.107 323.724 230.518 323.593 230.779 323.332C231.05 323.071 231.185 322.725 231.185 322.296V321.89C231.185 321.461 231.05 321.12 230.779 320.868C230.518 320.607 230.107 320.476 229.547 320.476C228.987 320.476 228.576 320.607 228.315 320.868C228.054 321.12 227.923 321.461 227.923 321.89V322.296C227.923 322.725 228.054 323.071 228.315 323.332C228.576 323.593 228.987 323.724 229.547 323.724ZM237.34 327V319.776H238.376V320.616H238.432C238.544 320.336 238.702 320.098 238.908 319.902C239.113 319.706 239.416 319.608 239.818 319.608C240.238 319.608 240.55 319.715 240.756 319.93C240.961 320.135 241.087 320.406 241.134 320.742H241.176C241.306 320.415 241.493 320.145 241.736 319.93C241.978 319.715 242.314 319.608 242.744 319.608C243.332 319.608 243.724 319.813 243.92 320.224C244.125 320.635 244.228 321.223 244.228 321.988V327H243.192V322.17C243.192 321.554 243.126 321.129 242.996 320.896C242.874 320.653 242.646 320.532 242.31 320.532C242.011 320.532 241.768 320.63 241.582 320.826C241.395 321.013 241.302 321.302 241.302 321.694V327H240.266V322.17C240.266 321.554 240.2 321.129 240.07 320.896C239.948 320.653 239.724 320.532 239.398 320.532C239.099 320.532 238.852 320.63 238.656 320.826C238.469 321.013 238.376 321.302 238.376 321.694V327H237.34ZM254.708 327C254.269 327 253.957 326.888 253.77 326.664C253.583 326.44 253.467 326.16 253.42 325.824H253.35C253.191 326.244 252.935 326.575 252.58 326.818C252.235 327.051 251.768 327.168 251.18 327.168C250.424 327.168 249.822 326.972 249.374 326.58C248.926 326.188 248.702 325.651 248.702 324.97C248.702 324.298 248.945 323.78 249.43 323.416C249.925 323.052 250.718 322.87 251.81 322.87H253.35V322.156C253.35 321.624 253.201 321.227 252.902 320.966C252.603 320.695 252.179 320.56 251.628 320.56C251.143 320.56 250.746 320.658 250.438 320.854C250.13 321.041 249.883 321.297 249.696 321.624L248.94 321.064C249.033 320.877 249.159 320.695 249.318 320.518C249.477 320.341 249.673 320.187 249.906 320.056C250.139 319.916 250.405 319.809 250.704 319.734C251.003 319.65 251.334 319.608 251.698 319.608C252.547 319.608 253.219 319.823 253.714 320.252C254.218 320.681 254.47 321.279 254.47 322.044V326.02H255.478V327H254.708ZM251.376 326.23C251.665 326.23 251.927 326.197 252.16 326.132C252.403 326.057 252.613 325.964 252.79 325.852C252.967 325.731 253.103 325.591 253.196 325.432C253.299 325.264 253.35 325.087 253.35 324.9V323.71H251.81C251.138 323.71 250.648 323.803 250.34 323.99C250.032 324.177 249.878 324.447 249.878 324.802V325.096C249.878 325.469 250.009 325.754 250.27 325.95C250.541 326.137 250.909 326.23 251.376 326.23Z" fill="black"/>
<rect x="180.5" y="71.5" width="99" height="99" rx="9.5" stroke="#90C58B"/>
<path d="M251.701 111.797H209.299C207.816 111.797 206.609 110.581 206.609 109.088V94.2421C206.609 92.7489 207.816 91.5344 209.299 91.5344H251.701C253.183 91.5344 254.39 92.7489 254.39 94.2421V109.088C254.39 110.581 253.183 111.797 251.701 111.797ZM209.299 93.1499C208.706 93.1499 208.225 93.6401 208.225 94.2421V109.088C208.225 109.691 208.706 110.181 209.299 110.181H251.701C252.292 110.181 252.774 109.691 252.774 109.088V94.2421C252.774 93.6401 252.292 93.1499 251.701 93.1499H209.299Z" fill="#3E86BA"/>
<path d="M258.191 156H202.808C202.702 156 202.597 155.979 202.499 155.939C202.401 155.898 202.312 155.839 202.237 155.764C202.162 155.689 202.102 155.599 202.061 155.501C202.021 155.403 202 155.298 202 155.192V86.8077C202 86.7016 202.021 86.5966 202.061 86.4986C202.102 86.4005 202.162 86.3115 202.237 86.2365C202.312 86.1615 202.401 86.102 202.499 86.0614C202.597 86.0208 202.702 86 202.808 86H258.191C258.297 86 258.402 86.0209 258.5 86.0614C258.598 86.102 258.687 86.1615 258.762 86.2365C258.837 86.3115 258.897 86.4006 258.938 86.4986C258.978 86.5966 258.999 86.7017 258.999 86.8077V155.192C258.999 155.298 258.978 155.403 258.938 155.501C258.897 155.599 258.838 155.688 258.763 155.763C258.688 155.838 258.598 155.898 258.5 155.939C258.402 155.979 258.297 156 258.191 156ZM203.616 154.385H257.383V87.6156H203.616V154.385Z" fill="#3E86BA"/>
<path d="M212.52 106.951H210.545V105.216H212.52V106.951ZM222.422 106.951H220.469V102.864H216.472V106.951H214.497V97.0689H216.472V101.321H220.469V97.0689H222.422V106.951ZM231.028 98.6131H228.254V106.951H226.278V98.6131H223.527V97.0689H231.028V98.6131H231.028ZM234.674 97.0689L237.166 104.362H237.213L239.73 97.0689H242.294V106.951H240.342V104.005L240.53 99.6347H240.483L237.849 106.951H236.532L233.922 99.6583L233.898 99.6818L234.086 104.005V106.951H232.111V97.0689H234.674ZM246.08 105.43H250.454V106.951H244.128V97.0689H246.08V105.43ZM223.174 141.594C222.915 141.594 222.667 141.495 222.48 141.318L213.29 132.629C213.283 132.622 213.276 132.615 213.269 132.609C213.185 132.525 213.116 132.428 213.065 132.32L213.065 132.32C213.002 132.185 212.969 132.038 212.969 131.89V131.889C212.969 131.742 213.001 131.595 213.066 131.459C213.114 131.357 213.18 131.261 213.264 131.176L213.29 131.152L222.479 122.441C222.575 122.349 222.689 122.278 222.812 122.23C222.936 122.183 223.068 122.16 223.201 122.164C223.333 122.167 223.464 122.197 223.585 122.251C223.706 122.305 223.815 122.383 223.906 122.479C223.997 122.575 224.069 122.688 224.116 122.812C224.164 122.936 224.186 123.068 224.183 123.2C224.179 123.333 224.149 123.463 224.095 123.584C224.041 123.705 223.964 123.815 223.868 123.906L215.447 131.889L223.867 139.851C223.963 139.942 224.041 140.051 224.095 140.172C224.149 140.293 224.179 140.424 224.183 140.556C224.186 140.689 224.164 140.821 224.117 140.944C224.069 141.068 223.998 141.182 223.907 141.278C223.813 141.378 223.699 141.457 223.573 141.512C223.447 141.566 223.311 141.594 223.174 141.594ZM237.849 141.594C237.712 141.594 237.576 141.566 237.45 141.512C237.323 141.458 237.21 141.378 237.115 141.279C236.932 141.084 236.832 140.825 236.84 140.557C236.847 140.29 236.96 140.036 237.154 139.852L245.554 131.889L237.153 123.905C236.959 123.72 236.846 123.467 236.84 123.199C236.833 122.932 236.933 122.672 237.117 122.478C237.501 122.074 238.141 122.059 238.545 122.442L247.709 131.152C247.719 131.162 247.729 131.171 247.739 131.181C247.817 131.259 247.882 131.351 247.93 131.451C247.997 131.59 248.031 131.741 248.031 131.892C248.031 132.041 247.996 132.191 247.93 132.329C247.881 132.431 247.815 132.524 247.736 132.604C247.727 132.613 247.718 132.62 247.71 132.628L238.543 141.317C238.356 141.495 238.107 141.594 237.849 141.594Z" fill="#3E86BA"/>
<path d="M215.104 182.562H211.296V187H210.12V177.228H211.296V181.54H215.104V177.228H216.28V187H215.104V182.562ZM224.983 178.25V187H223.807V178.25H220.545V177.228H228.245V178.25H224.983ZM237.759 182.1V179.006H237.647L235.589 184.032L233.531 179.006H233.419V182.1V187H232.341V177.228H233.853L235.575 181.54H235.659L237.381 177.228H238.837V187H237.759V182.1ZM244.264 187V177.228H245.44V185.978H250.074V187H244.264Z" fill="black"/>
<rect x="320.5" y="71.5" width="99" height="99" rx="9.5" stroke="#90C58B"/>
<path d="M400.345 124.621C400.345 124.301 400.218 123.994 399.991 123.767C399.765 123.541 399.458 123.414 399.138 123.414H395.517V101.617C395.526 101.533 395.526 101.448 395.517 101.364V101.279C395.465 101.151 395.392 101.033 395.3 100.929L382.024 86.4466C381.924 86.3417 381.805 86.2558 381.674 86.1931H381.602C381.471 86.1006 381.323 86.0349 381.167 86H348.955C347.86 86 346.811 86.4349 346.037 87.2089C345.262 87.983 344.828 89.0329 344.828 90.1276V123.414H341.207C340.887 123.414 340.58 123.541 340.353 123.767C340.127 123.994 340 124.301 340 124.621V141.602C340.033 141.916 340.179 142.208 340.41 142.422V142.483L344.828 145.741V151.872C344.828 152.967 345.262 154.017 346.037 154.791C346.811 155.565 347.86 156 348.955 156H391.39C391.932 156 392.468 155.893 392.969 155.686C393.47 155.478 393.925 155.174 394.308 154.791C394.692 154.408 394.996 153.953 395.203 153.452C395.41 152.951 395.517 152.414 395.517 151.872V145.741L399.862 142.483V142.422C400.094 142.208 400.24 141.916 400.272 141.602C400.272 141.602 400.272 141.602 400.272 141.517L400.345 124.621ZM356.897 123.414V88.4138H379.828V101.69C379.828 102.01 379.955 102.317 380.181 102.543C380.407 102.769 380.714 102.897 381.034 102.897H393.103V123.414H356.897ZM382.241 90.3086L391.571 100.483H382.241V90.3086ZM347.241 90.1276C347.241 89.6731 347.422 89.2371 347.743 88.9158C348.065 88.5944 348.501 88.4138 348.955 88.4138H354.483V123.414H347.241V90.1276ZM342.414 125.828H397.931V140.31H342.414V125.828ZM347.241 151.872V142.724H354.483V153.586H348.955C348.501 153.586 348.065 153.406 347.743 153.084C347.422 152.763 347.241 152.327 347.241 151.872ZM391.39 153.586H356.897V142.724H393.103V151.872C393.103 152.327 392.923 152.763 392.601 153.084C392.28 153.406 391.844 153.586 391.39 153.586Z" fill="#3E86BA"/>
<path d="M355.159 137.969C354.879 137.977 354.607 137.877 354.398 137.691C354.29 137.59 354.206 137.466 354.152 137.328C354.098 137.191 354.075 137.043 354.084 136.895C354.082 136.756 354.107 136.618 354.159 136.49C354.211 136.361 354.288 136.244 354.386 136.147C354.482 136.045 354.598 135.965 354.727 135.911C354.856 135.856 354.995 135.83 355.134 135.833C355.275 135.83 355.415 135.855 355.545 135.907C355.676 135.958 355.795 136.036 355.895 136.134C356.097 136.338 356.211 136.614 356.211 136.901C356.211 137.188 356.097 137.464 355.895 137.667C355.698 137.859 355.434 137.968 355.159 137.969ZM367.384 134.529C367.377 134.9 367.295 135.265 367.143 135.603C366.955 136.025 366.694 136.409 366.371 136.738C365.992 137.13 365.536 137.438 365.031 137.643C364.429 137.886 363.785 138.005 363.136 137.993C362.633 137.998 362.131 137.945 361.64 137.836C361.215 137.739 360.807 137.576 360.433 137.353C360.054 137.12 359.716 136.826 359.431 136.484C359.152 136.149 358.917 135.78 358.731 135.386C358.535 134.975 358.389 134.541 358.297 134.095C358.181 133.616 358.117 133.127 358.103 132.634C358.09 131.871 358.213 131.111 358.466 130.39C358.691 129.761 359.044 129.185 359.503 128.7C359.952 128.233 360.495 127.866 361.097 127.626C361.715 127.381 362.375 127.258 363.04 127.264C363.837 127.236 364.629 127.406 365.345 127.759C365.938 128.034 366.455 128.448 366.853 128.966C367.17 129.366 367.352 129.856 367.372 130.366C367.375 130.604 367.284 130.834 367.119 131.005C367.042 131.093 366.948 131.163 366.842 131.211C366.735 131.259 366.62 131.284 366.503 131.283C366.285 131.299 366.068 131.23 365.9 131.09C365.719 130.896 365.569 130.676 365.453 130.438C365.236 129.962 364.905 129.547 364.488 129.231C364.082 128.969 363.607 128.834 363.124 128.845C362.727 128.83 362.332 128.911 361.973 129.081C361.613 129.251 361.301 129.506 361.06 129.822C360.5 130.64 360.228 131.621 360.288 132.61C360.266 133.298 360.381 133.983 360.626 134.626C360.814 135.119 361.152 135.541 361.591 135.833C362.029 136.104 362.537 136.243 363.052 136.231C363.597 136.249 364.134 136.093 364.584 135.784C365.025 135.452 365.353 134.993 365.526 134.469C365.601 134.23 365.715 134.006 365.864 133.805C365.942 133.715 366.041 133.645 366.153 133.601C366.264 133.556 366.384 133.54 366.503 133.552C366.622 133.551 366.74 133.574 366.85 133.62C366.96 133.666 367.06 133.733 367.143 133.817C367.234 133.91 367.303 134.023 367.345 134.146C367.387 134.269 367.4 134.4 367.384 134.529ZM377.148 134.686C377.157 135.285 376.989 135.872 376.666 136.376C376.323 136.908 375.832 137.328 375.253 137.583C374.556 137.88 373.803 138.024 373.045 138.005C372.164 138.04 371.289 137.84 370.51 137.426C370.023 137.161 369.608 136.779 369.303 136.316C369.059 135.895 368.942 135.413 368.966 134.928C368.964 134.804 368.987 134.681 369.034 134.567C369.081 134.453 369.15 134.349 369.238 134.262C369.326 134.176 369.431 134.108 369.546 134.062C369.661 134.017 369.783 133.995 369.907 133.998C370.117 133.993 370.321 134.071 370.474 134.216C370.652 134.392 370.789 134.607 370.872 134.843C370.982 135.136 371.123 135.415 371.295 135.676C371.464 135.908 371.688 136.095 371.947 136.219C372.291 136.376 372.667 136.451 373.045 136.436C373.586 136.466 374.122 136.313 374.566 136.002C374.744 135.882 374.89 135.721 374.991 135.531C375.093 135.342 375.145 135.13 375.145 134.916C375.15 134.608 375.038 134.31 374.831 134.083C374.604 133.856 374.327 133.687 374.022 133.588C373.693 133.475 373.25 133.355 372.695 133.226C372.052 133.084 371.425 132.878 370.824 132.61C370.346 132.402 369.93 132.074 369.617 131.657C369.308 131.216 369.151 130.686 369.171 130.148C369.164 129.604 369.328 129.072 369.641 128.628C369.982 128.16 370.452 127.804 370.993 127.602C371.655 127.349 372.36 127.226 373.069 127.24C373.63 127.229 374.188 127.311 374.722 127.481C375.162 127.609 375.572 127.822 375.929 128.109C376.208 128.333 376.438 128.613 376.605 128.929C376.742 129.19 376.817 129.479 376.822 129.774C376.823 130.025 376.728 130.266 376.557 130.45C376.476 130.547 376.374 130.624 376.259 130.676C376.144 130.728 376.019 130.754 375.893 130.752C375.695 130.764 375.501 130.699 375.35 130.571C375.184 130.395 375.046 130.196 374.94 129.979C374.783 129.629 374.552 129.316 374.264 129.062C373.89 128.814 373.444 128.699 372.997 128.736C372.531 128.715 372.07 128.842 371.681 129.098C371.534 129.189 371.411 129.314 371.325 129.464C371.239 129.614 371.191 129.782 371.186 129.955C371.18 130.15 371.24 130.341 371.355 130.498C371.482 130.659 371.643 130.791 371.826 130.884C372.018 130.99 372.22 131.075 372.429 131.138L373.431 131.403C373.921 131.533 374.404 131.686 374.879 131.862C375.308 132.006 375.714 132.209 376.086 132.466C376.414 132.695 376.679 133.002 376.859 133.359C377.06 133.771 377.16 134.227 377.148 134.686ZM386.803 134.686C386.812 135.285 386.644 135.872 386.321 136.376C385.979 136.908 385.488 137.328 384.909 137.583C384.211 137.88 383.458 138.024 382.7 138.005C381.819 138.04 380.944 137.84 380.166 137.426C379.678 137.161 379.263 136.779 378.959 136.316C378.715 135.895 378.597 135.413 378.621 134.928C378.619 134.804 378.642 134.681 378.689 134.567C378.736 134.453 378.806 134.349 378.893 134.262C378.981 134.176 379.086 134.108 379.201 134.062C379.316 134.017 379.439 133.995 379.562 133.998C379.772 133.993 379.976 134.071 380.129 134.216C380.308 134.392 380.444 134.607 380.528 134.843C380.637 135.136 380.779 135.415 380.95 135.676C381.119 135.908 381.343 136.095 381.602 136.219C381.946 136.376 382.322 136.451 382.7 136.436C383.241 136.466 383.777 136.313 384.221 136.002C384.399 135.882 384.546 135.721 384.647 135.531C384.748 135.342 384.8 135.13 384.8 134.916C384.805 134.608 384.693 134.31 384.486 134.083C384.26 133.856 383.982 133.687 383.678 133.588C383.348 133.475 382.905 133.355 382.35 133.226C381.707 133.084 381.081 132.878 380.479 132.61C380.001 132.402 379.586 132.074 379.272 131.657C378.963 131.216 378.807 130.686 378.826 130.148C378.819 129.604 378.983 129.072 379.297 128.628C379.637 128.16 380.107 127.804 380.648 127.602C381.311 127.349 382.015 127.226 382.724 127.24C383.285 127.229 383.843 127.311 384.378 127.481C384.817 127.609 385.227 127.822 385.584 128.109C385.863 128.333 386.093 128.613 386.26 128.929C386.397 129.19 386.472 129.479 386.478 129.774C386.478 130.025 386.383 130.266 386.212 130.45C386.131 130.547 386.029 130.624 385.914 130.676C385.8 130.728 385.674 130.754 385.548 130.752C385.351 130.764 385.156 130.699 385.005 130.571C384.84 130.395 384.701 130.196 384.595 129.979C384.438 129.629 384.207 129.316 383.919 129.062C383.545 128.814 383.099 128.699 382.652 128.736C382.186 128.715 381.725 128.842 381.336 129.098C381.189 129.189 381.067 129.314 380.98 129.464C380.894 129.614 380.846 129.782 380.841 129.955C380.835 130.15 380.895 130.341 381.01 130.498C381.138 130.659 381.298 130.791 381.481 130.884C381.673 130.99 381.875 131.075 382.084 131.138L383.086 131.403C383.625 131.528 384.157 131.681 384.679 131.862C385.108 132.006 385.514 132.209 385.886 132.466C386.214 132.695 386.479 133.002 386.659 133.359C386.811 133.784 386.861 134.238 386.803 134.686Z" fill="#3E86BA"/>
<path d="M358.522 187.168C357.327 187.168 356.436 186.734 355.848 185.866C355.269 184.998 354.98 183.747 354.98 182.114C354.98 180.481 355.269 179.23 355.848 178.362C356.436 177.494 357.327 177.06 358.522 177.06C358.97 177.06 359.357 177.121 359.684 177.242C360.011 177.363 360.291 177.527 360.524 177.732C360.757 177.937 360.953 178.171 361.112 178.432C361.271 178.684 361.411 178.941 361.532 179.202L360.524 179.664C360.44 179.449 360.342 179.249 360.23 179.062C360.118 178.866 359.983 178.698 359.824 178.558C359.675 178.409 359.493 178.292 359.278 178.208C359.073 178.124 358.821 178.082 358.522 178.082C357.747 178.082 357.169 178.376 356.786 178.964C356.413 179.552 356.226 180.336 356.226 181.316V182.912C356.226 183.892 356.413 184.676 356.786 185.264C357.169 185.852 357.747 186.146 358.522 186.146C358.821 186.146 359.073 186.104 359.278 186.02C359.493 185.936 359.675 185.824 359.824 185.684C359.983 185.535 360.118 185.367 360.23 185.18C360.342 184.984 360.44 184.779 360.524 184.564L361.532 185.026C361.411 185.297 361.271 185.558 361.112 185.81C360.953 186.062 360.757 186.291 360.524 186.496C360.291 186.701 360.011 186.865 359.684 186.986C359.357 187.107 358.97 187.168 358.522 187.168ZM369.367 187.168C368.489 187.168 367.771 187.009 367.211 186.692C366.651 186.365 366.189 185.95 365.825 185.446L366.679 184.746C367.061 185.222 367.463 185.577 367.883 185.81C368.312 186.043 368.821 186.16 369.409 186.16C370.118 186.16 370.659 185.997 371.033 185.67C371.406 185.343 371.593 184.886 371.593 184.298C371.593 183.822 371.457 183.453 371.187 183.192C370.916 182.921 370.445 182.73 369.773 182.618L368.681 182.436C368.205 182.352 367.803 182.226 367.477 182.058C367.159 181.89 366.903 181.689 366.707 181.456C366.511 181.213 366.371 180.952 366.287 180.672C366.203 180.383 366.161 180.084 366.161 179.776C366.161 178.88 366.455 178.203 367.043 177.746C367.631 177.289 368.424 177.06 369.423 177.06C370.207 177.06 370.865 177.191 371.397 177.452C371.938 177.713 372.372 178.082 372.699 178.558L371.873 179.272C371.602 178.917 371.275 178.628 370.893 178.404C370.51 178.18 370.015 178.068 369.409 178.068C368.746 178.068 368.237 178.208 367.883 178.488C367.528 178.768 367.351 179.188 367.351 179.748C367.351 180.187 367.481 180.546 367.743 180.826C368.013 181.097 368.494 181.293 369.185 181.414L370.235 181.596C370.711 181.68 371.112 181.806 371.439 181.974C371.765 182.142 372.027 182.343 372.223 182.576C372.428 182.809 372.573 183.071 372.657 183.36C372.741 183.649 372.783 183.953 372.783 184.27C372.783 185.175 372.484 185.885 371.887 186.398C371.299 186.911 370.459 187.168 369.367 187.168ZM380.561 187.168C379.684 187.168 378.965 187.009 378.405 186.692C377.845 186.365 377.383 185.95 377.019 185.446L377.873 184.746C378.256 185.222 378.657 185.577 379.077 185.81C379.506 186.043 380.015 186.16 380.603 186.16C381.312 186.16 381.854 185.997 382.227 185.67C382.6 185.343 382.787 184.886 382.787 184.298C382.787 183.822 382.652 183.453 382.381 183.192C382.11 182.921 381.639 182.73 380.967 182.618L379.875 182.436C379.399 182.352 378.998 182.226 378.671 182.058C378.354 181.89 378.097 181.689 377.901 181.456C377.705 181.213 377.565 180.952 377.481 180.672C377.397 180.383 377.355 180.084 377.355 179.776C377.355 178.88 377.649 178.203 378.237 177.746C378.825 177.289 379.618 177.06 380.617 177.06C381.401 177.06 382.059 177.191 382.591 177.452C383.132 177.713 383.566 178.082 383.893 178.558L383.067 179.272C382.796 178.917 382.47 178.628 382.087 178.404C381.704 178.18 381.21 178.068 380.603 178.068C379.94 178.068 379.432 178.208 379.077 178.488C378.722 178.768 378.545 179.188 378.545 179.748C378.545 180.187 378.676 180.546 378.937 180.826C379.208 181.097 379.688 181.293 380.379 181.414L381.429 181.596C381.905 181.68 382.306 181.806 382.633 181.974C382.96 182.142 383.221 182.343 383.417 182.576C383.622 182.809 383.767 183.071 383.851 183.36C383.935 183.649 383.977 183.953 383.977 184.27C383.977 185.175 383.678 185.885 383.081 186.398C382.493 186.911 381.653 187.168 380.561 187.168Z" fill="black"/>
<rect x="40.5" y="71.5" width="99" height="99" rx="9.5" stroke="#90C58B"/>
<path d="M122.636 96.1551L106.543 86.4992C106.47 86.4563 106.39 86.4348 106.312 86.4C105.247 85.7616 103.871 85.8769 102.989 86.8211L80.4076 111.017L67.9623 99.6071C67.5613 99.2412 67.059 99.0052 66.5214 98.93C65.9839 98.8549 65.4361 98.9441 64.9502 99.186L58.4834 102.418C58.111 102.605 57.7872 102.876 57.5378 103.21C57.2883 103.544 57.1199 103.931 57.046 104.341C56.9721 104.751 56.9947 105.173 57.112 105.573C57.2292 105.973 57.438 106.34 57.7217 106.645L71.1031 120.984L57.7217 135.323C57.4369 135.628 57.2272 135.995 57.1093 136.395C56.9914 136.795 56.9685 137.217 57.0425 137.628C57.1164 138.038 57.2852 138.426 57.5354 138.759C57.7856 139.093 58.1102 139.364 58.4834 139.55L64.9502 142.785C65.4167 143.019 65.9417 143.112 66.4603 143.051C66.9788 142.991 67.4683 142.78 67.8684 142.444L80.9548 131.538L102.989 155.147C103.24 155.416 103.543 155.631 103.88 155.778C104.218 155.925 104.582 156 104.95 156C105.447 155.984 105.93 155.829 106.344 155.552C106.409 155.52 106.478 155.506 106.54 155.469L122.633 145.813C123.03 145.575 123.359 145.238 123.588 144.835C123.816 144.433 123.936 143.978 123.937 143.514V98.4537C123.937 97.9909 123.817 97.536 123.589 97.1332C123.361 96.7304 123.033 96.3934 122.636 96.1551ZM65.779 137.201L64.0919 136.358L74.7696 124.916L77.2855 127.612L65.779 137.201ZM102.479 146.738L64.0919 105.61L65.6985 104.808L102.479 138.526V146.738ZM102.479 131.246L92.397 122.003L102.479 113.603V131.246ZM102.479 106.618L88.4059 118.345L84.3638 114.638L102.479 95.2297V106.618ZM118.572 141.994L107.844 148.431V93.5346L118.572 99.9718V141.994Z" fill="#3E86BA"/>
<path d="M60.402 185L57.504 175.228H58.75L60.136 180.114L61.186 183.81H61.256L62.306 180.114L63.692 175.228H64.896L61.998 185H60.402ZM72.3665 185.168C71.4892 185.168 70.7705 185.009 70.2105 184.692C69.6505 184.365 69.1885 183.95 68.8245 183.446L69.6785 182.746C70.0612 183.222 70.4625 183.577 70.8825 183.81C71.3119 184.043 71.8205 184.16 72.4085 184.16C73.1179 184.16 73.6592 183.997 74.0325 183.67C74.4059 183.343 74.5925 182.886 74.5925 182.298C74.5925 181.822 74.4572 181.453 74.1865 181.192C73.9159 180.921 73.4445 180.73 72.7725 180.618L71.6805 180.436C71.2045 180.352 70.8032 180.226 70.4765 180.058C70.1592 179.89 69.9025 179.689 69.7065 179.456C69.5105 179.213 69.3705 178.952 69.2865 178.672C69.2025 178.383 69.1605 178.084 69.1605 177.776C69.1605 176.88 69.4545 176.203 70.0425 175.746C70.6305 175.289 71.4239 175.06 72.4225 175.06C73.2065 175.06 73.8645 175.191 74.3965 175.452C74.9379 175.713 75.3719 176.082 75.6985 176.558L74.8725 177.272C74.6019 176.917 74.2752 176.628 73.8925 176.404C73.5099 176.18 73.0152 176.068 72.4085 176.068C71.7459 176.068 71.2372 176.208 70.8825 176.488C70.5279 176.768 70.3505 177.188 70.3505 177.748C70.3505 178.187 70.4812 178.546 70.7425 178.826C71.0132 179.097 71.4939 179.293 72.1845 179.414L73.2345 179.596C73.7105 179.68 74.1119 179.806 74.4385 179.974C74.7652 180.142 75.0265 180.343 75.2225 180.576C75.4279 180.809 75.5725 181.071 75.6565 181.36C75.7405 181.649 75.7825 181.953 75.7825 182.27C75.7825 183.175 75.4839 183.885 74.8865 184.398C74.2985 184.911 73.4585 185.168 72.3665 185.168ZM83.9111 185.168C82.7164 185.168 81.8251 184.734 81.2371 183.866C80.6584 182.998 80.3691 181.747 80.3691 180.114C80.3691 178.481 80.6584 177.23 81.2371 176.362C81.8251 175.494 82.7164 175.06 83.9111 175.06C84.3591 175.06 84.7464 175.121 85.0731 175.242C85.3997 175.363 85.6797 175.527 85.9131 175.732C86.1464 175.937 86.3424 176.171 86.5011 176.432C86.6597 176.684 86.7997 176.941 86.9211 177.202L85.9131 177.664C85.8291 177.449 85.7311 177.249 85.6191 177.062C85.5071 176.866 85.3717 176.698 85.2131 176.558C85.0637 176.409 84.8817 176.292 84.6671 176.208C84.4617 176.124 84.2097 176.082 83.9111 176.082C83.1364 176.082 82.5577 176.376 82.1751 176.964C81.8017 177.552 81.6151 178.336 81.6151 179.316V180.912C81.6151 181.892 81.8017 182.676 82.1751 183.264C82.5577 183.852 83.1364 184.146 83.9111 184.146C84.2097 184.146 84.4617 184.104 84.6671 184.02C84.8817 183.936 85.0637 183.824 85.2131 183.684C85.3717 183.535 85.5071 183.367 85.6191 183.18C85.7311 182.984 85.8291 182.779 85.9131 182.564L86.9211 183.026C86.7997 183.297 86.6597 183.558 86.5011 183.81C86.3424 184.062 86.1464 184.291 85.9131 184.496C85.6797 184.701 85.3997 184.865 85.0731 184.986C84.7464 185.107 84.3591 185.168 83.9111 185.168ZM94.7836 185.168C94.2796 185.168 93.8223 185.079 93.4116 184.902C93.0103 184.725 92.6649 184.473 92.3756 184.146C92.0956 183.81 91.8809 183.413 91.7316 182.956C91.5823 182.489 91.5076 181.967 91.5076 181.388C91.5076 180.819 91.5823 180.301 91.7316 179.834C91.8809 179.367 92.0956 178.971 92.3756 178.644C92.6649 178.308 93.0103 178.051 93.4116 177.874C93.8223 177.697 94.2796 177.608 94.7836 177.608C95.2876 177.608 95.7403 177.697 96.1416 177.874C96.5523 178.051 96.8976 178.308 97.1776 178.644C97.4669 178.971 97.6863 179.367 97.8356 179.834C97.9849 180.301 98.0596 180.819 98.0596 181.388C98.0596 181.967 97.9849 182.489 97.8356 182.956C97.6863 183.413 97.4669 183.81 97.1776 184.146C96.8976 184.473 96.5523 184.725 96.1416 184.902C95.7403 185.079 95.2876 185.168 94.7836 185.168ZM94.7836 184.202C95.4089 184.202 95.9129 184.015 96.2956 183.642C96.6783 183.269 96.8696 182.69 96.8696 181.906V180.87C96.8696 180.086 96.6783 179.507 96.2956 179.134C95.9129 178.761 95.4089 178.574 94.7836 178.574C94.1583 178.574 93.6543 178.761 93.2716 179.134C92.8889 179.507 92.6976 180.086 92.6976 180.87V181.906C92.6976 182.69 92.8889 183.269 93.2716 183.642C93.6543 184.015 94.1583 184.202 94.7836 184.202ZM107.728 183.824H107.672C107.205 184.72 106.463 185.168 105.446 185.168C104.559 185.168 103.864 184.837 103.36 184.174C102.865 183.511 102.618 182.583 102.618 181.388C102.618 180.193 102.865 179.265 103.36 178.602C103.864 177.939 104.559 177.608 105.446 177.608C106.463 177.608 107.205 178.056 107.672 178.952H107.728V174.64H108.848V185H107.728V183.824ZM105.88 184.174C106.132 184.174 106.37 184.141 106.594 184.076C106.818 184.011 107.014 183.917 107.182 183.796C107.35 183.665 107.481 183.511 107.574 183.334C107.677 183.147 107.728 182.933 107.728 182.69V180.086C107.728 179.843 107.677 179.633 107.574 179.456C107.481 179.269 107.35 179.115 107.182 178.994C107.014 178.863 106.818 178.765 106.594 178.7C106.37 178.635 106.132 178.602 105.88 178.602C105.227 178.602 104.718 178.803 104.354 179.204C103.999 179.596 103.822 180.119 103.822 180.772V182.004C103.822 182.657 103.999 183.185 104.354 183.586C104.718 183.978 105.227 184.174 105.88 184.174ZM117.299 185.168C116.776 185.168 116.305 185.079 115.885 184.902C115.474 184.725 115.119 184.473 114.821 184.146C114.531 183.81 114.307 183.413 114.149 182.956C113.99 182.489 113.911 181.971 113.911 181.402C113.911 180.823 113.99 180.301 114.149 179.834C114.317 179.367 114.545 178.971 114.835 178.644C115.124 178.308 115.469 178.051 115.871 177.874C116.281 177.697 116.734 177.608 117.229 177.608C117.714 177.608 118.153 177.697 118.545 177.874C118.946 178.051 119.287 178.299 119.567 178.616C119.847 178.924 120.061 179.293 120.211 179.722C120.36 180.151 120.435 180.623 120.435 181.136V181.668H115.087V182.004C115.087 182.321 115.138 182.615 115.241 182.886C115.343 183.157 115.488 183.39 115.675 183.586C115.871 183.782 116.104 183.936 116.375 184.048C116.655 184.151 116.963 184.202 117.299 184.202C117.784 184.202 118.204 184.09 118.559 183.866C118.913 183.642 119.184 183.334 119.371 182.942L120.197 183.502C119.982 183.987 119.623 184.389 119.119 184.706C118.624 185.014 118.017 185.168 117.299 185.168ZM117.229 178.532C116.921 178.532 116.636 178.588 116.375 178.7C116.113 178.812 115.885 178.966 115.689 179.162C115.502 179.358 115.353 179.591 115.241 179.862C115.138 180.123 115.087 180.413 115.087 180.73V180.828H119.231V180.674C119.231 180.357 119.179 180.067 119.077 179.806C118.983 179.545 118.848 179.321 118.671 179.134C118.503 178.938 118.293 178.789 118.041 178.686C117.798 178.583 117.527 178.532 117.229 178.532Z" fill="black"/>
<rect x="0.5" y="0.5" width="459" height="360" rx="14.5" stroke="#FA7FC1"/>
<line y1="40.32" x2="460" y2="40.32" stroke="#FA7FC1"/>
<ellipse cx="21" cy="21.1633" rx="4" ry="4.16327" fill="#3E86BA"/>
<ellipse cx="49" cy="21.1633" rx="4" ry="4.16327" fill="#3E86BA"/>
<ellipse cx="35" cy="21.1633" rx="4" ry="4.16327" fill="#3E86BA"/>
<path d="M153.8 28.5V14.54H158.88C160.173 14.54 161.16 14.8933 161.84 15.6C162.52 16.3067 162.86 17.2933 162.86 18.56C162.86 19.8267 162.52 20.8133 161.84 21.52C161.16 22.2267 160.173 22.58 158.88 22.58H155.48V28.5H153.8ZM155.48 21.12H158.84C159.547 21.12 160.093 20.9467 160.48 20.6C160.88 20.24 161.08 19.7333 161.08 19.08V18.04C161.08 17.3867 160.88 16.8867 160.48 16.54C160.093 16.18 159.547 16 158.84 16H155.48V21.12ZM169.532 27.14H172.552V19.54H169.532V18.18H174.152V20.78H174.252C174.466 19.9667 174.866 19.3333 175.452 18.88C176.052 18.4133 176.812 18.18 177.732 18.18H179.172V19.78H177.232C176.312 19.78 175.566 20.0467 174.992 20.58C174.432 21.1133 174.152 21.8133 174.152 22.68V27.14H178.152V28.5H169.532V27.14ZM189.984 28.74C189.264 28.74 188.611 28.6133 188.024 28.36C187.451 28.1067 186.958 27.7467 186.544 27.28C186.144 26.8 185.838 26.2333 185.624 25.58C185.411 24.9133 185.304 24.1667 185.304 23.34C185.304 22.5267 185.411 21.7867 185.624 21.12C185.838 20.4533 186.144 19.8867 186.544 19.42C186.958 18.94 187.451 18.5733 188.024 18.32C188.611 18.0667 189.264 17.94 189.984 17.94C190.704 17.94 191.351 18.0667 191.924 18.32C192.511 18.5733 193.004 18.94 193.404 19.42C193.818 19.8867 194.131 20.4533 194.344 21.12C194.558 21.7867 194.664 22.5267 194.664 23.34C194.664 24.1667 194.558 24.9133 194.344 25.58C194.131 26.2333 193.818 26.8 193.404 27.28C193.004 27.7467 192.511 28.1067 191.924 28.36C191.351 28.6133 190.704 28.74 189.984 28.74ZM189.984 27.36C190.878 27.36 191.598 27.0933 192.144 26.56C192.691 26.0267 192.964 25.2 192.964 24.08V22.6C192.964 21.48 192.691 20.6533 192.144 20.12C191.598 19.5867 190.878 19.32 189.984 19.32C189.091 19.32 188.371 19.5867 187.824 20.12C187.278 20.6533 187.004 21.48 187.004 22.6V24.08C187.004 25.2 187.278 26.0267 187.824 26.56C188.371 27.0933 189.091 27.36 189.984 27.36ZM211.197 29.68C211.197 30.72 210.763 31.4867 209.897 31.98C209.03 32.4867 207.73 32.74 205.997 32.74C204.33 32.74 203.13 32.52 202.397 32.08C201.677 31.64 201.317 31.0067 201.317 30.18C201.317 29.62 201.463 29.1867 201.757 28.88C202.05 28.5733 202.463 28.3467 202.997 28.2V27.96C202.703 27.8133 202.477 27.6267 202.317 27.4C202.157 27.1733 202.077 26.8867 202.077 26.54C202.077 26.0067 202.25 25.6067 202.597 25.34C202.957 25.0733 203.403 24.8733 203.937 24.74V24.66C203.297 24.38 202.797 23.9667 202.437 23.42C202.09 22.8733 201.917 22.2333 201.917 21.5C201.917 20.98 202.01 20.5 202.197 20.06C202.383 19.62 202.65 19.2467 202.997 18.94C203.357 18.62 203.783 18.3733 204.277 18.2C204.77 18.0267 205.317 17.94 205.917 17.94C206.69 17.94 207.37 18.08 207.957 18.36V18.18C207.957 17.78 208.05 17.4467 208.237 17.18C208.423 16.9133 208.743 16.78 209.197 16.78H211.097V18.18H208.777V18.88C209.15 19.2 209.437 19.58 209.637 20.02C209.837 20.46 209.937 20.9533 209.937 21.5C209.937 22.02 209.837 22.5 209.637 22.94C209.45 23.38 209.183 23.76 208.837 24.08C208.49 24.3867 208.063 24.6267 207.557 24.8C207.063 24.9733 206.517 25.06 205.917 25.06C205.743 25.06 205.577 25.0533 205.417 25.04C205.257 25.0267 205.097 25.0067 204.937 24.98C204.777 25.0067 204.61 25.0533 204.437 25.12C204.263 25.1733 204.103 25.2533 203.957 25.36C203.81 25.4533 203.69 25.5667 203.597 25.7C203.503 25.8333 203.457 25.9867 203.457 26.16C203.457 26.4667 203.61 26.6733 203.917 26.78C204.223 26.8733 204.623 26.92 205.117 26.92H207.397C208.73 26.92 209.697 27.1733 210.297 27.68C210.897 28.1733 211.197 28.84 211.197 29.68ZM209.697 29.76C209.697 29.3467 209.53 29.0133 209.197 28.76C208.863 28.52 208.283 28.4 207.457 28.4H203.877C203.183 28.68 202.837 29.1467 202.837 29.8C202.837 30.2533 203.017 30.64 203.377 30.96C203.737 31.2933 204.337 31.46 205.177 31.46H206.737C207.67 31.46 208.397 31.3133 208.917 31.02C209.437 30.74 209.697 30.32 209.697 29.76ZM205.917 23.82C206.717 23.82 207.303 23.6333 207.677 23.26C208.063 22.8867 208.257 22.3933 208.257 21.78V21.2C208.257 20.5867 208.063 20.1 207.677 19.74C207.303 19.3667 206.717 19.18 205.917 19.18C205.117 19.18 204.53 19.3667 204.157 19.74C203.783 20.1 203.597 20.5867 203.597 21.2V21.78C203.597 22.3933 203.783 22.8867 204.157 23.26C204.53 23.6333 205.117 23.82 205.917 23.82ZM217.509 27.14H220.529V19.54H217.509V18.18H222.129V20.78H222.229C222.442 19.9667 222.842 19.3333 223.429 18.88C224.029 18.4133 224.789 18.18 225.709 18.18H227.149V19.78H225.209C224.289 19.78 223.542 20.0467 222.969 20.58C222.409 21.1133 222.129 21.8133 222.129 22.68V27.14H226.129V28.5H217.509V27.14ZM241.861 28.5C241.234 28.5 240.788 28.34 240.521 28.02C240.254 27.7 240.088 27.3 240.021 26.82H239.921C239.694 27.42 239.328 27.8933 238.821 28.24C238.328 28.5733 237.661 28.74 236.821 28.74C235.741 28.74 234.881 28.46 234.241 27.9C233.601 27.34 233.281 26.5733 233.281 25.6C233.281 24.64 233.628 23.9 234.321 23.38C235.028 22.86 236.161 22.6 237.721 22.6H239.921V21.58C239.921 20.82 239.708 20.2533 239.281 19.88C238.854 19.4933 238.248 19.3 237.461 19.3C236.768 19.3 236.201 19.44 235.761 19.72C235.321 19.9867 234.968 20.3533 234.701 20.82L233.621 20.02C233.754 19.7533 233.934 19.4933 234.161 19.24C234.388 18.9867 234.668 18.7667 235.001 18.58C235.334 18.38 235.714 18.2267 236.141 18.12C236.568 18 237.041 17.94 237.561 17.94C238.774 17.94 239.734 18.2467 240.441 18.86C241.161 19.4733 241.521 20.3267 241.521 21.42V27.1H242.961V28.5H241.861ZM237.101 27.4C237.514 27.4 237.888 27.3533 238.221 27.26C238.568 27.1533 238.868 27.02 239.121 26.86C239.374 26.6867 239.568 26.4867 239.701 26.26C239.848 26.02 239.921 25.7667 239.921 25.5V23.8H237.721C236.761 23.8 236.061 23.9333 235.621 24.2C235.181 24.4667 234.961 24.8533 234.961 25.36V25.78C234.961 26.3133 235.148 26.72 235.521 27C235.908 27.2667 236.434 27.4 237.101 27.4ZM249.033 28.5V18.18H250.513V19.38H250.593C250.753 18.98 250.98 18.64 251.273 18.36C251.566 18.08 252 17.94 252.573 17.94C253.173 17.94 253.62 18.0933 253.913 18.4C254.206 18.6933 254.386 19.08 254.453 19.56H254.513C254.7 19.0933 254.966 18.7067 255.313 18.4C255.66 18.0933 256.14 17.94 256.753 17.94C257.593 17.94 258.153 18.2333 258.433 18.82C258.726 19.4067 258.873 20.2467 258.873 21.34V28.5H257.393V21.6C257.393 20.72 257.3 20.1133 257.113 19.78C256.94 19.4333 256.613 19.26 256.133 19.26C255.706 19.26 255.36 19.4 255.093 19.68C254.826 19.9467 254.693 20.36 254.693 20.92V28.5H253.213V21.6C253.213 20.72 253.12 20.1133 252.933 19.78C252.76 19.4333 252.44 19.26 251.973 19.26C251.546 19.26 251.193 19.4 250.913 19.68C250.646 19.9467 250.513 20.36 250.513 20.92V28.5H249.033ZM265.025 28.5V18.18H266.505V19.38H266.585C266.745 18.98 266.972 18.64 267.265 18.36C267.559 18.08 267.992 17.94 268.565 17.94C269.165 17.94 269.612 18.0933 269.905 18.4C270.199 18.6933 270.379 19.08 270.445 19.56H270.505C270.692 19.0933 270.959 18.7067 271.305 18.4C271.652 18.0933 272.132 17.94 272.745 17.94C273.585 17.94 274.145 18.2333 274.425 18.82C274.719 19.4067 274.865 20.2467 274.865 21.34V28.5H273.385V21.6C273.385 20.72 273.292 20.1133 273.105 19.78C272.932 19.4333 272.605 19.26 272.125 19.26C271.699 19.26 271.352 19.4 271.085 19.68C270.819 19.9467 270.685 20.36 270.685 20.92V28.5H269.205V21.6C269.205 20.72 269.112 20.1133 268.925 19.78C268.752 19.4333 268.432 19.26 267.965 19.26C267.539 19.26 267.185 19.4 266.905 19.68C266.639 19.9467 266.505 20.36 266.505 20.92V28.5H265.025ZM286.118 28.74C285.371 28.74 284.698 28.6133 284.098 28.36C283.511 28.1067 283.004 27.7467 282.577 27.28C282.164 26.8 281.844 26.2333 281.618 25.58C281.391 24.9133 281.278 24.1733 281.278 23.36C281.278 22.5333 281.391 21.7867 281.618 21.12C281.858 20.4533 282.184 19.8867 282.598 19.42C283.011 18.94 283.504 18.5733 284.078 18.32C284.664 18.0667 285.311 17.94 286.018 17.94C286.711 17.94 287.338 18.0667 287.898 18.32C288.471 18.5733 288.958 18.9267 289.358 19.38C289.758 19.82 290.064 20.3467 290.278 20.96C290.491 21.5733 290.598 22.2467 290.598 22.98V23.74H282.958V24.22C282.958 24.6733 283.031 25.0933 283.178 25.48C283.324 25.8667 283.531 26.2 283.798 26.48C284.078 26.76 284.411 26.98 284.798 27.14C285.198 27.2867 285.638 27.36 286.118 27.36C286.811 27.36 287.411 27.2 287.918 26.88C288.424 26.56 288.811 26.12 289.078 25.56L290.258 26.36C289.951 27.0533 289.438 27.6267 288.718 28.08C288.011 28.52 287.144 28.74 286.118 28.74ZM286.018 19.26C285.578 19.26 285.171 19.34 284.798 19.5C284.424 19.66 284.098 19.88 283.818 20.16C283.551 20.44 283.338 20.7733 283.178 21.16C283.031 21.5333 282.958 21.9467 282.958 22.4V22.54H288.878V22.32C288.878 21.8667 288.804 21.4533 288.658 21.08C288.524 20.7067 288.331 20.3867 288.078 20.12C287.838 19.84 287.538 19.6267 287.178 19.48C286.831 19.3333 286.444 19.26 286.018 19.26ZM297.47 27.14H300.49V19.54H297.47V18.18H302.09V20.78H302.19C302.403 19.9667 302.803 19.3333 303.39 18.88C303.99 18.4133 304.75 18.18 305.67 18.18H307.11V19.78H305.17C304.25 19.78 303.503 20.0467 302.93 20.58C302.37 21.1133 302.09 21.8133 302.09 22.68V27.14H306.09V28.5H297.47V27.14Z" fill="black"/>
<rect x="40.5" y="211.5" width="99" height="99" rx="9.5" stroke="#90C58B"/>
<path d="M108.412 273.353C107.654 273.353 107.039 272.738 107.039 271.98V262.373C107.039 261.615 107.654 261 108.412 261C109.17 261 109.784 261.615 109.784 262.373V271.98C109.784 272.738 109.17 273.353 108.412 273.353Z" fill="#3E86BA"/>
<path d="M112.529 267.863C112.178 267.863 111.827 267.729 111.559 267.461L108.412 264.314L105.265 267.461C104.729 267.997 103.86 267.997 103.323 267.461C102.787 266.925 102.787 266.056 103.323 265.52L107.441 261.402C107.977 260.866 108.846 260.866 109.382 261.402L113.5 265.52C114.036 266.056 114.036 266.925 113.5 267.461C113.232 267.729 112.881 267.863 112.529 267.863Z" fill="#3E86BA"/>
<path d="M108.412 287.765H68.6078C67.8498 287.765 67.2353 287.15 67.2353 286.392V227.373C67.2353 226.614 67.8498 226 68.6078 226H98.8039C99.1679 226 99.517 226.145 99.7744 226.402L109.382 236.01C109.64 236.267 109.784 236.616 109.784 236.98V256.196C109.784 256.954 109.17 257.569 108.412 257.569C107.654 257.569 107.039 256.954 107.039 256.196V237.549L98.2353 228.745H69.9804V285.02H107.039V278.157C107.039 277.399 107.654 276.784 108.412 276.784C109.17 276.784 109.784 277.399 109.784 278.157V286.392C109.784 287.15 109.17 287.765 108.412 287.765Z" fill="#3E86BA"/>
<path d="M98.8039 296H60.3725C59.6145 296 59 295.385 59 294.627V238.353C59 237.595 59.6145 236.98 60.3725 236.98H68.6078C69.3659 236.98 69.9804 237.595 69.9804 238.353C69.9804 239.111 69.3659 239.725 68.6078 239.725H61.7451V293.255H97.4314V286.392C97.4314 285.634 98.046 285.02 98.8039 285.02C99.5618 285.02 100.176 285.634 100.176 286.392V294.627C100.176 295.385 99.5618 296 98.8039 296ZM108.412 238.353H98.8039C98.046 238.353 97.4314 237.738 97.4314 236.98V227.373C97.4314 226.614 98.046 226 98.8039 226C99.5618 226 100.176 226.614 100.176 227.373V235.608H108.412C109.17 235.608 109.784 236.222 109.784 236.98C109.784 237.738 109.17 238.353 108.412 238.353ZM108.412 279.529C101.6 279.529 96.0588 273.988 96.0588 267.176C96.0588 260.365 101.6 254.824 108.412 254.824C115.223 254.824 120.765 260.365 120.765 267.176C120.765 273.988 115.223 279.529 108.412 279.529ZM108.412 257.569C103.114 257.569 98.8039 261.879 98.8039 267.176C98.8039 272.474 103.114 276.784 108.412 276.784C113.71 276.784 118.02 272.474 118.02 267.176C118.02 261.879 113.71 257.569 108.412 257.569ZM91.9412 238.353H75.4706C74.7125 238.353 74.098 237.738 74.098 236.98C74.098 236.222 74.7125 235.608 75.4706 235.608H91.9412C92.6991 235.608 93.3137 236.222 93.3137 236.98C93.3137 237.738 92.6991 238.353 91.9412 238.353Z" fill="#3E86BA"/>
<path d="M101.549 245.216H75.4706C74.7125 245.216 74.098 244.601 74.098 243.843C74.098 243.085 74.7125 242.471 75.4706 242.471H101.549C102.307 242.471 102.922 243.085 102.922 243.843C102.922 244.601 102.307 245.216 101.549 245.216ZM101.549 252.078H75.4706C74.7125 252.078 74.098 251.464 74.098 250.706C74.098 249.948 74.7125 249.333 75.4706 249.333H101.549C102.307 249.333 102.922 249.948 102.922 250.706C102.922 251.464 102.307 252.078 101.549 252.078ZM93.3137 258.941H75.4706C74.7125 258.941 74.098 258.327 74.098 257.569C74.098 256.811 74.7125 256.196 75.4706 256.196H93.3137C94.0716 256.196 94.6863 256.811 94.6863 257.569C94.6863 258.327 94.0716 258.941 93.3137 258.941ZM90.5686 265.804H75.4706C74.7125 265.804 74.098 265.189 74.098 264.431C74.098 263.673 74.7125 263.059 75.4706 263.059H90.5686C91.3265 263.059 91.9412 263.673 91.9412 264.431C91.9412 265.189 91.3265 265.804 90.5686 265.804ZM90.5686 272.667H75.4706C74.7125 272.667 74.098 272.052 74.098 271.294C74.098 270.536 74.7125 269.922 75.4706 269.922H90.5686C91.3265 269.922 91.9412 270.536 91.9412 271.294C91.9412 272.052 91.3265 272.667 90.5686 272.667ZM93.3137 279.529H75.4706C74.7125 279.529 74.098 278.915 74.098 278.157C74.098 277.399 74.7125 276.784 75.4706 276.784H93.3137C94.0716 276.784 94.6863 277.399 94.6863 278.157C94.6863 278.915 94.0716 279.529 93.3137 279.529Z" fill="#3E86BA"/>
<path d="M42.26 327V317.228H48.42V318.25H43.436V321.54H48V322.562H43.436V327H42.26ZM56.8425 318.18C56.5159 318.18 56.2872 318.115 56.1565 317.984C56.0259 317.844 55.9605 317.671 55.9605 317.466V317.242C55.9605 317.037 56.0259 316.869 56.1565 316.738C56.2872 316.598 56.5159 316.528 56.8425 316.528C57.1692 316.528 57.3979 316.598 57.5285 316.738C57.6592 316.869 57.7245 317.037 57.7245 317.242V317.466C57.7245 317.671 57.6592 317.844 57.5285 317.984C57.3979 318.115 57.1692 318.18 56.8425 318.18ZM53.6785 326.048H56.2825V320.728H53.6785V319.776H57.4025V326.048H59.8385V327H53.6785V326.048ZM64.5091 326.048H67.0291V317.592H64.5091V316.64H68.1491V326.048H70.6691V327H64.5091V326.048ZM78.9096 327.168C78.3869 327.168 77.9156 327.079 77.4956 326.902C77.0849 326.725 76.7303 326.473 76.4316 326.146C76.1423 325.81 75.9183 325.413 75.7596 324.956C75.6009 324.489 75.5216 323.971 75.5216 323.402C75.5216 322.823 75.6009 322.301 75.7596 321.834C75.9276 321.367 76.1563 320.971 76.4456 320.644C76.7349 320.308 77.0803 320.051 77.4816 319.874C77.8923 319.697 78.3449 319.608 78.8396 319.608C79.3249 319.608 79.7636 319.697 80.1556 319.874C80.5569 320.051 80.8976 320.299 81.1776 320.616C81.4576 320.924 81.6723 321.293 81.8216 321.722C81.9709 322.151 82.0456 322.623 82.0456 323.136V323.668H76.6976V324.004C76.6976 324.321 76.7489 324.615 76.8516 324.886C76.9543 325.157 77.0989 325.39 77.2856 325.586C77.4816 325.782 77.7149 325.936 77.9856 326.048C78.2656 326.151 78.5736 326.202 78.9096 326.202C79.3949 326.202 79.8149 326.09 80.1696 325.866C80.5243 325.642 80.7949 325.334 80.9816 324.942L81.8076 325.502C81.5929 325.987 81.2336 326.389 80.7296 326.706C80.2349 327.014 79.6283 327.168 78.9096 327.168ZM78.8396 320.532C78.5316 320.532 78.2469 320.588 77.9856 320.7C77.7243 320.812 77.4956 320.966 77.2996 321.162C77.1129 321.358 76.9636 321.591 76.8516 321.862C76.7489 322.123 76.6976 322.413 76.6976 322.73V322.828H80.8416V322.674C80.8416 322.357 80.7903 322.067 80.6876 321.806C80.5943 321.545 80.4589 321.321 80.2816 321.134C80.1136 320.938 79.9036 320.789 79.6516 320.686C79.4089 320.583 79.1383 320.532 78.8396 320.532ZM93.5061 327H86.4501V325.95L91.9801 318.25H86.6881V317.228H93.2681V318.278L87.7241 325.978H93.5061V327ZM101.621 318.18C101.294 318.18 101.065 318.115 100.935 317.984C100.804 317.844 100.739 317.671 100.739 317.466V317.242C100.739 317.037 100.804 316.869 100.935 316.738C101.065 316.598 101.294 316.528 101.621 316.528C101.947 316.528 102.176 316.598 102.307 316.738C102.437 316.869 102.503 317.037 102.503 317.242V317.466C102.503 317.671 102.437 317.844 102.307 317.984C102.176 318.115 101.947 318.18 101.621 318.18ZM98.4567 326.048H101.061V320.728H98.4567V319.776H102.181V326.048H104.617V327H98.4567V326.048ZM109.287 326.048H111.807V317.592H109.287V316.64H112.927V326.048H115.447V327H109.287V326.048ZM120.482 326.048H123.002V317.592H120.482V316.64H124.122V326.048H126.642V327H120.482V326.048ZM137.486 327C137.048 327 136.735 326.888 136.548 326.664C136.362 326.44 136.245 326.16 136.198 325.824H136.128C135.97 326.244 135.713 326.575 135.358 326.818C135.013 327.051 134.546 327.168 133.958 327.168C133.202 327.168 132.6 326.972 132.152 326.58C131.704 326.188 131.48 325.651 131.48 324.97C131.48 324.298 131.723 323.78 132.208 323.416C132.703 323.052 133.496 322.87 134.588 322.87H136.128V322.156C136.128 321.624 135.979 321.227 135.68 320.966C135.382 320.695 134.957 320.56 134.406 320.56C133.921 320.56 133.524 320.658 133.216 320.854C132.908 321.041 132.661 321.297 132.474 321.624L131.718 321.064C131.812 320.877 131.938 320.695 132.096 320.518C132.255 320.341 132.451 320.187 132.684 320.056C132.918 319.916 133.184 319.809 133.482 319.734C133.781 319.65 134.112 319.608 134.476 319.608C135.326 319.608 135.998 319.823 136.492 320.252C136.996 320.681 137.248 321.279 137.248 322.044V326.02H138.256V327H137.486ZM134.154 326.23C134.444 326.23 134.705 326.197 134.938 326.132C135.181 326.057 135.391 325.964 135.568 325.852C135.746 325.731 135.881 325.591 135.974 325.432C136.077 325.264 136.128 325.087 136.128 324.9V323.71H134.588C133.916 323.71 133.426 323.803 133.118 323.99C132.81 324.177 132.656 324.447 132.656 324.802V325.096C132.656 325.469 132.787 325.754 133.048 325.95C133.319 326.137 133.688 326.23 134.154 326.23Z" fill="black"/>
<rect x="320.5" y="211.5" width="99" height="99" rx="9.5" stroke="#90C58B"/>
<path d="M336.172 327.168C335.295 327.168 334.576 327.009 334.016 326.692C333.456 326.365 332.994 325.95 332.63 325.446L333.484 324.746C333.867 325.222 334.268 325.577 334.688 325.81C335.117 326.043 335.626 326.16 336.214 326.16C336.923 326.16 337.465 325.997 337.838 325.67C338.211 325.343 338.398 324.886 338.398 324.298C338.398 323.822 338.263 323.453 337.992 323.192C337.721 322.921 337.25 322.73 336.578 322.618L335.486 322.436C335.01 322.352 334.609 322.226 334.282 322.058C333.965 321.89 333.708 321.689 333.512 321.456C333.316 321.213 333.176 320.952 333.092 320.672C333.008 320.383 332.966 320.084 332.966 319.776C332.966 318.88 333.26 318.203 333.848 317.746C334.436 317.289 335.229 317.06 336.228 317.06C337.012 317.06 337.67 317.191 338.202 317.452C338.743 317.713 339.177 318.082 339.504 318.558L338.678 319.272C338.407 318.917 338.081 318.628 337.698 318.404C337.315 318.18 336.821 318.068 336.214 318.068C335.551 318.068 335.043 318.208 334.688 318.488C334.333 318.768 334.156 319.188 334.156 319.748C334.156 320.187 334.287 320.546 334.548 320.826C334.819 321.097 335.299 321.293 335.99 321.414L337.04 321.596C337.516 321.68 337.917 321.806 338.244 321.974C338.571 322.142 338.832 322.343 339.028 322.576C339.233 322.809 339.378 323.071 339.462 323.36C339.546 323.649 339.588 323.953 339.588 324.27C339.588 325.175 339.289 325.885 338.692 326.398C338.104 326.911 337.264 327.168 336.172 327.168ZM349.145 325.824H349.089C348.622 326.72 347.88 327.168 346.863 327.168C345.976 327.168 345.281 326.837 344.777 326.174C344.282 325.511 344.035 324.583 344.035 323.388C344.035 322.193 344.282 321.265 344.777 320.602C345.281 319.939 345.976 319.608 346.863 319.608C347.88 319.608 348.622 320.056 349.089 320.952H349.145V319.776H350.265V329.8H349.145V325.824ZM347.297 326.174C347.549 326.174 347.787 326.141 348.011 326.076C348.235 326.011 348.431 325.917 348.599 325.796C348.767 325.665 348.897 325.511 348.991 325.334C349.093 325.147 349.145 324.933 349.145 324.69V322.086C349.145 321.843 349.093 321.633 348.991 321.456C348.897 321.269 348.767 321.115 348.599 320.994C348.431 320.863 348.235 320.765 348.011 320.7C347.787 320.635 347.549 320.602 347.297 320.602C346.643 320.602 346.135 320.803 345.771 321.204C345.416 321.596 345.239 322.119 345.239 322.772V324.004C345.239 324.657 345.416 325.185 345.771 325.586C346.135 325.978 346.643 326.174 347.297 326.174ZM360.297 325.824H360.241C360.166 326.001 360.073 326.174 359.961 326.342C359.849 326.501 359.709 326.641 359.541 326.762C359.382 326.883 359.191 326.981 358.967 327.056C358.743 327.131 358.482 327.168 358.183 327.168C357.427 327.168 356.82 326.93 356.363 326.454C355.906 325.969 355.677 325.287 355.677 324.41V319.776H356.797V324.214C356.797 324.877 356.942 325.371 357.231 325.698C357.52 326.015 357.945 326.174 358.505 326.174C358.729 326.174 358.948 326.146 359.163 326.09C359.378 326.034 359.569 325.95 359.737 325.838C359.905 325.726 360.04 325.586 360.143 325.418C360.246 325.241 360.297 325.031 360.297 324.788V319.776H361.417V327H360.297V325.824ZM369.784 327.168C369.28 327.168 368.822 327.079 368.412 326.902C368.01 326.725 367.665 326.473 367.376 326.146C367.096 325.81 366.881 325.413 366.732 324.956C366.582 324.489 366.508 323.967 366.508 323.388C366.508 322.819 366.582 322.301 366.732 321.834C366.881 321.367 367.096 320.971 367.376 320.644C367.665 320.308 368.01 320.051 368.412 319.874C368.822 319.697 369.28 319.608 369.784 319.608C370.288 319.608 370.74 319.697 371.142 319.874C371.552 320.051 371.898 320.308 372.178 320.644C372.467 320.971 372.686 321.367 372.836 321.834C372.985 322.301 373.06 322.819 373.06 323.388C373.06 323.967 372.985 324.489 372.836 324.956C372.686 325.413 372.467 325.81 372.178 326.146C371.898 326.473 371.552 326.725 371.142 326.902C370.74 327.079 370.288 327.168 369.784 327.168ZM369.784 326.202C370.409 326.202 370.913 326.015 371.296 325.642C371.678 325.269 371.87 324.69 371.87 323.906V322.87C371.87 322.086 371.678 321.507 371.296 321.134C370.913 320.761 370.409 320.574 369.784 320.574C369.158 320.574 368.654 320.761 368.272 321.134C367.889 321.507 367.698 322.086 367.698 322.87V323.906C367.698 324.69 367.889 325.269 368.272 325.642C368.654 326.015 369.158 326.202 369.784 326.202ZM380.978 327.168C380.474 327.168 380.017 327.079 379.606 326.902C379.205 326.725 378.859 326.473 378.57 326.146C378.29 325.81 378.075 325.413 377.926 324.956C377.777 324.489 377.702 323.967 377.702 323.388C377.702 322.819 377.777 322.301 377.926 321.834C378.075 321.367 378.29 320.971 378.57 320.644C378.859 320.308 379.205 320.051 379.606 319.874C380.017 319.697 380.474 319.608 380.978 319.608C381.482 319.608 381.935 319.697 382.336 319.874C382.747 320.051 383.092 320.308 383.372 320.644C383.661 320.971 383.881 321.367 384.03 321.834C384.179 322.301 384.254 322.819 384.254 323.388C384.254 323.967 384.179 324.489 384.03 324.956C383.881 325.413 383.661 325.81 383.372 326.146C383.092 326.473 382.747 326.725 382.336 326.902C381.935 327.079 381.482 327.168 380.978 327.168ZM380.978 326.202C381.603 326.202 382.107 326.015 382.49 325.642C382.873 325.269 383.064 324.69 383.064 323.906V322.87C383.064 322.086 382.873 321.507 382.49 321.134C382.107 320.761 381.603 320.574 380.978 320.574C380.353 320.574 379.849 320.761 379.466 321.134C379.083 321.507 378.892 322.086 378.892 322.87V323.906C378.892 324.69 379.083 325.269 379.466 325.642C379.849 326.015 380.353 326.202 380.978 326.202ZM392.257 327.168C391.501 327.168 390.847 327.042 390.297 326.79C389.755 326.529 389.293 326.183 388.911 325.754L389.667 325.096C390.012 325.46 390.39 325.74 390.801 325.936C391.211 326.132 391.706 326.23 392.285 326.23C392.845 326.23 393.302 326.132 393.657 325.936C394.021 325.731 394.203 325.413 394.203 324.984C394.203 324.797 394.165 324.643 394.091 324.522C394.025 324.391 393.932 324.289 393.811 324.214C393.689 324.139 393.554 324.083 393.405 324.046C393.255 323.999 393.097 323.962 392.929 323.934L391.795 323.766C391.543 323.729 391.267 323.677 390.969 323.612C390.679 323.547 390.413 323.444 390.171 323.304C389.928 323.155 389.723 322.959 389.555 322.716C389.396 322.473 389.317 322.156 389.317 321.764C389.317 321.4 389.387 321.087 389.527 320.826C389.676 320.555 389.881 320.331 390.143 320.154C390.404 319.967 390.712 319.832 391.067 319.748C391.421 319.655 391.809 319.608 392.229 319.608C392.882 319.608 393.447 319.711 393.923 319.916C394.408 320.121 394.823 320.406 395.169 320.77L394.441 321.456C394.357 321.353 394.249 321.251 394.119 321.148C393.997 321.036 393.843 320.938 393.657 320.854C393.479 320.761 393.269 320.686 393.027 320.63C392.784 320.574 392.504 320.546 392.187 320.546C391.617 320.546 391.179 320.644 390.871 320.84C390.572 321.036 390.423 321.321 390.423 321.694C390.423 321.881 390.455 322.039 390.521 322.17C390.595 322.291 390.693 322.389 390.815 322.464C390.936 322.539 391.071 322.599 391.221 322.646C391.379 322.683 391.538 322.716 391.697 322.744L392.831 322.912C393.092 322.949 393.367 323.001 393.657 323.066C393.946 323.131 394.212 323.239 394.455 323.388C394.697 323.528 394.898 323.719 395.057 323.962C395.225 324.205 395.309 324.522 395.309 324.914C395.309 325.633 395.029 326.188 394.469 326.58C393.918 326.972 393.181 327.168 392.257 327.168ZM400.539 316.64H401.659V320.952H401.715C401.79 320.775 401.883 320.607 401.995 320.448C402.107 320.28 402.243 320.135 402.401 320.014C402.569 319.893 402.765 319.795 402.989 319.72C403.213 319.645 403.475 319.608 403.773 319.608C404.529 319.608 405.136 319.851 405.593 320.336C406.051 320.812 406.279 321.489 406.279 322.366V327H405.159V322.562C405.159 321.899 405.015 321.409 404.725 321.092C404.436 320.765 404.011 320.602 403.451 320.602C403.227 320.602 403.008 320.63 402.793 320.686C402.579 320.742 402.387 320.826 402.219 320.938C402.051 321.05 401.916 321.195 401.813 321.372C401.711 321.549 401.659 321.755 401.659 321.988V327H400.539V316.64Z" fill="black"/>
<path d="M394.5 226H345.5C339.704 226.006 335.006 230.704 335 236.5V268.239V285.5C335.006 291.296 339.704 295.994 345.5 296H394.5C395.138 295.999 395.767 295.923 396.388 295.808C396.62 295.765 396.84 295.702 397.066 295.644C397.437 295.549 397.802 295.439 398.16 295.304C398.421 295.206 398.675 295.104 398.925 294.987C399.219 294.848 399.5 294.688 399.781 294.522C400.044 294.367 400.31 294.222 400.558 294.046C400.578 294.032 400.601 294.022 400.622 294.007C400.648 293.989 400.67 293.965 400.695 293.945C400.743 293.906 400.803 293.887 400.847 293.843C400.87 293.82 400.877 293.789 400.899 293.765C403.374 291.844 404.996 288.875 405 285.5V275.246V236.5C404.994 230.704 400.296 226.006 394.5 226ZM396.512 292.169C395.859 292.371 395.184 292.5 394.5 292.5H345.5C341.636 292.495 338.505 289.364 338.5 285.5V268.964L351.669 255.794C354.064 253.409 357.936 253.409 360.331 255.794L372.248 267.71C372.254 267.717 372.256 267.726 372.263 267.733L396.654 292.125C396.607 292.14 396.56 292.154 396.512 292.169ZM401.5 285.5C401.498 287.307 400.793 288.938 399.668 290.179L375.978 266.492L379.673 262.798C382.092 260.48 385.908 260.48 388.327 262.798L401.5 275.971V285.5ZM401.5 271.021L390.802 260.323C387.044 256.57 380.956 256.57 377.198 260.323L373.504 264.018L362.805 253.32C359.045 249.567 352.955 249.567 349.195 253.32L338.5 264.015V236.5C338.505 232.636 341.636 229.505 345.5 229.5H394.5C398.364 229.505 401.495 232.636 401.5 236.5V271.021ZM375.25 240C372.35 240 370 242.35 370 245.25C370 248.15 372.35 250.5 375.25 250.5C378.148 250.497 380.497 248.148 380.5 245.25C380.5 242.35 378.15 240 375.25 240ZM375.25 247C374.284 247 373.5 246.216 373.5 245.25C373.5 244.284 374.284 243.5 375.25 243.5C376.216 243.502 376.998 244.284 377 245.25C377 246.216 376.216 247 375.25 247Z" fill="#3E86BA"/>
</svg>
