<svg width="460" height="359" viewBox="0 0 460 359" fill="none" xmlns="http://www.w3.org/2000/svg">
<rect x="0.5" y="0.5" width="459" height="358" rx="14.5" stroke="#FA7FC1"/>
<line y1="40.32" x2="460" y2="40.32" stroke="#FA7FC1"/>
<ellipse cx="21" cy="21.1633" rx="4" ry="4.16327" fill="#3E86BA"/>
<ellipse cx="49" cy="21.1633" rx="4" ry="4.16327" fill="#3E86BA"/>
<ellipse cx="35" cy="21.1633" rx="4" ry="4.16327" fill="#3E86BA"/>
<path d="M142.84 16.5V29H141.16V16.5H136.5V15.04H147.5V16.5H142.84ZM162.732 29H153.412V27.28L158.072 23.08C158.752 22.4667 159.312 21.84 159.752 21.2C160.192 20.5467 160.412 19.86 160.412 19.14V18.9C160.412 18.06 160.192 17.4133 159.752 16.96C159.312 16.4933 158.659 16.26 157.792 16.26C156.939 16.26 156.279 16.48 155.812 16.92C155.359 17.3467 155.019 17.92 154.792 18.64L153.292 18.08C153.426 17.6667 153.606 17.2667 153.832 16.88C154.072 16.48 154.372 16.1267 154.732 15.82C155.092 15.5133 155.526 15.2667 156.032 15.08C156.552 14.8933 157.152 14.8 157.832 14.8C158.526 14.8 159.139 14.9 159.672 15.1C160.219 15.3 160.672 15.58 161.032 15.94C161.406 16.3 161.686 16.7267 161.872 17.22C162.072 17.7133 162.172 18.2533 162.172 18.84C162.172 19.3733 162.092 19.8733 161.932 20.34C161.786 20.8067 161.572 21.2533 161.292 21.68C161.026 22.1067 160.699 22.5267 160.312 22.94C159.939 23.34 159.519 23.74 159.052 24.14L155.152 27.54H162.732V29ZM169.184 32.38V30.9H178.784V32.38H169.184ZM190.617 16.4C190.15 16.4 189.823 16.3067 189.637 16.12C189.45 15.92 189.357 15.6733 189.357 15.38V15.06C189.357 14.7667 189.45 14.5267 189.637 14.34C189.823 14.14 190.15 14.04 190.617 14.04C191.083 14.04 191.41 14.14 191.597 14.34C191.783 14.5267 191.877 14.7667 191.877 15.06V15.38C191.877 15.6733 191.783 15.92 191.597 16.12C191.41 16.3067 191.083 16.4 190.617 16.4ZM186.097 27.64H189.817V20.04H186.097V18.68H191.417V27.64H194.897V29H186.097V27.64ZM201.049 29V18.68H202.529V19.88H202.609C202.769 19.48 202.995 19.14 203.289 18.86C203.582 18.58 204.015 18.44 204.589 18.44C205.189 18.44 205.635 18.5933 205.929 18.9C206.222 19.1933 206.402 19.58 206.469 20.06H206.529C206.715 19.5933 206.982 19.2067 207.329 18.9C207.675 18.5933 208.155 18.44 208.769 18.44C209.609 18.44 210.169 18.7333 210.449 19.32C210.742 19.9067 210.889 20.7467 210.889 21.84V29H209.409V22.1C209.409 21.22 209.315 20.6133 209.129 20.28C208.955 19.9333 208.629 19.76 208.149 19.76C207.722 19.76 207.375 19.9 207.109 20.18C206.842 20.4467 206.709 20.86 206.709 21.42V29H205.229V22.1C205.229 21.22 205.135 20.6133 204.949 20.28C204.775 19.9333 204.455 19.76 203.989 19.76C203.562 19.76 203.209 19.9 202.929 20.18C202.662 20.4467 202.529 20.86 202.529 21.42V29H201.049ZM227.181 30.18C227.181 31.22 226.748 31.9867 225.881 32.48C225.014 32.9867 223.714 33.24 221.981 33.24C220.314 33.24 219.114 33.02 218.381 32.58C217.661 32.14 217.301 31.5067 217.301 30.68C217.301 30.12 217.448 29.6867 217.741 29.38C218.034 29.0733 218.448 28.8467 218.981 28.7V28.46C218.688 28.3133 218.461 28.1267 218.301 27.9C218.141 27.6733 218.061 27.3867 218.061 27.04C218.061 26.5067 218.234 26.1067 218.581 25.84C218.941 25.5733 219.388 25.3733 219.921 25.24V25.16C219.281 24.88 218.781 24.4667 218.421 23.92C218.074 23.3733 217.901 22.7333 217.901 22C217.901 21.48 217.994 21 218.181 20.56C218.368 20.12 218.634 19.7467 218.981 19.44C219.341 19.12 219.768 18.8733 220.261 18.7C220.754 18.5267 221.301 18.44 221.901 18.44C222.674 18.44 223.354 18.58 223.941 18.86V18.68C223.941 18.28 224.034 17.9467 224.221 17.68C224.408 17.4133 224.728 17.28 225.181 17.28H227.081V18.68H224.761V19.38C225.134 19.7 225.421 20.08 225.621 20.52C225.821 20.96 225.921 21.4533 225.921 22C225.921 22.52 225.821 23 225.621 23.44C225.434 23.88 225.168 24.26 224.821 24.58C224.474 24.8867 224.048 25.1267 223.541 25.3C223.048 25.4733 222.501 25.56 221.901 25.56C221.728 25.56 221.561 25.5533 221.401 25.54C221.241 25.5267 221.081 25.5067 220.921 25.48C220.761 25.5067 220.594 25.5533 220.421 25.62C220.248 25.6733 220.088 25.7533 219.941 25.86C219.794 25.9533 219.674 26.0667 219.581 26.2C219.488 26.3333 219.441 26.4867 219.441 26.66C219.441 26.9667 219.594 27.1733 219.901 27.28C220.208 27.3733 220.608 27.42 221.101 27.42H223.381C224.714 27.42 225.681 27.6733 226.281 28.18C226.881 28.6733 227.181 29.34 227.181 30.18ZM225.681 30.26C225.681 29.8467 225.514 29.5133 225.181 29.26C224.848 29.02 224.268 28.9 223.441 28.9H219.861C219.168 29.18 218.821 29.6467 218.821 30.3C218.821 30.7533 219.001 31.14 219.361 31.46C219.721 31.7933 220.321 31.96 221.161 31.96H222.721C223.654 31.96 224.381 31.8133 224.901 31.52C225.421 31.24 225.681 30.82 225.681 30.26ZM221.901 24.32C222.701 24.32 223.288 24.1333 223.661 23.76C224.048 23.3867 224.241 22.8933 224.241 22.28V21.7C224.241 21.0867 224.048 20.6 223.661 20.24C223.288 19.8667 222.701 19.68 221.901 19.68C221.101 19.68 220.514 19.8667 220.141 20.24C219.768 20.6 219.581 21.0867 219.581 21.7V22.28C219.581 22.8933 219.768 23.3867 220.141 23.76C220.514 24.1333 221.101 24.32 221.901 24.32ZM242.693 29H233.373V27.28L238.033 23.08C238.713 22.4667 239.273 21.84 239.713 21.2C240.153 20.5467 240.373 19.86 240.373 19.14V18.9C240.373 18.06 240.153 17.4133 239.713 16.96C239.273 16.4933 238.62 16.26 237.753 16.26C236.9 16.26 236.24 16.48 235.773 16.92C235.32 17.3467 234.98 17.92 234.753 18.64L233.253 18.08C233.386 17.6667 233.566 17.2667 233.793 16.88C234.033 16.48 234.333 16.1267 234.693 15.82C235.053 15.5133 235.486 15.2667 235.993 15.08C236.513 14.8933 237.113 14.8 237.793 14.8C238.486 14.8 239.1 14.9 239.633 15.1C240.18 15.3 240.633 15.58 240.993 15.94C241.366 16.3 241.646 16.7267 241.833 17.22C242.033 17.7133 242.133 18.2533 242.133 18.84C242.133 19.3733 242.053 19.8733 241.893 20.34C241.746 20.8067 241.533 21.2533 241.253 21.68C240.986 22.1067 240.66 22.5267 240.273 22.94C239.9 23.34 239.48 23.74 239.013 24.14L235.113 27.54H242.693V29ZM253.945 29.18C253.399 29.18 253.012 29.0667 252.785 28.84C252.572 28.6133 252.465 28.3267 252.465 27.98V27.62C252.465 27.2733 252.572 26.9867 252.785 26.76C253.012 26.5333 253.399 26.42 253.945 26.42C254.492 26.42 254.872 26.5333 255.085 26.76C255.312 26.9867 255.425 27.2733 255.425 27.62V27.98C255.425 28.3267 255.312 28.6133 255.085 28.84C254.872 29.0667 254.492 29.18 253.945 29.18ZM264.538 18.68H265.958L267.138 27.6H267.318L269.077 18.68H270.838L272.598 27.6H272.778L273.958 18.68H275.338L273.758 29H271.678L270.038 20.36H269.878L268.198 29H266.118L264.538 18.68ZM286.11 29.24C285.363 29.24 284.69 29.1133 284.09 28.86C283.503 28.6067 282.996 28.2467 282.57 27.78C282.156 27.3 281.836 26.7333 281.61 26.08C281.383 25.4133 281.27 24.6733 281.27 23.86C281.27 23.0333 281.383 22.2867 281.61 21.62C281.85 20.9533 282.176 20.3867 282.59 19.92C283.003 19.44 283.496 19.0733 284.07 18.82C284.656 18.5667 285.303 18.44 286.01 18.44C286.703 18.44 287.33 18.5667 287.89 18.82C288.463 19.0733 288.95 19.4267 289.35 19.88C289.75 20.32 290.056 20.8467 290.27 21.46C290.483 22.0733 290.59 22.7467 290.59 23.48V24.24H282.95V24.72C282.95 25.1733 283.023 25.5933 283.17 25.98C283.316 26.3667 283.523 26.7 283.79 26.98C284.07 27.26 284.403 27.48 284.79 27.64C285.19 27.7867 285.63 27.86 286.11 27.86C286.803 27.86 287.403 27.7 287.91 27.38C288.416 27.06 288.803 26.62 289.07 26.06L290.25 26.86C289.943 27.5533 289.43 28.1267 288.71 28.58C288.003 29.02 287.136 29.24 286.11 29.24ZM286.01 19.76C285.57 19.76 285.163 19.84 284.79 20C284.416 20.16 284.09 20.38 283.81 20.66C283.543 20.94 283.33 21.2733 283.17 21.66C283.023 22.0333 282.95 22.4467 282.95 22.9V23.04H288.87V22.82C288.87 22.3667 288.796 21.9533 288.65 21.58C288.516 21.2067 288.323 20.8867 288.07 20.62C287.83 20.34 287.53 20.1267 287.17 19.98C286.823 19.8333 286.436 19.76 286.01 19.76ZM297.822 14.2H299.422V20.36H299.502C300.169 19.08 301.229 18.44 302.682 18.44C303.949 18.44 304.935 18.9133 305.642 19.86C306.362 20.8067 306.722 22.1333 306.722 23.84C306.722 25.5467 306.362 26.8733 305.642 27.82C304.935 28.7667 303.949 29.24 302.682 29.24C301.229 29.24 300.169 28.6 299.502 27.32H299.422V29H297.822V14.2ZM302.062 27.82C302.995 27.82 303.715 27.54 304.222 26.98C304.742 26.4067 305.002 25.6533 305.002 24.72V22.96C305.002 22.0267 304.742 21.28 304.222 20.72C303.715 20.1467 302.995 19.86 302.062 19.86C301.702 19.86 301.362 19.9067 301.042 20C300.722 20.0933 300.442 20.2333 300.202 20.42C299.962 20.5933 299.769 20.8133 299.622 21.08C299.489 21.3333 299.422 21.6333 299.422 21.98V25.7C299.422 26.0467 299.489 26.3533 299.622 26.62C299.769 26.8733 299.962 27.0933 300.202 27.28C300.442 27.4533 300.722 27.5867 301.042 27.68C301.362 27.7733 301.702 27.82 302.062 27.82ZM313.714 29V15.04H318.794C320.087 15.04 321.074 15.3933 321.754 16.1C322.434 16.8067 322.774 17.7933 322.774 19.06C322.774 20.3267 322.434 21.3133 321.754 22.02C321.074 22.7267 320.087 23.08 318.794 23.08H315.394V29H313.714ZM315.394 21.62H318.754C319.461 21.62 320.007 21.4467 320.394 21.1C320.794 20.74 320.994 20.2333 320.994 19.58V18.54C320.994 17.8867 320.794 17.3867 320.394 17.04C320.007 16.68 319.461 16.5 318.754 16.5H315.394V21.62Z" fill="black"/>
</svg>
