<svg width="527" height="319" viewBox="0 0 527 319" fill="none" xmlns="http://www.w3.org/2000/svg">
<rect x="0.5" y="0.5" width="526" height="317.312" rx="20.5" fill="#F6F5F1" stroke="#FA7FC1"/>
<line x1="1" y1="66.125" x2="526" y2="66.125" stroke="#FA7FC1"/>
<line x1="1" y1="26.75" x2="526" y2="26.75" stroke="#FA7FC1"/>
<rect x="118.625" y="33.3125" width="394.75" height="27.25" stroke="#FA7FC1"/>
<circle cx="28.5625" cy="14.125" r="5.25" fill="#3E86BA"/>
<circle cx="65.3125" cy="14.125" r="5.25" fill="#3E86BA"/>
<circle cx="46.9375" cy="14.125" r="5.25" fill="#3E86BA"/>
<path d="M93.5821 47.6446C93.9726 47.2541 93.9726 46.6209 93.5821 46.2304L87.2181 39.8664C86.8276 39.4759 86.1945 39.4759 85.8039 39.8664C85.4134 40.257 85.4134 40.8901 85.8039 41.2806L91.4608 46.9375L85.8039 52.5944C85.4134 52.9849 85.4134 53.618 85.8039 54.0086C86.1945 54.3991 86.8276 54.3991 87.2181 54.0086L93.5821 47.6446ZM73.1875 47.9375H92.875V45.9375H73.1875V47.9375Z" fill="#3E86BA"/>
<path d="M29.1679 46.2304C28.7774 46.6209 28.7774 47.2541 29.1679 47.6446L35.5319 54.0086C35.9224 54.3991 36.5555 54.3991 36.9461 54.0086C37.3366 53.618 37.3366 52.9849 36.9461 52.5944L31.2892 46.9375L36.9461 41.2806C37.3366 40.8901 37.3366 40.257 36.9461 39.8664C36.5555 39.4759 35.9224 39.4759 35.5319 39.8664L29.1679 46.2304ZM49.5625 45.9375H29.875V47.9375H49.5625V45.9375Z" fill="#3E86BA"/>
<path d="M129.293 41.6625H130.093V44.7425H130.133C130.186 44.6158 130.253 44.4958 130.333 44.3825C130.413 44.2625 130.509 44.1592 130.623 44.0725C130.743 43.9858 130.883 43.9158 131.043 43.8625C131.203 43.8092 131.389 43.7825 131.603 43.7825C132.143 43.7825 132.576 43.9558 132.903 44.3025C133.229 44.6425 133.393 45.1258 133.393 45.7525V49.0625H132.593V45.8925C132.593 45.4192 132.489 45.0692 132.283 44.8425C132.076 44.6092 131.773 44.4925 131.373 44.4925C131.213 44.4925 131.056 44.5125 130.903 44.5525C130.749 44.5925 130.613 44.6525 130.493 44.7325C130.373 44.8125 130.276 44.9158 130.203 45.0425C130.129 45.1692 130.093 45.3158 130.093 45.4825V49.0625H129.293V41.6625ZM139.559 49.0625C139.165 49.0625 138.875 48.9525 138.689 48.7325C138.509 48.5125 138.419 48.2292 138.419 47.8825V44.5825H136.699V43.9025H137.979C138.152 43.9025 138.272 43.8692 138.339 43.8025C138.412 43.7292 138.449 43.6058 138.449 43.4325V42.0825H139.219V43.9025H141.569V44.5825H139.219V48.3825H141.569V49.0625H139.559ZM147.555 49.0625C147.161 49.0625 146.871 48.9525 146.685 48.7325C146.505 48.5125 146.415 48.2292 146.415 47.8825V44.5825H144.695V43.9025H145.975C146.148 43.9025 146.268 43.8692 146.335 43.8025C146.408 43.7292 146.445 43.6058 146.445 43.4325V42.0825H147.215V43.9025H149.565V44.5825H147.215V48.3825H149.565V49.0625H147.555ZM153.251 43.9025H154.051V44.7425H154.091C154.424 44.1025 154.954 43.7825 155.681 43.7825C156.314 43.7825 156.807 44.0192 157.161 44.4925C157.521 44.9658 157.701 45.6292 157.701 46.4825C157.701 47.3358 157.521 47.9992 157.161 48.4725C156.807 48.9458 156.314 49.1825 155.681 49.1825C154.954 49.1825 154.424 48.8625 154.091 48.2225H154.051V51.0625H153.251V43.9025ZM155.371 48.4725C155.837 48.4725 156.197 48.3325 156.451 48.0525C156.711 47.7658 156.841 47.3892 156.841 46.9225V46.0425C156.841 45.5758 156.711 45.2025 156.451 44.9225C156.197 44.6358 155.837 44.4925 155.371 44.4925C155.191 44.4925 155.021 44.5158 154.861 44.5625C154.701 44.6092 154.561 44.6792 154.441 44.7725C154.321 44.8592 154.224 44.9692 154.151 45.1025C154.084 45.2292 154.051 45.3792 154.051 45.5525V47.4125C154.051 47.5858 154.084 47.7392 154.151 47.8725C154.224 47.9992 154.321 48.1092 154.441 48.2025C154.561 48.2892 154.701 48.3558 154.861 48.4025C155.021 48.4492 155.191 48.4725 155.371 48.4725ZM163.297 49.1525C163.024 49.1525 162.83 49.0958 162.717 48.9825C162.61 48.8692 162.557 48.7258 162.557 48.5525V48.3725C162.557 48.1992 162.61 48.0558 162.717 47.9425C162.83 47.8292 163.024 47.7725 163.297 47.7725C163.57 47.7725 163.76 47.8292 163.867 47.9425C163.98 48.0558 164.037 48.1992 164.037 48.3725V48.5525C164.037 48.7258 163.98 48.8692 163.867 48.9825C163.76 49.0958 163.57 49.1525 163.297 49.1525ZM163.297 45.1925C163.024 45.1925 162.83 45.1358 162.717 45.0225C162.61 44.9092 162.557 44.7658 162.557 44.5925V44.4125C162.557 44.2392 162.61 44.0958 162.717 43.9825C162.83 43.8692 163.024 43.8125 163.297 43.8125C163.57 43.8125 163.76 43.8692 163.867 43.9825C163.98 44.0958 164.037 44.2392 164.037 44.4125V44.5925C164.037 44.7658 163.98 44.9092 163.867 45.0225C163.76 45.1358 163.57 45.1925 163.297 45.1925ZM169.193 50.4425L172.673 41.4625H173.393L169.913 50.4425H169.193ZM177.189 50.4425L180.669 41.4625H181.389L177.909 50.4425H177.189ZM184.585 43.9025H185.295L185.885 48.3625H185.975L186.855 43.9025H187.735L188.615 48.3625H188.705L189.295 43.9025H189.985L189.195 49.0625H188.155L187.335 44.7425H187.255L186.415 49.0625H185.375L184.585 43.9025ZM192.581 43.9025H193.291L193.881 48.3625H193.971L194.851 43.9025H195.731L196.611 48.3625H196.701L197.291 43.9025H197.981L197.191 49.0625H196.151L195.331 44.7425H195.251L194.411 49.0625H193.371L192.581 43.9025ZM200.577 43.9025H201.287L201.877 48.3625H201.967L202.847 43.9025H203.727L204.607 48.3625H204.697L205.287 43.9025H205.977L205.187 49.0625H204.147L203.327 44.7425H203.247L202.407 49.0625H201.367L200.577 43.9025ZM211.273 49.1525C211 49.1525 210.807 49.0958 210.693 48.9825C210.587 48.8692 210.533 48.7258 210.533 48.5525V48.3725C210.533 48.1992 210.587 48.0558 210.693 47.9425C210.807 47.8292 211 47.7725 211.273 47.7725C211.547 47.7725 211.737 47.8292 211.843 47.9425C211.957 48.0558 212.013 48.1992 212.013 48.3725V48.5525C212.013 48.7258 211.957 48.8692 211.843 48.9825C211.737 49.0958 211.547 49.1525 211.273 49.1525ZM217.1 48.3825H218.84V44.5825H217V43.9025H218.84V42.8425C218.84 42.4958 218.93 42.2125 219.11 41.9925C219.296 41.7725 219.586 41.6625 219.98 41.6625H221.71V42.3425H219.64V43.9025H221.71V44.5825H219.64V48.3825H221.48V49.0625H217.1V48.3825ZM225.036 48.3825H226.546V44.5825H225.036V43.9025H227.346V45.2025H227.396C227.502 44.7958 227.702 44.4792 227.996 44.2525C228.296 44.0192 228.676 43.9025 229.136 43.9025H229.856V44.7025H228.886C228.426 44.7025 228.052 44.8358 227.766 45.1025C227.486 45.3692 227.346 45.7192 227.346 46.1525V48.3825H229.346V49.0625H225.036V48.3825ZM235.352 49.1825C234.978 49.1825 234.642 49.1192 234.342 48.9925C234.048 48.8658 233.795 48.6858 233.582 48.4525C233.375 48.2125 233.215 47.9292 233.102 47.6025C232.988 47.2692 232.932 46.8992 232.932 46.4925C232.932 46.0792 232.988 45.7058 233.102 45.3725C233.222 45.0392 233.385 44.7558 233.592 44.5225C233.798 44.2825 234.045 44.0992 234.332 43.9725C234.625 43.8458 234.948 43.7825 235.302 43.7825C235.648 43.7825 235.962 43.8458 236.242 43.9725C236.528 44.0992 236.772 44.2758 236.972 44.5025C237.172 44.7225 237.325 44.9858 237.432 45.2925C237.538 45.5992 237.592 45.9358 237.592 46.3025V46.6825H233.772V46.9225C233.772 47.1492 233.808 47.3592 233.882 47.5525C233.955 47.7458 234.058 47.9125 234.192 48.0525C234.332 48.1925 234.498 48.3025 234.692 48.3825C234.892 48.4558 235.112 48.4925 235.352 48.4925C235.698 48.4925 235.998 48.4125 236.252 48.2525C236.505 48.0925 236.698 47.8725 236.832 47.5925L237.422 47.9925C237.268 48.3392 237.012 48.6258 236.652 48.8525C236.298 49.0725 235.865 49.1825 235.352 49.1825ZM235.302 44.4425C235.082 44.4425 234.878 44.4825 234.692 44.5625C234.505 44.6425 234.342 44.7525 234.202 44.8925C234.068 45.0325 233.962 45.1992 233.882 45.3925C233.808 45.5792 233.772 45.7858 233.772 46.0125V46.0825H236.732V45.9725C236.732 45.7458 236.695 45.5392 236.622 45.3525C236.555 45.1658 236.458 45.0058 236.332 44.8725C236.212 44.7325 236.062 44.6258 235.882 44.5525C235.708 44.4792 235.515 44.4425 235.302 44.4425ZM244.508 48.2225H244.468C244.134 48.8625 243.604 49.1825 242.878 49.1825C242.244 49.1825 241.748 48.9458 241.388 48.4725C241.034 47.9992 240.858 47.3358 240.858 46.4825C240.858 45.6292 241.034 44.9658 241.388 44.4925C241.748 44.0192 242.244 43.7825 242.878 43.7825C243.604 43.7825 244.134 44.1025 244.468 44.7425H244.508V41.6625H245.308V49.0625H244.508V48.2225ZM243.188 48.4725C243.368 48.4725 243.538 48.4492 243.698 48.4025C243.858 48.3558 243.998 48.2892 244.118 48.2025C244.238 48.1092 244.331 47.9992 244.398 47.8725C244.471 47.7392 244.508 47.5858 244.508 47.4125V45.5525C244.508 45.3792 244.471 45.2292 244.398 45.1025C244.331 44.9692 244.238 44.8592 244.118 44.7725C243.998 44.6792 243.858 44.6092 243.698 44.5625C243.538 44.5158 243.368 44.4925 243.188 44.4925C242.721 44.4925 242.358 44.6358 242.098 44.9225C241.844 45.2025 241.718 45.5758 241.718 46.0425V46.9225C241.718 47.3892 241.844 47.7658 242.098 48.0525C242.358 48.3325 242.721 48.4725 243.188 48.4725ZM251.344 49.1825C250.971 49.1825 250.634 49.1192 250.334 48.9925C250.041 48.8658 249.787 48.6858 249.574 48.4525C249.367 48.2125 249.207 47.9292 249.094 47.6025C248.981 47.2692 248.924 46.8992 248.924 46.4925C248.924 46.0792 248.981 45.7058 249.094 45.3725C249.214 45.0392 249.377 44.7558 249.584 44.5225C249.791 44.2825 250.037 44.0992 250.324 43.9725C250.617 43.8458 250.941 43.7825 251.294 43.7825C251.641 43.7825 251.954 43.8458 252.234 43.9725C252.521 44.0992 252.764 44.2758 252.964 44.5025C253.164 44.7225 253.317 44.9858 253.424 45.2925C253.531 45.5992 253.584 45.9358 253.584 46.3025V46.6825H249.764V46.9225C249.764 47.1492 249.801 47.3592 249.874 47.5525C249.947 47.7458 250.051 47.9125 250.184 48.0525C250.324 48.1925 250.491 48.3025 250.684 48.3825C250.884 48.4558 251.104 48.4925 251.344 48.4925C251.691 48.4925 251.991 48.4125 252.244 48.2525C252.497 48.0925 252.691 47.8725 252.824 47.5925L253.414 47.9925C253.261 48.3392 253.004 48.6258 252.644 48.8525C252.291 49.0725 251.857 49.1825 251.344 49.1825ZM251.294 44.4425C251.074 44.4425 250.871 44.4825 250.684 44.5625C250.497 44.6425 250.334 44.7525 250.194 44.8925C250.061 45.0325 249.954 45.1992 249.874 45.3925C249.801 45.5792 249.764 45.7858 249.764 46.0125V46.0825H252.724V45.9725C252.724 45.7458 252.687 45.5392 252.614 45.3525C252.547 45.1658 252.451 45.0058 252.324 44.8725C252.204 44.7325 252.054 44.6258 251.874 44.5525C251.701 44.4792 251.507 44.4425 251.294 44.4425ZM257.02 48.3825H258.53V44.5825H257.02V43.9025H259.33V45.2025H259.38C259.487 44.7958 259.687 44.4792 259.98 44.2525C260.28 44.0192 260.66 43.9025 261.12 43.9025H261.84V44.7025H260.87C260.41 44.7025 260.037 44.8358 259.75 45.1025C259.47 45.3692 259.33 45.7192 259.33 46.1525V48.3825H261.33V49.0625H257.02V48.3825ZM267.566 42.7625C267.333 42.7625 267.169 42.7158 267.076 42.6225C266.983 42.5225 266.936 42.3992 266.936 42.2525V42.0925C266.936 41.9458 266.983 41.8258 267.076 41.7325C267.169 41.6325 267.333 41.5825 267.566 41.5825C267.799 41.5825 267.963 41.6325 268.056 41.7325C268.149 41.8258 268.196 41.9458 268.196 42.0925V42.2525C268.196 42.3992 268.149 42.5225 268.056 42.6225C267.963 42.7158 267.799 42.7625 267.566 42.7625ZM265.306 48.3825H267.166V44.5825H265.306V43.9025H267.966V48.3825H269.706V49.0625H265.306V48.3825ZM273.292 41.6625H274.092V46.3325H274.132L275.032 45.4825L276.752 43.9025H277.732L275.592 45.9225L277.982 49.0625H276.992L274.982 46.3825L274.092 47.1925V49.0625H273.292V41.6625ZM281.288 41.6625H282.088V46.3325H282.128L283.028 45.4825L284.748 43.9025H285.728L283.588 45.9225L285.978 49.0625H284.988L282.978 46.3825L282.088 47.1925V49.0625H281.288V41.6625ZM291.324 49.1825C290.951 49.1825 290.614 49.1192 290.314 48.9925C290.021 48.8658 289.768 48.6858 289.554 48.4525C289.348 48.2125 289.188 47.9292 289.074 47.6025C288.961 47.2692 288.904 46.8992 288.904 46.4925C288.904 46.0792 288.961 45.7058 289.074 45.3725C289.194 45.0392 289.358 44.7558 289.564 44.5225C289.771 44.2825 290.018 44.0992 290.304 43.9725C290.598 43.8458 290.921 43.7825 291.274 43.7825C291.621 43.7825 291.934 43.8458 292.214 43.9725C292.501 44.0992 292.744 44.2758 292.944 44.5025C293.144 44.7225 293.298 44.9858 293.404 45.2925C293.511 45.5992 293.564 45.9358 293.564 46.3025V46.6825H289.744V46.9225C289.744 47.1492 289.781 47.3592 289.854 47.5525C289.928 47.7458 290.031 47.9125 290.164 48.0525C290.304 48.1925 290.471 48.3025 290.664 48.3825C290.864 48.4558 291.084 48.4925 291.324 48.4925C291.671 48.4925 291.971 48.4125 292.224 48.2525C292.478 48.0925 292.671 47.8725 292.804 47.5925L293.394 47.9925C293.241 48.3392 292.984 48.6258 292.624 48.8525C292.271 49.0725 291.838 49.1825 291.324 49.1825ZM291.274 44.4425C291.054 44.4425 290.851 44.4825 290.664 44.5625C290.478 44.6425 290.314 44.7525 290.174 44.8925C290.041 45.0325 289.934 45.1992 289.854 45.3925C289.781 45.5792 289.744 45.7858 289.744 46.0125V46.0825H292.704V45.9725C292.704 45.7458 292.668 45.5392 292.594 45.3525C292.528 45.1658 292.431 45.0058 292.304 44.8725C292.184 44.7325 292.034 44.6258 291.854 44.5525C291.681 44.4792 291.488 44.4425 291.274 44.4425ZM296.77 49.0625V43.9025H297.51V44.5025H297.55C297.63 44.3025 297.744 44.1325 297.89 43.9925C298.037 43.8525 298.254 43.7825 298.54 43.7825C298.84 43.7825 299.064 43.8592 299.21 44.0125C299.357 44.1592 299.447 44.3525 299.48 44.5925H299.51C299.604 44.3592 299.737 44.1658 299.91 44.0125C300.084 43.8592 300.324 43.7825 300.63 43.7825C301.05 43.7825 301.33 43.9292 301.47 44.2225C301.617 44.5158 301.69 44.9358 301.69 45.4825V49.0625H300.95V45.6125C300.95 45.1725 300.904 44.8692 300.81 44.7025C300.724 44.5292 300.56 44.4425 300.32 44.4425C300.107 44.4425 299.934 44.5125 299.8 44.6525C299.667 44.7858 299.6 44.9925 299.6 45.2725V49.0625H298.86V45.6125C298.86 45.1725 298.814 44.8692 298.72 44.7025C298.634 44.5292 298.474 44.4425 298.24 44.4425C298.027 44.4425 297.85 44.5125 297.71 44.6525C297.577 44.7858 297.51 44.9925 297.51 45.2725V49.0625H296.77ZM307.317 49.1825C306.943 49.1825 306.607 49.1192 306.307 48.9925C306.013 48.8658 305.76 48.6858 305.547 48.4525C305.34 48.2125 305.18 47.9292 305.067 47.6025C304.953 47.2692 304.897 46.8992 304.897 46.4925C304.897 46.0792 304.953 45.7058 305.067 45.3725C305.187 45.0392 305.35 44.7558 305.557 44.5225C305.763 44.2825 306.01 44.0992 306.297 43.9725C306.59 43.8458 306.913 43.7825 307.267 43.7825C307.613 43.7825 307.927 43.8458 308.207 43.9725C308.493 44.0992 308.737 44.2758 308.937 44.5025C309.137 44.7225 309.29 44.9858 309.397 45.2925C309.503 45.5992 309.557 45.9358 309.557 46.3025V46.6825H305.737V46.9225C305.737 47.1492 305.773 47.3592 305.847 47.5525C305.92 47.7458 306.023 47.9125 306.157 48.0525C306.297 48.1925 306.463 48.3025 306.657 48.3825C306.857 48.4558 307.077 48.4925 307.317 48.4925C307.663 48.4925 307.963 48.4125 308.217 48.2525C308.47 48.0925 308.663 47.8725 308.797 47.5925L309.387 47.9925C309.233 48.3392 308.977 48.6258 308.617 48.8525C308.263 49.0725 307.83 49.1825 307.317 49.1825ZM307.267 44.4425C307.047 44.4425 306.843 44.4825 306.657 44.5625C306.47 44.6425 306.307 44.7525 306.167 44.8925C306.033 45.0325 305.927 45.1992 305.847 45.3925C305.773 45.5792 305.737 45.7858 305.737 46.0125V46.0825H308.697V45.9725C308.697 45.7458 308.66 45.5392 308.587 45.3525C308.52 45.1658 308.423 45.0058 308.297 44.8725C308.177 44.7325 308.027 44.6258 307.847 44.5525C307.673 44.4792 307.48 44.4425 307.267 44.4425ZM313.243 50.3825H315.743V44.5825H313.153V43.9025H316.543V49.8825C316.543 50.2292 316.449 50.5125 316.263 50.7325C316.083 50.9525 315.796 51.0625 315.403 51.0625H313.243V50.3825ZM316.143 42.7625C315.909 42.7625 315.746 42.7158 315.653 42.6225C315.559 42.5225 315.513 42.3992 315.513 42.2525V42.0925C315.513 41.9458 315.559 41.8258 315.653 41.7325C315.746 41.6325 315.909 41.5825 316.143 41.5825C316.376 41.5825 316.539 41.6325 316.633 41.7325C316.726 41.8258 316.773 41.9458 316.773 42.0925V42.2525C316.773 42.3992 316.726 42.5225 316.633 42.6225C316.539 42.7158 316.376 42.7625 316.143 42.7625ZM321.019 48.3825H322.819V42.3425H321.019V41.6625H323.619V48.3825H325.419V49.0625H321.019V48.3825ZM330.705 49.0625L328.855 43.9025H329.665L330.405 46.0625L331.205 48.3925H331.245L332.045 46.0625L332.785 43.9025H333.575L331.725 49.0625H330.705ZM341.161 49.0625C340.848 49.0625 340.624 48.9825 340.491 48.8225C340.358 48.6625 340.274 48.4625 340.241 48.2225H340.191C340.078 48.5225 339.894 48.7592 339.641 48.9325C339.394 49.0992 339.061 49.1825 338.641 49.1825C338.101 49.1825 337.671 49.0425 337.351 48.7625C337.031 48.4825 336.871 48.0992 336.871 47.6125C336.871 47.1325 337.044 46.7625 337.391 46.5025C337.744 46.2425 338.311 46.1125 339.091 46.1125H340.191V45.6025C340.191 45.2225 340.084 44.9392 339.871 44.7525C339.658 44.5592 339.354 44.4625 338.961 44.4625C338.614 44.4625 338.331 44.5325 338.111 44.6725C337.891 44.8058 337.714 44.9892 337.581 45.2225L337.041 44.8225C337.108 44.6892 337.198 44.5592 337.311 44.4325C337.424 44.3058 337.564 44.1958 337.731 44.1025C337.898 44.0025 338.088 43.9258 338.301 43.8725C338.514 43.8125 338.751 43.7825 339.011 43.7825C339.618 43.7825 340.098 43.9358 340.451 44.2425C340.811 44.5492 340.991 44.9758 340.991 45.5225V48.3625H341.711V49.0625H341.161ZM338.781 48.5125C338.988 48.5125 339.174 48.4892 339.341 48.4425C339.514 48.3892 339.664 48.3225 339.791 48.2425C339.918 48.1558 340.014 48.0558 340.081 47.9425C340.154 47.8225 340.191 47.6958 340.191 47.5625V46.7125H339.091C338.611 46.7125 338.261 46.7792 338.041 46.9125C337.821 47.0458 337.711 47.2392 337.711 47.4925V47.7025C337.711 47.9692 337.804 48.1725 337.991 48.3125C338.184 48.4458 338.448 48.5125 338.781 48.5125ZM345.187 49.0625V43.9025H345.987V44.7425H346.027C346.08 44.6158 346.147 44.4958 346.227 44.3825C346.307 44.2625 346.404 44.1592 346.517 44.0725C346.637 43.9858 346.777 43.9158 346.937 43.8625C347.097 43.8092 347.284 43.7825 347.497 43.7825C348.037 43.7825 348.47 43.9558 348.797 44.3025C349.124 44.6425 349.287 45.1258 349.287 45.7525V49.0625H348.487V45.8925C348.487 45.4192 348.384 45.0692 348.177 44.8425C347.97 44.6092 347.667 44.4925 347.267 44.4925C347.107 44.4925 346.95 44.5125 346.797 44.5525C346.644 44.5925 346.507 44.6525 346.387 44.7325C346.267 44.8125 346.17 44.9158 346.097 45.0425C346.024 45.1692 345.987 45.3158 345.987 45.4825V49.0625H345.187ZM357.813 49.6525C357.813 50.1725 357.596 50.5558 357.163 50.8025C356.73 51.0558 356.08 51.1825 355.213 51.1825C354.38 51.1825 353.78 51.0725 353.413 50.8525C353.053 50.6325 352.873 50.3158 352.873 49.9025C352.873 49.6225 352.946 49.4058 353.093 49.2525C353.24 49.0992 353.446 48.9858 353.713 48.9125V48.7925C353.566 48.7192 353.453 48.6258 353.373 48.5125C353.293 48.3992 353.253 48.2558 353.253 48.0825C353.253 47.8158 353.34 47.6158 353.513 47.4825C353.693 47.3492 353.916 47.2492 354.183 47.1825V47.1425C353.863 47.0025 353.613 46.7958 353.433 46.5225C353.26 46.2492 353.173 45.9292 353.173 45.5625C353.173 45.3025 353.22 45.0625 353.313 44.8425C353.406 44.6225 353.54 44.4358 353.713 44.2825C353.893 44.1225 354.106 43.9992 354.353 43.9125C354.6 43.8258 354.873 43.7825 355.173 43.7825C355.56 43.7825 355.9 43.8525 356.193 43.9925V43.9025C356.193 43.7025 356.24 43.5358 356.333 43.4025C356.426 43.2692 356.586 43.2025 356.813 43.2025H357.763V43.9025H356.603V44.2525C356.79 44.4125 356.933 44.6025 357.033 44.8225C357.133 45.0425 357.183 45.2892 357.183 45.5625C357.183 45.8225 357.133 46.0625 357.033 46.2825C356.94 46.5025 356.806 46.6925 356.633 46.8525C356.46 47.0058 356.246 47.1258 355.993 47.2125C355.746 47.2992 355.473 47.3425 355.173 47.3425C355.086 47.3425 355.003 47.3392 354.923 47.3325C354.843 47.3258 354.763 47.3158 354.683 47.3025C354.603 47.3158 354.52 47.3392 354.433 47.3725C354.346 47.3992 354.266 47.4392 354.193 47.4925C354.12 47.5392 354.06 47.5958 354.013 47.6625C353.966 47.7292 353.943 47.8058 353.943 47.8925C353.943 48.0458 354.02 48.1492 354.173 48.2025C354.326 48.2492 354.526 48.2725 354.773 48.2725H355.913C356.58 48.2725 357.063 48.3992 357.363 48.6525C357.663 48.8992 357.813 49.2325 357.813 49.6525ZM357.063 49.6925C357.063 49.4858 356.98 49.3192 356.813 49.1925C356.646 49.0725 356.356 49.0125 355.943 49.0125H354.153C353.806 49.1525 353.633 49.3858 353.633 49.7125C353.633 49.9392 353.723 50.1325 353.903 50.2925C354.083 50.4592 354.383 50.5425 354.803 50.5425H355.583C356.05 50.5425 356.413 50.4692 356.673 50.3225C356.933 50.1825 357.063 49.9725 357.063 49.6925ZM355.173 46.7225C355.573 46.7225 355.866 46.6292 356.053 46.4425C356.246 46.2558 356.343 46.0092 356.343 45.7025V45.4125C356.343 45.1058 356.246 44.8625 356.053 44.6825C355.866 44.4958 355.573 44.4025 355.173 44.4025C354.773 44.4025 354.48 44.4958 354.293 44.6825C354.106 44.8625 354.013 45.1058 354.013 45.4125V45.7025C354.013 46.0092 354.106 46.2558 354.293 46.4425C354.48 46.6292 354.773 46.7225 355.173 46.7225ZM363.199 49.1525C362.926 49.1525 362.733 49.0958 362.619 48.9825C362.513 48.8692 362.459 48.7258 362.459 48.5525V48.3725C362.459 48.1992 362.513 48.0558 362.619 47.9425C362.733 47.8292 362.926 47.7725 363.199 47.7725C363.473 47.7725 363.663 47.8292 363.769 47.9425C363.883 48.0558 363.939 48.1992 363.939 48.3725V48.5525C363.939 48.7258 363.883 48.8692 363.769 48.9825C363.663 49.0958 363.473 49.1525 363.199 49.1525ZM372.445 48.2225H372.405C372.072 48.8625 371.542 49.1825 370.815 49.1825C370.182 49.1825 369.685 48.9458 369.325 48.4725C368.972 47.9992 368.795 47.3358 368.795 46.4825C368.795 45.6292 368.972 44.9658 369.325 44.4925C369.685 44.0192 370.182 43.7825 370.815 43.7825C371.542 43.7825 372.072 44.1025 372.405 44.7425H372.445V41.6625H373.245V49.0625H372.445V48.2225ZM371.125 48.4725C371.305 48.4725 371.475 48.4492 371.635 48.4025C371.795 48.3558 371.935 48.2892 372.055 48.2025C372.175 48.1092 372.269 47.9992 372.335 47.8725C372.409 47.7392 372.445 47.5858 372.445 47.4125V45.5525C372.445 45.3792 372.409 45.2292 372.335 45.1025C372.269 44.9692 372.175 44.8592 372.055 44.7725C371.935 44.6792 371.795 44.6092 371.635 44.5625C371.475 44.5158 371.305 44.4925 371.125 44.4925C370.659 44.4925 370.295 44.6358 370.035 44.9225C369.782 45.2025 369.655 45.5758 369.655 46.0425V46.9225C369.655 47.3892 369.782 47.7658 370.035 48.0525C370.295 48.3325 370.659 48.4725 371.125 48.4725ZM377.241 41.6625H378.041V46.3325H378.081L378.981 45.4825L380.701 43.9025H381.681L379.541 45.9225L381.931 49.0625H380.941L378.931 46.3825L378.041 47.1925V49.0625H377.241V41.6625ZM385.088 50.4425L388.568 41.4625H389.288L385.808 50.4425H385.088ZM395.604 42.8125V49.0625H394.764V42.8125H392.434V42.0825H397.934V42.8125H395.604ZM405.55 49.0625H400.89V48.2025L403.22 46.1025C403.56 45.7958 403.84 45.4825 404.06 45.1625C404.28 44.8358 404.39 44.4925 404.39 44.1325V44.0125C404.39 43.5925 404.28 43.2692 404.06 43.0425C403.84 42.8092 403.513 42.6925 403.08 42.6925C402.653 42.6925 402.323 42.8025 402.09 43.0225C401.863 43.2358 401.693 43.5225 401.58 43.8825L400.83 43.6025C400.896 43.3958 400.986 43.1958 401.1 43.0025C401.22 42.8025 401.37 42.6258 401.55 42.4725C401.73 42.3192 401.946 42.1958 402.2 42.1025C402.46 42.0092 402.76 41.9625 403.1 41.9625C403.446 41.9625 403.753 42.0125 404.02 42.1125C404.293 42.2125 404.52 42.3525 404.7 42.5325C404.886 42.7125 405.026 42.9258 405.12 43.1725C405.22 43.4192 405.27 43.6892 405.27 43.9825C405.27 44.2492 405.23 44.4992 405.15 44.7325C405.076 44.9658 404.97 45.1892 404.83 45.4025C404.696 45.6158 404.533 45.8258 404.34 46.0325C404.153 46.2325 403.943 46.4325 403.71 46.6325L401.76 48.3325H405.55V49.0625Z" fill="black"/>
</svg>
