<svg width="460" height="387" viewBox="0 0 460 387" fill="none" xmlns="http://www.w3.org/2000/svg">
<rect x="0.5" y="0.5" width="459" height="386" rx="14.5" stroke="#FA7FC1"/>
<line y1="40.3199" x2="460" y2="40.3199" stroke="#FA7FC1"/>
<ellipse cx="21" cy="21.1633" rx="4" ry="4.16327" fill="#3E86BA"/>
<ellipse cx="49" cy="21.1633" rx="4" ry="4.16327" fill="#3E86BA"/>
<ellipse cx="35" cy="21.1633" rx="4" ry="4.16327" fill="#3E86BA"/>
<path d="M153.8 28.5V14.54H158.88C160.173 14.54 161.16 14.8933 161.84 15.6C162.52 16.3067 162.86 17.2933 162.86 18.56C162.86 19.8267 162.52 20.8133 161.84 21.52C161.16 22.2267 160.173 22.58 158.88 22.58H155.48V28.5H153.8ZM155.48 21.12H158.84C159.547 21.12 160.093 20.9467 160.48 20.6C160.88 20.24 161.08 19.7333 161.08 19.08V18.04C161.08 17.3867 160.88 16.8867 160.48 16.54C160.093 16.18 159.547 16 158.84 16H155.48V21.12ZM169.532 27.14H172.552V19.54H169.532V18.18H174.152V20.78H174.252C174.466 19.9667 174.866 19.3333 175.452 18.88C176.052 18.4133 176.812 18.18 177.732 18.18H179.172V19.78H177.232C176.312 19.78 175.566 20.0467 174.992 20.58C174.432 21.1133 174.152 21.8133 174.152 22.68V27.14H178.152V28.5H169.532V27.14ZM189.984 28.74C189.264 28.74 188.611 28.6133 188.024 28.36C187.451 28.1067 186.958 27.7467 186.544 27.28C186.144 26.8 185.838 26.2333 185.624 25.58C185.411 24.9133 185.304 24.1667 185.304 23.34C185.304 22.5267 185.411 21.7867 185.624 21.12C185.838 20.4533 186.144 19.8867 186.544 19.42C186.958 18.94 187.451 18.5733 188.024 18.32C188.611 18.0667 189.264 17.94 189.984 17.94C190.704 17.94 191.351 18.0667 191.924 18.32C192.511 18.5733 193.004 18.94 193.404 19.42C193.818 19.8867 194.131 20.4533 194.344 21.12C194.558 21.7867 194.664 22.5267 194.664 23.34C194.664 24.1667 194.558 24.9133 194.344 25.58C194.131 26.2333 193.818 26.8 193.404 27.28C193.004 27.7467 192.511 28.1067 191.924 28.36C191.351 28.6133 190.704 28.74 189.984 28.74ZM189.984 27.36C190.878 27.36 191.598 27.0933 192.144 26.56C192.691 26.0267 192.964 25.2 192.964 24.08V22.6C192.964 21.48 192.691 20.6533 192.144 20.12C191.598 19.5867 190.878 19.32 189.984 19.32C189.091 19.32 188.371 19.5867 187.824 20.12C187.278 20.6533 187.004 21.48 187.004 22.6V24.08C187.004 25.2 187.278 26.0267 187.824 26.56C188.371 27.0933 189.091 27.36 189.984 27.36ZM211.197 29.68C211.197 30.72 210.763 31.4867 209.897 31.98C209.03 32.4867 207.73 32.74 205.997 32.74C204.33 32.74 203.13 32.52 202.397 32.08C201.677 31.64 201.317 31.0067 201.317 30.18C201.317 29.62 201.463 29.1867 201.757 28.88C202.05 28.5733 202.463 28.3467 202.997 28.2V27.96C202.703 27.8133 202.477 27.6267 202.317 27.4C202.157 27.1733 202.077 26.8867 202.077 26.54C202.077 26.0067 202.25 25.6067 202.597 25.34C202.957 25.0733 203.403 24.8733 203.937 24.74V24.66C203.297 24.38 202.797 23.9667 202.437 23.42C202.09 22.8733 201.917 22.2333 201.917 21.5C201.917 20.98 202.01 20.5 202.197 20.06C202.383 19.62 202.65 19.2467 202.997 18.94C203.357 18.62 203.783 18.3733 204.277 18.2C204.77 18.0267 205.317 17.94 205.917 17.94C206.69 17.94 207.37 18.08 207.957 18.36V18.18C207.957 17.78 208.05 17.4467 208.237 17.18C208.423 16.9133 208.743 16.78 209.197 16.78H211.097V18.18H208.777V18.88C209.15 19.2 209.437 19.58 209.637 20.02C209.837 20.46 209.937 20.9533 209.937 21.5C209.937 22.02 209.837 22.5 209.637 22.94C209.45 23.38 209.183 23.76 208.837 24.08C208.49 24.3867 208.063 24.6267 207.557 24.8C207.063 24.9733 206.517 25.06 205.917 25.06C205.743 25.06 205.577 25.0533 205.417 25.04C205.257 25.0267 205.097 25.0067 204.937 24.98C204.777 25.0067 204.61 25.0533 204.437 25.12C204.263 25.1733 204.103 25.2533 203.957 25.36C203.81 25.4533 203.69 25.5667 203.597 25.7C203.503 25.8333 203.457 25.9867 203.457 26.16C203.457 26.4667 203.61 26.6733 203.917 26.78C204.223 26.8733 204.623 26.92 205.117 26.92H207.397C208.73 26.92 209.697 27.1733 210.297 27.68C210.897 28.1733 211.197 28.84 211.197 29.68ZM209.697 29.76C209.697 29.3467 209.53 29.0133 209.197 28.76C208.863 28.52 208.283 28.4 207.457 28.4H203.877C203.183 28.68 202.837 29.1467 202.837 29.8C202.837 30.2533 203.017 30.64 203.377 30.96C203.737 31.2933 204.337 31.46 205.177 31.46H206.737C207.67 31.46 208.397 31.3133 208.917 31.02C209.437 30.74 209.697 30.32 209.697 29.76ZM205.917 23.82C206.717 23.82 207.303 23.6333 207.677 23.26C208.063 22.8867 208.257 22.3933 208.257 21.78V21.2C208.257 20.5867 208.063 20.1 207.677 19.74C207.303 19.3667 206.717 19.18 205.917 19.18C205.117 19.18 204.53 19.3667 204.157 19.74C203.783 20.1 203.597 20.5867 203.597 21.2V21.78C203.597 22.3933 203.783 22.8867 204.157 23.26C204.53 23.6333 205.117 23.82 205.917 23.82ZM217.509 27.14H220.529V19.54H217.509V18.18H222.129V20.78H222.229C222.442 19.9667 222.842 19.3333 223.429 18.88C224.029 18.4133 224.789 18.18 225.709 18.18H227.149V19.78H225.209C224.289 19.78 223.542 20.0467 222.969 20.58C222.409 21.1133 222.129 21.8133 222.129 22.68V27.14H226.129V28.5H217.509V27.14ZM241.861 28.5C241.234 28.5 240.788 28.34 240.521 28.02C240.254 27.7 240.088 27.3 240.021 26.82H239.921C239.694 27.42 239.328 27.8933 238.821 28.24C238.328 28.5733 237.661 28.74 236.821 28.74C235.741 28.74 234.881 28.46 234.241 27.9C233.601 27.34 233.281 26.5733 233.281 25.6C233.281 24.64 233.628 23.9 234.321 23.38C235.028 22.86 236.161 22.6 237.721 22.6H239.921V21.58C239.921 20.82 239.708 20.2533 239.281 19.88C238.854 19.4933 238.248 19.3 237.461 19.3C236.768 19.3 236.201 19.44 235.761 19.72C235.321 19.9867 234.968 20.3533 234.701 20.82L233.621 20.02C233.754 19.7533 233.934 19.4933 234.161 19.24C234.388 18.9867 234.668 18.7667 235.001 18.58C235.334 18.38 235.714 18.2267 236.141 18.12C236.568 18 237.041 17.94 237.561 17.94C238.774 17.94 239.734 18.2467 240.441 18.86C241.161 19.4733 241.521 20.3267 241.521 21.42V27.1H242.961V28.5H241.861ZM237.101 27.4C237.514 27.4 237.888 27.3533 238.221 27.26C238.568 27.1533 238.868 27.02 239.121 26.86C239.374 26.6867 239.568 26.4867 239.701 26.26C239.848 26.02 239.921 25.7667 239.921 25.5V23.8H237.721C236.761 23.8 236.061 23.9333 235.621 24.2C235.181 24.4667 234.961 24.8533 234.961 25.36V25.78C234.961 26.3133 235.148 26.72 235.521 27C235.908 27.2667 236.434 27.4 237.101 27.4ZM249.033 28.5V18.18H250.513V19.38H250.593C250.753 18.98 250.98 18.64 251.273 18.36C251.566 18.08 252 17.94 252.573 17.94C253.173 17.94 253.62 18.0933 253.913 18.4C254.206 18.6933 254.386 19.08 254.453 19.56H254.513C254.7 19.0933 254.966 18.7067 255.313 18.4C255.66 18.0933 256.14 17.94 256.753 17.94C257.593 17.94 258.153 18.2333 258.433 18.82C258.726 19.4067 258.873 20.2467 258.873 21.34V28.5H257.393V21.6C257.393 20.72 257.3 20.1133 257.113 19.78C256.94 19.4333 256.613 19.26 256.133 19.26C255.706 19.26 255.36 19.4 255.093 19.68C254.826 19.9467 254.693 20.36 254.693 20.92V28.5H253.213V21.6C253.213 20.72 253.12 20.1133 252.933 19.78C252.76 19.4333 252.44 19.26 251.973 19.26C251.546 19.26 251.193 19.4 250.913 19.68C250.646 19.9467 250.513 20.36 250.513 20.92V28.5H249.033ZM265.025 28.5V18.18H266.505V19.38H266.585C266.745 18.98 266.972 18.64 267.265 18.36C267.559 18.08 267.992 17.94 268.565 17.94C269.165 17.94 269.612 18.0933 269.905 18.4C270.199 18.6933 270.379 19.08 270.445 19.56H270.505C270.692 19.0933 270.959 18.7067 271.305 18.4C271.652 18.0933 272.132 17.94 272.745 17.94C273.585 17.94 274.145 18.2333 274.425 18.82C274.719 19.4067 274.865 20.2467 274.865 21.34V28.5H273.385V21.6C273.385 20.72 273.292 20.1133 273.105 19.78C272.932 19.4333 272.605 19.26 272.125 19.26C271.699 19.26 271.352 19.4 271.085 19.68C270.819 19.9467 270.685 20.36 270.685 20.92V28.5H269.205V21.6C269.205 20.72 269.112 20.1133 268.925 19.78C268.752 19.4333 268.432 19.26 267.965 19.26C267.539 19.26 267.185 19.4 266.905 19.68C266.639 19.9467 266.505 20.36 266.505 20.92V28.5H265.025ZM286.118 28.74C285.371 28.74 284.698 28.6133 284.098 28.36C283.511 28.1067 283.004 27.7467 282.577 27.28C282.164 26.8 281.844 26.2333 281.618 25.58C281.391 24.9133 281.278 24.1733 281.278 23.36C281.278 22.5333 281.391 21.7867 281.618 21.12C281.858 20.4533 282.184 19.8867 282.598 19.42C283.011 18.94 283.504 18.5733 284.078 18.32C284.664 18.0667 285.311 17.94 286.018 17.94C286.711 17.94 287.338 18.0667 287.898 18.32C288.471 18.5733 288.958 18.9267 289.358 19.38C289.758 19.82 290.064 20.3467 290.278 20.96C290.491 21.5733 290.598 22.2467 290.598 22.98V23.74H282.958V24.22C282.958 24.6733 283.031 25.0933 283.178 25.48C283.324 25.8667 283.531 26.2 283.798 26.48C284.078 26.76 284.411 26.98 284.798 27.14C285.198 27.2867 285.638 27.36 286.118 27.36C286.811 27.36 287.411 27.2 287.918 26.88C288.424 26.56 288.811 26.12 289.078 25.56L290.258 26.36C289.951 27.0533 289.438 27.6267 288.718 28.08C288.011 28.52 287.144 28.74 286.118 28.74ZM286.018 19.26C285.578 19.26 285.171 19.34 284.798 19.5C284.424 19.66 284.098 19.88 283.818 20.16C283.551 20.44 283.338 20.7733 283.178 21.16C283.031 21.5333 282.958 21.9467 282.958 22.4V22.54H288.878V22.32C288.878 21.8667 288.804 21.4533 288.658 21.08C288.524 20.7067 288.331 20.3867 288.078 20.12C287.838 19.84 287.538 19.6267 287.178 19.48C286.831 19.3333 286.444 19.26 286.018 19.26ZM297.47 27.14H300.49V19.54H297.47V18.18H302.09V20.78H302.19C302.403 19.9667 302.803 19.3333 303.39 18.88C303.99 18.4133 304.75 18.18 305.67 18.18H307.11V19.78H305.17C304.25 19.78 303.503 20.0467 302.93 20.58C302.37 21.1133 302.09 21.8133 302.09 22.68V27.14H306.09V28.5H297.47V27.14Z" fill="black"/>
</svg>
