<svg width="462" height="152" viewBox="0 0 462 152" fill="none" xmlns="http://www.w3.org/2000/svg">
<rect x="0.5" y="0.5" width="461" height="151" rx="15.5" stroke="#FA7FC1"/>
<line x1="1" y1="20.5" x2="461" y2="20.5" stroke="#FA7FC1"/>
<circle cx="22" cy="11" r="4" fill="#3E86BA"/>
<circle cx="50" cy="11" r="4" fill="#3E86BA"/>
<circle cx="36" cy="11" r="4" fill="#3E86BA"/>
<rect x="21.5" y="86.5" width="419" height="39" stroke="#FA7FC1"/>
<path d="M27.36 104.308H28.212L28.92 109.66H29.028L30.084 104.308H31.14L32.196 109.66H32.304L33.012 104.308H33.84L32.892 110.5H31.644L30.66 105.316H30.564L29.556 110.5H28.308L27.36 104.308ZM36.9553 104.308H37.8073L38.5153 109.66H38.6233L39.6793 104.308H40.7353L41.7913 109.66H41.8993L42.6073 104.308H43.4353L42.4873 110.5H41.2393L40.2553 105.316H40.1593L39.1513 110.5H37.9033L36.9553 104.308ZM46.5506 104.308H47.4026L48.1106 109.66H48.2186L49.2746 104.308H50.3306L51.3866 109.66H51.4946L52.2026 104.308H53.0306L52.0826 110.5H50.8346L49.8506 105.316H49.7546L48.7466 110.5H47.4986L46.5506 104.308ZM59.3859 110.608C59.0579 110.608 58.8259 110.54 58.6899 110.404C58.5619 110.268 58.4979 110.096 58.4979 109.888V109.672C58.4979 109.464 58.5619 109.292 58.6899 109.156C58.8259 109.02 59.0579 108.952 59.3859 108.952C59.7139 108.952 59.9419 109.02 60.0699 109.156C60.2059 109.292 60.2739 109.464 60.2739 109.672V109.888C60.2739 110.096 60.2059 110.268 60.0699 110.404C59.9419 110.54 59.7139 110.608 59.3859 110.608ZM66.3772 109.684H68.4652V105.124H66.2572V104.308H68.4652V103.036C68.4652 102.62 68.5732 102.28 68.7892 102.016C69.0132 101.752 69.3612 101.62 69.8332 101.62H71.9092V102.436H69.4252V104.308H71.9092V105.124H69.4252V109.684H71.6332V110.5H66.3772V109.684ZM75.9006 109.684H77.7126V105.124H75.9006V104.308H78.6726V105.868H78.7326C78.8606 105.38 79.1006 105 79.4526 104.728C79.8126 104.448 80.2686 104.308 80.8206 104.308H81.6846V105.268H80.5206C79.9686 105.268 79.5206 105.428 79.1766 105.748C78.8406 106.068 78.6726 106.488 78.6726 107.008V109.684H81.0726V110.5H75.9006V109.684ZM88.2799 110.644C87.8319 110.644 87.4279 110.568 87.0679 110.416C86.7159 110.264 86.4119 110.048 86.1559 109.768C85.9079 109.48 85.7159 109.14 85.5799 108.748C85.4439 108.348 85.3759 107.904 85.3759 107.416C85.3759 106.92 85.4439 106.472 85.5799 106.072C85.7239 105.672 85.9199 105.332 86.1679 105.052C86.4159 104.764 86.7119 104.544 87.0559 104.392C87.4079 104.24 87.7959 104.164 88.2199 104.164C88.6359 104.164 89.0119 104.24 89.3479 104.392C89.6919 104.544 89.9839 104.756 90.2239 105.028C90.4639 105.292 90.6479 105.608 90.7759 105.976C90.9039 106.344 90.9679 106.748 90.9679 107.188V107.644H86.3839V107.932C86.3839 108.204 86.4279 108.456 86.5159 108.688C86.6039 108.92 86.7279 109.12 86.8879 109.288C87.0559 109.456 87.2559 109.588 87.4879 109.684C87.7279 109.772 87.9919 109.816 88.2799 109.816C88.6959 109.816 89.0559 109.72 89.3599 109.528C89.6639 109.336 89.8959 109.072 90.0559 108.736L90.7639 109.216C90.5799 109.632 90.2719 109.976 89.8399 110.248C89.4159 110.512 88.8959 110.644 88.2799 110.644ZM88.2199 104.956C87.9559 104.956 87.7119 105.004 87.4879 105.1C87.2639 105.196 87.0679 105.328 86.8999 105.496C86.7399 105.664 86.6119 105.864 86.5159 106.096C86.4279 106.32 86.3839 106.568 86.3839 106.84V106.924H89.9359V106.792C89.9359 106.52 89.8919 106.272 89.8039 106.048C89.7239 105.824 89.6079 105.632 89.4559 105.472C89.3119 105.304 89.1319 105.176 88.9159 105.088C88.7079 105 88.4759 104.956 88.2199 104.956ZM99.2672 109.492H99.2192C98.8192 110.26 98.1832 110.644 97.3112 110.644C96.5512 110.644 95.9552 110.36 95.5232 109.792C95.0992 109.224 94.8872 108.428 94.8872 107.404C94.8872 106.38 95.0992 105.584 95.5232 105.016C95.9552 104.448 96.5512 104.164 97.3112 104.164C98.1832 104.164 98.8192 104.548 99.2192 105.316H99.2672V101.62H100.227V110.5H99.2672V109.492ZM97.6832 109.792C97.8992 109.792 98.1032 109.764 98.2952 109.708C98.4872 109.652 98.6552 109.572 98.7992 109.468C98.9432 109.356 99.0552 109.224 99.1352 109.072C99.2232 108.912 99.2672 108.728 99.2672 108.52V106.288C99.2672 106.08 99.2232 105.9 99.1352 105.748C99.0552 105.588 98.9432 105.456 98.7992 105.352C98.6552 105.24 98.4872 105.156 98.2952 105.1C98.1032 105.044 97.8992 105.016 97.6832 105.016C97.1232 105.016 96.6872 105.188 96.3752 105.532C96.0712 105.868 95.9192 106.316 95.9192 106.876V107.932C95.9192 108.492 96.0712 108.944 96.3752 109.288C96.6872 109.624 97.1232 109.792 97.6832 109.792ZM107.47 110.644C107.022 110.644 106.618 110.568 106.258 110.416C105.906 110.264 105.602 110.048 105.346 109.768C105.098 109.48 104.906 109.14 104.77 108.748C104.634 108.348 104.566 107.904 104.566 107.416C104.566 106.92 104.634 106.472 104.77 106.072C104.914 105.672 105.11 105.332 105.358 105.052C105.606 104.764 105.902 104.544 106.246 104.392C106.598 104.24 106.986 104.164 107.41 104.164C107.826 104.164 108.202 104.24 108.538 104.392C108.882 104.544 109.174 104.756 109.414 105.028C109.654 105.292 109.838 105.608 109.966 105.976C110.094 106.344 110.158 106.748 110.158 107.188V107.644H105.574V107.932C105.574 108.204 105.618 108.456 105.706 108.688C105.794 108.92 105.918 109.12 106.078 109.288C106.246 109.456 106.446 109.588 106.678 109.684C106.918 109.772 107.182 109.816 107.47 109.816C107.886 109.816 108.246 109.72 108.55 109.528C108.854 109.336 109.086 109.072 109.246 108.736L109.954 109.216C109.77 109.632 109.462 109.976 109.03 110.248C108.606 110.512 108.086 110.644 107.47 110.644ZM107.41 104.956C107.146 104.956 106.902 105.004 106.678 105.1C106.454 105.196 106.258 105.328 106.09 105.496C105.93 105.664 105.802 105.864 105.706 106.096C105.618 106.32 105.574 106.568 105.574 106.84V106.924H109.126V106.792C109.126 106.52 109.082 106.272 108.994 106.048C108.914 105.824 108.798 105.632 108.646 105.472C108.502 105.304 108.322 105.176 108.106 105.088C107.898 105 107.666 104.956 107.41 104.956ZM114.282 109.684H116.094V105.124H114.282V104.308H117.054V105.868H117.114C117.242 105.38 117.482 105 117.834 104.728C118.194 104.448 118.65 104.308 119.202 104.308H120.066V105.268H118.902C118.35 105.268 117.902 105.428 117.558 105.748C117.222 106.068 117.054 106.488 117.054 107.008V109.684H119.454V110.5H114.282V109.684ZM126.937 102.94C126.657 102.94 126.461 102.884 126.349 102.772C126.237 102.652 126.181 102.504 126.181 102.328V102.136C126.181 101.96 126.237 101.816 126.349 101.704C126.461 101.584 126.657 101.524 126.937 101.524C127.217 101.524 127.413 101.584 127.525 101.704C127.637 101.816 127.693 101.96 127.693 102.136V102.328C127.693 102.504 127.637 102.652 127.525 102.772C127.413 102.884 127.217 102.94 126.937 102.94ZM124.225 109.684H126.457V105.124H124.225V104.308H127.417V109.684H129.505V110.5H124.225V109.684ZM133.808 101.62H134.768V107.224H134.816L135.896 106.204L137.96 104.308H139.136L136.568 106.732L139.436 110.5H138.248L135.836 107.284L134.768 108.256V110.5H133.808V101.62ZM143.404 101.62H144.364V107.224H144.412L145.492 106.204L147.556 104.308H148.732L146.164 106.732L149.032 110.5H147.844L145.432 107.284L144.364 108.256V110.5H143.404V101.62ZM155.447 110.644C154.999 110.644 154.595 110.568 154.235 110.416C153.883 110.264 153.579 110.048 153.323 109.768C153.075 109.48 152.883 109.14 152.747 108.748C152.611 108.348 152.543 107.904 152.543 107.416C152.543 106.92 152.611 106.472 152.747 106.072C152.891 105.672 153.087 105.332 153.335 105.052C153.583 104.764 153.879 104.544 154.223 104.392C154.575 104.24 154.963 104.164 155.387 104.164C155.803 104.164 156.179 104.24 156.515 104.392C156.859 104.544 157.151 104.756 157.391 105.028C157.631 105.292 157.815 105.608 157.943 105.976C158.071 106.344 158.135 106.748 158.135 107.188V107.644H153.551V107.932C153.551 108.204 153.595 108.456 153.683 108.688C153.771 108.92 153.895 109.12 154.055 109.288C154.223 109.456 154.423 109.588 154.655 109.684C154.895 109.772 155.159 109.816 155.447 109.816C155.863 109.816 156.223 109.72 156.527 109.528C156.831 109.336 157.063 109.072 157.223 108.736L157.931 109.216C157.747 109.632 157.439 109.976 157.007 110.248C156.583 110.512 156.063 110.644 155.447 110.644ZM155.387 104.956C155.123 104.956 154.879 105.004 154.655 105.1C154.431 105.196 154.235 105.328 154.067 105.496C153.907 105.664 153.779 105.864 153.683 106.096C153.595 106.32 153.551 106.568 153.551 106.84V106.924H157.103V106.792C157.103 106.52 157.059 106.272 156.971 106.048C156.891 105.824 156.775 105.632 156.623 105.472C156.479 105.304 156.299 105.176 156.083 105.088C155.875 105 155.643 104.956 155.387 104.956ZM161.982 110.5V104.308H162.87V105.028H162.918C163.014 104.788 163.15 104.584 163.326 104.416C163.502 104.248 163.762 104.164 164.106 104.164C164.466 104.164 164.734 104.256 164.91 104.44C165.086 104.616 165.194 104.848 165.234 105.136H165.27C165.382 104.856 165.542 104.624 165.75 104.44C165.958 104.256 166.246 104.164 166.614 104.164C167.118 104.164 167.454 104.34 167.622 104.692C167.798 105.044 167.886 105.548 167.886 106.204V110.5H166.998V106.36C166.998 105.832 166.942 105.468 166.83 105.268C166.726 105.06 166.53 104.956 166.242 104.956C165.986 104.956 165.778 105.04 165.618 105.208C165.458 105.368 165.378 105.616 165.378 105.952V110.5H164.49V106.36C164.49 105.832 164.434 105.468 164.322 105.268C164.218 105.06 164.026 104.956 163.746 104.956C163.49 104.956 163.278 105.04 163.11 105.208C162.95 105.368 162.87 105.616 162.87 105.952V110.5H161.982ZM174.638 110.644C174.19 110.644 173.786 110.568 173.426 110.416C173.074 110.264 172.77 110.048 172.514 109.768C172.266 109.48 172.074 109.14 171.938 108.748C171.802 108.348 171.734 107.904 171.734 107.416C171.734 106.92 171.802 106.472 171.938 106.072C172.082 105.672 172.278 105.332 172.526 105.052C172.774 104.764 173.07 104.544 173.414 104.392C173.766 104.24 174.154 104.164 174.578 104.164C174.994 104.164 175.37 104.24 175.706 104.392C176.05 104.544 176.342 104.756 176.582 105.028C176.822 105.292 177.006 105.608 177.134 105.976C177.262 106.344 177.326 106.748 177.326 107.188V107.644H172.742V107.932C172.742 108.204 172.786 108.456 172.874 108.688C172.962 108.92 173.086 109.12 173.246 109.288C173.414 109.456 173.614 109.588 173.846 109.684C174.086 109.772 174.35 109.816 174.638 109.816C175.054 109.816 175.414 109.72 175.718 109.528C176.022 109.336 176.254 109.072 176.414 108.736L177.122 109.216C176.938 109.632 176.63 109.976 176.198 110.248C175.774 110.512 175.254 110.644 174.638 110.644ZM174.578 104.956C174.314 104.956 174.07 105.004 173.846 105.1C173.622 105.196 173.426 105.328 173.258 105.496C173.098 105.664 172.97 105.864 172.874 106.096C172.786 106.32 172.742 106.568 172.742 106.84V106.924H176.294V106.792C176.294 106.52 176.25 106.272 176.162 106.048C176.082 105.824 175.966 105.632 175.814 105.472C175.67 105.304 175.49 105.176 175.274 105.088C175.066 105 174.834 104.956 174.578 104.956ZM181.749 112.084H184.749V105.124H181.641V104.308H185.709V111.484C185.709 111.9 185.597 112.24 185.373 112.504C185.157 112.768 184.813 112.9 184.341 112.9H181.749V112.084ZM185.229 102.94C184.949 102.94 184.753 102.884 184.641 102.772C184.529 102.652 184.473 102.504 184.473 102.328V102.136C184.473 101.96 184.529 101.816 184.641 101.704C184.753 101.584 184.949 101.524 185.229 101.524C185.509 101.524 185.705 101.584 185.817 101.704C185.929 101.816 185.985 101.96 185.985 102.136V102.328C185.985 102.504 185.929 102.652 185.817 102.772C185.705 102.884 185.509 102.94 185.229 102.94ZM191.08 109.684H193.24V102.436H191.08V101.62H194.2V109.684H196.36V110.5H191.08V109.684ZM202.704 110.5L200.484 104.308H201.456L202.344 106.9L203.304 109.696H203.352L204.312 106.9L205.2 104.308H206.148L203.928 110.5H202.704ZM215.251 110.5C214.875 110.5 214.607 110.404 214.447 110.212C214.287 110.02 214.187 109.78 214.147 109.492H214.087C213.951 109.852 213.731 110.136 213.427 110.344C213.131 110.544 212.731 110.644 212.227 110.644C211.579 110.644 211.063 110.476 210.679 110.14C210.295 109.804 210.103 109.344 210.103 108.76C210.103 108.184 210.311 107.74 210.727 107.428C211.151 107.116 211.831 106.96 212.767 106.96H214.087V106.348C214.087 105.892 213.959 105.552 213.703 105.328C213.447 105.096 213.083 104.98 212.611 104.98C212.195 104.98 211.855 105.064 211.591 105.232C211.327 105.392 211.115 105.612 210.955 105.892L210.307 105.412C210.387 105.252 210.495 105.096 210.631 104.944C210.767 104.792 210.935 104.66 211.135 104.548C211.335 104.428 211.563 104.336 211.819 104.272C212.075 104.2 212.359 104.164 212.671 104.164C213.399 104.164 213.975 104.348 214.399 104.716C214.831 105.084 215.047 105.596 215.047 106.252V109.66H215.911V110.5H215.251ZM212.395 109.84C212.643 109.84 212.867 109.812 213.067 109.756C213.275 109.692 213.455 109.612 213.607 109.516C213.759 109.412 213.875 109.292 213.955 109.156C214.043 109.012 214.087 108.86 214.087 108.7V107.68H212.767C212.191 107.68 211.771 107.76 211.507 107.92C211.243 108.08 211.111 108.312 211.111 108.616V108.868C211.111 109.188 211.223 109.432 211.447 109.6C211.679 109.76 211.995 109.84 212.395 109.84ZM220.082 110.5V104.308H221.042V105.316H221.09C221.154 105.164 221.234 105.02 221.33 104.884C221.426 104.74 221.542 104.616 221.678 104.512C221.822 104.408 221.99 104.324 222.182 104.26C222.374 104.196 222.598 104.164 222.854 104.164C223.502 104.164 224.022 104.372 224.414 104.788C224.806 105.196 225.002 105.776 225.002 106.528V110.5H224.042V106.696C224.042 106.128 223.918 105.708 223.67 105.436C223.422 105.156 223.058 105.016 222.578 105.016C222.386 105.016 222.198 105.04 222.014 105.088C221.83 105.136 221.666 105.208 221.522 105.304C221.378 105.4 221.262 105.524 221.174 105.676C221.086 105.828 221.042 106.004 221.042 106.204V110.5H220.082ZM235.234 111.208C235.234 111.832 234.974 112.292 234.454 112.588C233.934 112.892 233.154 113.044 232.114 113.044C231.114 113.044 230.394 112.912 229.954 112.648C229.522 112.384 229.306 112.004 229.306 111.508C229.306 111.172 229.394 110.912 229.57 110.728C229.746 110.544 229.994 110.408 230.314 110.32V110.176C230.138 110.088 230.002 109.976 229.906 109.84C229.81 109.704 229.762 109.532 229.762 109.324C229.762 109.004 229.866 108.764 230.074 108.604C230.29 108.444 230.558 108.324 230.878 108.244V108.196C230.494 108.028 230.194 107.78 229.978 107.452C229.77 107.124 229.666 106.74 229.666 106.3C229.666 105.988 229.722 105.7 229.834 105.436C229.946 105.172 230.106 104.948 230.314 104.764C230.53 104.572 230.786 104.424 231.082 104.32C231.378 104.216 231.706 104.164 232.066 104.164C232.53 104.164 232.938 104.248 233.29 104.416V104.308C233.29 104.068 233.346 103.868 233.458 103.708C233.57 103.548 233.762 103.468 234.034 103.468H235.174V104.308H233.782V104.728C234.006 104.92 234.178 105.148 234.298 105.412C234.418 105.676 234.478 105.972 234.478 106.3C234.478 106.612 234.418 106.9 234.298 107.164C234.186 107.428 234.026 107.656 233.818 107.848C233.61 108.032 233.354 108.176 233.05 108.28C232.754 108.384 232.426 108.436 232.066 108.436C231.962 108.436 231.862 108.432 231.766 108.424C231.67 108.416 231.574 108.404 231.478 108.388C231.382 108.404 231.282 108.432 231.178 108.472C231.074 108.504 230.978 108.552 230.89 108.616C230.802 108.672 230.73 108.74 230.674 108.82C230.618 108.9 230.59 108.992 230.59 109.096C230.59 109.28 230.682 109.404 230.866 109.468C231.05 109.524 231.29 109.552 231.586 109.552H232.954C233.754 109.552 234.334 109.704 234.694 110.008C235.054 110.304 235.234 110.704 235.234 111.208ZM234.334 111.256C234.334 111.008 234.234 110.808 234.034 110.656C233.834 110.512 233.486 110.44 232.99 110.44H230.842C230.426 110.608 230.218 110.888 230.218 111.28C230.218 111.552 230.326 111.784 230.542 111.976C230.758 112.176 231.118 112.276 231.622 112.276H232.558C233.118 112.276 233.554 112.188 233.866 112.012C234.178 111.844 234.334 111.592 234.334 111.256ZM232.066 107.692C232.546 107.692 232.898 107.58 233.122 107.356C233.354 107.132 233.47 106.836 233.47 106.468V106.12C233.47 105.752 233.354 105.46 233.122 105.244C232.898 105.02 232.546 104.908 232.066 104.908C231.586 104.908 231.234 105.02 231.01 105.244C230.786 105.46 230.674 105.752 230.674 106.12V106.468C230.674 106.836 230.786 107.132 231.01 107.356C231.234 107.58 231.586 107.692 232.066 107.692ZM241.697 110.608C241.369 110.608 241.137 110.54 241.001 110.404C240.873 110.268 240.809 110.096 240.809 109.888V109.672C240.809 109.464 240.873 109.292 241.001 109.156C241.137 109.02 241.369 108.952 241.697 108.952C242.025 108.952 242.253 109.02 242.381 109.156C242.517 109.292 242.585 109.464 242.585 109.672V109.888C242.585 110.096 242.517 110.268 242.381 110.404C242.253 110.54 242.025 110.608 241.697 110.608ZM252.792 109.492H252.744C252.344 110.26 251.708 110.644 250.836 110.644C250.076 110.644 249.48 110.36 249.048 109.792C248.624 109.224 248.412 108.428 248.412 107.404C248.412 106.38 248.624 105.584 249.048 105.016C249.48 104.448 250.076 104.164 250.836 104.164C251.708 104.164 252.344 104.548 252.744 105.316H252.792V101.62H253.752V110.5H252.792V109.492ZM251.208 109.792C251.424 109.792 251.628 109.764 251.82 109.708C252.012 109.652 252.18 109.572 252.324 109.468C252.468 109.356 252.58 109.224 252.66 109.072C252.748 108.912 252.792 108.728 252.792 108.52V106.288C252.792 106.08 252.748 105.9 252.66 105.748C252.58 105.588 252.468 105.456 252.324 105.352C252.18 105.24 252.012 105.156 251.82 105.1C251.628 105.044 251.424 105.016 251.208 105.016C250.648 105.016 250.212 105.188 249.9 105.532C249.596 105.868 249.444 106.316 249.444 106.876V107.932C249.444 108.492 249.596 108.944 249.9 109.288C250.212 109.624 250.648 109.792 251.208 109.792ZM258.548 101.62H259.508V107.224H259.556L260.636 106.204L262.7 104.308H263.876L261.308 106.732L264.176 110.5H262.988L260.576 107.284L259.508 108.256V110.5H258.548V101.62ZM267.963 112.156L272.139 101.38H273.003L268.827 112.156H267.963ZM277.558 110.5V102.124H282.718V103H278.566V105.82H282.574V106.696H278.566V109.624H282.718V110.5H277.558ZM286.721 110.5V104.308H287.609V105.028H287.657C287.753 104.788 287.889 104.584 288.065 104.416C288.241 104.248 288.501 104.164 288.845 104.164C289.205 104.164 289.473 104.256 289.649 104.44C289.825 104.616 289.933 104.848 289.973 105.136H290.009C290.121 104.856 290.281 104.624 290.489 104.44C290.697 104.256 290.985 104.164 291.353 104.164C291.857 104.164 292.193 104.34 292.361 104.692C292.537 105.044 292.625 105.548 292.625 106.204V110.5H291.737V106.36C291.737 105.832 291.681 105.468 291.569 105.268C291.465 105.06 291.269 104.956 290.981 104.956C290.725 104.956 290.517 105.04 290.357 105.208C290.197 105.368 290.117 105.616 290.117 105.952V110.5H289.229V106.36C289.229 105.832 289.173 105.468 289.061 105.268C288.957 105.06 288.765 104.956 288.485 104.956C288.229 104.956 288.017 105.04 287.849 105.208C287.689 105.368 287.609 105.616 287.609 105.952V110.5H286.721ZM296.845 110.5V104.308H297.805V105.316H297.853C297.917 105.164 297.997 105.02 298.093 104.884C298.189 104.74 298.305 104.616 298.441 104.512C298.585 104.408 298.753 104.324 298.945 104.26C299.137 104.196 299.361 104.164 299.617 104.164C300.265 104.164 300.785 104.372 301.177 104.788C301.569 105.196 301.765 105.776 301.765 106.528V110.5H300.805V106.696C300.805 106.128 300.681 105.708 300.433 105.436C300.185 105.156 299.821 105.016 299.341 105.016C299.149 105.016 298.961 105.04 298.777 105.088C298.593 105.136 298.429 105.208 298.285 105.304C298.141 105.4 298.025 105.524 297.937 105.676C297.849 105.828 297.805 106.004 297.805 106.204V110.5H296.845ZM308.972 110.644C308.524 110.644 308.12 110.568 307.76 110.416C307.408 110.264 307.104 110.048 306.848 109.768C306.6 109.48 306.408 109.14 306.272 108.748C306.136 108.348 306.068 107.904 306.068 107.416C306.068 106.92 306.136 106.472 306.272 106.072C306.416 105.672 306.612 105.332 306.86 105.052C307.108 104.764 307.404 104.544 307.748 104.392C308.1 104.24 308.488 104.164 308.912 104.164C309.328 104.164 309.704 104.24 310.04 104.392C310.384 104.544 310.676 104.756 310.916 105.028C311.156 105.292 311.34 105.608 311.468 105.976C311.596 106.344 311.66 106.748 311.66 107.188V107.644H307.076V107.932C307.076 108.204 307.12 108.456 307.208 108.688C307.296 108.92 307.42 109.12 307.58 109.288C307.748 109.456 307.948 109.588 308.18 109.684C308.42 109.772 308.684 109.816 308.972 109.816C309.388 109.816 309.748 109.72 310.052 109.528C310.356 109.336 310.588 109.072 310.748 108.736L311.456 109.216C311.272 109.632 310.964 109.976 310.532 110.248C310.108 110.512 309.588 110.644 308.972 110.644ZM308.912 104.956C308.648 104.956 308.404 105.004 308.18 105.1C307.956 105.196 307.76 105.328 307.592 105.496C307.432 105.664 307.304 105.864 307.208 106.096C307.12 106.32 307.076 106.568 307.076 106.84V106.924H310.628V106.792C310.628 106.52 310.584 106.272 310.496 106.048C310.416 105.824 310.3 105.632 310.148 105.472C310.004 105.304 309.824 105.176 309.608 105.088C309.4 105 309.168 104.956 308.912 104.956ZM318.531 110.644C317.883 110.644 317.323 110.536 316.851 110.32C316.387 110.096 315.991 109.8 315.663 109.432L316.311 108.868C316.607 109.18 316.931 109.42 317.283 109.588C317.635 109.756 318.059 109.84 318.555 109.84C319.035 109.84 319.427 109.756 319.731 109.588C320.043 109.412 320.199 109.14 320.199 108.772C320.199 108.612 320.167 108.48 320.103 108.376C320.047 108.264 319.967 108.176 319.863 108.112C319.759 108.048 319.643 108 319.515 107.968C319.387 107.928 319.251 107.896 319.107 107.872L318.135 107.728C317.919 107.696 317.683 107.652 317.427 107.596C317.179 107.54 316.951 107.452 316.743 107.332C316.535 107.204 316.359 107.036 316.215 106.828C316.079 106.62 316.011 106.348 316.011 106.012C316.011 105.7 316.071 105.432 316.191 105.208C316.319 104.976 316.495 104.784 316.719 104.632C316.943 104.472 317.207 104.356 317.511 104.284C317.815 104.204 318.147 104.164 318.507 104.164C319.067 104.164 319.551 104.252 319.959 104.428C320.375 104.604 320.731 104.848 321.027 105.16L320.403 105.748C320.331 105.66 320.239 105.572 320.127 105.484C320.023 105.388 319.891 105.304 319.731 105.232C319.579 105.152 319.399 105.088 319.191 105.04C318.983 104.992 318.743 104.968 318.471 104.968C317.983 104.968 317.607 105.052 317.343 105.22C317.087 105.388 316.959 105.632 316.959 105.952C316.959 106.112 316.987 106.248 317.043 106.36C317.107 106.464 317.191 106.548 317.295 106.612C317.399 106.676 317.515 106.728 317.643 106.768C317.779 106.8 317.915 106.828 318.051 106.852L319.023 106.996C319.247 107.028 319.483 107.072 319.731 107.128C319.979 107.184 320.207 107.276 320.415 107.404C320.623 107.524 320.795 107.688 320.931 107.896C321.075 108.104 321.147 108.376 321.147 108.712C321.147 109.328 320.907 109.804 320.427 110.14C319.955 110.476 319.323 110.644 318.531 110.644ZM328.439 102.94C328.159 102.94 327.963 102.884 327.851 102.772C327.739 102.652 327.683 102.504 327.683 102.328V102.136C327.683 101.96 327.739 101.816 327.851 101.704C327.963 101.584 328.159 101.524 328.439 101.524C328.719 101.524 328.915 101.584 329.027 101.704C329.139 101.816 329.195 101.96 329.195 102.136V102.328C329.195 102.504 329.139 102.652 329.027 102.772C328.915 102.884 328.719 102.94 328.439 102.94ZM325.727 109.684H327.959V105.124H325.727V104.308H328.919V109.684H331.007V110.5H325.727V109.684ZM337.95 110.5C337.478 110.5 337.13 110.368 336.906 110.104C336.69 109.84 336.582 109.5 336.582 109.084V105.124H334.518V104.308H336.054C336.262 104.308 336.406 104.268 336.486 104.188C336.574 104.1 336.618 103.952 336.618 103.744V102.124H337.542V104.308H340.362V105.124H337.542V109.684H340.362V110.5H337.95ZM347.353 110.644C346.905 110.644 346.501 110.568 346.141 110.416C345.789 110.264 345.485 110.048 345.229 109.768C344.981 109.48 344.789 109.14 344.653 108.748C344.517 108.348 344.449 107.904 344.449 107.416C344.449 106.92 344.517 106.472 344.653 106.072C344.797 105.672 344.993 105.332 345.241 105.052C345.489 104.764 345.785 104.544 346.129 104.392C346.481 104.24 346.869 104.164 347.293 104.164C347.709 104.164 348.085 104.24 348.421 104.392C348.765 104.544 349.057 104.756 349.297 105.028C349.537 105.292 349.721 105.608 349.849 105.976C349.977 106.344 350.041 106.748 350.041 107.188V107.644H345.457V107.932C345.457 108.204 345.501 108.456 345.589 108.688C345.677 108.92 345.801 109.12 345.961 109.288C346.129 109.456 346.329 109.588 346.561 109.684C346.801 109.772 347.065 109.816 347.353 109.816C347.769 109.816 348.129 109.72 348.433 109.528C348.737 109.336 348.969 109.072 349.129 108.736L349.837 109.216C349.653 109.632 349.345 109.976 348.913 110.248C348.489 110.512 347.969 110.644 347.353 110.644ZM347.293 104.956C347.029 104.956 346.785 105.004 346.561 105.1C346.337 105.196 346.141 105.328 345.973 105.496C345.813 105.664 345.685 105.864 345.589 106.096C345.501 106.32 345.457 106.568 345.457 106.84V106.924H349.009V106.792C349.009 106.52 348.965 106.272 348.877 106.048C348.797 105.824 348.681 105.632 348.529 105.472C348.385 105.304 348.205 105.176 347.989 105.088C347.781 105 347.549 104.956 347.293 104.956Z" fill="black"/>
<path d="M185.092 37H186.182C189.965 37.0822 193.687 38.6037 196.359 41.2972C195.373 42.3047 194.365 43.271 193.399 44.2785C191.898 42.9215 190.088 41.8729 188.115 41.5028C185.195 40.886 182.049 41.4411 179.602 43.1065C176.93 44.8542 175.12 47.8149 174.73 50.9813C174.298 54.1065 175.182 57.3963 177.217 59.8224C179.171 62.1869 182.152 63.6673 185.236 63.7701C188.115 63.9346 191.116 63.0505 193.214 61.0355C194.859 59.6168 195.619 57.4579 195.866 55.3607C192.453 55.3607 189.04 55.3813 185.627 55.3607V51.1252H199.999C200.739 55.6691 199.67 60.7888 196.216 64.0374C193.913 66.3402 190.726 67.6972 187.477 67.9645C184.331 68.2729 181.083 67.6766 178.287 66.1551C174.935 64.3663 172.262 61.3439 170.946 57.7869C169.713 54.5177 169.692 50.8168 170.844 47.5271C171.892 44.5252 173.907 41.8729 176.498 40.0224C178.986 38.1925 182.008 37.185 185.092 37Z" fill="#E365A9"/>
<path d="M267.541 38.0691H271.941V67.4298C270.481 67.4298 269.001 67.4504 267.541 67.4093C267.562 57.6429 267.541 47.856 267.541 38.0691Z" fill="#FFC7E5"/>
<path d="M209.786 48.2467C212.5 47.7326 215.44 48.3083 217.681 49.9326C219.716 51.3719 221.135 53.6336 221.567 56.1009C222.122 58.9588 221.423 62.084 219.572 64.3457C217.578 66.8747 214.309 68.2317 211.122 68.0261C208.202 67.8616 205.365 66.4018 203.638 64.0167C201.685 61.385 201.212 57.7663 202.281 54.6822C203.35 51.3719 206.372 48.8429 209.786 48.2467ZM210.402 52.1532C209.292 52.441 208.264 53.0784 207.524 53.9831C205.529 56.3682 205.653 60.2541 207.853 62.4747C209.107 63.7495 210.999 64.3457 212.746 63.9962C214.371 63.7083 215.789 62.6186 216.571 61.1794C217.928 58.7326 217.537 55.3607 215.46 53.4485C214.124 52.2149 212.171 51.7009 210.402 52.1532Z" fill="#FA7FC1"/>
<path d="M231.58 48.2467C234.685 47.6504 238.077 48.514 240.401 50.6934C244.184 54.086 244.595 60.4392 241.367 64.3458C239.414 66.8131 236.247 68.1701 233.122 68.0261C230.141 67.9439 227.201 66.4635 225.432 64.0168C223.438 61.3233 223.006 57.6224 224.137 54.4766C225.268 51.2691 228.229 48.8224 231.58 48.2467ZM232.197 52.1532C231.087 52.4411 230.058 53.0785 229.318 53.9626C227.344 56.3065 227.427 60.1308 229.544 62.3719C230.799 63.7084 232.752 64.3663 234.561 63.9962C236.165 63.6878 237.604 62.6187 238.386 61.1794C239.722 58.7121 239.331 55.3402 237.234 53.428C235.898 52.1944 233.944 51.7009 232.197 52.1532Z" fill="#FEAAD8"/>
<path d="M250.064 49.4393C252.429 47.9589 255.575 47.5477 258.124 48.8224C258.926 49.172 259.584 49.7682 260.221 50.3645C260.242 49.8094 260.221 49.2337 260.242 48.658C261.62 48.6785 262.997 48.658 264.395 48.6785V66.8131C264.375 69.5477 263.676 72.4467 261.702 74.4411C259.543 76.6411 256.233 77.3196 253.251 76.8673C250.064 76.3944 247.289 74.071 246.055 71.1308C247.289 70.5346 248.584 70.0617 249.859 69.5065C250.578 71.1925 252.038 72.6318 253.868 72.9607C255.698 73.2897 257.816 72.8374 259.008 71.3159C260.283 69.7533 260.283 67.615 260.221 65.7028C259.276 66.628 258.186 67.4505 256.87 67.7589C254.012 68.5608 250.866 67.5738 248.666 65.6411C246.446 63.7084 245.13 60.7271 245.253 57.7664C245.315 54.415 247.206 51.1869 250.064 49.4393ZM254.32 52.071C253.066 52.2766 251.894 52.9757 251.092 53.9421C249.16 56.2449 249.16 59.9252 251.113 62.1869C252.223 63.5234 254.012 64.2636 255.739 64.0785C257.363 63.914 258.864 62.886 259.666 61.4673C261.023 59.0617 260.797 55.7925 258.967 53.6953C257.836 52.4 256.027 51.7626 254.32 52.071Z" fill="#E365A9"/>
<path d="M277.225 50.4878C279.692 48.185 283.496 47.4037 286.662 48.6168C289.664 49.7476 291.576 52.6056 292.542 55.5458C288.081 57.3962 283.64 59.2261 279.178 61.0766C279.795 62.2486 280.741 63.3177 282.015 63.7495C283.804 64.3869 285.942 64.1607 287.443 62.9682C288.04 62.5158 288.513 61.9196 288.965 61.3439C290.096 62.1046 291.227 62.8448 292.357 63.6056C290.754 66.0112 288.06 67.6972 285.161 67.9644C281.954 68.3551 278.541 67.1215 276.464 64.613C273.051 60.6654 273.38 54.0448 277.225 50.4878ZM279.425 54.2915C278.726 55.299 278.438 56.5327 278.458 57.7458C281.44 56.5121 284.421 55.2785 287.402 54.0243C286.909 52.8729 285.716 52.1738 284.503 51.9887C282.55 51.6392 280.514 52.6878 279.425 54.2915Z" fill="#FA7FC1"/>
</svg>
