<svg width="462" height="152" viewBox="0 0 462 152" fill="none" xmlns="http://www.w3.org/2000/svg">
<rect x="0.5" y="0.5" width="461" height="151" rx="15.5" stroke="#FA7FC1"/>
<line x1="1" y1="20.5" x2="461" y2="20.5" stroke="#FA7FC1"/>
<circle cx="22" cy="11" r="4" fill="#3E86BA"/>
<circle cx="50" cy="11" r="4" fill="#3E86BA"/>
<circle cx="36" cy="11" r="4" fill="#3E86BA"/>
<rect x="21.5" y="86.5" width="419" height="39" stroke="#FA7FC1"/>
<path d="M27.36 104.308H28.212L28.92 109.66H29.028L30.084 104.308H31.14L32.196 109.66H32.304L33.012 104.308H33.84L32.892 110.5H31.644L30.66 105.316H30.564L29.556 110.5H28.308L27.36 104.308ZM36.9553 104.308H37.8073L38.5153 109.66H38.6233L39.6793 104.308H40.7353L41.7913 109.66H41.8993L42.6073 104.308H43.4353L42.4873 110.5H41.2393L40.2553 105.316H40.1593L39.1513 110.5H37.9033L36.9553 104.308ZM46.5506 104.308H47.4026L48.1106 109.66H48.2186L49.2746 104.308H50.3306L51.3866 109.66H51.4946L52.2026 104.308H53.0306L52.0826 110.5H50.8346L49.8506 105.316H49.7546L48.7466 110.5H47.4986L46.5506 104.308ZM59.3859 110.608C59.0579 110.608 58.8259 110.54 58.6899 110.404C58.5619 110.268 58.4979 110.096 58.4979 109.888V109.672C58.4979 109.464 58.5619 109.292 58.6899 109.156C58.8259 109.02 59.0579 108.952 59.3859 108.952C59.7139 108.952 59.9419 109.02 60.0699 109.156C60.2059 109.292 60.2739 109.464 60.2739 109.672V109.888C60.2739 110.096 60.2059 110.268 60.0699 110.404C59.9419 110.54 59.7139 110.608 59.3859 110.608ZM66.3772 109.684H68.4652V105.124H66.2572V104.308H68.4652V103.036C68.4652 102.62 68.5732 102.28 68.7892 102.016C69.0132 101.752 69.3612 101.62 69.8332 101.62H71.9092V102.436H69.4252V104.308H71.9092V105.124H69.4252V109.684H71.6332V110.5H66.3772V109.684ZM75.9006 109.684H77.7126V105.124H75.9006V104.308H78.6726V105.868H78.7326C78.8606 105.38 79.1006 105 79.4526 104.728C79.8126 104.448 80.2686 104.308 80.8206 104.308H81.6846V105.268H80.5206C79.9686 105.268 79.5206 105.428 79.1766 105.748C78.8406 106.068 78.6726 106.488 78.6726 107.008V109.684H81.0726V110.5H75.9006V109.684ZM88.2799 110.644C87.8319 110.644 87.4279 110.568 87.0679 110.416C86.7159 110.264 86.4119 110.048 86.1559 109.768C85.9079 109.48 85.7159 109.14 85.5799 108.748C85.4439 108.348 85.3759 107.904 85.3759 107.416C85.3759 106.92 85.4439 106.472 85.5799 106.072C85.7239 105.672 85.9199 105.332 86.1679 105.052C86.4159 104.764 86.7119 104.544 87.0559 104.392C87.4079 104.24 87.7959 104.164 88.2199 104.164C88.6359 104.164 89.0119 104.24 89.3479 104.392C89.6919 104.544 89.9839 104.756 90.2239 105.028C90.4639 105.292 90.6479 105.608 90.7759 105.976C90.9039 106.344 90.9679 106.748 90.9679 107.188V107.644H86.3839V107.932C86.3839 108.204 86.4279 108.456 86.5159 108.688C86.6039 108.92 86.7279 109.12 86.8879 109.288C87.0559 109.456 87.2559 109.588 87.4879 109.684C87.7279 109.772 87.9919 109.816 88.2799 109.816C88.6959 109.816 89.0559 109.72 89.3599 109.528C89.6639 109.336 89.8959 109.072 90.0559 108.736L90.7639 109.216C90.5799 109.632 90.2719 109.976 89.8399 110.248C89.4159 110.512 88.8959 110.644 88.2799 110.644ZM88.2199 104.956C87.9559 104.956 87.7119 105.004 87.4879 105.1C87.2639 105.196 87.0679 105.328 86.8999 105.496C86.7399 105.664 86.6119 105.864 86.5159 106.096C86.4279 106.32 86.3839 106.568 86.3839 106.84V106.924H89.9359V106.792C89.9359 106.52 89.8919 106.272 89.8039 106.048C89.7239 105.824 89.6079 105.632 89.4559 105.472C89.3119 105.304 89.1319 105.176 88.9159 105.088C88.7079 105 88.4759 104.956 88.2199 104.956ZM99.2672 109.492H99.2192C98.8192 110.26 98.1832 110.644 97.3112 110.644C96.5512 110.644 95.9552 110.36 95.5232 109.792C95.0992 109.224 94.8872 108.428 94.8872 107.404C94.8872 106.38 95.0992 105.584 95.5232 105.016C95.9552 104.448 96.5512 104.164 97.3112 104.164C98.1832 104.164 98.8192 104.548 99.2192 105.316H99.2672V101.62H100.227V110.5H99.2672V109.492ZM97.6832 109.792C97.8992 109.792 98.1032 109.764 98.2952 109.708C98.4872 109.652 98.6552 109.572 98.7992 109.468C98.9432 109.356 99.0552 109.224 99.1352 109.072C99.2232 108.912 99.2672 108.728 99.2672 108.52V106.288C99.2672 106.08 99.2232 105.9 99.1352 105.748C99.0552 105.588 98.9432 105.456 98.7992 105.352C98.6552 105.24 98.4872 105.156 98.2952 105.1C98.1032 105.044 97.8992 105.016 97.6832 105.016C97.1232 105.016 96.6872 105.188 96.3752 105.532C96.0712 105.868 95.9192 106.316 95.9192 106.876V107.932C95.9192 108.492 96.0712 108.944 96.3752 109.288C96.6872 109.624 97.1232 109.792 97.6832 109.792ZM107.47 110.644C107.022 110.644 106.618 110.568 106.258 110.416C105.906 110.264 105.602 110.048 105.346 109.768C105.098 109.48 104.906 109.14 104.77 108.748C104.634 108.348 104.566 107.904 104.566 107.416C104.566 106.92 104.634 106.472 104.77 106.072C104.914 105.672 105.11 105.332 105.358 105.052C105.606 104.764 105.902 104.544 106.246 104.392C106.598 104.24 106.986 104.164 107.41 104.164C107.826 104.164 108.202 104.24 108.538 104.392C108.882 104.544 109.174 104.756 109.414 105.028C109.654 105.292 109.838 105.608 109.966 105.976C110.094 106.344 110.158 106.748 110.158 107.188V107.644H105.574V107.932C105.574 108.204 105.618 108.456 105.706 108.688C105.794 108.92 105.918 109.12 106.078 109.288C106.246 109.456 106.446 109.588 106.678 109.684C106.918 109.772 107.182 109.816 107.47 109.816C107.886 109.816 108.246 109.72 108.55 109.528C108.854 109.336 109.086 109.072 109.246 108.736L109.954 109.216C109.77 109.632 109.462 109.976 109.03 110.248C108.606 110.512 108.086 110.644 107.47 110.644ZM107.41 104.956C107.146 104.956 106.902 105.004 106.678 105.1C106.454 105.196 106.258 105.328 106.09 105.496C105.93 105.664 105.802 105.864 105.706 106.096C105.618 106.32 105.574 106.568 105.574 106.84V106.924H109.126V106.792C109.126 106.52 109.082 106.272 108.994 106.048C108.914 105.824 108.798 105.632 108.646 105.472C108.502 105.304 108.322 105.176 108.106 105.088C107.898 105 107.666 104.956 107.41 104.956ZM114.282 109.684H116.094V105.124H114.282V104.308H117.054V105.868H117.114C117.242 105.38 117.482 105 117.834 104.728C118.194 104.448 118.65 104.308 119.202 104.308H120.066V105.268H118.902C118.35 105.268 117.902 105.428 117.558 105.748C117.222 106.068 117.054 106.488 117.054 107.008V109.684H119.454V110.5H114.282V109.684ZM126.937 102.94C126.657 102.94 126.461 102.884 126.349 102.772C126.237 102.652 126.181 102.504 126.181 102.328V102.136C126.181 101.96 126.237 101.816 126.349 101.704C126.461 101.584 126.657 101.524 126.937 101.524C127.217 101.524 127.413 101.584 127.525 101.704C127.637 101.816 127.693 101.96 127.693 102.136V102.328C127.693 102.504 127.637 102.652 127.525 102.772C127.413 102.884 127.217 102.94 126.937 102.94ZM124.225 109.684H126.457V105.124H124.225V104.308H127.417V109.684H129.505V110.5H124.225V109.684ZM133.808 101.62H134.768V107.224H134.816L135.896 106.204L137.96 104.308H139.136L136.568 106.732L139.436 110.5H138.248L135.836 107.284L134.768 108.256V110.5H133.808V101.62ZM143.404 101.62H144.364V107.224H144.412L145.492 106.204L147.556 104.308H148.732L146.164 106.732L149.032 110.5H147.844L145.432 107.284L144.364 108.256V110.5H143.404V101.62ZM155.447 110.644C154.999 110.644 154.595 110.568 154.235 110.416C153.883 110.264 153.579 110.048 153.323 109.768C153.075 109.48 152.883 109.14 152.747 108.748C152.611 108.348 152.543 107.904 152.543 107.416C152.543 106.92 152.611 106.472 152.747 106.072C152.891 105.672 153.087 105.332 153.335 105.052C153.583 104.764 153.879 104.544 154.223 104.392C154.575 104.24 154.963 104.164 155.387 104.164C155.803 104.164 156.179 104.24 156.515 104.392C156.859 104.544 157.151 104.756 157.391 105.028C157.631 105.292 157.815 105.608 157.943 105.976C158.071 106.344 158.135 106.748 158.135 107.188V107.644H153.551V107.932C153.551 108.204 153.595 108.456 153.683 108.688C153.771 108.92 153.895 109.12 154.055 109.288C154.223 109.456 154.423 109.588 154.655 109.684C154.895 109.772 155.159 109.816 155.447 109.816C155.863 109.816 156.223 109.72 156.527 109.528C156.831 109.336 157.063 109.072 157.223 108.736L157.931 109.216C157.747 109.632 157.439 109.976 157.007 110.248C156.583 110.512 156.063 110.644 155.447 110.644ZM155.387 104.956C155.123 104.956 154.879 105.004 154.655 105.1C154.431 105.196 154.235 105.328 154.067 105.496C153.907 105.664 153.779 105.864 153.683 106.096C153.595 106.32 153.551 106.568 153.551 106.84V106.924H157.103V106.792C157.103 106.52 157.059 106.272 156.971 106.048C156.891 105.824 156.775 105.632 156.623 105.472C156.479 105.304 156.299 105.176 156.083 105.088C155.875 105 155.643 104.956 155.387 104.956ZM161.982 110.5V104.308H162.87V105.028H162.918C163.014 104.788 163.15 104.584 163.326 104.416C163.502 104.248 163.762 104.164 164.106 104.164C164.466 104.164 164.734 104.256 164.91 104.44C165.086 104.616 165.194 104.848 165.234 105.136H165.27C165.382 104.856 165.542 104.624 165.75 104.44C165.958 104.256 166.246 104.164 166.614 104.164C167.118 104.164 167.454 104.34 167.622 104.692C167.798 105.044 167.886 105.548 167.886 106.204V110.5H166.998V106.36C166.998 105.832 166.942 105.468 166.83 105.268C166.726 105.06 166.53 104.956 166.242 104.956C165.986 104.956 165.778 105.04 165.618 105.208C165.458 105.368 165.378 105.616 165.378 105.952V110.5H164.49V106.36C164.49 105.832 164.434 105.468 164.322 105.268C164.218 105.06 164.026 104.956 163.746 104.956C163.49 104.956 163.278 105.04 163.11 105.208C162.95 105.368 162.87 105.616 162.87 105.952V110.5H161.982ZM174.638 110.644C174.19 110.644 173.786 110.568 173.426 110.416C173.074 110.264 172.77 110.048 172.514 109.768C172.266 109.48 172.074 109.14 171.938 108.748C171.802 108.348 171.734 107.904 171.734 107.416C171.734 106.92 171.802 106.472 171.938 106.072C172.082 105.672 172.278 105.332 172.526 105.052C172.774 104.764 173.07 104.544 173.414 104.392C173.766 104.24 174.154 104.164 174.578 104.164C174.994 104.164 175.37 104.24 175.706 104.392C176.05 104.544 176.342 104.756 176.582 105.028C176.822 105.292 177.006 105.608 177.134 105.976C177.262 106.344 177.326 106.748 177.326 107.188V107.644H172.742V107.932C172.742 108.204 172.786 108.456 172.874 108.688C172.962 108.92 173.086 109.12 173.246 109.288C173.414 109.456 173.614 109.588 173.846 109.684C174.086 109.772 174.35 109.816 174.638 109.816C175.054 109.816 175.414 109.72 175.718 109.528C176.022 109.336 176.254 109.072 176.414 108.736L177.122 109.216C176.938 109.632 176.63 109.976 176.198 110.248C175.774 110.512 175.254 110.644 174.638 110.644ZM174.578 104.956C174.314 104.956 174.07 105.004 173.846 105.1C173.622 105.196 173.426 105.328 173.258 105.496C173.098 105.664 172.97 105.864 172.874 106.096C172.786 106.32 172.742 106.568 172.742 106.84V106.924H176.294V106.792C176.294 106.52 176.25 106.272 176.162 106.048C176.082 105.824 175.966 105.632 175.814 105.472C175.67 105.304 175.49 105.176 175.274 105.088C175.066 105 174.834 104.956 174.578 104.956ZM181.749 112.084H184.749V105.124H181.641V104.308H185.709V111.484C185.709 111.9 185.597 112.24 185.373 112.504C185.157 112.768 184.813 112.9 184.341 112.9H181.749V112.084ZM185.229 102.94C184.949 102.94 184.753 102.884 184.641 102.772C184.529 102.652 184.473 102.504 184.473 102.328V102.136C184.473 101.96 184.529 101.816 184.641 101.704C184.753 101.584 184.949 101.524 185.229 101.524C185.509 101.524 185.705 101.584 185.817 101.704C185.929 101.816 185.985 101.96 185.985 102.136V102.328C185.985 102.504 185.929 102.652 185.817 102.772C185.705 102.884 185.509 102.94 185.229 102.94ZM191.08 109.684H193.24V102.436H191.08V101.62H194.2V109.684H196.36V110.5H191.08V109.684ZM202.704 110.5L200.484 104.308H201.456L202.344 106.9L203.304 109.696H203.352L204.312 106.9L205.2 104.308H206.148L203.928 110.5H202.704ZM215.251 110.5C214.875 110.5 214.607 110.404 214.447 110.212C214.287 110.02 214.187 109.78 214.147 109.492H214.087C213.951 109.852 213.731 110.136 213.427 110.344C213.131 110.544 212.731 110.644 212.227 110.644C211.579 110.644 211.063 110.476 210.679 110.14C210.295 109.804 210.103 109.344 210.103 108.76C210.103 108.184 210.311 107.74 210.727 107.428C211.151 107.116 211.831 106.96 212.767 106.96H214.087V106.348C214.087 105.892 213.959 105.552 213.703 105.328C213.447 105.096 213.083 104.98 212.611 104.98C212.195 104.98 211.855 105.064 211.591 105.232C211.327 105.392 211.115 105.612 210.955 105.892L210.307 105.412C210.387 105.252 210.495 105.096 210.631 104.944C210.767 104.792 210.935 104.66 211.135 104.548C211.335 104.428 211.563 104.336 211.819 104.272C212.075 104.2 212.359 104.164 212.671 104.164C213.399 104.164 213.975 104.348 214.399 104.716C214.831 105.084 215.047 105.596 215.047 106.252V109.66H215.911V110.5H215.251ZM212.395 109.84C212.643 109.84 212.867 109.812 213.067 109.756C213.275 109.692 213.455 109.612 213.607 109.516C213.759 109.412 213.875 109.292 213.955 109.156C214.043 109.012 214.087 108.86 214.087 108.7V107.68H212.767C212.191 107.68 211.771 107.76 211.507 107.92C211.243 108.08 211.111 108.312 211.111 108.616V108.868C211.111 109.188 211.223 109.432 211.447 109.6C211.679 109.76 211.995 109.84 212.395 109.84ZM220.082 110.5V104.308H221.042V105.316H221.09C221.154 105.164 221.234 105.02 221.33 104.884C221.426 104.74 221.542 104.616 221.678 104.512C221.822 104.408 221.99 104.324 222.182 104.26C222.374 104.196 222.598 104.164 222.854 104.164C223.502 104.164 224.022 104.372 224.414 104.788C224.806 105.196 225.002 105.776 225.002 106.528V110.5H224.042V106.696C224.042 106.128 223.918 105.708 223.67 105.436C223.422 105.156 223.058 105.016 222.578 105.016C222.386 105.016 222.198 105.04 222.014 105.088C221.83 105.136 221.666 105.208 221.522 105.304C221.378 105.4 221.262 105.524 221.174 105.676C221.086 105.828 221.042 106.004 221.042 106.204V110.5H220.082ZM235.234 111.208C235.234 111.832 234.974 112.292 234.454 112.588C233.934 112.892 233.154 113.044 232.114 113.044C231.114 113.044 230.394 112.912 229.954 112.648C229.522 112.384 229.306 112.004 229.306 111.508C229.306 111.172 229.394 110.912 229.57 110.728C229.746 110.544 229.994 110.408 230.314 110.32V110.176C230.138 110.088 230.002 109.976 229.906 109.84C229.81 109.704 229.762 109.532 229.762 109.324C229.762 109.004 229.866 108.764 230.074 108.604C230.29 108.444 230.558 108.324 230.878 108.244V108.196C230.494 108.028 230.194 107.78 229.978 107.452C229.77 107.124 229.666 106.74 229.666 106.3C229.666 105.988 229.722 105.7 229.834 105.436C229.946 105.172 230.106 104.948 230.314 104.764C230.53 104.572 230.786 104.424 231.082 104.32C231.378 104.216 231.706 104.164 232.066 104.164C232.53 104.164 232.938 104.248 233.29 104.416V104.308C233.29 104.068 233.346 103.868 233.458 103.708C233.57 103.548 233.762 103.468 234.034 103.468H235.174V104.308H233.782V104.728C234.006 104.92 234.178 105.148 234.298 105.412C234.418 105.676 234.478 105.972 234.478 106.3C234.478 106.612 234.418 106.9 234.298 107.164C234.186 107.428 234.026 107.656 233.818 107.848C233.61 108.032 233.354 108.176 233.05 108.28C232.754 108.384 232.426 108.436 232.066 108.436C231.962 108.436 231.862 108.432 231.766 108.424C231.67 108.416 231.574 108.404 231.478 108.388C231.382 108.404 231.282 108.432 231.178 108.472C231.074 108.504 230.978 108.552 230.89 108.616C230.802 108.672 230.73 108.74 230.674 108.82C230.618 108.9 230.59 108.992 230.59 109.096C230.59 109.28 230.682 109.404 230.866 109.468C231.05 109.524 231.29 109.552 231.586 109.552H232.954C233.754 109.552 234.334 109.704 234.694 110.008C235.054 110.304 235.234 110.704 235.234 111.208ZM234.334 111.256C234.334 111.008 234.234 110.808 234.034 110.656C233.834 110.512 233.486 110.44 232.99 110.44H230.842C230.426 110.608 230.218 110.888 230.218 111.28C230.218 111.552 230.326 111.784 230.542 111.976C230.758 112.176 231.118 112.276 231.622 112.276H232.558C233.118 112.276 233.554 112.188 233.866 112.012C234.178 111.844 234.334 111.592 234.334 111.256ZM232.066 107.692C232.546 107.692 232.898 107.58 233.122 107.356C233.354 107.132 233.47 106.836 233.47 106.468V106.12C233.47 105.752 233.354 105.46 233.122 105.244C232.898 105.02 232.546 104.908 232.066 104.908C231.586 104.908 231.234 105.02 231.01 105.244C230.786 105.46 230.674 105.752 230.674 106.12V106.468C230.674 106.836 230.786 107.132 231.01 107.356C231.234 107.58 231.586 107.692 232.066 107.692ZM241.697 110.608C241.369 110.608 241.137 110.54 241.001 110.404C240.873 110.268 240.809 110.096 240.809 109.888V109.672C240.809 109.464 240.873 109.292 241.001 109.156C241.137 109.02 241.369 108.952 241.697 108.952C242.025 108.952 242.253 109.02 242.381 109.156C242.517 109.292 242.585 109.464 242.585 109.672V109.888C242.585 110.096 242.517 110.268 242.381 110.404C242.253 110.54 242.025 110.608 241.697 110.608ZM252.792 109.492H252.744C252.344 110.26 251.708 110.644 250.836 110.644C250.076 110.644 249.48 110.36 249.048 109.792C248.624 109.224 248.412 108.428 248.412 107.404C248.412 106.38 248.624 105.584 249.048 105.016C249.48 104.448 250.076 104.164 250.836 104.164C251.708 104.164 252.344 104.548 252.744 105.316H252.792V101.62H253.752V110.5H252.792V109.492ZM251.208 109.792C251.424 109.792 251.628 109.764 251.82 109.708C252.012 109.652 252.18 109.572 252.324 109.468C252.468 109.356 252.58 109.224 252.66 109.072C252.748 108.912 252.792 108.728 252.792 108.52V106.288C252.792 106.08 252.748 105.9 252.66 105.748C252.58 105.588 252.468 105.456 252.324 105.352C252.18 105.24 252.012 105.156 251.82 105.1C251.628 105.044 251.424 105.016 251.208 105.016C250.648 105.016 250.212 105.188 249.9 105.532C249.596 105.868 249.444 106.316 249.444 106.876V107.932C249.444 108.492 249.596 108.944 249.9 109.288C250.212 109.624 250.648 109.792 251.208 109.792ZM258.548 101.62H259.508V107.224H259.556L260.636 106.204L262.7 104.308H263.876L261.308 106.732L264.176 110.5H262.988L260.576 107.284L259.508 108.256V110.5H258.548V101.62ZM267.963 112.156L272.139 101.38H273.003L268.827 112.156H267.963ZM277.558 110.5V102.124H280.606C281.382 102.124 281.974 102.336 282.382 102.76C282.79 103.184 282.994 103.776 282.994 104.536C282.994 105.296 282.79 105.888 282.382 106.312C281.974 106.736 281.382 106.948 280.606 106.948H278.566V110.5H277.558ZM278.566 106.072H280.582C281.006 106.072 281.334 105.968 281.566 105.76C281.806 105.544 281.926 105.24 281.926 104.848V104.224C281.926 103.832 281.806 103.532 281.566 103.324C281.334 103.108 281.006 103 280.582 103H278.566V106.072ZM292.013 110.5C291.637 110.5 291.369 110.404 291.209 110.212C291.049 110.02 290.949 109.78 290.909 109.492H290.849C290.713 109.852 290.493 110.136 290.189 110.344C289.893 110.544 289.493 110.644 288.989 110.644C288.341 110.644 287.825 110.476 287.441 110.14C287.057 109.804 286.865 109.344 286.865 108.76C286.865 108.184 287.073 107.74 287.489 107.428C287.913 107.116 288.593 106.96 289.529 106.96H290.849V106.348C290.849 105.892 290.721 105.552 290.465 105.328C290.209 105.096 289.845 104.98 289.373 104.98C288.957 104.98 288.617 105.064 288.353 105.232C288.089 105.392 287.877 105.612 287.717 105.892L287.069 105.412C287.149 105.252 287.257 105.096 287.393 104.944C287.529 104.792 287.697 104.66 287.897 104.548C288.097 104.428 288.325 104.336 288.581 104.272C288.837 104.2 289.121 104.164 289.433 104.164C290.161 104.164 290.737 104.348 291.161 104.716C291.593 105.084 291.809 105.596 291.809 106.252V109.66H292.673V110.5H292.013ZM289.157 109.84C289.405 109.84 289.629 109.812 289.829 109.756C290.037 109.692 290.217 109.612 290.369 109.516C290.521 109.412 290.637 109.292 290.717 109.156C290.805 109.012 290.849 108.86 290.849 108.7V107.68H289.529C288.953 107.68 288.533 107.76 288.269 107.92C288.005 108.08 287.873 108.312 287.873 108.616V108.868C287.873 109.188 287.985 109.432 288.209 109.6C288.441 109.76 288.757 109.84 289.157 109.84ZM299.341 110.644C298.693 110.644 298.133 110.536 297.661 110.32C297.197 110.096 296.801 109.8 296.473 109.432L297.121 108.868C297.417 109.18 297.741 109.42 298.093 109.588C298.445 109.756 298.869 109.84 299.365 109.84C299.845 109.84 300.237 109.756 300.541 109.588C300.853 109.412 301.009 109.14 301.009 108.772C301.009 108.612 300.977 108.48 300.913 108.376C300.857 108.264 300.777 108.176 300.673 108.112C300.569 108.048 300.453 108 300.325 107.968C300.197 107.928 300.061 107.896 299.917 107.872L298.945 107.728C298.729 107.696 298.493 107.652 298.237 107.596C297.989 107.54 297.761 107.452 297.553 107.332C297.345 107.204 297.169 107.036 297.025 106.828C296.889 106.62 296.821 106.348 296.821 106.012C296.821 105.7 296.881 105.432 297.001 105.208C297.129 104.976 297.305 104.784 297.529 104.632C297.753 104.472 298.017 104.356 298.321 104.284C298.625 104.204 298.957 104.164 299.317 104.164C299.877 104.164 300.361 104.252 300.769 104.428C301.185 104.604 301.541 104.848 301.837 105.16L301.213 105.748C301.141 105.66 301.049 105.572 300.937 105.484C300.833 105.388 300.701 105.304 300.541 105.232C300.389 105.152 300.209 105.088 300.001 105.04C299.793 104.992 299.553 104.968 299.281 104.968C298.793 104.968 298.417 105.052 298.153 105.22C297.897 105.388 297.769 105.632 297.769 105.952C297.769 106.112 297.797 106.248 297.853 106.36C297.917 106.464 298.001 106.548 298.105 106.612C298.209 106.676 298.325 106.728 298.453 106.768C298.589 106.8 298.725 106.828 298.861 106.852L299.833 106.996C300.057 107.028 300.293 107.072 300.541 107.128C300.789 107.184 301.017 107.276 301.225 107.404C301.433 107.524 301.605 107.688 301.741 107.896C301.885 108.104 301.957 108.376 301.957 108.712C301.957 109.328 301.717 109.804 301.237 110.14C300.765 110.476 300.133 110.644 299.341 110.644ZM308.936 110.644C308.288 110.644 307.728 110.536 307.256 110.32C306.792 110.096 306.396 109.8 306.068 109.432L306.716 108.868C307.012 109.18 307.336 109.42 307.688 109.588C308.04 109.756 308.464 109.84 308.96 109.84C309.44 109.84 309.832 109.756 310.136 109.588C310.448 109.412 310.604 109.14 310.604 108.772C310.604 108.612 310.572 108.48 310.508 108.376C310.452 108.264 310.372 108.176 310.268 108.112C310.164 108.048 310.048 108 309.92 107.968C309.792 107.928 309.656 107.896 309.512 107.872L308.54 107.728C308.324 107.696 308.088 107.652 307.832 107.596C307.584 107.54 307.356 107.452 307.148 107.332C306.94 107.204 306.764 107.036 306.62 106.828C306.484 106.62 306.416 106.348 306.416 106.012C306.416 105.7 306.476 105.432 306.596 105.208C306.724 104.976 306.9 104.784 307.124 104.632C307.348 104.472 307.612 104.356 307.916 104.284C308.22 104.204 308.552 104.164 308.912 104.164C309.472 104.164 309.956 104.252 310.364 104.428C310.78 104.604 311.136 104.848 311.432 105.16L310.808 105.748C310.736 105.66 310.644 105.572 310.532 105.484C310.428 105.388 310.296 105.304 310.136 105.232C309.984 105.152 309.804 105.088 309.596 105.04C309.388 104.992 309.148 104.968 308.876 104.968C308.388 104.968 308.012 105.052 307.748 105.22C307.492 105.388 307.364 105.632 307.364 105.952C307.364 106.112 307.392 106.248 307.448 106.36C307.512 106.464 307.596 106.548 307.7 106.612C307.804 106.676 307.92 106.728 308.048 106.768C308.184 106.8 308.32 106.828 308.456 106.852L309.428 106.996C309.652 107.028 309.888 107.072 310.136 107.128C310.384 107.184 310.612 107.276 310.82 107.404C311.028 107.524 311.2 107.688 311.336 107.896C311.48 108.104 311.552 108.376 311.552 108.712C311.552 109.328 311.312 109.804 310.832 110.14C310.36 110.476 309.728 110.644 308.936 110.644ZM318.843 102.94C318.563 102.94 318.367 102.884 318.255 102.772C318.143 102.652 318.087 102.504 318.087 102.328V102.136C318.087 101.96 318.143 101.816 318.255 101.704C318.367 101.584 318.563 101.524 318.843 101.524C319.123 101.524 319.319 101.584 319.431 101.704C319.543 101.816 319.599 101.96 319.599 102.136V102.328C319.599 102.504 319.543 102.652 319.431 102.772C319.319 102.884 319.123 102.94 318.843 102.94ZM316.131 109.684H318.363V105.124H316.131V104.308H319.323V109.684H321.411V110.5H316.131V109.684ZM328.055 110.644C327.623 110.644 327.231 110.568 326.879 110.416C326.535 110.264 326.239 110.048 325.991 109.768C325.751 109.48 325.567 109.14 325.439 108.748C325.311 108.348 325.247 107.9 325.247 107.404C325.247 106.916 325.311 106.472 325.439 106.072C325.567 105.672 325.751 105.332 325.991 105.052C326.239 104.764 326.535 104.544 326.879 104.392C327.231 104.24 327.623 104.164 328.055 104.164C328.487 104.164 328.875 104.24 329.219 104.392C329.571 104.544 329.867 104.764 330.107 105.052C330.355 105.332 330.543 105.672 330.671 106.072C330.799 106.472 330.863 106.916 330.863 107.404C330.863 107.9 330.799 108.348 330.671 108.748C330.543 109.14 330.355 109.48 330.107 109.768C329.867 110.048 329.571 110.264 329.219 110.416C328.875 110.568 328.487 110.644 328.055 110.644ZM328.055 109.816C328.591 109.816 329.023 109.656 329.351 109.336C329.679 109.016 329.843 108.52 329.843 107.848V106.96C329.843 106.288 329.679 105.792 329.351 105.472C329.023 105.152 328.591 104.992 328.055 104.992C327.519 104.992 327.087 105.152 326.759 105.472C326.431 105.792 326.267 106.288 326.267 106.96V107.848C326.267 108.52 326.431 109.016 326.759 109.336C327.087 109.656 327.519 109.816 328.055 109.816ZM335.226 110.5V104.308H336.186V105.316H336.234C336.298 105.164 336.378 105.02 336.474 104.884C336.57 104.74 336.686 104.616 336.822 104.512C336.966 104.408 337.134 104.324 337.326 104.26C337.518 104.196 337.742 104.164 337.998 104.164C338.646 104.164 339.166 104.372 339.558 104.788C339.95 105.196 340.146 105.776 340.146 106.528V110.5H339.186V106.696C339.186 106.128 339.062 105.708 338.814 105.436C338.566 105.156 338.202 105.016 337.722 105.016C337.53 105.016 337.342 105.04 337.158 105.088C336.974 105.136 336.81 105.208 336.666 105.304C336.522 105.4 336.406 105.524 336.318 105.676C336.23 105.828 336.186 106.004 336.186 106.204V110.5H335.226ZM347.317 110.644C346.669 110.644 346.109 110.536 345.637 110.32C345.173 110.096 344.777 109.8 344.449 109.432L345.097 108.868C345.393 109.18 345.717 109.42 346.069 109.588C346.421 109.756 346.845 109.84 347.341 109.84C347.821 109.84 348.213 109.756 348.517 109.588C348.829 109.412 348.985 109.14 348.985 108.772C348.985 108.612 348.953 108.48 348.889 108.376C348.833 108.264 348.753 108.176 348.649 108.112C348.545 108.048 348.429 108 348.301 107.968C348.173 107.928 348.037 107.896 347.893 107.872L346.921 107.728C346.705 107.696 346.469 107.652 346.213 107.596C345.965 107.54 345.737 107.452 345.529 107.332C345.321 107.204 345.145 107.036 345.001 106.828C344.865 106.62 344.797 106.348 344.797 106.012C344.797 105.7 344.857 105.432 344.977 105.208C345.105 104.976 345.281 104.784 345.505 104.632C345.729 104.472 345.993 104.356 346.297 104.284C346.601 104.204 346.933 104.164 347.293 104.164C347.853 104.164 348.337 104.252 348.745 104.428C349.161 104.604 349.517 104.848 349.813 105.16L349.189 105.748C349.117 105.66 349.025 105.572 348.913 105.484C348.809 105.388 348.677 105.304 348.517 105.232C348.365 105.152 348.185 105.088 347.977 105.04C347.769 104.992 347.529 104.968 347.257 104.968C346.769 104.968 346.393 105.052 346.129 105.22C345.873 105.388 345.745 105.632 345.745 105.952C345.745 106.112 345.773 106.248 345.829 106.36C345.893 106.464 345.977 106.548 346.081 106.612C346.185 106.676 346.301 106.728 346.429 106.768C346.565 106.8 346.701 106.828 346.837 106.852L347.809 106.996C348.033 107.028 348.269 107.072 348.517 107.128C348.765 107.184 348.993 107.276 349.201 107.404C349.409 107.524 349.581 107.688 349.717 107.896C349.861 108.104 349.933 108.376 349.933 108.712C349.933 109.328 349.693 109.804 349.213 110.14C348.741 110.476 348.109 110.644 347.317 110.644ZM356.913 110.644C356.265 110.644 355.705 110.536 355.233 110.32C354.769 110.096 354.373 109.8 354.045 109.432L354.693 108.868C354.989 109.18 355.313 109.42 355.665 109.588C356.017 109.756 356.441 109.84 356.937 109.84C357.417 109.84 357.809 109.756 358.113 109.588C358.425 109.412 358.581 109.14 358.581 108.772C358.581 108.612 358.549 108.48 358.485 108.376C358.429 108.264 358.349 108.176 358.245 108.112C358.141 108.048 358.025 108 357.897 107.968C357.769 107.928 357.633 107.896 357.489 107.872L356.517 107.728C356.301 107.696 356.065 107.652 355.809 107.596C355.561 107.54 355.333 107.452 355.125 107.332C354.917 107.204 354.741 107.036 354.597 106.828C354.461 106.62 354.393 106.348 354.393 106.012C354.393 105.7 354.453 105.432 354.573 105.208C354.701 104.976 354.877 104.784 355.101 104.632C355.325 104.472 355.589 104.356 355.893 104.284C356.197 104.204 356.529 104.164 356.889 104.164C357.449 104.164 357.933 104.252 358.341 104.428C358.757 104.604 359.113 104.848 359.409 105.16L358.785 105.748C358.713 105.66 358.621 105.572 358.509 105.484C358.405 105.388 358.273 105.304 358.113 105.232C357.961 105.152 357.781 105.088 357.573 105.04C357.365 104.992 357.125 104.968 356.853 104.968C356.365 104.968 355.989 105.052 355.725 105.22C355.469 105.388 355.341 105.632 355.341 105.952C355.341 106.112 355.369 106.248 355.425 106.36C355.489 106.464 355.573 106.548 355.677 106.612C355.781 106.676 355.897 106.728 356.025 106.768C356.161 106.8 356.297 106.828 356.433 106.852L357.405 106.996C357.629 107.028 357.865 107.072 358.113 107.128C358.361 107.184 358.589 107.276 358.797 107.404C359.005 107.524 359.177 107.688 359.313 107.896C359.457 108.104 359.529 108.376 359.529 108.712C359.529 109.328 359.289 109.804 358.809 110.14C358.337 110.476 357.705 110.644 356.913 110.644ZM366.82 102.94C366.54 102.94 366.344 102.884 366.232 102.772C366.12 102.652 366.064 102.504 366.064 102.328V102.136C366.064 101.96 366.12 101.816 366.232 101.704C366.344 101.584 366.54 101.524 366.82 101.524C367.1 101.524 367.296 101.584 367.408 101.704C367.52 101.816 367.576 101.96 367.576 102.136V102.328C367.576 102.504 367.52 102.652 367.408 102.772C367.296 102.884 367.1 102.94 366.82 102.94ZM364.108 109.684H366.34V105.124H364.108V104.308H367.3V109.684H369.388V110.5H364.108V109.684ZM376.331 110.5C375.859 110.5 375.511 110.368 375.287 110.104C375.071 109.84 374.963 109.5 374.963 109.084V105.124H372.899V104.308H374.435C374.643 104.308 374.787 104.268 374.867 104.188C374.955 104.1 374.999 103.952 374.999 103.744V102.124H375.923V104.308H378.743V105.124H375.923V109.684H378.743V110.5H376.331ZM385.735 110.644C385.287 110.644 384.883 110.568 384.523 110.416C384.171 110.264 383.867 110.048 383.611 109.768C383.363 109.48 383.171 109.14 383.035 108.748C382.899 108.348 382.831 107.904 382.831 107.416C382.831 106.92 382.899 106.472 383.035 106.072C383.179 105.672 383.375 105.332 383.623 105.052C383.871 104.764 384.167 104.544 384.511 104.392C384.863 104.24 385.251 104.164 385.675 104.164C386.091 104.164 386.467 104.24 386.803 104.392C387.147 104.544 387.439 104.756 387.679 105.028C387.919 105.292 388.103 105.608 388.231 105.976C388.359 106.344 388.423 106.748 388.423 107.188V107.644H383.839V107.932C383.839 108.204 383.883 108.456 383.971 108.688C384.059 108.92 384.183 109.12 384.343 109.288C384.511 109.456 384.711 109.588 384.943 109.684C385.183 109.772 385.447 109.816 385.735 109.816C386.151 109.816 386.511 109.72 386.815 109.528C387.119 109.336 387.351 109.072 387.511 108.736L388.219 109.216C388.035 109.632 387.727 109.976 387.295 110.248C386.871 110.512 386.351 110.644 385.735 110.644ZM385.675 104.956C385.411 104.956 385.167 105.004 384.943 105.1C384.719 105.196 384.523 105.328 384.355 105.496C384.195 105.664 384.067 105.864 383.971 106.096C383.883 106.32 383.839 106.568 383.839 106.84V106.924H387.391V106.792C387.391 106.52 387.347 106.272 387.259 106.048C387.179 105.824 387.063 105.632 386.911 105.472C386.767 105.304 386.587 105.176 386.371 105.088C386.163 105 385.931 104.956 385.675 104.956Z" fill="black"/>
<path d="M185.092 37H186.182C189.965 37.0822 193.687 38.6037 196.359 41.2972C195.373 42.3047 194.365 43.271 193.399 44.2785C191.898 42.9215 190.088 41.8729 188.115 41.5028C185.195 40.886 182.049 41.4411 179.602 43.1065C176.93 44.8542 175.12 47.8149 174.73 50.9813C174.298 54.1065 175.182 57.3963 177.217 59.8224C179.171 62.1869 182.152 63.6673 185.236 63.7701C188.115 63.9346 191.116 63.0505 193.214 61.0355C194.859 59.6168 195.619 57.4579 195.866 55.3607C192.453 55.3607 189.04 55.3813 185.627 55.3607V51.1252H199.999C200.739 55.6691 199.67 60.7888 196.216 64.0374C193.913 66.3402 190.726 67.6972 187.477 67.9645C184.331 68.2729 181.083 67.6766 178.287 66.1551C174.935 64.3663 172.262 61.3439 170.946 57.7869C169.713 54.5177 169.692 50.8168 170.844 47.5271C171.892 44.5252 173.907 41.8729 176.498 40.0224C178.986 38.1925 182.008 37.185 185.092 37Z" fill="#E365A9"/>
<path d="M267.541 38.0691H271.941V67.4298C270.481 67.4298 269.001 67.4504 267.541 67.4093C267.562 57.6429 267.541 47.856 267.541 38.0691Z" fill="#FFC7E5"/>
<path d="M209.786 48.2467C212.5 47.7326 215.44 48.3083 217.681 49.9326C219.716 51.3719 221.135 53.6336 221.567 56.1009C222.122 58.9588 221.423 62.084 219.572 64.3457C217.578 66.8747 214.309 68.2317 211.122 68.0261C208.202 67.8616 205.365 66.4018 203.638 64.0168C201.685 61.385 201.212 57.7663 202.281 54.6822C203.35 51.3719 206.372 48.8429 209.786 48.2467ZM210.402 52.1532C209.292 52.4411 208.264 53.0784 207.524 53.9831C205.529 56.3682 205.653 60.2541 207.853 62.4747C209.107 63.7495 210.999 64.3457 212.746 63.9962C214.371 63.7083 215.789 62.6186 216.571 61.1794C217.928 58.7326 217.537 55.3607 215.46 53.4485C214.124 52.2149 212.171 51.7009 210.402 52.1532Z" fill="#FA7FC1"/>
<path d="M231.58 48.2467C234.685 47.6504 238.077 48.514 240.401 50.6934C244.184 54.086 244.595 60.4392 241.367 64.3458C239.414 66.813 236.247 68.1701 233.122 68.0261C230.141 67.9439 227.201 66.4635 225.432 64.0168C223.438 61.3233 223.006 57.6224 224.137 54.4766C225.268 51.2691 228.229 48.8224 231.58 48.2467ZM232.197 52.1532C231.087 52.4411 230.058 53.0785 229.318 53.9626C227.344 56.3065 227.427 60.1308 229.544 62.3719C230.799 63.7084 232.752 64.3663 234.561 63.9962C236.165 63.6878 237.604 62.6187 238.386 61.1794C239.722 58.7121 239.331 55.3402 237.234 53.428C235.898 52.1944 233.944 51.7009 232.197 52.1532Z" fill="#FEAAD8"/>
<path d="M250.064 49.4393C252.429 47.9589 255.575 47.5477 258.124 48.8224C258.926 49.172 259.584 49.7682 260.221 50.3645C260.242 49.8094 260.221 49.2337 260.242 48.658C261.62 48.6785 262.997 48.658 264.395 48.6785V66.8131C264.375 69.5477 263.676 72.4467 261.702 74.4411C259.543 76.6411 256.233 77.3196 253.251 76.8673C250.064 76.3944 247.289 74.071 246.055 71.1308C247.289 70.5346 248.584 70.0617 249.859 69.5066C250.578 71.1925 252.038 72.6318 253.868 72.9608C255.698 73.2897 257.816 72.8374 259.008 71.3159C260.283 69.7533 260.283 67.615 260.221 65.7028C259.276 66.628 258.186 67.4505 256.87 67.7589C254.012 68.5608 250.866 67.5738 248.666 65.6411C246.446 63.7084 245.13 60.7271 245.253 57.7664C245.315 54.415 247.206 51.1869 250.064 49.4393ZM254.32 52.071C253.066 52.2766 251.894 52.9757 251.092 53.9421C249.16 56.2449 249.16 59.9252 251.113 62.1869C252.223 63.5234 254.012 64.2636 255.739 64.0785C257.363 63.914 258.864 62.886 259.666 61.4673C261.023 59.0617 260.797 55.7925 258.967 53.6953C257.836 52.4 256.027 51.7626 254.32 52.071Z" fill="#E365A9"/>
<path d="M277.225 50.4878C279.692 48.185 283.496 47.4037 286.662 48.6168C289.664 49.7476 291.576 52.6056 292.542 55.5458C288.081 57.3962 283.64 59.2261 279.178 61.0766C279.795 62.2486 280.741 63.3177 282.015 63.7495C283.804 64.3869 285.942 64.1607 287.443 62.9682C288.04 62.5159 288.513 61.9196 288.965 61.3439C290.096 62.1046 291.227 62.8448 292.357 63.6056C290.754 66.0112 288.06 67.6972 285.161 67.9645C281.954 68.3551 278.541 67.1215 276.464 64.6131C273.051 60.6654 273.38 54.0448 277.225 50.4878ZM279.425 54.2916C278.726 55.299 278.438 56.5327 278.458 57.7458C281.44 56.5121 284.421 55.2785 287.402 54.0243C286.909 52.8729 285.716 52.1738 284.503 51.9888C282.55 51.6392 280.514 52.6878 279.425 54.2916Z" fill="#FA7FC1"/>
</svg>
