<svg width="460" height="497" viewBox="0 0 460 497" fill="none" xmlns="http://www.w3.org/2000/svg">
<rect x="180.5" y="71.5" width="99" height="99" rx="9.5" stroke="#90C58B"/>
<path d="M251.701 111.797H209.299C207.816 111.797 206.609 110.581 206.609 109.088V94.2421C206.609 92.7488 207.816 91.5344 209.299 91.5344H251.701C253.183 91.5344 254.39 92.7488 254.39 94.2421V109.088C254.39 110.581 253.183 111.797 251.701 111.797ZM209.299 93.1499C208.706 93.1499 208.225 93.6401 208.225 94.2421V109.088C208.225 109.691 208.706 110.181 209.299 110.181H251.701C252.292 110.181 252.774 109.691 252.774 109.088V94.2421C252.774 93.6401 252.292 93.1499 251.701 93.1499H209.299Z" fill="#3E86BA"/>
<path d="M258.191 156H202.808C202.702 156 202.597 155.979 202.499 155.939C202.401 155.898 202.312 155.839 202.237 155.764C202.162 155.689 202.102 155.599 202.061 155.501C202.021 155.403 202 155.298 202 155.192V86.8077C202 86.7016 202.021 86.5966 202.061 86.4986C202.102 86.4005 202.162 86.3115 202.237 86.2365C202.312 86.1615 202.401 86.102 202.499 86.0614C202.597 86.0208 202.702 86 202.808 86H258.191C258.297 86 258.402 86.0209 258.5 86.0614C258.598 86.102 258.687 86.1615 258.762 86.2365C258.837 86.3115 258.897 86.4006 258.938 86.4986C258.978 86.5966 258.999 86.7017 258.999 86.8077V155.192C258.999 155.298 258.978 155.403 258.938 155.501C258.897 155.599 258.838 155.688 258.763 155.763C258.688 155.838 258.598 155.898 258.5 155.939C258.402 155.979 258.297 156 258.191 156ZM203.616 154.385H257.383V87.6156H203.616V154.385Z" fill="#3E86BA"/>
<path d="M212.52 106.951H210.545V105.216H212.52V106.951ZM222.422 106.951H220.469V102.864H216.472V106.951H214.497V97.069H216.472V101.321H220.469V97.069H222.422V106.951ZM231.028 98.6132H228.254V106.951H226.278V98.6132H223.527V97.069H231.028V98.6132H231.028ZM234.674 97.069L237.166 104.362H237.213L239.73 97.069H242.294V106.951H240.342V104.005L240.53 99.6347H240.483L237.849 106.951H236.532L233.922 99.6584L233.898 99.6818L234.086 104.005V106.951H232.111V97.069H234.674ZM246.08 105.43H250.454V106.951H244.128V97.069H246.08V105.43ZM223.174 141.594C222.915 141.594 222.667 141.495 222.48 141.318L213.29 132.629C213.283 132.622 213.276 132.615 213.269 132.609C213.185 132.525 213.116 132.428 213.065 132.32L213.065 132.32C213.002 132.185 212.969 132.038 212.969 131.89V131.889C212.969 131.742 213.001 131.595 213.066 131.459C213.114 131.357 213.18 131.261 213.264 131.176L213.29 131.152L222.479 122.441C222.575 122.349 222.689 122.278 222.812 122.231C222.936 122.183 223.068 122.16 223.201 122.164C223.333 122.167 223.464 122.197 223.585 122.251C223.706 122.305 223.815 122.383 223.906 122.479C223.997 122.575 224.069 122.688 224.116 122.812C224.164 122.936 224.186 123.068 224.183 123.2C224.179 123.333 224.149 123.463 224.095 123.584C224.041 123.705 223.964 123.815 223.868 123.906L215.447 131.889L223.867 139.851C223.963 139.942 224.041 140.051 224.095 140.172C224.149 140.293 224.179 140.424 224.183 140.556C224.186 140.689 224.164 140.821 224.117 140.944C224.069 141.068 223.998 141.182 223.907 141.278C223.813 141.378 223.699 141.458 223.573 141.512C223.447 141.566 223.311 141.594 223.174 141.594ZM237.849 141.594C237.712 141.594 237.576 141.566 237.45 141.512C237.323 141.458 237.21 141.378 237.115 141.279C236.932 141.084 236.832 140.825 236.84 140.557C236.847 140.29 236.96 140.036 237.154 139.852L245.554 131.889L237.153 123.905C236.959 123.721 236.846 123.467 236.84 123.199C236.833 122.932 236.933 122.672 237.117 122.478C237.501 122.074 238.141 122.059 238.545 122.442L247.709 131.152C247.719 131.162 247.729 131.171 247.739 131.181C247.817 131.259 247.882 131.351 247.93 131.451C247.997 131.59 248.031 131.741 248.031 131.892C248.031 132.041 247.996 132.191 247.93 132.329C247.881 132.431 247.815 132.524 247.736 132.604C247.727 132.613 247.718 132.62 247.71 132.628L238.543 141.317C238.356 141.495 238.107 141.594 237.849 141.594Z" fill="#3E86BA"/>
<path d="M215.104 182.562H211.296V187H210.12V177.228H211.296V181.54H215.104V177.228H216.28V187H215.104V182.562ZM224.983 178.25V187H223.807V178.25H220.545V177.228H228.245V178.25H224.983ZM237.759 182.1V179.006H237.647L235.589 184.032L233.531 179.006H233.419V182.1V187H232.341V177.228H233.853L235.575 181.54H235.659L237.381 177.228H238.837V187H237.759V182.1ZM244.264 187V177.228H245.44V185.978H250.074V187H244.264Z" fill="black"/>
<rect x="40.5" y="211.5" width="99" height="99" rx="9.5" stroke="#90C58B"/>
<path d="M41.72 317.228V324.466C41.72 324.877 41.65 325.25 41.51 325.586C41.37 325.922 41.1693 326.207 40.908 326.44C40.656 326.673 40.3527 326.855 39.998 326.986C39.6433 327.107 39.256 327.168 38.836 327.168C38.0893 327.168 37.4733 326.977 36.988 326.594C36.5027 326.202 36.1853 325.656 36.036 324.956L37.156 324.718C37.2027 324.914 37.2633 325.101 37.338 325.278C37.422 325.446 37.5293 325.595 37.66 325.726C37.8 325.847 37.968 325.945 38.164 326.02C38.36 326.095 38.5933 326.132 38.864 326.132C39.396 326.132 39.8067 325.983 40.096 325.684C40.3947 325.376 40.544 324.9 40.544 324.256V318.25H37.016V317.228H41.72ZM53.1245 327C52.6859 327 52.3732 326.888 52.1865 326.664C51.9999 326.44 51.8832 326.16 51.8365 325.824H51.7665C51.6079 326.244 51.3512 326.575 50.9965 326.818C50.6512 327.051 50.1845 327.168 49.5965 327.168C48.8405 327.168 48.2385 326.972 47.7905 326.58C47.3425 326.188 47.1185 325.651 47.1185 324.97C47.1185 324.298 47.3612 323.78 47.8465 323.416C48.3412 323.052 49.1345 322.87 50.2265 322.87H51.7665V322.156C51.7665 321.624 51.6172 321.227 51.3185 320.966C51.0199 320.695 50.5952 320.56 50.0445 320.56C49.5592 320.56 49.1625 320.658 48.8545 320.854C48.5465 321.041 48.2992 321.297 48.1125 321.624L47.3565 321.064C47.4499 320.877 47.5759 320.695 47.7345 320.518C47.8932 320.341 48.0892 320.187 48.3225 320.056C48.5559 319.916 48.8219 319.809 49.1205 319.734C49.4192 319.65 49.7505 319.608 50.1145 319.608C50.9639 319.608 51.6359 319.823 52.1305 320.252C52.6345 320.681 52.8865 321.279 52.8865 322.044V326.02H53.8945V327H53.1245ZM49.7925 326.23C50.0819 326.23 50.3432 326.197 50.5765 326.132C50.8192 326.057 51.0292 325.964 51.2065 325.852C51.3839 325.731 51.5192 325.591 51.6125 325.432C51.7152 325.264 51.7665 325.087 51.7665 324.9V323.71H50.2265C49.5545 323.71 49.0645 323.803 48.7565 323.99C48.4485 324.177 48.2945 324.447 48.2945 324.802V325.096C48.2945 325.469 48.4252 325.754 48.6865 325.95C48.9572 326.137 49.3259 326.23 49.7925 326.23ZM60.8751 327L58.2851 319.776H59.4191L60.4551 322.8L61.5751 326.062H61.6311L62.7511 322.8L63.7871 319.776H64.8931L62.3031 327H60.8751ZM75.5136 327C75.0749 327 74.7623 326.888 74.5756 326.664C74.3889 326.44 74.2723 326.16 74.2256 325.824H74.1556C73.9969 326.244 73.7403 326.575 73.3856 326.818C73.0403 327.051 72.5736 327.168 71.9856 327.168C71.2296 327.168 70.6276 326.972 70.1796 326.58C69.7316 326.188 69.5076 325.651 69.5076 324.97C69.5076 324.298 69.7503 323.78 70.2356 323.416C70.7303 323.052 71.5236 322.87 72.6156 322.87H74.1556V322.156C74.1556 321.624 74.0063 321.227 73.7076 320.966C73.4089 320.695 72.9843 320.56 72.4336 320.56C71.9483 320.56 71.5516 320.658 71.2436 320.854C70.9356 321.041 70.6883 321.297 70.5016 321.624L69.7456 321.064C69.8389 320.877 69.9649 320.695 70.1236 320.518C70.2823 320.341 70.4783 320.187 70.7116 320.056C70.9449 319.916 71.2109 319.809 71.5096 319.734C71.8083 319.65 72.1396 319.608 72.5036 319.608C73.3529 319.608 74.0249 319.823 74.5196 320.252C75.0236 320.681 75.2756 321.279 75.2756 322.044V326.02H76.2836V327H75.5136ZM72.1816 326.23C72.4709 326.23 72.7323 326.197 72.9656 326.132C73.2083 326.057 73.4183 325.964 73.5956 325.852C73.7729 325.731 73.9083 325.591 74.0016 325.432C74.1043 325.264 74.1556 325.087 74.1556 324.9V323.71H72.6156C71.9436 323.71 71.4536 323.803 71.1456 323.99C70.8376 324.177 70.6836 324.447 70.6836 324.802V325.096C70.6836 325.469 70.8143 325.754 71.0756 325.95C71.3463 326.137 71.7149 326.23 72.1816 326.23ZM83.9501 327.168C83.0728 327.168 82.3541 327.009 81.7941 326.692C81.2341 326.365 80.7721 325.95 80.4081 325.446L81.2621 324.746C81.6448 325.222 82.0461 325.577 82.4661 325.81C82.8955 326.043 83.4041 326.16 83.9921 326.16C84.7015 326.16 85.2428 325.997 85.6161 325.67C85.9895 325.343 86.1761 324.886 86.1761 324.298C86.1761 323.822 86.0408 323.453 85.7701 323.192C85.4995 322.921 85.0281 322.73 84.3561 322.618L83.2641 322.436C82.7881 322.352 82.3868 322.226 82.0601 322.058C81.7428 321.89 81.4861 321.689 81.2901 321.456C81.0941 321.213 80.9541 320.952 80.8701 320.672C80.7861 320.383 80.7441 320.084 80.7441 319.776C80.7441 318.88 81.0381 318.203 81.6261 317.746C82.2141 317.289 83.0075 317.06 84.0061 317.06C84.7901 317.06 85.4481 317.191 85.9801 317.452C86.5215 317.713 86.9555 318.082 87.2821 318.558L86.4561 319.272C86.1855 318.917 85.8588 318.628 85.4761 318.404C85.0935 318.18 84.5988 318.068 83.9921 318.068C83.3295 318.068 82.8208 318.208 82.4661 318.488C82.1115 318.768 81.9341 319.188 81.9341 319.748C81.9341 320.187 82.0648 320.546 82.3261 320.826C82.5968 321.097 83.0775 321.293 83.7681 321.414L84.8181 321.596C85.2941 321.68 85.6955 321.806 86.0221 321.974C86.3488 322.142 86.6101 322.343 86.8061 322.576C87.0115 322.809 87.1561 323.071 87.2401 323.36C87.3241 323.649 87.3661 323.953 87.3661 324.27C87.3661 325.175 87.0675 325.885 86.4701 326.398C85.8821 326.911 85.0421 327.168 83.9501 327.168ZM95.4247 327.168C94.902 327.168 94.4353 327.079 94.0247 326.902C93.6233 326.715 93.2827 326.459 93.0027 326.132C92.7227 325.805 92.508 325.409 92.3587 324.942C92.2187 324.475 92.1487 323.957 92.1487 323.388C92.1487 322.819 92.2233 322.301 92.3727 321.834C92.522 321.367 92.7367 320.971 93.0167 320.644C93.2967 320.308 93.6373 320.051 94.0387 319.874C94.44 319.697 94.8973 319.608 95.4107 319.608C96.1107 319.608 96.68 319.762 97.1187 320.07C97.5573 320.378 97.8793 320.779 98.0847 321.274L97.1887 321.75C97.058 321.377 96.8387 321.087 96.5307 320.882C96.232 320.677 95.8587 320.574 95.4107 320.574C95.084 320.574 94.79 320.63 94.5287 320.742C94.2767 320.845 94.062 320.994 93.8847 321.19C93.7073 321.386 93.572 321.619 93.4787 321.89C93.3947 322.161 93.3527 322.455 93.3527 322.772V324.004C93.3527 324.321 93.3947 324.615 93.4787 324.886C93.572 325.157 93.7073 325.39 93.8847 325.586C94.062 325.782 94.2813 325.936 94.5427 326.048C94.804 326.151 95.1027 326.202 95.4387 326.202C95.924 326.202 96.3253 326.09 96.6427 325.866C96.96 325.642 97.212 325.334 97.3987 324.942L98.1967 325.488C97.982 325.973 97.646 326.375 97.1887 326.692C96.7407 327.009 96.1527 327.168 95.4247 327.168ZM103.245 326.048H105.359V320.728H103.245V319.776H106.479V321.596H106.549C106.699 321.027 106.979 320.583 107.389 320.266C107.809 319.939 108.341 319.776 108.985 319.776H109.993V320.896H108.635C107.991 320.896 107.469 321.083 107.067 321.456C106.675 321.829 106.479 322.319 106.479 322.926V326.048H109.279V327H103.245V326.048ZM118.01 318.18C117.683 318.18 117.454 318.115 117.324 317.984C117.193 317.844 117.128 317.671 117.128 317.466V317.242C117.128 317.037 117.193 316.869 117.324 316.738C117.454 316.598 117.683 316.528 118.01 316.528C118.336 316.528 118.565 316.598 118.696 316.738C118.826 316.869 118.892 317.037 118.892 317.242V317.466C118.892 317.671 118.826 317.844 118.696 317.984C118.565 318.115 118.336 318.18 118.01 318.18ZM114.846 326.048H117.45V320.728H114.846V319.776H118.57V326.048H121.006V327H114.846V326.048ZM125.886 319.776H127.006V320.952H127.062C127.529 320.056 128.271 319.608 129.288 319.608C130.175 319.608 130.866 319.939 131.36 320.602C131.864 321.265 132.116 322.193 132.116 323.388C132.116 324.583 131.864 325.511 131.36 326.174C130.866 326.837 130.175 327.168 129.288 327.168C128.271 327.168 127.529 326.72 127.062 325.824H127.006V329.8H125.886V319.776ZM128.854 326.174C129.508 326.174 130.012 325.978 130.366 325.586C130.73 325.185 130.912 324.657 130.912 324.004V322.772C130.912 322.119 130.73 321.596 130.366 321.204C130.012 320.803 129.508 320.602 128.854 320.602C128.602 320.602 128.364 320.635 128.14 320.7C127.916 320.765 127.72 320.863 127.552 320.994C127.384 321.115 127.249 321.269 127.146 321.456C127.053 321.633 127.006 321.843 127.006 322.086V324.69C127.006 324.933 127.053 325.147 127.146 325.334C127.249 325.511 127.384 325.665 127.552 325.796C127.72 325.917 127.916 326.011 128.14 326.076C128.364 326.141 128.602 326.174 128.854 326.174ZM140.301 327C139.75 327 139.344 326.846 139.083 326.538C138.831 326.23 138.705 325.833 138.705 325.348V320.728H136.297V319.776H138.089C138.331 319.776 138.499 319.729 138.593 319.636C138.695 319.533 138.747 319.361 138.747 319.118V317.228H139.825V319.776H143.115V320.728H139.825V326.048H143.115V327H140.301Z" fill="black"/>
<path d="M115.007 240.237V291.254C115.007 293.224 113.42 294.814 111.448 294.814H68.7362C66.7667 294.814 65.1769 293.224 65.1769 291.254V229.559C65.1769 227.587 66.7667 226 68.7362 226H100.77L115.007 240.237Z" stroke="#3E86BA" stroke-linecap="round" stroke-linejoin="round"/>
<path d="M64 279.39V291.254C64 293.883 66.1166 296 68.7458 296H111.458C114.087 296 116.203 293.883 116.203 291.254V279.39H64ZM77.0414 281.749C77.2004 281.746 77.3583 281.775 77.5057 281.835C77.6531 281.895 77.787 281.983 77.8994 282.096C78.0119 282.208 78.1006 282.342 78.1602 282.49C78.2199 282.637 78.2493 282.795 78.2468 282.954V290.077C78.2483 290.184 78.2356 290.29 78.2088 290.393C78.1244 291.271 77.7177 292.086 77.0674 292.682C76.4171 293.277 75.5692 293.611 74.6875 293.618C72.7369 293.618 71.1281 292.009 71.1281 290.058C71.1243 289.745 71.2451 289.442 71.4639 289.217C71.6827 288.992 71.9818 288.863 72.2956 288.858C72.4542 288.855 72.6117 288.884 72.7588 288.944C72.9059 289.003 73.0396 289.091 73.1519 289.203C73.2643 289.315 73.3531 289.449 73.4131 289.596C73.473 289.742 73.5029 289.9 73.501 290.058C73.501 290.737 74.0088 291.245 74.6875 291.245C75.3661 291.245 75.8739 290.737 75.8739 290.058V282.959C75.8714 282.803 75.8996 282.648 75.9569 282.503C76.0142 282.358 76.0995 282.226 76.2079 282.114C76.3163 282.002 76.4457 281.913 76.5887 281.851C76.7317 281.789 76.8855 281.756 77.0414 281.753V281.749ZM84.0414 281.753C84.0809 281.751 84.1205 281.751 84.16 281.753C84.1877 281.752 84.2154 281.752 84.243 281.753H88.9058C89.2204 281.753 89.5222 281.878 89.7447 282.101C89.9672 282.323 90.0922 282.625 90.0922 282.94C90.0922 283.254 89.9672 283.556 89.7447 283.779C89.5222 284.001 89.2204 284.126 88.9058 284.126H84.16C83.4814 284.126 82.9736 284.634 82.9736 285.313C82.9736 285.991 83.4814 286.499 84.16 286.499C84.1877 286.498 84.2154 286.498 84.243 286.499H86.5329C86.6189 286.498 86.7048 286.506 86.7892 286.523C87.683 286.59 88.5188 286.991 89.1307 287.646C89.7426 288.301 90.0858 289.162 90.0922 290.058C90.0922 291.926 88.6163 293.459 86.7797 293.589C86.6986 293.607 86.6159 293.617 86.5329 293.618H81.7871C81.4725 293.618 81.1707 293.493 80.9482 293.27C80.7257 293.048 80.6007 292.746 80.6007 292.431C80.6007 292.117 80.7257 291.815 80.9482 291.592C81.1707 291.37 81.4725 291.245 81.7871 291.245H86.5329C87.2115 291.245 87.7193 290.737 87.7193 290.058C87.7193 289.38 87.2115 288.872 86.5329 288.872H84.16C84.0851 288.871 84.0104 288.863 83.9369 288.848C83.037 288.789 82.1927 288.392 81.5738 287.736C80.9548 287.08 80.6072 286.214 80.6007 285.313C80.6007 283.452 82.0647 281.924 83.8919 281.782C83.9403 281.769 83.9894 281.76 84.039 281.753H84.0414Z" fill="#3E86BA"/>
<path d="M115.007 240.237H104.329C102.36 240.237 100.77 238.647 100.77 236.678V226" stroke="#3E86BA" stroke-linecap="round" stroke-linejoin="round"/>
<path d="M84.1885 246.169C81.5783 246.169 79.4427 248.305 79.4427 250.915V253.288C79.4427 254.624 78.4034 255.661 77.0698 255.661C76.9901 255.661 76.9106 255.669 76.8325 255.684C76.6173 255.725 76.4175 255.825 76.2554 255.972C76.0933 256.12 75.9753 256.309 75.9142 256.52C75.9037 256.557 75.895 256.594 75.8881 256.631C75.8558 256.804 75.8622 256.981 75.9069 257.151C75.9515 257.321 76.0333 257.479 76.1464 257.614C76.2594 257.748 76.4009 257.855 76.5606 257.928C76.7203 258.002 76.8942 258.038 77.0698 258.036C78.4034 258.036 79.4427 259.073 79.4427 260.409V262.782C79.4427 265.392 81.5783 267.527 84.1885 267.527C84.5031 267.527 84.8049 267.403 85.0274 267.18C85.2499 266.958 85.3749 266.656 85.3749 266.341C85.3749 266.026 85.2499 265.725 85.0274 265.502C84.8049 265.28 84.5031 265.155 84.1885 265.155C82.8525 265.155 81.8156 264.115 81.8156 262.782V260.409C81.8156 258.987 81.1678 257.72 80.1688 256.849C80.6823 256.409 81.0951 255.863 81.3792 255.249C81.6633 254.635 81.8121 253.967 81.8156 253.29V250.915C81.8156 249.581 82.8525 248.542 84.1885 248.542C84.5031 248.542 84.8049 248.417 85.0274 248.195C85.2499 247.972 85.3749 247.67 85.3749 247.356C85.3749 247.041 85.2499 246.739 85.0274 246.517C84.8049 246.294 84.5031 246.169 84.1885 246.169ZM95.8939 246.169C95.5792 246.185 95.2838 246.326 95.0727 246.56C94.8615 246.794 94.7519 247.102 94.768 247.416C94.784 247.731 94.9244 248.026 95.1582 248.237C95.3921 248.449 95.7003 248.558 96.0149 248.542C97.3508 248.542 98.3878 249.579 98.3878 250.915V253.288C98.3878 254.709 99.0356 255.976 100.035 256.847C99.038 257.72 98.3878 258.988 98.3878 260.406V262.779C98.3878 264.115 97.3508 265.152 96.0149 265.152C95.7003 265.152 95.3985 265.277 95.176 265.5C94.9535 265.722 94.8285 266.024 94.8285 266.339C94.8285 266.653 94.9535 266.955 95.176 267.178C95.3985 267.4 95.7003 267.525 96.0149 267.525C98.6251 267.525 100.761 265.39 100.761 262.779V260.406C100.761 259.073 101.8 258.034 103.134 258.034C103.413 258.038 103.686 257.943 103.902 257.766C103.934 257.74 103.964 257.712 103.993 257.683C104.158 257.515 104.271 257.302 104.315 257.071C104.36 256.839 104.334 256.6 104.242 256.383C104.15 256.166 103.995 255.982 103.798 255.853C103.6 255.724 103.369 255.657 103.134 255.661C101.8 255.661 100.761 254.624 100.761 253.288V250.915C100.761 248.305 98.6251 246.169 96.0149 246.169C95.9754 246.167 95.9334 246.167 95.8939 246.169ZM90.1017 249.714C89.4724 249.714 88.8688 249.965 88.4238 250.41C87.9788 250.855 87.7288 251.458 87.7288 252.087C87.7288 252.717 87.9788 253.32 88.4238 253.765C88.8688 254.21 89.4724 254.46 90.1017 254.46C90.731 254.46 91.3346 254.21 91.7796 253.765C92.2246 253.32 92.4746 252.717 92.4746 252.087C92.4746 251.458 92.2246 250.855 91.7796 250.41C91.3346 249.965 90.731 249.714 90.1017 249.714ZM90.1017 256.833C89.4724 256.833 88.8688 257.083 88.4238 257.528C87.9788 257.973 87.7288 258.577 87.7288 259.206C87.7286 259.626 87.8402 260.039 88.052 260.402C88.2638 260.766 88.5682 261.066 88.9342 261.273L87.8664 263.415C87.7913 263.555 87.7452 263.709 87.7306 263.867C87.716 264.026 87.7334 264.185 87.7816 264.336C87.8299 264.488 87.908 264.628 88.0115 264.748C88.1149 264.869 88.2415 264.968 88.3838 265.038C88.5261 265.109 88.6811 265.151 88.8397 265.16C88.9983 265.17 89.1572 265.148 89.307 265.095C89.4568 265.042 89.5945 264.96 89.7119 264.852C89.8292 264.745 89.9238 264.616 89.9902 264.471L91.7698 260.893C92.1968 260.47 92.447 259.9 92.4698 259.299C92.4699 259.291 92.4699 259.283 92.4698 259.275C92.4718 259.249 92.4734 259.222 92.4746 259.196C92.4746 258.567 92.2246 257.964 91.7796 257.519C91.3346 257.074 90.731 256.823 90.1017 256.823V256.833Z" fill="#3E86BA"/>
<rect x="320.5" y="71.5" width="99" height="99" rx="9.5" stroke="#90C58B"/>
<path d="M400.345 124.621C400.345 124.301 400.218 123.994 399.991 123.767C399.765 123.541 399.458 123.414 399.138 123.414H395.517V101.617C395.526 101.533 395.526 101.448 395.517 101.364V101.279C395.465 101.151 395.392 101.033 395.3 100.929L382.024 86.4466C381.924 86.3417 381.805 86.2558 381.674 86.1931H381.602C381.471 86.1006 381.323 86.0349 381.167 86H348.955C347.86 86 346.811 86.4349 346.037 87.2089C345.262 87.983 344.828 89.0329 344.828 90.1276V123.414H341.207C340.887 123.414 340.58 123.541 340.353 123.767C340.127 123.994 340 124.301 340 124.621V141.602C340.033 141.916 340.179 142.208 340.41 142.422V142.483L344.828 145.741V151.872C344.828 152.967 345.262 154.017 346.037 154.791C346.811 155.565 347.86 156 348.955 156H391.39C391.932 156 392.468 155.893 392.969 155.686C393.47 155.478 393.925 155.174 394.308 154.791C394.692 154.408 394.996 153.953 395.203 153.452C395.41 152.951 395.517 152.414 395.517 151.872V145.741L399.862 142.483V142.422C400.094 142.208 400.24 141.916 400.272 141.602C400.272 141.602 400.272 141.602 400.272 141.517L400.345 124.621ZM356.897 123.414V88.4138H379.828V101.69C379.828 102.01 379.955 102.317 380.181 102.543C380.407 102.769 380.714 102.897 381.034 102.897H393.103V123.414H356.897ZM382.241 90.3086L391.571 100.483H382.241V90.3086ZM347.241 90.1276C347.241 89.6731 347.422 89.2371 347.743 88.9158C348.065 88.5944 348.501 88.4138 348.955 88.4138H354.483V123.414H347.241V90.1276ZM342.414 125.828H397.931V140.31H342.414V125.828ZM347.241 151.872V142.724H354.483V153.586H348.955C348.501 153.586 348.065 153.406 347.743 153.084C347.422 152.763 347.241 152.327 347.241 151.872ZM391.39 153.586H356.897V142.724H393.103V151.872C393.103 152.327 392.923 152.763 392.601 153.084C392.28 153.406 391.844 153.586 391.39 153.586Z" fill="#3E86BA"/>
<path d="M355.159 137.969C354.879 137.977 354.607 137.877 354.398 137.691C354.29 137.59 354.206 137.466 354.152 137.328C354.098 137.191 354.075 137.043 354.084 136.895C354.082 136.756 354.107 136.618 354.159 136.49C354.211 136.361 354.288 136.244 354.386 136.147C354.482 136.045 354.598 135.965 354.727 135.911C354.856 135.856 354.995 135.83 355.134 135.833C355.275 135.83 355.415 135.855 355.545 135.907C355.676 135.958 355.795 136.036 355.895 136.134C356.097 136.338 356.211 136.614 356.211 136.901C356.211 137.188 356.097 137.464 355.895 137.667C355.698 137.859 355.434 137.968 355.159 137.969ZM367.384 134.529C367.377 134.9 367.295 135.265 367.143 135.603C366.955 136.025 366.694 136.409 366.371 136.738C365.992 137.13 365.536 137.438 365.031 137.643C364.429 137.886 363.785 138.005 363.136 137.993C362.633 137.998 362.131 137.945 361.64 137.836C361.215 137.739 360.807 137.576 360.433 137.353C360.054 137.12 359.716 136.826 359.431 136.484C359.152 136.149 358.917 135.78 358.731 135.386C358.535 134.975 358.389 134.541 358.297 134.095C358.181 133.616 358.117 133.127 358.103 132.634C358.09 131.871 358.213 131.111 358.466 130.39C358.691 129.761 359.044 129.185 359.503 128.7C359.952 128.233 360.495 127.866 361.097 127.626C361.715 127.381 362.375 127.258 363.04 127.264C363.837 127.236 364.629 127.406 365.345 127.759C365.938 128.034 366.455 128.448 366.853 128.966C367.17 129.366 367.352 129.856 367.372 130.366C367.375 130.604 367.284 130.834 367.119 131.005C367.042 131.093 366.948 131.163 366.842 131.211C366.735 131.259 366.62 131.284 366.503 131.283C366.285 131.299 366.068 131.23 365.9 131.09C365.719 130.896 365.569 130.676 365.453 130.438C365.236 129.962 364.905 129.547 364.488 129.231C364.082 128.969 363.607 128.834 363.124 128.845C362.727 128.83 362.332 128.911 361.973 129.081C361.613 129.251 361.301 129.506 361.06 129.822C360.5 130.64 360.228 131.621 360.288 132.61C360.266 133.298 360.381 133.983 360.626 134.626C360.814 135.119 361.152 135.541 361.591 135.833C362.029 136.104 362.537 136.243 363.052 136.231C363.597 136.249 364.134 136.093 364.584 135.784C365.025 135.452 365.353 134.993 365.526 134.469C365.601 134.23 365.715 134.006 365.864 133.805C365.942 133.715 366.041 133.645 366.153 133.601C366.264 133.556 366.384 133.54 366.503 133.552C366.622 133.551 366.74 133.574 366.85 133.62C366.96 133.666 367.06 133.733 367.143 133.817C367.234 133.91 367.303 134.023 367.345 134.146C367.387 134.269 367.4 134.4 367.384 134.529ZM377.148 134.686C377.157 135.285 376.989 135.872 376.666 136.376C376.323 136.908 375.832 137.328 375.253 137.583C374.556 137.88 373.803 138.024 373.045 138.005C372.164 138.04 371.289 137.84 370.51 137.426C370.023 137.161 369.608 136.779 369.303 136.316C369.059 135.895 368.942 135.413 368.966 134.928C368.964 134.804 368.987 134.681 369.034 134.567C369.081 134.453 369.15 134.349 369.238 134.262C369.326 134.176 369.431 134.108 369.546 134.062C369.661 134.017 369.783 133.995 369.907 133.998C370.117 133.993 370.321 134.071 370.474 134.216C370.652 134.392 370.789 134.607 370.872 134.843C370.982 135.136 371.123 135.415 371.295 135.676C371.464 135.908 371.688 136.095 371.947 136.219C372.291 136.376 372.667 136.451 373.045 136.436C373.586 136.466 374.122 136.313 374.566 136.002C374.744 135.882 374.89 135.721 374.991 135.531C375.093 135.342 375.145 135.13 375.145 134.916C375.15 134.608 375.038 134.31 374.831 134.083C374.604 133.856 374.327 133.687 374.022 133.588C373.693 133.475 373.25 133.355 372.695 133.226C372.052 133.084 371.425 132.878 370.824 132.61C370.346 132.402 369.93 132.074 369.617 131.657C369.308 131.216 369.151 130.686 369.171 130.148C369.164 129.604 369.328 129.072 369.641 128.628C369.982 128.16 370.452 127.804 370.993 127.602C371.655 127.349 372.36 127.226 373.069 127.24C373.63 127.229 374.188 127.311 374.722 127.481C375.162 127.609 375.572 127.822 375.929 128.109C376.208 128.333 376.438 128.613 376.605 128.929C376.742 129.19 376.817 129.479 376.822 129.774C376.823 130.025 376.728 130.266 376.557 130.45C376.476 130.547 376.374 130.624 376.259 130.676C376.144 130.728 376.019 130.754 375.893 130.752C375.695 130.764 375.501 130.699 375.35 130.571C375.184 130.395 375.046 130.196 374.94 129.979C374.783 129.629 374.552 129.316 374.264 129.062C373.89 128.814 373.444 128.699 372.997 128.736C372.531 128.715 372.07 128.842 371.681 129.098C371.534 129.189 371.411 129.314 371.325 129.464C371.239 129.614 371.191 129.782 371.186 129.955C371.18 130.15 371.24 130.341 371.355 130.498C371.482 130.659 371.643 130.791 371.826 130.884C372.018 130.99 372.22 131.075 372.429 131.138L373.431 131.403C373.921 131.533 374.404 131.686 374.879 131.862C375.308 132.006 375.714 132.209 376.086 132.466C376.414 132.695 376.679 133.002 376.859 133.359C377.06 133.771 377.16 134.227 377.148 134.686ZM386.803 134.686C386.812 135.285 386.644 135.872 386.321 136.376C385.979 136.908 385.488 137.328 384.909 137.583C384.211 137.88 383.458 138.024 382.7 138.005C381.819 138.04 380.944 137.84 380.166 137.426C379.678 137.161 379.263 136.779 378.959 136.316C378.715 135.895 378.597 135.413 378.621 134.928C378.619 134.804 378.642 134.681 378.689 134.567C378.736 134.453 378.806 134.349 378.893 134.262C378.981 134.176 379.086 134.108 379.201 134.062C379.316 134.017 379.439 133.995 379.562 133.998C379.772 133.993 379.976 134.071 380.129 134.216C380.308 134.392 380.444 134.607 380.528 134.843C380.637 135.136 380.779 135.415 380.95 135.676C381.119 135.908 381.343 136.095 381.602 136.219C381.946 136.376 382.322 136.451 382.7 136.436C383.241 136.466 383.777 136.313 384.221 136.002C384.399 135.882 384.546 135.721 384.647 135.531C384.748 135.342 384.8 135.13 384.8 134.916C384.805 134.608 384.693 134.31 384.486 134.083C384.26 133.856 383.982 133.687 383.678 133.588C383.348 133.475 382.905 133.355 382.35 133.226C381.707 133.084 381.081 132.878 380.479 132.61C380.001 132.402 379.586 132.074 379.272 131.657C378.963 131.216 378.807 130.686 378.826 130.148C378.819 129.604 378.983 129.072 379.297 128.628C379.637 128.16 380.107 127.804 380.648 127.602C381.311 127.349 382.015 127.226 382.724 127.24C383.285 127.229 383.843 127.311 384.378 127.481C384.817 127.609 385.227 127.822 385.584 128.109C385.863 128.333 386.093 128.613 386.26 128.929C386.397 129.19 386.472 129.479 386.478 129.774C386.478 130.025 386.383 130.266 386.212 130.45C386.131 130.547 386.029 130.624 385.914 130.676C385.8 130.728 385.674 130.754 385.548 130.752C385.351 130.764 385.156 130.699 385.005 130.571C384.84 130.395 384.701 130.196 384.595 129.979C384.438 129.629 384.207 129.316 383.919 129.062C383.545 128.814 383.099 128.699 382.652 128.736C382.186 128.715 381.725 128.842 381.336 129.098C381.189 129.189 381.067 129.314 380.98 129.464C380.894 129.614 380.846 129.782 380.841 129.955C380.835 130.15 380.895 130.341 381.01 130.498C381.138 130.659 381.298 130.791 381.481 130.884C381.673 130.99 381.875 131.075 382.084 131.138L383.086 131.403C383.625 131.528 384.157 131.681 384.679 131.862C385.108 132.006 385.514 132.209 385.886 132.466C386.214 132.695 386.479 133.002 386.659 133.359C386.811 133.784 386.861 134.238 386.803 134.686Z" fill="#3E86BA"/>
<path d="M358.522 187.168C357.327 187.168 356.436 186.734 355.848 185.866C355.269 184.998 354.98 183.747 354.98 182.114C354.98 180.481 355.269 179.23 355.848 178.362C356.436 177.494 357.327 177.06 358.522 177.06C358.97 177.06 359.357 177.121 359.684 177.242C360.011 177.363 360.291 177.527 360.524 177.732C360.757 177.937 360.953 178.171 361.112 178.432C361.271 178.684 361.411 178.941 361.532 179.202L360.524 179.664C360.44 179.449 360.342 179.249 360.23 179.062C360.118 178.866 359.983 178.698 359.824 178.558C359.675 178.409 359.493 178.292 359.278 178.208C359.073 178.124 358.821 178.082 358.522 178.082C357.747 178.082 357.169 178.376 356.786 178.964C356.413 179.552 356.226 180.336 356.226 181.316V182.912C356.226 183.892 356.413 184.676 356.786 185.264C357.169 185.852 357.747 186.146 358.522 186.146C358.821 186.146 359.073 186.104 359.278 186.02C359.493 185.936 359.675 185.824 359.824 185.684C359.983 185.535 360.118 185.367 360.23 185.18C360.342 184.984 360.44 184.779 360.524 184.564L361.532 185.026C361.411 185.297 361.271 185.558 361.112 185.81C360.953 186.062 360.757 186.291 360.524 186.496C360.291 186.701 360.011 186.865 359.684 186.986C359.357 187.107 358.97 187.168 358.522 187.168ZM369.367 187.168C368.489 187.168 367.771 187.009 367.211 186.692C366.651 186.365 366.189 185.95 365.825 185.446L366.679 184.746C367.061 185.222 367.463 185.577 367.883 185.81C368.312 186.043 368.821 186.16 369.409 186.16C370.118 186.16 370.659 185.997 371.033 185.67C371.406 185.343 371.593 184.886 371.593 184.298C371.593 183.822 371.457 183.453 371.187 183.192C370.916 182.921 370.445 182.73 369.773 182.618L368.681 182.436C368.205 182.352 367.803 182.226 367.477 182.058C367.159 181.89 366.903 181.689 366.707 181.456C366.511 181.213 366.371 180.952 366.287 180.672C366.203 180.383 366.161 180.084 366.161 179.776C366.161 178.88 366.455 178.203 367.043 177.746C367.631 177.289 368.424 177.06 369.423 177.06C370.207 177.06 370.865 177.191 371.397 177.452C371.938 177.713 372.372 178.082 372.699 178.558L371.873 179.272C371.602 178.917 371.275 178.628 370.893 178.404C370.51 178.18 370.015 178.068 369.409 178.068C368.746 178.068 368.237 178.208 367.883 178.488C367.528 178.768 367.351 179.188 367.351 179.748C367.351 180.187 367.481 180.546 367.743 180.826C368.013 181.097 368.494 181.293 369.185 181.414L370.235 181.596C370.711 181.68 371.112 181.806 371.439 181.974C371.765 182.142 372.027 182.343 372.223 182.576C372.428 182.809 372.573 183.071 372.657 183.36C372.741 183.649 372.783 183.953 372.783 184.27C372.783 185.175 372.484 185.885 371.887 186.398C371.299 186.911 370.459 187.168 369.367 187.168ZM380.561 187.168C379.684 187.168 378.965 187.009 378.405 186.692C377.845 186.365 377.383 185.95 377.019 185.446L377.873 184.746C378.256 185.222 378.657 185.577 379.077 185.81C379.506 186.043 380.015 186.16 380.603 186.16C381.312 186.16 381.854 185.997 382.227 185.67C382.6 185.343 382.787 184.886 382.787 184.298C382.787 183.822 382.652 183.453 382.381 183.192C382.11 182.921 381.639 182.73 380.967 182.618L379.875 182.436C379.399 182.352 378.998 182.226 378.671 182.058C378.354 181.89 378.097 181.689 377.901 181.456C377.705 181.213 377.565 180.952 377.481 180.672C377.397 180.383 377.355 180.084 377.355 179.776C377.355 178.88 377.649 178.203 378.237 177.746C378.825 177.289 379.618 177.06 380.617 177.06C381.401 177.06 382.059 177.191 382.591 177.452C383.132 177.713 383.566 178.082 383.893 178.558L383.067 179.272C382.796 178.917 382.47 178.628 382.087 178.404C381.704 178.18 381.21 178.068 380.603 178.068C379.94 178.068 379.432 178.208 379.077 178.488C378.722 178.768 378.545 179.188 378.545 179.748C378.545 180.187 378.676 180.546 378.937 180.826C379.208 181.097 379.688 181.293 380.379 181.414L381.429 181.596C381.905 181.68 382.306 181.806 382.633 181.974C382.96 182.142 383.221 182.343 383.417 182.576C383.622 182.809 383.767 183.071 383.851 183.36C383.935 183.649 383.977 183.953 383.977 184.27C383.977 185.175 383.678 185.885 383.081 186.398C382.493 186.911 381.653 187.168 380.561 187.168Z" fill="black"/>
<rect x="40.5" y="71.5" width="99" height="99" rx="9.5" stroke="#90C58B"/>
<path d="M122.636 96.1551L106.543 86.4992C106.47 86.4563 106.39 86.4348 106.312 86.4C105.247 85.7616 103.871 85.8769 102.989 86.8211L80.4076 111.017L67.9623 99.6071C67.5613 99.2412 67.059 99.0052 66.5214 98.93C65.9839 98.8549 65.4361 98.9441 64.9502 99.186L58.4834 102.418C58.111 102.605 57.7872 102.876 57.5378 103.21C57.2883 103.544 57.1199 103.931 57.046 104.341C56.9721 104.751 56.9947 105.173 57.112 105.573C57.2292 105.973 57.438 106.34 57.7217 106.645L71.1031 120.984L57.7217 135.323C57.4369 135.628 57.2272 135.995 57.1093 136.395C56.9914 136.795 56.9685 137.217 57.0425 137.628C57.1164 138.038 57.2852 138.426 57.5354 138.759C57.7856 139.093 58.1102 139.364 58.4834 139.55L64.9502 142.785C65.4167 143.019 65.9417 143.112 66.4603 143.051C66.9788 142.991 67.4683 142.78 67.8684 142.444L80.9548 131.538L102.989 155.147C103.24 155.416 103.543 155.631 103.88 155.778C104.218 155.925 104.582 156 104.95 156C105.447 155.984 105.93 155.829 106.344 155.552C106.409 155.52 106.478 155.506 106.54 155.469L122.633 145.813C123.03 145.575 123.359 145.238 123.588 144.835C123.816 144.433 123.936 143.978 123.937 143.514V98.4537C123.937 97.9909 123.817 97.536 123.589 97.1332C123.361 96.7304 123.033 96.3934 122.636 96.1551ZM65.779 137.201L64.0919 136.358L74.7696 124.916L77.2855 127.612L65.779 137.201ZM102.479 146.738L64.0919 105.61L65.6985 104.808L102.479 138.526V146.738ZM102.479 131.246L92.397 122.003L102.479 113.603V131.246ZM102.479 106.618L88.4059 118.345L84.3638 114.638L102.479 95.2297V106.618ZM118.572 141.994L107.844 148.431V93.5346L118.572 99.9718V141.994Z" fill="#3E86BA"/>
<path d="M60.402 187L57.504 177.228H58.75L60.136 182.114L61.186 185.81H61.256L62.306 182.114L63.692 177.228H64.896L61.998 187H60.402ZM72.3665 187.168C71.4892 187.168 70.7705 187.009 70.2105 186.692C69.6505 186.365 69.1885 185.95 68.8245 185.446L69.6785 184.746C70.0612 185.222 70.4625 185.577 70.8825 185.81C71.3119 186.043 71.8205 186.16 72.4085 186.16C73.1179 186.16 73.6592 185.997 74.0325 185.67C74.4059 185.343 74.5925 184.886 74.5925 184.298C74.5925 183.822 74.4572 183.453 74.1865 183.192C73.9159 182.921 73.4445 182.73 72.7725 182.618L71.6805 182.436C71.2045 182.352 70.8032 182.226 70.4765 182.058C70.1592 181.89 69.9025 181.689 69.7065 181.456C69.5105 181.213 69.3705 180.952 69.2865 180.672C69.2025 180.383 69.1605 180.084 69.1605 179.776C69.1605 178.88 69.4545 178.203 70.0425 177.746C70.6305 177.289 71.4239 177.06 72.4225 177.06C73.2065 177.06 73.8645 177.191 74.3965 177.452C74.9379 177.713 75.3719 178.082 75.6985 178.558L74.8725 179.272C74.6019 178.917 74.2752 178.628 73.8925 178.404C73.5099 178.18 73.0152 178.068 72.4085 178.068C71.7459 178.068 71.2372 178.208 70.8825 178.488C70.5279 178.768 70.3505 179.188 70.3505 179.748C70.3505 180.187 70.4812 180.546 70.7425 180.826C71.0132 181.097 71.4939 181.293 72.1845 181.414L73.2345 181.596C73.7105 181.68 74.1119 181.806 74.4385 181.974C74.7652 182.142 75.0265 182.343 75.2225 182.576C75.4279 182.809 75.5725 183.071 75.6565 183.36C75.7405 183.649 75.7825 183.953 75.7825 184.27C75.7825 185.175 75.4839 185.885 74.8865 186.398C74.2985 186.911 73.4585 187.168 72.3665 187.168ZM83.9111 187.168C82.7164 187.168 81.8251 186.734 81.2371 185.866C80.6584 184.998 80.3691 183.747 80.3691 182.114C80.3691 180.481 80.6584 179.23 81.2371 178.362C81.8251 177.494 82.7164 177.06 83.9111 177.06C84.3591 177.06 84.7464 177.121 85.0731 177.242C85.3997 177.363 85.6797 177.527 85.9131 177.732C86.1464 177.937 86.3424 178.171 86.5011 178.432C86.6597 178.684 86.7997 178.941 86.9211 179.202L85.9131 179.664C85.8291 179.449 85.7311 179.249 85.6191 179.062C85.5071 178.866 85.3717 178.698 85.2131 178.558C85.0637 178.409 84.8817 178.292 84.6671 178.208C84.4617 178.124 84.2097 178.082 83.9111 178.082C83.1364 178.082 82.5577 178.376 82.1751 178.964C81.8017 179.552 81.6151 180.336 81.6151 181.316V182.912C81.6151 183.892 81.8017 184.676 82.1751 185.264C82.5577 185.852 83.1364 186.146 83.9111 186.146C84.2097 186.146 84.4617 186.104 84.6671 186.02C84.8817 185.936 85.0637 185.824 85.2131 185.684C85.3717 185.535 85.5071 185.367 85.6191 185.18C85.7311 184.984 85.8291 184.779 85.9131 184.564L86.9211 185.026C86.7997 185.297 86.6597 185.558 86.5011 185.81C86.3424 186.062 86.1464 186.291 85.9131 186.496C85.6797 186.701 85.3997 186.865 85.0731 186.986C84.7464 187.107 84.3591 187.168 83.9111 187.168ZM94.7836 187.168C94.2796 187.168 93.8223 187.079 93.4116 186.902C93.0103 186.725 92.6649 186.473 92.3756 186.146C92.0956 185.81 91.8809 185.413 91.7316 184.956C91.5823 184.489 91.5076 183.967 91.5076 183.388C91.5076 182.819 91.5823 182.301 91.7316 181.834C91.8809 181.367 92.0956 180.971 92.3756 180.644C92.6649 180.308 93.0103 180.051 93.4116 179.874C93.8223 179.697 94.2796 179.608 94.7836 179.608C95.2876 179.608 95.7403 179.697 96.1416 179.874C96.5523 180.051 96.8976 180.308 97.1776 180.644C97.4669 180.971 97.6863 181.367 97.8356 181.834C97.9849 182.301 98.0596 182.819 98.0596 183.388C98.0596 183.967 97.9849 184.489 97.8356 184.956C97.6863 185.413 97.4669 185.81 97.1776 186.146C96.8976 186.473 96.5523 186.725 96.1416 186.902C95.7403 187.079 95.2876 187.168 94.7836 187.168ZM94.7836 186.202C95.4089 186.202 95.9129 186.015 96.2956 185.642C96.6783 185.269 96.8696 184.69 96.8696 183.906V182.87C96.8696 182.086 96.6783 181.507 96.2956 181.134C95.9129 180.761 95.4089 180.574 94.7836 180.574C94.1583 180.574 93.6543 180.761 93.2716 181.134C92.8889 181.507 92.6976 182.086 92.6976 182.87V183.906C92.6976 184.69 92.8889 185.269 93.2716 185.642C93.6543 186.015 94.1583 186.202 94.7836 186.202ZM107.728 185.824H107.672C107.205 186.72 106.463 187.168 105.446 187.168C104.559 187.168 103.864 186.837 103.36 186.174C102.865 185.511 102.618 184.583 102.618 183.388C102.618 182.193 102.865 181.265 103.36 180.602C103.864 179.939 104.559 179.608 105.446 179.608C106.463 179.608 107.205 180.056 107.672 180.952H107.728V176.64H108.848V187H107.728V185.824ZM105.88 186.174C106.132 186.174 106.37 186.141 106.594 186.076C106.818 186.011 107.014 185.917 107.182 185.796C107.35 185.665 107.481 185.511 107.574 185.334C107.677 185.147 107.728 184.933 107.728 184.69V182.086C107.728 181.843 107.677 181.633 107.574 181.456C107.481 181.269 107.35 181.115 107.182 180.994C107.014 180.863 106.818 180.765 106.594 180.7C106.37 180.635 106.132 180.602 105.88 180.602C105.227 180.602 104.718 180.803 104.354 181.204C103.999 181.596 103.822 182.119 103.822 182.772V184.004C103.822 184.657 103.999 185.185 104.354 185.586C104.718 185.978 105.227 186.174 105.88 186.174ZM117.299 187.168C116.776 187.168 116.305 187.079 115.885 186.902C115.474 186.725 115.119 186.473 114.821 186.146C114.531 185.81 114.307 185.413 114.149 184.956C113.99 184.489 113.911 183.971 113.911 183.402C113.911 182.823 113.99 182.301 114.149 181.834C114.317 181.367 114.545 180.971 114.835 180.644C115.124 180.308 115.469 180.051 115.871 179.874C116.281 179.697 116.734 179.608 117.229 179.608C117.714 179.608 118.153 179.697 118.545 179.874C118.946 180.051 119.287 180.299 119.567 180.616C119.847 180.924 120.061 181.293 120.211 181.722C120.36 182.151 120.435 182.623 120.435 183.136V183.668H115.087V184.004C115.087 184.321 115.138 184.615 115.241 184.886C115.343 185.157 115.488 185.39 115.675 185.586C115.871 185.782 116.104 185.936 116.375 186.048C116.655 186.151 116.963 186.202 117.299 186.202C117.784 186.202 118.204 186.09 118.559 185.866C118.913 185.642 119.184 185.334 119.371 184.942L120.197 185.502C119.982 185.987 119.623 186.389 119.119 186.706C118.624 187.014 118.017 187.168 117.299 187.168ZM117.229 180.532C116.921 180.532 116.636 180.588 116.375 180.7C116.113 180.812 115.885 180.966 115.689 181.162C115.502 181.358 115.353 181.591 115.241 181.862C115.138 182.123 115.087 182.413 115.087 182.73V182.828H119.231V182.674C119.231 182.357 119.179 182.067 119.077 181.806C118.983 181.545 118.848 181.321 118.671 181.134C118.503 180.938 118.293 180.789 118.041 180.686C117.798 180.583 117.527 180.532 117.229 180.532Z" fill="black"/>
<rect x="0.5" y="0.5" width="459" height="496" rx="14.5" stroke="#FA7FC1"/>
<line y1="40.3199" x2="460" y2="40.3199" stroke="#FA7FC1"/>
<ellipse cx="21" cy="21.1633" rx="4" ry="4.16327" fill="#3E86BA"/>
<ellipse cx="49" cy="21.1633" rx="4" ry="4.16327" fill="#3E86BA"/>
<ellipse cx="35" cy="21.1633" rx="4" ry="4.16327" fill="#3E86BA"/>
<path d="M153.8 28.5V14.54H158.88C160.173 14.54 161.16 14.8933 161.84 15.6C162.52 16.3067 162.86 17.2933 162.86 18.56C162.86 19.8267 162.52 20.8133 161.84 21.52C161.16 22.2267 160.173 22.58 158.88 22.58H155.48V28.5H153.8ZM155.48 21.12H158.84C159.547 21.12 160.093 20.9467 160.48 20.6C160.88 20.24 161.08 19.7333 161.08 19.08V18.04C161.08 17.3867 160.88 16.8867 160.48 16.54C160.093 16.18 159.547 16 158.84 16H155.48V21.12ZM169.532 27.14H172.552V19.54H169.532V18.18H174.152V20.78H174.252C174.466 19.9667 174.866 19.3333 175.452 18.88C176.052 18.4133 176.812 18.18 177.732 18.18H179.172V19.78H177.232C176.312 19.78 175.566 20.0467 174.992 20.58C174.432 21.1133 174.152 21.8133 174.152 22.68V27.14H178.152V28.5H169.532V27.14ZM189.984 28.74C189.264 28.74 188.611 28.6133 188.024 28.36C187.451 28.1067 186.958 27.7467 186.544 27.28C186.144 26.8 185.838 26.2333 185.624 25.58C185.411 24.9133 185.304 24.1667 185.304 23.34C185.304 22.5267 185.411 21.7867 185.624 21.12C185.838 20.4533 186.144 19.8867 186.544 19.42C186.958 18.94 187.451 18.5733 188.024 18.32C188.611 18.0667 189.264 17.94 189.984 17.94C190.704 17.94 191.351 18.0667 191.924 18.32C192.511 18.5733 193.004 18.94 193.404 19.42C193.818 19.8867 194.131 20.4533 194.344 21.12C194.558 21.7867 194.664 22.5267 194.664 23.34C194.664 24.1667 194.558 24.9133 194.344 25.58C194.131 26.2333 193.818 26.8 193.404 27.28C193.004 27.7467 192.511 28.1067 191.924 28.36C191.351 28.6133 190.704 28.74 189.984 28.74ZM189.984 27.36C190.878 27.36 191.598 27.0933 192.144 26.56C192.691 26.0267 192.964 25.2 192.964 24.08V22.6C192.964 21.48 192.691 20.6533 192.144 20.12C191.598 19.5867 190.878 19.32 189.984 19.32C189.091 19.32 188.371 19.5867 187.824 20.12C187.278 20.6533 187.004 21.48 187.004 22.6V24.08C187.004 25.2 187.278 26.0267 187.824 26.56C188.371 27.0933 189.091 27.36 189.984 27.36ZM211.197 29.68C211.197 30.72 210.763 31.4867 209.897 31.98C209.03 32.4867 207.73 32.74 205.997 32.74C204.33 32.74 203.13 32.52 202.397 32.08C201.677 31.64 201.317 31.0067 201.317 30.18C201.317 29.62 201.463 29.1867 201.757 28.88C202.05 28.5733 202.463 28.3467 202.997 28.2V27.96C202.703 27.8133 202.477 27.6267 202.317 27.4C202.157 27.1733 202.077 26.8867 202.077 26.54C202.077 26.0067 202.25 25.6067 202.597 25.34C202.957 25.0733 203.403 24.8733 203.937 24.74V24.66C203.297 24.38 202.797 23.9667 202.437 23.42C202.09 22.8733 201.917 22.2333 201.917 21.5C201.917 20.98 202.01 20.5 202.197 20.06C202.383 19.62 202.65 19.2467 202.997 18.94C203.357 18.62 203.783 18.3733 204.277 18.2C204.77 18.0267 205.317 17.94 205.917 17.94C206.69 17.94 207.37 18.08 207.957 18.36V18.18C207.957 17.78 208.05 17.4467 208.237 17.18C208.423 16.9133 208.743 16.78 209.197 16.78H211.097V18.18H208.777V18.88C209.15 19.2 209.437 19.58 209.637 20.02C209.837 20.46 209.937 20.9533 209.937 21.5C209.937 22.02 209.837 22.5 209.637 22.94C209.45 23.38 209.183 23.76 208.837 24.08C208.49 24.3867 208.063 24.6267 207.557 24.8C207.063 24.9733 206.517 25.06 205.917 25.06C205.743 25.06 205.577 25.0533 205.417 25.04C205.257 25.0267 205.097 25.0067 204.937 24.98C204.777 25.0067 204.61 25.0533 204.437 25.12C204.263 25.1733 204.103 25.2533 203.957 25.36C203.81 25.4533 203.69 25.5667 203.597 25.7C203.503 25.8333 203.457 25.9867 203.457 26.16C203.457 26.4667 203.61 26.6733 203.917 26.78C204.223 26.8733 204.623 26.92 205.117 26.92H207.397C208.73 26.92 209.697 27.1733 210.297 27.68C210.897 28.1733 211.197 28.84 211.197 29.68ZM209.697 29.76C209.697 29.3467 209.53 29.0133 209.197 28.76C208.863 28.52 208.283 28.4 207.457 28.4H203.877C203.183 28.68 202.837 29.1467 202.837 29.8C202.837 30.2533 203.017 30.64 203.377 30.96C203.737 31.2933 204.337 31.46 205.177 31.46H206.737C207.67 31.46 208.397 31.3133 208.917 31.02C209.437 30.74 209.697 30.32 209.697 29.76ZM205.917 23.82C206.717 23.82 207.303 23.6333 207.677 23.26C208.063 22.8867 208.257 22.3933 208.257 21.78V21.2C208.257 20.5867 208.063 20.1 207.677 19.74C207.303 19.3667 206.717 19.18 205.917 19.18C205.117 19.18 204.53 19.3667 204.157 19.74C203.783 20.1 203.597 20.5867 203.597 21.2V21.78C203.597 22.3933 203.783 22.8867 204.157 23.26C204.53 23.6333 205.117 23.82 205.917 23.82ZM217.509 27.14H220.529V19.54H217.509V18.18H222.129V20.78H222.229C222.442 19.9667 222.842 19.3333 223.429 18.88C224.029 18.4133 224.789 18.18 225.709 18.18H227.149V19.78H225.209C224.289 19.78 223.542 20.0467 222.969 20.58C222.409 21.1133 222.129 21.8133 222.129 22.68V27.14H226.129V28.5H217.509V27.14ZM241.861 28.5C241.234 28.5 240.788 28.34 240.521 28.02C240.254 27.7 240.088 27.3 240.021 26.82H239.921C239.694 27.42 239.328 27.8933 238.821 28.24C238.328 28.5733 237.661 28.74 236.821 28.74C235.741 28.74 234.881 28.46 234.241 27.9C233.601 27.34 233.281 26.5733 233.281 25.6C233.281 24.64 233.628 23.9 234.321 23.38C235.028 22.86 236.161 22.6 237.721 22.6H239.921V21.58C239.921 20.82 239.708 20.2533 239.281 19.88C238.854 19.4933 238.248 19.3 237.461 19.3C236.768 19.3 236.201 19.44 235.761 19.72C235.321 19.9867 234.968 20.3533 234.701 20.82L233.621 20.02C233.754 19.7533 233.934 19.4933 234.161 19.24C234.388 18.9867 234.668 18.7667 235.001 18.58C235.334 18.38 235.714 18.2267 236.141 18.12C236.568 18 237.041 17.94 237.561 17.94C238.774 17.94 239.734 18.2467 240.441 18.86C241.161 19.4733 241.521 20.3267 241.521 21.42V27.1H242.961V28.5H241.861ZM237.101 27.4C237.514 27.4 237.888 27.3533 238.221 27.26C238.568 27.1533 238.868 27.02 239.121 26.86C239.374 26.6867 239.568 26.4867 239.701 26.26C239.848 26.02 239.921 25.7667 239.921 25.5V23.8H237.721C236.761 23.8 236.061 23.9333 235.621 24.2C235.181 24.4667 234.961 24.8533 234.961 25.36V25.78C234.961 26.3133 235.148 26.72 235.521 27C235.908 27.2667 236.434 27.4 237.101 27.4ZM249.033 28.5V18.18H250.513V19.38H250.593C250.753 18.98 250.98 18.64 251.273 18.36C251.566 18.08 252 17.94 252.573 17.94C253.173 17.94 253.62 18.0933 253.913 18.4C254.206 18.6933 254.386 19.08 254.453 19.56H254.513C254.7 19.0933 254.966 18.7067 255.313 18.4C255.66 18.0933 256.14 17.94 256.753 17.94C257.593 17.94 258.153 18.2333 258.433 18.82C258.726 19.4067 258.873 20.2467 258.873 21.34V28.5H257.393V21.6C257.393 20.72 257.3 20.1133 257.113 19.78C256.94 19.4333 256.613 19.26 256.133 19.26C255.706 19.26 255.36 19.4 255.093 19.68C254.826 19.9467 254.693 20.36 254.693 20.92V28.5H253.213V21.6C253.213 20.72 253.12 20.1133 252.933 19.78C252.76 19.4333 252.44 19.26 251.973 19.26C251.546 19.26 251.193 19.4 250.913 19.68C250.646 19.9467 250.513 20.36 250.513 20.92V28.5H249.033ZM265.025 28.5V18.18H266.505V19.38H266.585C266.745 18.98 266.972 18.64 267.265 18.36C267.559 18.08 267.992 17.94 268.565 17.94C269.165 17.94 269.612 18.0933 269.905 18.4C270.199 18.6933 270.379 19.08 270.445 19.56H270.505C270.692 19.0933 270.959 18.7067 271.305 18.4C271.652 18.0933 272.132 17.94 272.745 17.94C273.585 17.94 274.145 18.2333 274.425 18.82C274.719 19.4067 274.865 20.2467 274.865 21.34V28.5H273.385V21.6C273.385 20.72 273.292 20.1133 273.105 19.78C272.932 19.4333 272.605 19.26 272.125 19.26C271.699 19.26 271.352 19.4 271.085 19.68C270.819 19.9467 270.685 20.36 270.685 20.92V28.5H269.205V21.6C269.205 20.72 269.112 20.1133 268.925 19.78C268.752 19.4333 268.432 19.26 267.965 19.26C267.539 19.26 267.185 19.4 266.905 19.68C266.639 19.9467 266.505 20.36 266.505 20.92V28.5H265.025ZM286.118 28.74C285.371 28.74 284.698 28.6133 284.098 28.36C283.511 28.1067 283.004 27.7467 282.577 27.28C282.164 26.8 281.844 26.2333 281.618 25.58C281.391 24.9133 281.278 24.1733 281.278 23.36C281.278 22.5333 281.391 21.7867 281.618 21.12C281.858 20.4533 282.184 19.8867 282.598 19.42C283.011 18.94 283.504 18.5733 284.078 18.32C284.664 18.0667 285.311 17.94 286.018 17.94C286.711 17.94 287.338 18.0667 287.898 18.32C288.471 18.5733 288.958 18.9267 289.358 19.38C289.758 19.82 290.064 20.3467 290.278 20.96C290.491 21.5733 290.598 22.2467 290.598 22.98V23.74H282.958V24.22C282.958 24.6733 283.031 25.0933 283.178 25.48C283.324 25.8667 283.531 26.2 283.798 26.48C284.078 26.76 284.411 26.98 284.798 27.14C285.198 27.2867 285.638 27.36 286.118 27.36C286.811 27.36 287.411 27.2 287.918 26.88C288.424 26.56 288.811 26.12 289.078 25.56L290.258 26.36C289.951 27.0533 289.438 27.6267 288.718 28.08C288.011 28.52 287.144 28.74 286.118 28.74ZM286.018 19.26C285.578 19.26 285.171 19.34 284.798 19.5C284.424 19.66 284.098 19.88 283.818 20.16C283.551 20.44 283.338 20.7733 283.178 21.16C283.031 21.5333 282.958 21.9467 282.958 22.4V22.54H288.878V22.32C288.878 21.8667 288.804 21.4533 288.658 21.08C288.524 20.7067 288.331 20.3867 288.078 20.12C287.838 19.84 287.538 19.6267 287.178 19.48C286.831 19.3333 286.444 19.26 286.018 19.26ZM297.47 27.14H300.49V19.54H297.47V18.18H302.09V20.78H302.19C302.403 19.9667 302.803 19.3333 303.39 18.88C303.99 18.4133 304.75 18.18 305.67 18.18H307.11V19.78H305.17C304.25 19.78 303.503 20.0467 302.93 20.58C302.37 21.1133 302.09 21.8133 302.09 22.68V27.14H306.09V28.5H297.47V27.14Z" fill="black"/>
<rect x="180.5" y="211.5" width="99" height="99" rx="9.5" stroke="#90C58B"/>
<path d="M248.412 273.353C247.654 273.353 247.039 272.738 247.039 271.98V262.373C247.039 261.615 247.654 261 248.412 261C249.17 261 249.784 261.615 249.784 262.373V271.98C249.784 272.738 249.17 273.353 248.412 273.353Z" fill="#3E86BA"/>
<path d="M252.529 267.863C252.178 267.863 251.827 267.729 251.559 267.461L248.412 264.314L245.265 267.461C244.729 267.997 243.86 267.997 243.323 267.461C242.787 266.925 242.787 266.056 243.323 265.52L247.441 261.402C247.977 260.866 248.846 260.866 249.382 261.402L253.5 265.52C254.036 266.056 254.036 266.925 253.5 267.461C253.232 267.729 252.881 267.863 252.529 267.863Z" fill="#3E86BA"/>
<path d="M248.412 287.765H208.608C207.85 287.765 207.235 287.15 207.235 286.392V227.373C207.235 226.614 207.85 226 208.608 226H238.804C239.168 226 239.517 226.145 239.774 226.402L249.382 236.01C249.64 236.267 249.784 236.616 249.784 236.98V256.196C249.784 256.954 249.17 257.569 248.412 257.569C247.654 257.569 247.039 256.954 247.039 256.196V237.549L238.235 228.745H209.98V285.02H247.039V278.157C247.039 277.399 247.654 276.784 248.412 276.784C249.17 276.784 249.784 277.399 249.784 278.157V286.392C249.784 287.15 249.17 287.765 248.412 287.765Z" fill="#3E86BA"/>
<path d="M238.804 296H200.373C199.614 296 199 295.385 199 294.627V238.353C199 237.595 199.614 236.98 200.373 236.98H208.608C209.366 236.98 209.98 237.595 209.98 238.353C209.98 239.111 209.366 239.725 208.608 239.725H201.745V293.255H237.431V286.392C237.431 285.634 238.046 285.02 238.804 285.02C239.562 285.02 240.176 285.634 240.176 286.392V294.627C240.176 295.385 239.562 296 238.804 296ZM248.412 238.353H238.804C238.046 238.353 237.431 237.738 237.431 236.98V227.373C237.431 226.614 238.046 226 238.804 226C239.562 226 240.176 226.614 240.176 227.373V235.608H248.412C249.17 235.608 249.784 236.222 249.784 236.98C249.784 237.738 249.17 238.353 248.412 238.353ZM248.412 279.529C241.6 279.529 236.059 273.988 236.059 267.176C236.059 260.365 241.6 254.824 248.412 254.824C255.223 254.824 260.765 260.365 260.765 267.176C260.765 273.988 255.223 279.529 248.412 279.529ZM248.412 257.569C243.114 257.569 238.804 261.879 238.804 267.176C238.804 272.474 243.114 276.784 248.412 276.784C253.71 276.784 258.02 272.474 258.02 267.176C258.02 261.879 253.71 257.569 248.412 257.569ZM231.941 238.353H215.471C214.713 238.353 214.098 237.738 214.098 236.98C214.098 236.222 214.713 235.608 215.471 235.608H231.941C232.699 235.608 233.314 236.222 233.314 236.98C233.314 237.738 232.699 238.353 231.941 238.353Z" fill="#3E86BA"/>
<path d="M241.549 245.216H215.471C214.713 245.216 214.098 244.601 214.098 243.843C214.098 243.085 214.713 242.471 215.471 242.471H241.549C242.307 242.471 242.922 243.085 242.922 243.843C242.922 244.601 242.307 245.216 241.549 245.216ZM241.549 252.078H215.471C214.713 252.078 214.098 251.464 214.098 250.706C214.098 249.948 214.713 249.333 215.471 249.333H241.549C242.307 249.333 242.922 249.948 242.922 250.706C242.922 251.464 242.307 252.078 241.549 252.078ZM233.314 258.941H215.471C214.713 258.941 214.098 258.327 214.098 257.569C214.098 256.811 214.713 256.196 215.471 256.196H233.314C234.072 256.196 234.686 256.811 234.686 257.569C234.686 258.327 234.072 258.941 233.314 258.941ZM230.569 265.804H215.471C214.713 265.804 214.098 265.189 214.098 264.431C214.098 263.673 214.713 263.059 215.471 263.059H230.569C231.327 263.059 231.941 263.673 231.941 264.431C231.941 265.189 231.327 265.804 230.569 265.804ZM230.569 272.667H215.471C214.713 272.667 214.098 272.052 214.098 271.294C214.098 270.536 214.713 269.922 215.471 269.922H230.569C231.327 269.922 231.941 270.536 231.941 271.294C231.941 272.052 231.327 272.667 230.569 272.667ZM233.314 279.529H215.471C214.713 279.529 214.098 278.915 214.098 278.157C214.098 277.399 214.713 276.784 215.471 276.784H233.314C234.072 276.784 234.686 277.399 234.686 278.157C234.686 278.915 234.072 279.529 233.314 279.529Z" fill="#3E86BA"/>
<path d="M182.26 327V317.228H188.42V318.25H183.436V321.54H188V322.562H183.436V327H182.26ZM196.843 318.18C196.516 318.18 196.287 318.115 196.157 317.984C196.026 317.844 195.961 317.671 195.961 317.466V317.242C195.961 317.037 196.026 316.869 196.157 316.738C196.287 316.598 196.516 316.528 196.843 316.528C197.169 316.528 197.398 316.598 197.529 316.738C197.659 316.869 197.725 317.037 197.725 317.242V317.466C197.725 317.671 197.659 317.844 197.529 317.984C197.398 318.115 197.169 318.18 196.843 318.18ZM193.679 326.048H196.283V320.728H193.679V319.776H197.403V326.048H199.839V327H193.679V326.048ZM204.509 326.048H207.029V317.592H204.509V316.64H208.149V326.048H210.669V327H204.509V326.048ZM218.91 327.168C218.387 327.168 217.916 327.079 217.496 326.902C217.085 326.725 216.73 326.473 216.432 326.146C216.142 325.81 215.918 325.413 215.76 324.956C215.601 324.489 215.522 323.971 215.522 323.402C215.522 322.823 215.601 322.301 215.76 321.834C215.928 321.367 216.156 320.971 216.446 320.644C216.735 320.308 217.08 320.051 217.482 319.874C217.892 319.697 218.345 319.608 218.84 319.608C219.325 319.608 219.764 319.697 220.156 319.874C220.557 320.051 220.898 320.299 221.178 320.616C221.458 320.924 221.672 321.293 221.822 321.722C221.971 322.151 222.046 322.623 222.046 323.136V323.668H216.698V324.004C216.698 324.321 216.749 324.615 216.852 324.886C216.954 325.157 217.099 325.39 217.286 325.586C217.482 325.782 217.715 325.936 217.986 326.048C218.266 326.151 218.574 326.202 218.91 326.202C219.395 326.202 219.815 326.09 220.17 325.866C220.524 325.642 220.795 325.334 220.982 324.942L221.808 325.502C221.593 325.987 221.234 326.389 220.73 326.706C220.235 327.014 219.628 327.168 218.91 327.168ZM218.84 320.532C218.532 320.532 218.247 320.588 217.986 320.7C217.724 320.812 217.496 320.966 217.3 321.162C217.113 321.358 216.964 321.591 216.852 321.862C216.749 322.123 216.698 322.413 216.698 322.73V322.828H220.842V322.674C220.842 322.357 220.79 322.067 220.688 321.806C220.594 321.545 220.459 321.321 220.282 321.134C220.114 320.938 219.904 320.789 219.652 320.686C219.409 320.583 219.138 320.532 218.84 320.532ZM233.506 327H226.45V325.95L231.98 318.25H226.688V317.228H233.268V318.278L227.724 325.978H233.506V327ZM241.621 318.18C241.294 318.18 241.065 318.115 240.935 317.984C240.804 317.844 240.739 317.671 240.739 317.466V317.242C240.739 317.037 240.804 316.869 240.935 316.738C241.065 316.598 241.294 316.528 241.621 316.528C241.947 316.528 242.176 316.598 242.307 316.738C242.437 316.869 242.503 317.037 242.503 317.242V317.466C242.503 317.671 242.437 317.844 242.307 317.984C242.176 318.115 241.947 318.18 241.621 318.18ZM238.457 326.048H241.061V320.728H238.457V319.776H242.181V326.048H244.617V327H238.457V326.048ZM249.287 326.048H251.807V317.592H249.287V316.64H252.927V326.048H255.447V327H249.287V326.048ZM260.482 326.048H263.002V317.592H260.482V316.64H264.122V326.048H266.642V327H260.482V326.048ZM277.486 327C277.048 327 276.735 326.888 276.548 326.664C276.362 326.44 276.245 326.16 276.198 325.824H276.128C275.97 326.244 275.713 326.575 275.358 326.818C275.013 327.051 274.546 327.168 273.958 327.168C273.202 327.168 272.6 326.972 272.152 326.58C271.704 326.188 271.48 325.651 271.48 324.97C271.48 324.298 271.723 323.78 272.208 323.416C272.703 323.052 273.496 322.87 274.588 322.87H276.128V322.156C276.128 321.624 275.979 321.227 275.68 320.966C275.382 320.695 274.957 320.56 274.406 320.56C273.921 320.56 273.524 320.658 273.216 320.854C272.908 321.041 272.661 321.297 272.474 321.624L271.718 321.064C271.812 320.877 271.938 320.695 272.096 320.518C272.255 320.341 272.451 320.187 272.684 320.056C272.918 319.916 273.184 319.809 273.482 319.734C273.781 319.65 274.112 319.608 274.476 319.608C275.326 319.608 275.998 319.823 276.492 320.252C276.996 320.681 277.248 321.279 277.248 322.044V326.02H278.256V327H277.486ZM274.154 326.23C274.444 326.23 274.705 326.197 274.938 326.132C275.181 326.057 275.391 325.964 275.568 325.852C275.746 325.731 275.881 325.591 275.974 325.432C276.077 325.264 276.128 325.087 276.128 324.9V323.71H274.588C273.916 323.71 273.426 323.803 273.118 323.99C272.81 324.177 272.656 324.447 272.656 324.802V325.096C272.656 325.469 272.787 325.754 273.048 325.95C273.319 326.137 273.688 326.23 274.154 326.23Z" fill="black"/>
<rect x="40.5" y="351.5" width="99" height="99" rx="9.5" stroke="#90C58B"/>
<path d="M25.26 467V457.228H28.816C29.7213 457.228 30.412 457.475 30.888 457.97C31.364 458.465 31.602 459.155 31.602 460.042C31.602 460.929 31.364 461.619 30.888 462.114C30.412 462.609 29.7213 462.856 28.816 462.856H26.436V467H25.26ZM26.436 461.834H28.788C29.2827 461.834 29.6653 461.713 29.936 461.47C30.216 461.218 30.356 460.863 30.356 460.406V459.678C30.356 459.221 30.216 458.871 29.936 458.628C29.6653 458.376 29.2827 458.25 28.788 458.25H26.436V461.834ZM36.2725 466.048H38.3865V460.728H36.2725V459.776H39.5065V461.596H39.5765C39.7259 461.027 40.0059 460.583 40.4165 460.266C40.8365 459.939 41.3685 459.776 42.0125 459.776H43.0205V460.896H41.6625C41.0185 460.896 40.4959 461.083 40.0945 461.456C39.7025 461.829 39.5065 462.319 39.5065 462.926V466.048H42.3065V467H36.2725V466.048ZM50.7151 467.168C50.1924 467.168 49.7211 467.079 49.3011 466.902C48.8904 466.725 48.5357 466.473 48.2371 466.146C47.9477 465.81 47.7237 465.413 47.5651 464.956C47.4064 464.489 47.3271 463.971 47.3271 463.402C47.3271 462.823 47.4064 462.301 47.5651 461.834C47.7331 461.367 47.9617 460.971 48.2511 460.644C48.5404 460.308 48.8857 460.051 49.2871 459.874C49.6977 459.697 50.1504 459.608 50.6451 459.608C51.1304 459.608 51.5691 459.697 51.9611 459.874C52.3624 460.051 52.7031 460.299 52.9831 460.616C53.2631 460.924 53.4777 461.293 53.6271 461.722C53.7764 462.151 53.8511 462.623 53.8511 463.136V463.668H48.5031V464.004C48.5031 464.321 48.5544 464.615 48.6571 464.886C48.7597 465.157 48.9044 465.39 49.0911 465.586C49.2871 465.782 49.5204 465.936 49.7911 466.048C50.0711 466.151 50.3791 466.202 50.7151 466.202C51.2004 466.202 51.6204 466.09 51.9751 465.866C52.3297 465.642 52.6004 465.334 52.7871 464.942L53.6131 465.502C53.3984 465.987 53.0391 466.389 52.5351 466.706C52.0404 467.014 51.4337 467.168 50.7151 467.168ZM50.6451 460.532C50.3371 460.532 50.0524 460.588 49.7911 460.7C49.5297 460.812 49.3011 460.966 49.1051 461.162C48.9184 461.358 48.7691 461.591 48.6571 461.862C48.5544 462.123 48.5031 462.413 48.5031 462.73V462.828H52.6471V462.674C52.6471 462.357 52.5957 462.067 52.4931 461.806C52.3997 461.545 52.2644 461.321 52.0871 461.134C51.9191 460.938 51.7091 460.789 51.4571 460.686C51.2144 460.583 50.9437 460.532 50.6451 460.532ZM58.3396 467V459.776H59.3756V460.616H59.4316C59.5436 460.336 59.7023 460.098 59.9076 459.902C60.1129 459.706 60.4163 459.608 60.8176 459.608C61.2376 459.608 61.5503 459.715 61.7556 459.93C61.9609 460.135 62.0869 460.406 62.1336 460.742H62.1756C62.3063 460.415 62.4929 460.145 62.7356 459.93C62.9783 459.715 63.3143 459.608 63.7436 459.608C64.3316 459.608 64.7236 459.813 64.9196 460.224C65.1249 460.635 65.2276 461.223 65.2276 461.988V467H64.1916V462.17C64.1916 461.554 64.1263 461.129 63.9956 460.896C63.8743 460.653 63.6456 460.532 63.3096 460.532C63.0109 460.532 62.7683 460.63 62.5816 460.826C62.3949 461.013 62.3016 461.302 62.3016 461.694V467H61.2656V462.17C61.2656 461.554 61.2003 461.129 61.0696 460.896C60.9483 460.653 60.7243 460.532 60.3976 460.532C60.0989 460.532 59.8516 460.63 59.6556 460.826C59.4689 461.013 59.3756 461.302 59.3756 461.694V467H58.3396ZM73.4261 458.18C73.0995 458.18 72.8708 458.115 72.7401 457.984C72.6095 457.844 72.5441 457.671 72.5441 457.466V457.242C72.5441 457.037 72.6095 456.869 72.7401 456.738C72.8708 456.598 73.0995 456.528 73.4261 456.528C73.7528 456.528 73.9815 456.598 74.1121 456.738C74.2428 456.869 74.3081 457.037 74.3081 457.242V457.466C74.3081 457.671 74.2428 457.844 74.1121 457.984C73.9815 458.115 73.7528 458.18 73.4261 458.18ZM70.2621 466.048H72.8661V460.728H70.2621V459.776H73.9861V466.048H76.4221V467H70.2621V466.048ZM84.2987 467.168C83.776 467.168 83.3047 467.079 82.8847 466.902C82.474 466.725 82.1193 466.473 81.8207 466.146C81.5313 465.81 81.3073 465.413 81.1487 464.956C80.99 464.489 80.9107 463.971 80.9107 463.402C80.9107 462.823 80.99 462.301 81.1487 461.834C81.3167 461.367 81.5453 460.971 81.8347 460.644C82.124 460.308 82.4693 460.051 82.8707 459.874C83.2813 459.697 83.734 459.608 84.2287 459.608C84.714 459.608 85.1527 459.697 85.5447 459.874C85.946 460.051 86.2867 460.299 86.5667 460.616C86.8467 460.924 87.0613 461.293 87.2107 461.722C87.36 462.151 87.4347 462.623 87.4347 463.136V463.668H82.0867V464.004C82.0867 464.321 82.138 464.615 82.2407 464.886C82.3433 465.157 82.488 465.39 82.6747 465.586C82.8707 465.782 83.104 465.936 83.3747 466.048C83.6547 466.151 83.9627 466.202 84.2987 466.202C84.784 466.202 85.204 466.09 85.5587 465.866C85.9133 465.642 86.184 465.334 86.3707 464.942L87.1967 465.502C86.982 465.987 86.6227 466.389 86.1187 466.706C85.624 467.014 85.0173 467.168 84.2987 467.168ZM84.2287 460.532C83.9207 460.532 83.636 460.588 83.3747 460.7C83.1133 460.812 82.8847 460.966 82.6887 461.162C82.502 461.358 82.3527 461.591 82.2407 461.862C82.138 462.123 82.0867 462.413 82.0867 462.73V462.828H86.2307V462.674C86.2307 462.357 86.1793 462.067 86.0767 461.806C85.9833 461.545 85.848 461.321 85.6707 461.134C85.5027 460.938 85.2927 460.789 85.0407 460.686C84.798 460.583 84.5273 460.532 84.2287 460.532ZM92.2452 466.048H94.3592V460.728H92.2452V459.776H95.4792V461.596H95.5492C95.6985 461.027 95.9785 460.583 96.3892 460.266C96.8092 459.939 97.3412 459.776 97.9852 459.776H98.9932V460.896H97.6352C96.9912 460.896 96.4685 461.083 96.0672 461.456C95.6752 461.829 95.4792 462.319 95.4792 462.926V466.048H98.2792V467H92.2452V466.048ZM106.688 467.168C106.165 467.168 105.694 467.079 105.274 466.902C104.863 466.725 104.508 466.473 104.21 466.146C103.92 465.81 103.696 465.413 103.538 464.956C103.379 464.489 103.3 463.971 103.3 463.402C103.3 462.823 103.379 462.301 103.538 461.834C103.706 461.367 103.934 460.971 104.224 460.644C104.513 460.308 104.858 460.051 105.26 459.874C105.67 459.697 106.123 459.608 106.618 459.608C107.103 459.608 107.542 459.697 107.934 459.874C108.335 460.051 108.676 460.299 108.956 460.616C109.236 460.924 109.45 461.293 109.6 461.722C109.749 462.151 109.824 462.623 109.824 463.136V463.668H104.476V464.004C104.476 464.321 104.527 464.615 104.63 464.886C104.732 465.157 104.877 465.39 105.064 465.586C105.26 465.782 105.493 465.936 105.764 466.048C106.044 466.151 106.352 466.202 106.688 466.202C107.173 466.202 107.593 466.09 107.948 465.866C108.302 465.642 108.573 465.334 108.76 464.942L109.586 465.502C109.371 465.987 109.012 466.389 108.508 466.706C108.013 467.014 107.406 467.168 106.688 467.168ZM106.618 460.532C106.31 460.532 106.025 460.588 105.764 460.7C105.502 460.812 105.274 460.966 105.078 461.162C104.891 461.358 104.742 461.591 104.63 461.862C104.527 462.123 104.476 462.413 104.476 462.73V462.828H108.62V462.674C108.62 462.357 108.568 462.067 108.466 461.806C108.372 461.545 108.237 461.321 108.06 461.134C107.892 460.938 107.682 460.789 107.43 460.686C107.187 460.583 106.916 460.532 106.618 460.532ZM126.011 467V457.228H129.567C130.472 457.228 131.163 457.475 131.639 457.97C132.115 458.465 132.353 459.155 132.353 460.042C132.353 460.929 132.115 461.619 131.639 462.114C131.163 462.609 130.472 462.856 129.567 462.856H127.187V467H126.011ZM127.187 461.834H129.539C130.033 461.834 130.416 461.713 130.687 461.47C130.967 461.218 131.107 460.863 131.107 460.406V459.678C131.107 459.221 130.967 458.871 130.687 458.628C130.416 458.376 130.033 458.25 129.539 458.25H127.187V461.834ZM137.023 466.048H139.137V460.728H137.023V459.776H140.257V461.596H140.327C140.477 461.027 140.757 460.583 141.167 460.266C141.587 459.939 142.119 459.776 142.763 459.776H143.771V460.896H142.413C141.769 460.896 141.247 461.083 140.845 461.456C140.453 461.829 140.257 462.319 140.257 462.926V466.048H143.057V467H137.023V466.048ZM151.34 467.168C150.836 467.168 150.379 467.079 149.968 466.902C149.567 466.725 149.221 466.473 148.932 466.146C148.652 465.81 148.437 465.413 148.288 464.956C148.139 464.489 148.064 463.967 148.064 463.388C148.064 462.819 148.139 462.301 148.288 461.834C148.437 461.367 148.652 460.971 148.932 460.644C149.221 460.308 149.567 460.051 149.968 459.874C150.379 459.697 150.836 459.608 151.34 459.608C151.844 459.608 152.297 459.697 152.698 459.874C153.109 460.051 153.454 460.308 153.734 460.644C154.023 460.971 154.243 461.367 154.392 461.834C154.541 462.301 154.616 462.819 154.616 463.388C154.616 463.967 154.541 464.489 154.392 464.956C154.243 465.413 154.023 465.81 153.734 466.146C153.454 466.473 153.109 466.725 152.698 466.902C152.297 467.079 151.844 467.168 151.34 467.168ZM151.34 466.202C151.965 466.202 152.469 466.015 152.852 465.642C153.235 465.269 153.426 464.69 153.426 463.906V462.87C153.426 462.086 153.235 461.507 152.852 461.134C152.469 460.761 151.965 460.574 151.34 460.574C150.715 460.574 150.211 460.761 149.828 461.134C149.445 461.507 149.254 462.086 149.254 462.87V463.906C149.254 464.69 149.445 465.269 149.828 465.642C150.211 466.015 150.715 466.202 151.34 466.202Z" fill="black"/>
<path fill-rule="evenodd" clip-rule="evenodd" d="M63 376.437V425.543L72.2627 425.557V410.07C75.4202 410.07 78.7091 410.056 81.3546 409.44C84.8339 408.622 87.289 406.96 89.4685 404.543C91.753 402.015 93.5254 398.531 93.5254 393.33C93.5254 381.306 86.0943 375.606 74.4355 376.021L63 376.437ZM72.2627 402.306L72.2758 383.952C76.1489 383.868 79.5231 383.917 81.742 385.995C83.4816 387.622 84.1249 389.395 84.0593 393.537C83.9345 401.558 78.8404 402.306 72.2627 402.306ZM98.1338 397.915L98.1535 425.952L107.403 426L107.429 401.897L107.403 400.831C110.744 397.741 112.917 396.723 117.513 396.834C117.88 396.848 117.998 396.848 117.998 396.356V389.271C118.025 388.017 117.762 387.685 116.403 387.733C112.76 387.858 111.709 388.17 109.175 390.427C108.637 390.912 107.042 392.928 107.042 392.928C107.042 390.476 106.523 388.821 105.88 388.322C105.434 387.983 105.322 388.01 104.679 388.01H103.458L98.3307 387.934C97.7662 388.031 97.7333 388.17 97.7465 388.855C97.8121 391.917 98.1338 394.071 98.1338 397.915Z" fill="#3E86BA"/>
<rect x="182.5" y="351.5" width="99" height="99" rx="9.5" stroke="#90C58B"/>
<path d="M171.734 467L170.908 464.214H167.478L166.652 467H165.434L168.43 457.228H169.984L172.98 467H171.734ZM169.256 458.474H169.13L167.758 463.192H170.628L169.256 458.474ZM177.357 466.048H179.793V460.728H177.217V459.776H179.793V458.292C179.793 457.807 179.919 457.41 180.171 457.102C180.432 456.794 180.838 456.64 181.389 456.64H183.811V457.592H180.913V459.776H183.811V460.728H180.913V466.048H183.489V467H177.357V466.048ZM191.939 467C191.388 467 190.982 466.846 190.721 466.538C190.469 466.23 190.343 465.833 190.343 465.348V460.728H187.935V459.776H189.727C189.97 459.776 190.138 459.729 190.231 459.636C190.334 459.533 190.385 459.361 190.385 459.118V457.228H191.463V459.776H194.753V460.728H191.463V466.048H194.753V467H191.939ZM202.91 467.168C202.387 467.168 201.916 467.079 201.496 466.902C201.085 466.725 200.73 466.473 200.432 466.146C200.142 465.81 199.918 465.413 199.76 464.956C199.601 464.489 199.522 463.971 199.522 463.402C199.522 462.823 199.601 462.301 199.76 461.834C199.928 461.367 200.156 460.971 200.446 460.644C200.735 460.308 201.08 460.051 201.482 459.874C201.892 459.697 202.345 459.608 202.84 459.608C203.325 459.608 203.764 459.697 204.156 459.874C204.557 460.051 204.898 460.299 205.178 460.616C205.458 460.924 205.672 461.293 205.822 461.722C205.971 462.151 206.046 462.623 206.046 463.136V463.668H200.698V464.004C200.698 464.321 200.749 464.615 200.852 464.886C200.954 465.157 201.099 465.39 201.286 465.586C201.482 465.782 201.715 465.936 201.986 466.048C202.266 466.151 202.574 466.202 202.91 466.202C203.395 466.202 203.815 466.09 204.17 465.866C204.524 465.642 204.795 465.334 204.982 464.942L205.808 465.502C205.593 465.987 205.234 466.389 204.73 466.706C204.235 467.014 203.628 467.168 202.91 467.168ZM202.84 460.532C202.532 460.532 202.247 460.588 201.986 460.7C201.724 460.812 201.496 460.966 201.3 461.162C201.113 461.358 200.964 461.591 200.852 461.862C200.749 462.123 200.698 462.413 200.698 462.73V462.828H204.842V462.674C204.842 462.357 204.79 462.067 204.688 461.806C204.594 461.545 204.459 461.321 204.282 461.134C204.114 460.938 203.904 460.789 203.652 460.686C203.409 460.583 203.138 460.532 202.84 460.532ZM210.856 466.048H212.97V460.728H210.856V459.776H214.09V461.596H214.16C214.309 461.027 214.589 460.583 215 460.266C215.42 459.939 215.952 459.776 216.596 459.776H217.604V460.896H216.246C215.602 460.896 215.079 461.083 214.678 461.456C214.286 461.829 214.09 462.319 214.09 462.926V466.048H216.89V467H210.856V466.048ZM233.427 467V457.228H239.447V458.25H234.603V461.54H239.279V462.562H234.603V465.978H239.447V467H233.427ZM244.524 466.048H246.96V460.728H244.384V459.776H246.96V458.292C246.96 457.807 247.086 457.41 247.338 457.102C247.599 456.794 248.005 456.64 248.556 456.64H250.978V457.592H248.08V459.776H250.978V460.728H248.08V466.048H250.656V467H244.524V466.048ZM255.718 466.048H258.154V460.728H255.578V459.776H258.154V458.292C258.154 457.807 258.28 457.41 258.532 457.102C258.794 456.794 259.2 456.64 259.75 456.64H262.172V457.592H259.274V459.776H262.172V460.728H259.274V466.048H261.85V467H255.718V466.048ZM270.077 467.168C269.554 467.168 269.083 467.079 268.663 466.902C268.252 466.725 267.897 466.473 267.599 466.146C267.309 465.81 267.085 465.413 266.927 464.956C266.768 464.489 266.689 463.971 266.689 463.402C266.689 462.823 266.768 462.301 266.927 461.834C267.095 461.367 267.323 460.971 267.613 460.644C267.902 460.308 268.247 460.051 268.649 459.874C269.059 459.697 269.512 459.608 270.007 459.608C270.492 459.608 270.931 459.697 271.323 459.874C271.724 460.051 272.065 460.299 272.345 460.616C272.625 460.924 272.839 461.293 272.989 461.722C273.138 462.151 273.213 462.623 273.213 463.136V463.668H267.865V464.004C267.865 464.321 267.916 464.615 268.019 464.886C268.121 465.157 268.266 465.39 268.453 465.586C268.649 465.782 268.882 465.936 269.153 466.048C269.433 466.151 269.741 466.202 270.077 466.202C270.562 466.202 270.982 466.09 271.337 465.866C271.691 465.642 271.962 465.334 272.149 464.942L272.975 465.502C272.76 465.987 272.401 466.389 271.897 466.706C271.402 467.014 270.795 467.168 270.077 467.168ZM270.007 460.532C269.699 460.532 269.414 460.588 269.153 460.7C268.891 460.812 268.663 460.966 268.467 461.162C268.28 461.358 268.131 461.591 268.019 461.862C267.916 462.123 267.865 462.413 267.865 462.73V462.828H272.009V462.674C272.009 462.357 271.957 462.067 271.855 461.806C271.761 461.545 271.626 461.321 271.449 461.134C271.281 460.938 271.071 460.789 270.819 460.686C270.576 460.583 270.305 460.532 270.007 460.532ZM281.397 467.168C280.875 467.168 280.408 467.079 279.997 466.902C279.596 466.715 279.255 466.459 278.975 466.132C278.695 465.805 278.481 465.409 278.331 464.942C278.191 464.475 278.121 463.957 278.121 463.388C278.121 462.819 278.196 462.301 278.345 461.834C278.495 461.367 278.709 460.971 278.989 460.644C279.269 460.308 279.61 460.051 280.011 459.874C280.413 459.697 280.87 459.608 281.383 459.608C282.083 459.608 282.653 459.762 283.091 460.07C283.53 460.378 283.852 460.779 284.057 461.274L283.161 461.75C283.031 461.377 282.811 461.087 282.503 460.882C282.205 460.677 281.831 460.574 281.383 460.574C281.057 460.574 280.763 460.63 280.501 460.742C280.249 460.845 280.035 460.994 279.857 461.19C279.68 461.386 279.545 461.619 279.451 461.89C279.367 462.161 279.325 462.455 279.325 462.772V464.004C279.325 464.321 279.367 464.615 279.451 464.886C279.545 465.157 279.68 465.39 279.857 465.586C280.035 465.782 280.254 465.936 280.515 466.048C280.777 466.151 281.075 466.202 281.411 466.202C281.897 466.202 282.298 466.09 282.615 465.866C282.933 465.642 283.185 465.334 283.371 464.942L284.169 465.488C283.955 465.973 283.619 466.375 283.161 466.692C282.713 467.009 282.125 467.168 281.397 467.168ZM292.69 467C292.139 467 291.733 466.846 291.472 466.538C291.22 466.23 291.094 465.833 291.094 465.348V460.728H288.686V459.776H290.478C290.721 459.776 290.889 459.729 290.982 459.636C291.085 459.533 291.136 459.361 291.136 459.118V457.228H292.214V459.776H295.504V460.728H292.214V466.048H295.504V467H292.69ZM303.618 467.168C302.862 467.168 302.209 467.042 301.658 466.79C301.117 466.529 300.655 466.183 300.272 465.754L301.028 465.096C301.374 465.46 301.752 465.74 302.162 465.936C302.573 466.132 303.068 466.23 303.646 466.23C304.206 466.23 304.664 466.132 305.018 465.936C305.382 465.731 305.564 465.413 305.564 464.984C305.564 464.797 305.527 464.643 305.452 464.522C305.387 464.391 305.294 464.289 305.172 464.214C305.051 464.139 304.916 464.083 304.766 464.046C304.617 463.999 304.458 463.962 304.29 463.934L303.156 463.766C302.904 463.729 302.629 463.677 302.33 463.612C302.041 463.547 301.775 463.444 301.532 463.304C301.29 463.155 301.084 462.959 300.916 462.716C300.758 462.473 300.678 462.156 300.678 461.764C300.678 461.4 300.748 461.087 300.888 460.826C301.038 460.555 301.243 460.331 301.504 460.154C301.766 459.967 302.074 459.832 302.428 459.748C302.783 459.655 303.17 459.608 303.59 459.608C304.244 459.608 304.808 459.711 305.284 459.916C305.77 460.121 306.185 460.406 306.53 460.77L305.802 461.456C305.718 461.353 305.611 461.251 305.48 461.148C305.359 461.036 305.205 460.938 305.018 460.854C304.841 460.761 304.631 460.686 304.388 460.63C304.146 460.574 303.866 460.546 303.548 460.546C302.979 460.546 302.54 460.644 302.232 460.84C301.934 461.036 301.784 461.321 301.784 461.694C301.784 461.881 301.817 462.039 301.882 462.17C301.957 462.291 302.055 462.389 302.176 462.464C302.298 462.539 302.433 462.599 302.582 462.646C302.741 462.683 302.9 462.716 303.058 462.744L304.192 462.912C304.454 462.949 304.729 463.001 305.018 463.066C305.308 463.131 305.574 463.239 305.816 463.388C306.059 463.528 306.26 463.719 306.418 463.962C306.586 464.205 306.67 464.522 306.67 464.914C306.67 465.633 306.39 466.188 305.83 466.58C305.28 466.972 304.542 467.168 303.618 467.168Z" fill="black"/>
<path fill-rule="evenodd" clip-rule="evenodd" d="M222.762 413.087L226.302 425.288H236.244L222.125 376.185C222.099 376.096 222.033 376.034 221.895 376.034L210.213 376C209.759 376 209.746 376.246 209.786 376.712C209.93 378.403 209.851 379.348 209.517 380.669L197 425.295L206.43 425.281L209.365 413.081L222.762 413.087ZM221.068 404.242H211.388L216.083 384.476L221.068 404.242ZM247.841 409.123L266.09 409.151C267.24 407.617 267.45 404.735 267.417 402.845C267.292 395.177 262.419 387.838 253.62 387.79C238.844 387.701 236.047 407.179 241.077 418.414C242.66 421.947 245.838 424.192 249.568 425.26C251.269 425.747 253.075 425.993 254.9 426C258.512 426.014 262.183 425.103 265.132 423.35C265.178 423.323 265.256 423.323 265.263 423.268V423.049L265.256 416.702C265.256 416.415 265.046 416.25 264.731 416.353C261.001 417.524 248.366 421.262 247.782 409.479C247.775 409.39 247.756 409.123 247.841 409.123ZM256.989 402.763H247.696C247.742 397.614 250.008 394.691 253.508 394.677C256.687 394.664 258.808 396.954 258.808 402.64V402.763H256.989Z" fill="#3E86BA"/>
<rect x="320.5" y="351.5" width="99" height="99" rx="9.5" stroke="#90C58B"/>
<path d="M336.172 467.168C335.295 467.168 334.576 467.009 334.016 466.692C333.456 466.365 332.994 465.95 332.63 465.446L333.484 464.746C333.867 465.222 334.268 465.577 334.688 465.81C335.117 466.043 335.626 466.16 336.214 466.16C336.923 466.16 337.465 465.997 337.838 465.67C338.211 465.343 338.398 464.886 338.398 464.298C338.398 463.822 338.263 463.453 337.992 463.192C337.721 462.921 337.25 462.73 336.578 462.618L335.486 462.436C335.01 462.352 334.609 462.226 334.282 462.058C333.965 461.89 333.708 461.689 333.512 461.456C333.316 461.213 333.176 460.952 333.092 460.672C333.008 460.383 332.966 460.084 332.966 459.776C332.966 458.88 333.26 458.203 333.848 457.746C334.436 457.289 335.229 457.06 336.228 457.06C337.012 457.06 337.67 457.191 338.202 457.452C338.743 457.713 339.177 458.082 339.504 458.558L338.678 459.272C338.407 458.917 338.081 458.628 337.698 458.404C337.315 458.18 336.821 458.068 336.214 458.068C335.551 458.068 335.043 458.208 334.688 458.488C334.333 458.768 334.156 459.188 334.156 459.748C334.156 460.187 334.287 460.546 334.548 460.826C334.819 461.097 335.299 461.293 335.99 461.414L337.04 461.596C337.516 461.68 337.917 461.806 338.244 461.974C338.571 462.142 338.832 462.343 339.028 462.576C339.233 462.809 339.378 463.071 339.462 463.36C339.546 463.649 339.588 463.953 339.588 464.27C339.588 465.175 339.289 465.885 338.692 466.398C338.104 466.911 337.264 467.168 336.172 467.168ZM349.145 465.824H349.089C348.622 466.72 347.88 467.168 346.863 467.168C345.976 467.168 345.281 466.837 344.777 466.174C344.282 465.511 344.035 464.583 344.035 463.388C344.035 462.193 344.282 461.265 344.777 460.602C345.281 459.939 345.976 459.608 346.863 459.608C347.88 459.608 348.622 460.056 349.089 460.952H349.145V459.776H350.265V469.8H349.145V465.824ZM347.297 466.174C347.549 466.174 347.787 466.141 348.011 466.076C348.235 466.011 348.431 465.917 348.599 465.796C348.767 465.665 348.897 465.511 348.991 465.334C349.093 465.147 349.145 464.933 349.145 464.69V462.086C349.145 461.843 349.093 461.633 348.991 461.456C348.897 461.269 348.767 461.115 348.599 460.994C348.431 460.863 348.235 460.765 348.011 460.7C347.787 460.635 347.549 460.602 347.297 460.602C346.643 460.602 346.135 460.803 345.771 461.204C345.416 461.596 345.239 462.119 345.239 462.772V464.004C345.239 464.657 345.416 465.185 345.771 465.586C346.135 465.978 346.643 466.174 347.297 466.174ZM360.297 465.824H360.241C360.166 466.001 360.073 466.174 359.961 466.342C359.849 466.501 359.709 466.641 359.541 466.762C359.382 466.883 359.191 466.981 358.967 467.056C358.743 467.131 358.482 467.168 358.183 467.168C357.427 467.168 356.82 466.93 356.363 466.454C355.906 465.969 355.677 465.287 355.677 464.41V459.776H356.797V464.214C356.797 464.877 356.942 465.371 357.231 465.698C357.52 466.015 357.945 466.174 358.505 466.174C358.729 466.174 358.948 466.146 359.163 466.09C359.378 466.034 359.569 465.95 359.737 465.838C359.905 465.726 360.04 465.586 360.143 465.418C360.246 465.241 360.297 465.031 360.297 464.788V459.776H361.417V467H360.297V465.824ZM369.784 467.168C369.28 467.168 368.822 467.079 368.412 466.902C368.01 466.725 367.665 466.473 367.376 466.146C367.096 465.81 366.881 465.413 366.732 464.956C366.582 464.489 366.508 463.967 366.508 463.388C366.508 462.819 366.582 462.301 366.732 461.834C366.881 461.367 367.096 460.971 367.376 460.644C367.665 460.308 368.01 460.051 368.412 459.874C368.822 459.697 369.28 459.608 369.784 459.608C370.288 459.608 370.74 459.697 371.142 459.874C371.552 460.051 371.898 460.308 372.178 460.644C372.467 460.971 372.686 461.367 372.836 461.834C372.985 462.301 373.06 462.819 373.06 463.388C373.06 463.967 372.985 464.489 372.836 464.956C372.686 465.413 372.467 465.81 372.178 466.146C371.898 466.473 371.552 466.725 371.142 466.902C370.74 467.079 370.288 467.168 369.784 467.168ZM369.784 466.202C370.409 466.202 370.913 466.015 371.296 465.642C371.678 465.269 371.87 464.69 371.87 463.906V462.87C371.87 462.086 371.678 461.507 371.296 461.134C370.913 460.761 370.409 460.574 369.784 460.574C369.158 460.574 368.654 460.761 368.272 461.134C367.889 461.507 367.698 462.086 367.698 462.87V463.906C367.698 464.69 367.889 465.269 368.272 465.642C368.654 466.015 369.158 466.202 369.784 466.202ZM380.978 467.168C380.474 467.168 380.017 467.079 379.606 466.902C379.205 466.725 378.859 466.473 378.57 466.146C378.29 465.81 378.075 465.413 377.926 464.956C377.777 464.489 377.702 463.967 377.702 463.388C377.702 462.819 377.777 462.301 377.926 461.834C378.075 461.367 378.29 460.971 378.57 460.644C378.859 460.308 379.205 460.051 379.606 459.874C380.017 459.697 380.474 459.608 380.978 459.608C381.482 459.608 381.935 459.697 382.336 459.874C382.747 460.051 383.092 460.308 383.372 460.644C383.661 460.971 383.881 461.367 384.03 461.834C384.179 462.301 384.254 462.819 384.254 463.388C384.254 463.967 384.179 464.489 384.03 464.956C383.881 465.413 383.661 465.81 383.372 466.146C383.092 466.473 382.747 466.725 382.336 466.902C381.935 467.079 381.482 467.168 380.978 467.168ZM380.978 466.202C381.603 466.202 382.107 466.015 382.49 465.642C382.873 465.269 383.064 464.69 383.064 463.906V462.87C383.064 462.086 382.873 461.507 382.49 461.134C382.107 460.761 381.603 460.574 380.978 460.574C380.353 460.574 379.849 460.761 379.466 461.134C379.083 461.507 378.892 462.086 378.892 462.87V463.906C378.892 464.69 379.083 465.269 379.466 465.642C379.849 466.015 380.353 466.202 380.978 466.202ZM392.257 467.168C391.501 467.168 390.847 467.042 390.297 466.79C389.755 466.529 389.293 466.183 388.911 465.754L389.667 465.096C390.012 465.46 390.39 465.74 390.801 465.936C391.211 466.132 391.706 466.23 392.285 466.23C392.845 466.23 393.302 466.132 393.657 465.936C394.021 465.731 394.203 465.413 394.203 464.984C394.203 464.797 394.165 464.643 394.091 464.522C394.025 464.391 393.932 464.289 393.811 464.214C393.689 464.139 393.554 464.083 393.405 464.046C393.255 463.999 393.097 463.962 392.929 463.934L391.795 463.766C391.543 463.729 391.267 463.677 390.969 463.612C390.679 463.547 390.413 463.444 390.171 463.304C389.928 463.155 389.723 462.959 389.555 462.716C389.396 462.473 389.317 462.156 389.317 461.764C389.317 461.4 389.387 461.087 389.527 460.826C389.676 460.555 389.881 460.331 390.143 460.154C390.404 459.967 390.712 459.832 391.067 459.748C391.421 459.655 391.809 459.608 392.229 459.608C392.882 459.608 393.447 459.711 393.923 459.916C394.408 460.121 394.823 460.406 395.169 460.77L394.441 461.456C394.357 461.353 394.249 461.251 394.119 461.148C393.997 461.036 393.843 460.938 393.657 460.854C393.479 460.761 393.269 460.686 393.027 460.63C392.784 460.574 392.504 460.546 392.187 460.546C391.617 460.546 391.179 460.644 390.871 460.84C390.572 461.036 390.423 461.321 390.423 461.694C390.423 461.881 390.455 462.039 390.521 462.17C390.595 462.291 390.693 462.389 390.815 462.464C390.936 462.539 391.071 462.599 391.221 462.646C391.379 462.683 391.538 462.716 391.697 462.744L392.831 462.912C393.092 462.949 393.367 463.001 393.657 463.066C393.946 463.131 394.212 463.239 394.455 463.388C394.697 463.528 394.898 463.719 395.057 463.962C395.225 464.205 395.309 464.522 395.309 464.914C395.309 465.633 395.029 466.188 394.469 466.58C393.918 466.972 393.181 467.168 392.257 467.168ZM400.539 456.64H401.659V460.952H401.715C401.79 460.775 401.883 460.607 401.995 460.448C402.107 460.28 402.243 460.135 402.401 460.014C402.569 459.893 402.765 459.795 402.989 459.72C403.213 459.645 403.475 459.608 403.773 459.608C404.529 459.608 405.136 459.851 405.593 460.336C406.051 460.812 406.279 461.489 406.279 462.366V467H405.159V462.562C405.159 461.899 405.015 461.409 404.725 461.092C404.436 460.765 404.011 460.602 403.451 460.602C403.227 460.602 403.008 460.63 402.793 460.686C402.579 460.742 402.387 460.826 402.219 460.938C402.051 461.05 401.916 461.195 401.813 461.372C401.711 461.549 401.659 461.755 401.659 461.988V467H400.539V456.64Z" fill="black"/>
<path d="M394.5 366H345.5C339.704 366.006 335.006 370.704 335 376.5V408.239V425.5C335.006 431.296 339.704 435.994 345.5 436H394.5C395.138 435.999 395.767 435.923 396.388 435.808C396.62 435.765 396.84 435.702 397.066 435.644C397.437 435.549 397.802 435.439 398.16 435.304C398.421 435.206 398.675 435.104 398.925 434.987C399.219 434.848 399.5 434.688 399.781 434.522C400.044 434.367 400.31 434.222 400.558 434.046C400.578 434.032 400.601 434.022 400.622 434.007C400.648 433.989 400.67 433.965 400.695 433.945C400.743 433.906 400.803 433.887 400.847 433.843C400.87 433.82 400.877 433.789 400.899 433.765C403.374 431.844 404.996 428.875 405 425.5V415.246V376.5C404.994 370.704 400.296 366.006 394.5 366ZM396.512 432.169C395.859 432.371 395.184 432.5 394.5 432.5H345.5C341.636 432.495 338.505 429.364 338.5 425.5V408.964L351.669 395.794C354.064 393.409 357.936 393.409 360.331 395.794L372.248 407.71C372.254 407.717 372.256 407.726 372.263 407.733L396.654 432.125C396.607 432.14 396.56 432.154 396.512 432.169ZM401.5 425.5C401.498 427.307 400.793 428.938 399.668 430.179L375.978 406.492L379.673 402.798C382.092 400.48 385.908 400.48 388.327 402.798L401.5 415.971V425.5ZM401.5 411.021L390.802 400.323C387.044 396.57 380.956 396.57 377.198 400.323L373.504 404.018L362.805 393.32C359.045 389.567 352.955 389.567 349.195 393.32L338.5 404.015V376.5C338.505 372.636 341.636 369.505 345.5 369.5H394.5C398.364 369.505 401.495 372.636 401.5 376.5V411.021ZM375.25 380C372.35 380 370 382.35 370 385.25C370 388.15 372.35 390.5 375.25 390.5C378.148 390.497 380.497 388.148 380.5 385.25C380.5 382.35 378.15 380 375.25 380ZM375.25 387C374.284 387 373.5 386.216 373.5 385.25C373.5 384.284 374.284 383.5 375.25 383.5C376.216 383.502 376.998 384.284 377 385.25C377 386.216 376.216 387 375.25 387Z" fill="#3E86BA"/>
<rect x="320.5" y="211.5" width="99" height="99" rx="9.5" stroke="#90C58B"/>
<path fill-rule="evenodd" clip-rule="evenodd" d="M359.804 229H380.279C387.337 229 393.083 234.585 393.083 241.291C393.083 245.211 391.118 248.752 388.073 251.012C391.118 253.275 393.083 256.813 393.083 260.736C393.083 267.439 387.337 273.024 380.279 273.024C377.403 273.024 374.746 272.1 372.608 270.548V280.179C372.608 286.884 366.865 292.47 359.804 292.47C352.746 292.47 347 286.884 347 280.179C347 276.259 348.966 272.721 352.011 270.457C348.966 268.194 347 264.656 347 260.736C347 256.813 348.966 253.275 352.011 251.012C348.966 248.752 347 245.211 347 241.291C347 234.585 352.746 229 359.804 229ZM367.475 273.024H359.804C355.633 273.024 352.133 276.218 352.133 280.179C352.133 284.142 355.633 287.333 359.804 287.333C363.978 287.333 367.475 284.142 367.475 280.179V273.024ZM372.608 260.736C372.608 256.773 376.105 253.579 380.279 253.579C384.45 253.579 387.95 256.773 387.95 260.736C387.95 264.697 384.45 267.891 380.279 267.891C376.105 267.891 372.608 264.697 372.608 260.736ZM359.708 253.582C355.578 253.628 352.133 256.805 352.133 260.736C352.133 264.697 355.633 267.891 359.804 267.891H367.475V253.579H359.804L359.708 253.582ZM367.475 248.445V234.136H359.804C355.633 234.136 352.133 237.327 352.133 241.291C352.133 245.255 355.633 248.445 359.804 248.445H367.475ZM372.608 248.445H380.279C384.45 248.445 387.95 245.255 387.95 241.291C387.95 237.327 384.45 234.136 380.279 234.136H372.608V248.445Z" fill="#3E86BA"/>
<path d="M344.26 327V317.228H350.42V318.25H345.436V321.54H350V322.562H345.436V327H344.26ZM358.843 318.18C358.516 318.18 358.287 318.115 358.157 317.984C358.026 317.844 357.961 317.671 357.961 317.466V317.242C357.961 317.037 358.026 316.869 358.157 316.738C358.287 316.598 358.516 316.528 358.843 316.528C359.169 316.528 359.398 316.598 359.529 316.738C359.659 316.869 359.725 317.037 359.725 317.242V317.466C359.725 317.671 359.659 317.844 359.529 317.984C359.398 318.115 359.169 318.18 358.843 318.18ZM355.679 326.048H358.283V320.728H355.679V319.776H359.403V326.048H361.839V327H355.679V326.048ZM373.243 327.826C373.243 328.554 372.94 329.091 372.333 329.436C371.726 329.791 370.816 329.968 369.603 329.968C368.436 329.968 367.596 329.814 367.083 329.506C366.579 329.198 366.327 328.755 366.327 328.176C366.327 327.784 366.43 327.481 366.635 327.266C366.84 327.051 367.13 326.893 367.503 326.79V326.622C367.298 326.519 367.139 326.389 367.027 326.23C366.915 326.071 366.859 325.871 366.859 325.628C366.859 325.255 366.98 324.975 367.223 324.788C367.475 324.601 367.788 324.461 368.161 324.368V324.312C367.713 324.116 367.363 323.827 367.111 323.444C366.868 323.061 366.747 322.613 366.747 322.1C366.747 321.736 366.812 321.4 366.943 321.092C367.074 320.784 367.26 320.523 367.503 320.308C367.755 320.084 368.054 319.911 368.399 319.79C368.744 319.669 369.127 319.608 369.547 319.608C370.088 319.608 370.564 319.706 370.975 319.902V319.776C370.975 319.496 371.04 319.263 371.171 319.076C371.302 318.889 371.526 318.796 371.843 318.796H373.173V319.776H371.549V320.266C371.81 320.49 372.011 320.756 372.151 321.064C372.291 321.372 372.361 321.717 372.361 322.1C372.361 322.464 372.291 322.8 372.151 323.108C372.02 323.416 371.834 323.682 371.591 323.906C371.348 324.121 371.05 324.289 370.695 324.41C370.35 324.531 369.967 324.592 369.547 324.592C369.426 324.592 369.309 324.587 369.197 324.578C369.085 324.569 368.973 324.555 368.861 324.536C368.749 324.555 368.632 324.587 368.511 324.634C368.39 324.671 368.278 324.727 368.175 324.802C368.072 324.867 367.988 324.947 367.923 325.04C367.858 325.133 367.825 325.241 367.825 325.362C367.825 325.577 367.932 325.721 368.147 325.796C368.362 325.861 368.642 325.894 368.987 325.894H370.583C371.516 325.894 372.193 326.071 372.613 326.426C373.033 326.771 373.243 327.238 373.243 327.826ZM372.193 327.882C372.193 327.593 372.076 327.359 371.843 327.182C371.61 327.014 371.204 326.93 370.625 326.93H368.119C367.634 327.126 367.391 327.453 367.391 327.91C367.391 328.227 367.517 328.498 367.769 328.722C368.021 328.955 368.441 329.072 369.029 329.072H370.121C370.774 329.072 371.283 328.969 371.647 328.764C372.011 328.568 372.193 328.274 372.193 327.882ZM369.547 323.724C370.107 323.724 370.518 323.593 370.779 323.332C371.05 323.071 371.185 322.725 371.185 322.296V321.89C371.185 321.461 371.05 321.12 370.779 320.868C370.518 320.607 370.107 320.476 369.547 320.476C368.987 320.476 368.576 320.607 368.315 320.868C368.054 321.12 367.923 321.461 367.923 321.89V322.296C367.923 322.725 368.054 323.071 368.315 323.332C368.576 323.593 368.987 323.724 369.547 323.724ZM377.34 327V319.776H378.376V320.616H378.432C378.544 320.336 378.702 320.098 378.908 319.902C379.113 319.706 379.416 319.608 379.818 319.608C380.238 319.608 380.55 319.715 380.756 319.93C380.961 320.135 381.087 320.406 381.134 320.742H381.176C381.306 320.415 381.493 320.145 381.736 319.93C381.978 319.715 382.314 319.608 382.744 319.608C383.332 319.608 383.724 319.813 383.92 320.224C384.125 320.635 384.228 321.223 384.228 321.988V327H383.192V322.17C383.192 321.554 383.126 321.129 382.996 320.896C382.874 320.653 382.646 320.532 382.31 320.532C382.011 320.532 381.768 320.63 381.582 320.826C381.395 321.013 381.302 321.302 381.302 321.694V327H380.266V322.17C380.266 321.554 380.2 321.129 380.07 320.896C379.948 320.653 379.724 320.532 379.398 320.532C379.099 320.532 378.852 320.63 378.656 320.826C378.469 321.013 378.376 321.302 378.376 321.694V327H377.34ZM394.708 327C394.269 327 393.957 326.888 393.77 326.664C393.583 326.44 393.467 326.16 393.42 325.824H393.35C393.191 326.244 392.935 326.575 392.58 326.818C392.235 327.051 391.768 327.168 391.18 327.168C390.424 327.168 389.822 326.972 389.374 326.58C388.926 326.188 388.702 325.651 388.702 324.97C388.702 324.298 388.945 323.78 389.43 323.416C389.925 323.052 390.718 322.87 391.81 322.87H393.35V322.156C393.35 321.624 393.201 321.227 392.902 320.966C392.603 320.695 392.179 320.56 391.628 320.56C391.143 320.56 390.746 320.658 390.438 320.854C390.13 321.041 389.883 321.297 389.696 321.624L388.94 321.064C389.033 320.877 389.159 320.695 389.318 320.518C389.477 320.341 389.673 320.187 389.906 320.056C390.139 319.916 390.405 319.809 390.704 319.734C391.003 319.65 391.334 319.608 391.698 319.608C392.547 319.608 393.219 319.823 393.714 320.252C394.218 320.681 394.47 321.279 394.47 322.044V326.02H395.478V327H394.708ZM391.376 326.23C391.665 326.23 391.927 326.197 392.16 326.132C392.403 326.057 392.613 325.964 392.79 325.852C392.967 325.731 393.103 325.591 393.196 325.432C393.299 325.264 393.35 325.087 393.35 324.9V323.71H391.81C391.138 323.71 390.648 323.803 390.34 323.99C390.032 324.177 389.878 324.447 389.878 324.802V325.096C389.878 325.469 390.009 325.754 390.27 325.95C390.541 326.137 390.909 326.23 391.376 326.23Z" fill="black"/>
</svg>
