<svg width="32" height="30" viewBox="0 0 32 30" fill="none" xmlns="http://www.w3.org/2000/svg">
<path d="M14.5787 25.7788L14.578 25.7767L10.2301 12.589C10.23 12.5888 10.2299 12.5885 10.2298 12.5883C10.0135 11.9284 10.1505 11.2313 10.585 10.7123C11.033 10.1826 11.6989 9.92921 12.3838 10.0274C12.3839 10.0275 12.384 10.0275 12.3841 10.0275L26.1213 12.02L26.1236 12.0203C26.847 12.1241 27.4189 12.5807 27.6829 13.2702L27.6834 13.2718C27.9439 13.95 27.8236 14.6744 27.3512 15.2373L26.3746 16.4011L25.4104 17.5502L26.5595 18.5143L29.2188 20.7458L29.2232 20.7495C29.6255 21.0844 29.8714 21.554 29.9177 22.084C29.9638 22.6106 29.8052 23.1139 29.4617 23.5232L26.4865 27.0689L26.4828 27.0733C26.1479 27.4756 25.6782 27.7215 25.1483 27.7679C24.6217 27.8139 24.1184 27.6554 23.7091 27.3119L21.0498 25.0805L19.9008 24.1163L18.9366 25.2653L17.96 26.4291C17.4877 26.992 16.7997 27.2364 16.0804 27.0973C15.3555 26.9571 14.8065 26.4732 14.5787 25.7788Z" fill="#F6F5F1" stroke="#FA7FC1" stroke-width="3"/>
</svg>
